G04 start of page 6 for group -4063 idx -4063 *
G04 Title: (unknown), componentmask *
G04 Creator: pcb 20110918 *
G04 CreationDate: Sat 26 Apr 2014 09:44:01 GMT UTC *
G04 For: ksarkies *
G04 Format: Gerber/RS-274X *
G04 PCB-Dimensions: 390000 390000 *
G04 PCB-Coordinate-Origin: lower left *
%MOIN*%
%FSLAX25Y25*%
%LNTOPMASK*%
%ADD94R,0.0670X0.0670*%
%ADD93R,0.4700X0.4700*%
%ADD92C,0.0700*%
%ADD91C,0.0660*%
%ADD90C,0.0960*%
%ADD89C,0.0710*%
%ADD88C,0.0790*%
%ADD87C,0.2050*%
%ADD86C,0.0740*%
%ADD85C,0.0560*%
%ADD84C,0.0780*%
%ADD83C,0.0860*%
%ADD82C,0.0610*%
%ADD81C,0.0001*%
%ADD80C,0.1700*%
G54D80*X15000Y375000D03*
G54D81*G36*
X47200Y342800D02*Y337200D01*
X52800D01*
Y342800D01*
X47200D01*
G37*
G54D82*X43000Y341000D03*
G54D81*G36*
X347700Y374300D02*Y365700D01*
X356300D01*
Y374300D01*
X347700D01*
G37*
G54D80*X375000Y375000D03*
G54D83*X352000Y350000D03*
G54D84*X325000Y375000D03*
G54D81*G36*
X330800Y360700D02*Y353300D01*
X338200D01*
Y360700D01*
X330800D01*
G37*
G36*
X57200Y362800D02*Y357200D01*
X62800D01*
Y362800D01*
X57200D01*
G37*
G36*
Y352800D02*Y347200D01*
X62800D01*
Y352800D01*
X57200D01*
G37*
G36*
Y332800D02*Y327200D01*
X62800D01*
Y332800D01*
X57200D01*
G37*
G36*
Y342800D02*Y337200D01*
X62800D01*
Y342800D01*
X57200D01*
G37*
G54D85*X90000Y360000D03*
Y350000D03*
Y330000D03*
Y340000D03*
X50000Y370000D03*
G54D81*G36*
X57200Y372800D02*Y367200D01*
X62800D01*
Y372800D01*
X57200D01*
G37*
G54D85*X90000Y370000D03*
G54D86*X105000Y320000D03*
X115000D03*
X125000D03*
G54D81*G36*
X161100Y381400D02*Y373600D01*
X168900D01*
Y381400D01*
X161100D01*
G37*
G54D84*X175000Y377500D03*
X185000D03*
G54D81*G36*
X190800Y361200D02*Y353800D01*
X198200D01*
Y361200D01*
X190800D01*
G37*
G54D86*X154500Y357500D03*
G54D87*X365000Y330000D03*
Y240000D03*
G54D81*G36*
X231100Y378900D02*Y371100D01*
X238900D01*
Y378900D01*
X231100D01*
G37*
G54D84*X245000Y375000D03*
X255000D03*
G54D81*G36*
X301100Y378900D02*Y371100D01*
X308900D01*
Y378900D01*
X301100D01*
G37*
G54D84*X315000Y375000D03*
G54D81*G36*
X261300Y360700D02*Y353300D01*
X268700D01*
Y360700D01*
X261300D01*
G37*
G54D86*X225000Y357000D03*
G54D88*X294500D03*
G54D81*G36*
X46700Y293300D02*Y286700D01*
X53300D01*
Y293300D01*
X46700D01*
G37*
G54D89*X50000Y300000D03*
G54D81*G36*
X101300Y283700D02*Y276300D01*
X108700D01*
Y283700D01*
X101300D01*
G37*
G36*
X111300D02*Y276300D01*
X118700D01*
Y283700D01*
X111300D01*
G37*
G36*
X121300D02*Y276300D01*
X128700D01*
Y283700D01*
X121300D01*
G37*
G36*
X20200Y274800D02*Y265200D01*
X29800D01*
Y274800D01*
X20200D01*
G37*
G54D90*X15000Y260000D03*
X25000Y250000D03*
G54D81*G36*
X20200Y344800D02*Y335200D01*
X29800D01*
Y344800D01*
X20200D01*
G37*
G54D90*X15000Y330000D03*
X25000Y320000D03*
G54D81*G36*
X39950Y324050D02*Y317950D01*
X46050D01*
Y324050D01*
X39950D01*
G37*
G54D91*X35000Y80000D03*
Y70000D03*
Y60000D03*
G54D81*G36*
X11700Y83300D02*Y76700D01*
X18300D01*
Y83300D01*
X11700D01*
G37*
G54D91*X5000Y80000D03*
X15000Y90000D03*
X5000D03*
G54D80*X15000Y15000D03*
G54D81*G36*
X86700Y38300D02*Y31700D01*
X93300D01*
Y38300D01*
X86700D01*
G37*
G36*
X81950Y28050D02*Y21950D01*
X88050D01*
Y28050D01*
X81950D01*
G37*
G54D87*X175000Y30000D03*
G54D91*X90000Y45000D03*
Y55000D03*
Y65000D03*
Y75000D03*
Y85000D03*
G54D81*G36*
X161300Y93700D02*Y86300D01*
X168700D01*
Y93700D01*
X161300D01*
G37*
G54D86*X165000Y50000D03*
G54D81*G36*
X131950Y28050D02*Y21950D01*
X138050D01*
Y28050D01*
X131950D01*
G37*
G54D82*X115000Y25000D03*
G54D91*X35000Y120000D03*
Y110000D03*
Y100000D03*
Y90000D03*
X90000Y95000D03*
X60000D03*
Y85000D03*
Y75000D03*
Y65000D03*
Y55000D03*
Y45000D03*
Y35000D03*
G54D82*X65000Y25000D03*
G54D87*X365000Y125000D03*
X345000Y155000D03*
Y167500D03*
G54D81*G36*
X306100Y163900D02*Y156100D01*
X313900D01*
Y163900D01*
X306100D01*
G37*
G54D84*X320000Y160000D03*
X330000D03*
G54D86*X345000Y180000D03*
G54D80*X375000Y15000D03*
G54D87*X345000Y45000D03*
Y32000D03*
G54D84*X270000Y45000D03*
X280000D03*
G54D87*X295000D03*
Y32000D03*
G54D81*G36*
X306100Y48900D02*Y41100D01*
X313900D01*
Y48900D01*
X306100D01*
G37*
G54D84*X320000Y45000D03*
X330000D03*
G54D87*X245000D03*
G54D81*G36*
X256100Y48900D02*Y41100D01*
X263900D01*
Y48900D01*
X256100D01*
G37*
G54D86*X245000Y65000D03*
G54D81*G36*
X251300Y68700D02*Y61300D01*
X258700D01*
Y68700D01*
X251300D01*
G37*
G54D87*X245000Y32000D03*
G54D81*G36*
X301300Y68700D02*Y61300D01*
X308700D01*
Y68700D01*
X301300D01*
G37*
G54D86*X295000Y65000D03*
X345000D03*
G54D87*X245000Y155000D03*
Y167500D03*
G54D81*G36*
X256100Y163900D02*Y156100D01*
X263900D01*
Y163900D01*
X256100D01*
G37*
G54D84*X230000Y160000D03*
G54D87*X295000Y155000D03*
Y167500D03*
G54D84*X270000Y160000D03*
X280000D03*
G54D81*G36*
X301300Y183700D02*Y176300D01*
X308700D01*
Y183700D01*
X301300D01*
G37*
G36*
X251300D02*Y176300D01*
X258700D01*
Y183700D01*
X251300D01*
G37*
G54D86*X245000Y180000D03*
X295000D03*
G54D81*G36*
X46700Y238300D02*Y231700D01*
X53300D01*
Y238300D01*
X46700D01*
G37*
G54D91*X50000Y225000D03*
X15000Y100000D03*
X5000D03*
X15000Y110000D03*
X5000D03*
X15000Y120000D03*
X5000D03*
X15000Y130000D03*
X5000D03*
X15000Y140000D03*
X5000D03*
G54D81*G36*
X11500Y166000D02*Y159000D01*
X18500D01*
Y166000D01*
X11500D01*
G37*
G54D92*X15000Y152500D03*
G54D91*X110000Y140000D03*
Y130000D03*
Y190000D03*
Y180000D03*
Y170000D03*
Y160000D03*
Y150000D03*
G54D81*G36*
X31700Y153300D02*Y146700D01*
X38300D01*
Y153300D01*
X31700D01*
G37*
G54D91*X35000Y140000D03*
Y130000D03*
X90000Y105000D03*
X60000D03*
G54D81*G36*
X86700Y133300D02*Y126700D01*
X93300D01*
Y133300D01*
X86700D01*
G37*
G54D91*X90000Y140000D03*
Y150000D03*
Y160000D03*
Y170000D03*
Y180000D03*
X60000D03*
X90000Y190000D03*
X60000D03*
X90000Y200000D03*
X60000D03*
G54D81*G36*
X81950Y213050D02*Y206950D01*
X88050D01*
Y213050D01*
X81950D01*
G37*
G54D82*X65000Y210000D03*
G54D91*X60000Y170000D03*
Y160000D03*
Y150000D03*
Y140000D03*
Y130000D03*
G54D81*G36*
X206100Y163900D02*Y156100D01*
X213900D01*
Y163900D01*
X206100D01*
G37*
G54D86*X185000Y160000D03*
X175000D03*
X165000D03*
G54D84*X220000D03*
G54D81*G36*
X181300Y203700D02*Y196300D01*
X188700D01*
Y203700D01*
X181300D01*
G37*
G36*
X171300D02*Y196300D01*
X178700D01*
Y203700D01*
X171300D01*
G37*
G36*
X161300D02*Y196300D01*
X168700D01*
Y203700D01*
X161300D01*
G37*
G36*
X171300Y93700D02*Y86300D01*
X178700D01*
Y93700D01*
X171300D01*
G37*
G36*
X181300D02*Y86300D01*
X188700D01*
Y93700D01*
X181300D01*
G37*
G36*
X201300Y183700D02*Y176300D01*
X208700D01*
Y183700D01*
X201300D01*
G37*
G36*
X206100Y48900D02*Y41100D01*
X213900D01*
Y48900D01*
X206100D01*
G37*
G54D86*X175000Y50000D03*
X185000D03*
G54D84*X220000Y45000D03*
X230000D03*
G54D81*G36*
X201300Y68700D02*Y61300D01*
X208700D01*
Y68700D01*
X201300D01*
G37*
G36*
X136700Y38300D02*Y31700D01*
X143300D01*
Y38300D01*
X136700D01*
G37*
G54D91*X140000Y45000D03*
Y55000D03*
Y65000D03*
Y75000D03*
Y85000D03*
X110000D03*
X140000Y95000D03*
X110000D03*
Y75000D03*
Y65000D03*
Y55000D03*
Y45000D03*
Y35000D03*
G54D81*G36*
X136950Y203050D02*Y196950D01*
X143050D01*
Y203050D01*
X136950D01*
G37*
G54D91*X140000Y170000D03*
Y180000D03*
G54D82*X120000Y200000D03*
G54D81*G36*
X136700Y133300D02*Y126700D01*
X143300D01*
Y133300D01*
X136700D01*
G37*
G54D91*X140000Y140000D03*
Y150000D03*
Y160000D03*
Y190000D03*
G54D93*X323000Y230000D02*X327000D01*
G54D94*X334055Y201889D02*Y194400D01*
X315945Y201889D02*Y194400D01*
G54D93*X273000Y230000D02*X277000D01*
G54D94*X284055Y201889D02*Y194400D01*
X265945Y201889D02*Y194400D01*
G54D93*X223000Y230000D02*X227000D01*
G54D94*X234055Y201889D02*Y194400D01*
X215945Y201889D02*Y194400D01*
G54D81*G36*
X280000Y328000D02*Y258000D01*
X350000D01*
Y328000D01*
X280000D01*
G37*
G36*
X210000D02*Y258000D01*
X280000D01*
Y328000D01*
X210000D01*
G37*
G36*
X140000D02*Y258000D01*
X210000D01*
Y328000D01*
X140000D01*
G37*
G54D94*X305945Y340600D02*Y333111D01*
X235945Y340600D02*Y333111D01*
X254055Y340600D02*Y333111D01*
X165945Y340600D02*Y333111D01*
X184055Y340600D02*Y333111D01*
X324055Y340600D02*Y333111D01*
G54D93*X323000Y115000D02*X327000D01*
G54D94*X334055Y86889D02*Y79400D01*
X315945Y86889D02*Y79400D01*
G54D93*X273000Y115000D02*X277000D01*
X223000D02*X227000D01*
G54D94*X284055Y86889D02*Y79400D01*
X265945Y86889D02*Y79400D01*
X234055Y86889D02*Y79400D01*
X215945Y86889D02*Y79400D01*
M02*
