M48
INCH
T81C0.059
T80C0.094
T79C0.060
T78C0.124
T77C0.040
T76C0.042
T75C0.084
T74C0.030
T73C0.028
T72C0.038
%
T73
X004000Y019000
X006000Y019000
X004000Y021000
X004000Y020000
X006000Y020000
X014000Y019000
X011000Y019000
X009000Y019000
X009000Y020000
X004000Y022000
X001500Y023500
X001500Y022500
X004000Y018000
X004000Y017000
X004000Y016000
X004000Y015000
X004000Y014000
X004000Y013000
X009000Y013000
X009000Y014000
X009000Y015000
X009000Y016000
X009000Y017000
X009000Y018000
X006000Y018000
X006000Y017000
X006000Y016000
X006000Y015000
X006000Y014000
X006000Y013000
X009000Y003500
X014000Y003500
X011000Y003500
X009000Y004500
X006000Y006500
X006000Y005500
X006000Y004500
X006000Y003500
X011000Y006500
X011000Y005500
X011000Y004500
X014000Y016000
X011000Y016000
X011000Y015000
X014000Y017000
X011000Y017000
X014000Y018000
X011000Y018000
X009000Y005500
X009000Y006500
X009000Y007500
X009000Y008500
X009000Y009500
X009000Y010500
X006000Y010500
X006000Y009500
X006000Y008500
X006000Y007500
X014000Y004500
X014000Y005500
X014000Y006500
X014000Y007500
X014000Y008500
X014000Y009500
X011000Y008500
X011000Y007500
X014000Y013000
X014000Y014000
X014000Y015000
X011000Y014000
X011000Y013000
X011000Y009500
T74
X004920Y024400
X004920Y023400
X004970Y029520
X004970Y030520
X004300Y032100
X004300Y034100
X008500Y011900
X006500Y011900
X013500Y002500
X011500Y002500
X011500Y011900
X008500Y002500
X006500Y002500
X013500Y011900
T72
X002100Y019000
X002100Y020000
X002100Y021000
X016500Y020000
X033450Y035700
X001100Y020000
X001100Y021000
X015450Y035750
X010500Y028000
X010500Y032000
X011500Y028000
X012500Y028000
X011500Y032000
X012500Y032000
X026500Y035700
X019450Y035750
X022500Y035700
X029450Y035700
X002100Y017000
X001100Y017000
X002100Y018000
X001100Y018000
X002100Y015000
X001100Y015000
X002100Y016000
X001100Y016000
X001100Y019000
X017500Y005000
X018600Y005000
X020500Y006500
X018600Y009000
X024500Y006500
X025500Y006500
X029500Y006500
X034500Y018000
X030500Y006500
X034500Y006500
X030500Y018000
X029500Y018000
X025500Y018000
X020500Y018000
X024500Y018000
X016500Y005000
X018500Y020000
X017500Y020000
X018500Y016000
X017500Y016000
X016500Y016000
X017500Y009000
X016500Y009000
T77
X033500Y028500
X034700Y037000
X034700Y035000
X006000Y036000
X005000Y037000
X006000Y037000
X009000Y036000
X009000Y037000
X009000Y035000
X009000Y033000
X009000Y034000
X015500Y028500
X005000Y034000
X006000Y035000
X006000Y033000
X006000Y034000
X030500Y024000
X034500Y024000
X025500Y024000
X029500Y024000
X020500Y024000
X024500Y024000
X029500Y028500
X026500Y028500
X022500Y028500
X019500Y028500
X034500Y012500
X030500Y012500
X029500Y012500
X024500Y012500
X025500Y012500
X020500Y012500
T76
X031500Y037500
X032500Y037500
X016510Y037520
X017510Y037520
X018510Y037520
X023500Y037500
X024500Y037500
X025500Y037500
X030500Y037500
X027000Y004500
X028000Y004500
X031000Y004500
X032000Y004500
X033000Y004500
X021000Y004500
X022000Y004500
X023000Y004500
X026000Y004500
X027000Y016000
X028000Y016000
X031000Y016000
X032000Y016000
X033000Y016000
X023000Y016000
X026000Y016000
X021000Y016000
X022000Y016000
T81
X001750Y010630
X001750Y008630
T79
X001590Y026950
X002590Y027950
X002590Y025950
X002500Y034000
X002500Y032000
X001500Y033000
T75
X036500Y033000
X036500Y024000
X034500Y003200
X034500Y004500
X017500Y003000
X024500Y003200
X024500Y004500
X029500Y003200
X029500Y004500
X036500Y012500
X034500Y015500
X034500Y016750
X029500Y015500
X029500Y016750
X024500Y015500
X024500Y016750
T80
X017354Y027146
X024354Y027146
X031354Y027146
T78
X037000Y037000
X002000Y037000
X002000Y002000
X037000Y002000
M30
