G04 start of page 8 for group -4079 idx -4079 *
G04 Title: (unknown), topsilk *
G04 Creator: pcb 20110918 *
G04 CreationDate: Sat 26 Apr 2014 10:39:55 GMT UTC *
G04 For: ksarkies *
G04 Format: Gerber/RS-274X *
G04 PCB-Dimensions: 390000 390000 *
G04 PCB-Coordinate-Origin: lower left *
%MOIN*%
%FSLAX25Y25*%
%LNTOPSILK*%
%ADD113C,0.0300*%
%ADD112C,0.0100*%
%ADD111C,0.0200*%
%ADD110C,0.0060*%
%ADD109C,0.0001*%
G54D109*G36*
X139547Y247604D02*X142124D01*
X142207Y247572D01*
X142254Y247496D01*
X142303Y247257D01*
X142347Y247035D01*
X142738Y244903D01*
X142785Y244815D01*
X142868Y244757D01*
X142971Y244713D01*
X143761Y244442D01*
X144511Y244084D01*
X144517D01*
X144604Y244046D01*
X144701Y244032D01*
X144799Y244063D01*
X146572Y245282D01*
X146763Y245407D01*
X146964Y245543D01*
X147050Y245568D01*
X147132Y245532D01*
X147463Y245202D01*
X147967Y244702D01*
X148125Y244539D01*
X148624Y244041D01*
X148786Y243884D01*
X148954Y243710D01*
X148993Y243625D01*
X148971Y243536D01*
X148835Y243335D01*
X148706Y243145D01*
X147517Y241409D01*
X147485Y241317D01*
X147500Y241220D01*
X147545Y241121D01*
X148228Y239515D01*
X148265Y239424D01*
X148328Y239346D01*
X148418Y239299D01*
X150457Y238918D01*
X150681Y238875D01*
X150924Y238832D01*
X150999Y238785D01*
X151028Y238702D01*
Y236125D01*
X150999Y236036D01*
X150924Y235989D01*
X150681Y235946D01*
X150457Y235903D01*
X148478Y235534D01*
X148390Y235486D01*
X148336Y235403D01*
X148308Y235343D01*
Y235332D01*
X147593Y233559D01*
X147588Y233547D01*
X147571Y233504D01*
X147554Y233403D01*
X147582Y233309D01*
X148711Y231677D01*
X148835Y231486D01*
X148976Y231285D01*
X148995Y231199D01*
X148954Y231117D01*
X148786Y230938D01*
X148624Y230781D01*
X147306Y229463D01*
X147132Y229295D01*
X147050Y229254D01*
X146964Y229272D01*
X146763Y229414D01*
X146572Y229538D01*
X144978Y230635D01*
X144879Y230664D01*
X144782Y230645D01*
X144451Y230461D01*
X144257Y230352D01*
X143910Y230174D01*
X143825Y230168D01*
X143763Y230228D01*
X143617Y230585D01*
X143529Y230792D01*
X142146Y234150D01*
X142058Y234356D01*
X141961Y234589D01*
X141957Y234684D01*
X142010Y234757D01*
X142233Y234888D01*
X142374Y234996D01*
X142910Y235442D01*
X143325Y236006D01*
X143592Y236665D01*
X143686Y237395D01*
X143628Y237970D01*
X143463Y238504D01*
X143200Y238989D01*
X142851Y239411D01*
X142431Y239760D01*
X141947Y240024D01*
X141413Y240189D01*
X140839Y240247D01*
X140264Y240189D01*
X139729Y240024D01*
X139246Y239760D01*
X138824Y239411D01*
X138476Y238989D01*
X138214Y238504D01*
X138049Y237970D01*
X137990Y237395D01*
X138083Y236665D01*
X138350Y236006D01*
X138764Y235442D01*
X139303Y234996D01*
X139439Y234888D01*
X139661Y234757D01*
X139715Y234684D01*
X139710Y234589D01*
X139613Y234356D01*
X139525Y234150D01*
X138142Y230792D01*
X138056Y230585D01*
X137908Y230228D01*
X137847Y230168D01*
X137763Y230174D01*
X137421Y230352D01*
X137220Y230461D01*
X136889Y230645D01*
X136790Y230664D01*
X136693Y230635D01*
X135099Y229538D01*
X134914Y229414D01*
X134708Y229272D01*
X134621Y229254D01*
X134539Y229295D01*
X134365Y229463D01*
X134208Y229625D01*
X133710Y230124D01*
X133547Y230282D01*
X133047Y230781D01*
X132885Y230938D01*
X132717Y231117D01*
X132678Y231199D01*
X132700Y231285D01*
X132836Y231486D01*
X132967Y231677D01*
X134089Y233309D01*
X134117Y233403D01*
X134100Y233504D01*
X134078Y233564D01*
X133368Y235338D01*
X133335Y235403D01*
X133281Y235486D01*
X133195Y235534D01*
X131214Y235903D01*
X130992Y235946D01*
X130753Y235989D01*
X130674Y236039D01*
X130645Y236125D01*
Y238702D01*
X130674Y238785D01*
X130753Y238832D01*
X130992Y238881D01*
X131214Y238918D01*
X133254Y239299D01*
X133343Y239346D01*
X133406Y239429D01*
X133443Y239515D01*
X134132Y241121D01*
X134171Y241220D01*
X134188Y241317D01*
X134160Y241409D01*
X132967Y243150D01*
X132836Y243335D01*
X132700Y243536D01*
X132678Y243625D01*
X132717Y243710D01*
X132885Y243884D01*
X133047Y244041D01*
X134539Y245532D01*
X134621Y245568D01*
X134708Y245549D01*
X134914Y245413D01*
X135099Y245282D01*
X136872Y244063D01*
X136970Y244034D01*
X137068Y244052D01*
X137154Y244084D01*
X137165Y244089D01*
X137911Y244443D01*
X138701Y244718D01*
X138804Y244757D01*
X138888Y244815D01*
X138933Y244903D01*
X139331Y247035D01*
X139368Y247257D01*
X139417Y247496D01*
X139464Y247572D01*
X139547Y247604D01*
G37*
G54D110*X73810Y264370D02*X75810D01*
X76310Y264870D01*
Y266070D02*Y264870D01*
X75810Y266570D02*X76310Y266070D01*
X74310Y266570D02*X75810D01*
X74310Y268370D02*Y264370D01*
X73810Y268370D02*X75810D01*
X76310Y267870D01*
Y267070D01*
X75810Y266570D02*X76310Y267070D01*
X79010Y266370D02*X79510Y265870D01*
X78010Y266370D02*X79010D01*
X77510Y265870D02*X78010Y266370D01*
X77510Y265870D02*Y264870D01*
X78010Y264370D01*
X79510Y266370D02*Y264870D01*
X80010Y264370D01*
X78010D02*X79010D01*
X79510Y264870D01*
X81710Y268370D02*Y264870D01*
X82210Y264370D01*
X81210Y266870D02*X82210D01*
X83710Y268370D02*Y264870D01*
X84210Y264370D01*
X83210Y266870D02*X84210D01*
X85710Y264370D02*X87210D01*
X85210Y264870D02*X85710Y264370D01*
X85210Y265870D02*Y264870D01*
Y265870D02*X85710Y266370D01*
X86710D01*
X87210Y265870D01*
X85210Y265370D02*X87210D01*
Y265870D02*Y265370D01*
X88910Y265870D02*Y264370D01*
Y265870D02*X89410Y266370D01*
X90410D01*
X88410D02*X88910Y265870D01*
X91610Y266370D02*Y264870D01*
X92110Y264370D01*
X93610Y266370D02*Y263370D01*
X93110Y262870D02*X93610Y263370D01*
X92110Y262870D02*X93110D01*
X91610Y263370D02*X92110Y262870D01*
Y264370D02*X93110D01*
X93610Y264870D01*
X96610Y268370D02*Y264370D01*
Y268370D02*X98110Y266370D01*
X99610Y268370D01*
Y264370D01*
X102310Y266370D02*X102810Y265870D01*
X101310Y266370D02*X102310D01*
X100810Y265870D02*X101310Y266370D01*
X100810Y265870D02*Y264870D01*
X101310Y264370D01*
X102810Y266370D02*Y264870D01*
X103310Y264370D01*
X101310D02*X102310D01*
X102810Y264870D01*
X105010Y265870D02*Y264370D01*
Y265870D02*X105510Y266370D01*
X106010D01*
X106510Y265870D01*
Y264370D01*
X104510Y266370D02*X105010Y265870D01*
X109210Y266370D02*X109710Y265870D01*
X108210Y266370D02*X109210D01*
X107710Y265870D02*X108210Y266370D01*
X107710Y265870D02*Y264870D01*
X108210Y264370D01*
X109710Y266370D02*Y264870D01*
X110210Y264370D01*
X108210D02*X109210D01*
X109710Y264870D01*
X112910Y266370D02*X113410Y265870D01*
X111910Y266370D02*X112910D01*
X111410Y265870D02*X111910Y266370D01*
X111410Y265870D02*Y264870D01*
X111910Y264370D01*
X112910D01*
X113410Y264870D01*
X111410Y263370D02*X111910Y262870D01*
X112910D01*
X113410Y263370D01*
Y266370D02*Y263370D01*
X115110Y264370D02*X116610D01*
X114610Y264870D02*X115110Y264370D01*
X114610Y265870D02*Y264870D01*
Y265870D02*X115110Y266370D01*
X116110D01*
X116610Y265870D01*
X114610Y265370D02*X116610D01*
Y265870D02*Y265370D01*
X118310Y265870D02*Y264370D01*
Y265870D02*X118810Y266370D01*
X119310D01*
X119810Y265870D01*
Y264370D01*
Y265870D02*X120310Y266370D01*
X120810D01*
X121310Y265870D01*
Y264370D01*
X117810Y266370D02*X118310Y265870D01*
X123010Y264370D02*X124510D01*
X122510Y264870D02*X123010Y264370D01*
X122510Y265870D02*Y264870D01*
Y265870D02*X123010Y266370D01*
X124010D01*
X124510Y265870D01*
X122510Y265370D02*X124510D01*
Y265870D02*Y265370D01*
X126210Y265870D02*Y264370D01*
Y265870D02*X126710Y266370D01*
X127210D01*
X127710Y265870D01*
Y264370D01*
X125710Y266370D02*X126210Y265870D01*
X129410Y268370D02*Y264870D01*
X129910Y264370D01*
X128910Y266870D02*X129910D01*
X75820Y258970D02*X76320Y258470D01*
X74320Y258970D02*X75820D01*
X73820Y258470D02*X74320Y258970D01*
X73820Y258470D02*Y257470D01*
X74320Y256970D01*
X75820D01*
X76320Y256470D01*
Y255470D01*
X75820Y254970D02*X76320Y255470D01*
X74320Y254970D02*X75820D01*
X73820Y255470D02*X74320Y254970D01*
X77520Y256970D02*Y255470D01*
X78020Y254970D01*
X78520D01*
X79020Y255470D01*
Y256970D02*Y255470D01*
X79520Y254970D01*
X80020D01*
X80520Y255470D01*
Y256970D02*Y255470D01*
X81720Y257970D02*Y257870D01*
Y256470D02*Y254970D01*
X83220Y258970D02*Y255470D01*
X83720Y254970D01*
X82720Y257470D02*X83720D01*
X85220Y256970D02*X86720D01*
X84720Y256470D02*X85220Y256970D01*
X84720Y256470D02*Y255470D01*
X85220Y254970D01*
X86720D01*
X87920Y258970D02*Y254970D01*
Y256470D02*X88420Y256970D01*
X89420D01*
X89920Y256470D01*
Y254970D01*
X93420Y256470D02*Y254970D01*
Y256470D02*X93920Y256970D01*
X94920D01*
X92920D02*X93420Y256470D01*
X96620Y254970D02*X98120D01*
X96120Y255470D02*X96620Y254970D01*
X96120Y256470D02*Y255470D01*
Y256470D02*X96620Y256970D01*
X97620D01*
X98120Y256470D01*
X96120Y255970D02*X98120D01*
Y256470D02*Y255970D01*
X99320Y256970D02*X100320Y254970D01*
X101320Y256970D02*X100320Y254970D01*
X104320Y255470D02*X104820Y254970D01*
X104320Y258470D02*Y255470D01*
Y258470D02*X104820Y258970D01*
X105820D01*
X106320Y258470D01*
Y255470D01*
X105820Y254970D02*X106320Y255470D01*
X104820Y254970D02*X105820D01*
X104320Y255970D02*X106320Y257970D01*
X107520Y254970D02*X108020D01*
X109220Y255470D02*X109720Y254970D01*
X109220Y258470D02*Y255470D01*
Y258470D02*X109720Y258970D01*
X110720D01*
X111220Y258470D01*
Y255470D01*
X110720Y254970D02*X111220Y255470D01*
X109720Y254970D02*X110720D01*
X109220Y255970D02*X111220Y257970D01*
X73820Y251600D02*Y247600D01*
Y249600D02*X75820Y251600D01*
X73820Y249600D02*X75820Y247600D01*
X77020D02*X77520D01*
X80520Y251600D02*Y249600D01*
X81020Y247600D01*
X82020Y249600D01*
X83020Y247600D01*
X83520Y249600D01*
Y251600D02*Y249600D01*
X84720Y247600D02*X85220D01*
X90220Y251600D02*X90720Y251100D01*
X88720Y251600D02*X90220D01*
X88220Y251100D02*X88720Y251600D01*
X88220Y251100D02*Y250100D01*
X88720Y249600D01*
X90220D01*
X90720Y249100D01*
Y248100D01*
X90220Y247600D02*X90720Y248100D01*
X88720Y247600D02*X90220D01*
X88220Y248100D02*X88720Y247600D01*
X93420Y249600D02*X93920Y249100D01*
X92420Y249600D02*X93420D01*
X91920Y249100D02*X92420Y249600D01*
X91920Y249100D02*Y248100D01*
X92420Y247600D01*
X93920Y249600D02*Y248100D01*
X94420Y247600D01*
X92420D02*X93420D01*
X93920Y248100D01*
X96120Y249100D02*Y247600D01*
Y249100D02*X96620Y249600D01*
X97620D01*
X95620D02*X96120Y249100D01*
X98820Y251600D02*Y247600D01*
Y249100D02*X100320Y247600D01*
X98820Y249100D02*X99820Y250100D01*
X101520Y250600D02*Y250500D01*
Y249100D02*Y247600D01*
X103020D02*X104520D01*
X102520Y248100D02*X103020Y247600D01*
X102520Y249100D02*Y248100D01*
Y249100D02*X103020Y249600D01*
X104020D01*
X104520Y249100D01*
X102520Y248600D02*X104520D01*
Y249100D02*Y248600D01*
X106220Y247600D02*X107720D01*
X108220Y248100D01*
X107720Y248600D02*X108220Y248100D01*
X106220Y248600D02*X107720D01*
X105720Y249100D02*X106220Y248600D01*
X105720Y249100D02*X106220Y249600D01*
X107720D01*
X108220Y249100D01*
X105720Y248100D02*X106220Y247600D01*
X73080Y245140D02*Y241140D01*
X75080D01*
X76280Y244140D02*Y244040D01*
Y242640D02*Y241140D01*
X77780Y243140D02*X79280D01*
X77280Y242640D02*X77780Y243140D01*
X77280Y242640D02*Y241640D01*
X77780Y241140D01*
X79280D01*
X80980D02*X82480D01*
X80480Y241640D02*X80980Y241140D01*
X80480Y242640D02*Y241640D01*
Y242640D02*X80980Y243140D01*
X81980D01*
X82480Y242640D01*
X80480Y242140D02*X82480D01*
Y242640D02*Y242140D01*
X84180Y242640D02*Y241140D01*
Y242640D02*X84680Y243140D01*
X85180D01*
X85680Y242640D01*
Y241140D01*
X83680Y243140D02*X84180Y242640D01*
X87380Y243140D02*X88880D01*
X86880Y242640D02*X87380Y243140D01*
X86880Y242640D02*Y241640D01*
X87380Y241140D01*
X88880D01*
X90580D02*X92080D01*
X90080Y241640D02*X90580Y241140D01*
X90080Y242640D02*Y241640D01*
Y242640D02*X90580Y243140D01*
X91580D01*
X92080Y242640D01*
X90080Y242140D02*X92080D01*
Y242640D02*Y242140D01*
X95580Y243140D02*X97080D01*
X95080Y242640D02*X95580Y243140D01*
X95080Y242640D02*Y241640D01*
X95580Y241140D01*
X97080D01*
X98780Y243140D02*X100280D01*
X98280Y242640D02*X98780Y243140D01*
X98280Y242640D02*Y241640D01*
X98780Y241140D01*
X100280D01*
X101480Y243140D02*X103480D01*
X104680Y245140D02*Y241140D01*
Y241640D02*X105180Y241140D01*
X106180D01*
X106680Y241640D01*
Y242640D02*Y241640D01*
X106180Y243140D02*X106680Y242640D01*
X105180Y243140D02*X106180D01*
X104680Y242640D02*X105180Y243140D01*
X107880D02*Y241640D01*
X108380Y241140D01*
X109880Y243140D02*Y240140D01*
X109380Y239640D02*X109880Y240140D01*
X108380Y239640D02*X109380D01*
X107880Y240140D02*X108380Y239640D01*
Y241140D02*X109380D01*
X109880Y241640D01*
X111080Y243140D02*X113080D01*
X114780Y241140D02*X116280D01*
X116780Y241640D01*
X116280Y242140D02*X116780Y241640D01*
X114780Y242140D02*X116280D01*
X114280Y242640D02*X114780Y242140D01*
X114280Y242640D02*X114780Y243140D01*
X116280D01*
X116780Y242640D01*
X114280Y241640D02*X114780Y241140D01*
X119480Y243140D02*X119980Y242640D01*
X118480Y243140D02*X119480D01*
X117980Y242640D02*X118480Y243140D01*
X117980Y242640D02*Y241640D01*
X118480Y241140D01*
X119980Y243140D02*Y241640D01*
X120480Y241140D01*
X118480D02*X119480D01*
X119980Y241640D01*
X73670Y235490D02*Y233990D01*
X74170Y233490D01*
X74670D01*
X75170Y233990D01*
Y235490D02*Y233990D01*
X75670Y233490D01*
X76170D01*
X76670Y233990D01*
Y235490D02*Y233990D01*
X77870Y235490D02*Y233990D01*
X78370Y233490D01*
X78870D01*
X79370Y233990D01*
Y235490D02*Y233990D01*
X79870Y233490D01*
X80370D01*
X80870Y233990D01*
Y235490D02*Y233990D01*
X82070Y235490D02*Y233990D01*
X82570Y233490D01*
X83070D01*
X83570Y233990D01*
Y235490D02*Y233990D01*
X84070Y233490D01*
X84570D01*
X85070Y233990D01*
Y235490D02*Y233990D01*
X86270Y233490D02*X86770D01*
X88470Y236490D02*Y236390D01*
Y234990D02*Y232490D01*
X87970Y231990D02*X88470Y232490D01*
X89470Y236490D02*Y236390D01*
Y234990D02*Y233490D01*
X91970Y235490D02*X92470Y234990D01*
X90970Y235490D02*X91970D01*
X90470Y234990D02*X90970Y235490D01*
X90470Y234990D02*Y233990D01*
X90970Y233490D01*
X91970D01*
X92470Y233990D01*
X90470Y232490D02*X90970Y231990D01*
X91970D01*
X92470Y232490D01*
Y235490D02*Y232490D01*
X95170Y235490D02*X95670Y234990D01*
X94170Y235490D02*X95170D01*
X93670Y234990D02*X94170Y235490D01*
X93670Y234990D02*Y233990D01*
X94170Y233490D01*
X95170D01*
X95670Y233990D01*
X93670Y232490D02*X94170Y231990D01*
X95170D01*
X95670Y232490D01*
Y235490D02*Y232490D01*
X97370Y233490D02*X98870D01*
X96870Y233990D02*X97370Y233490D01*
X96870Y234990D02*Y233990D01*
Y234990D02*X97370Y235490D01*
X98370D01*
X98870Y234990D01*
X96870Y234490D02*X98870D01*
Y234990D02*Y234490D01*
X100570Y234990D02*Y233490D01*
Y234990D02*X101070Y235490D01*
X102070D01*
X100070D02*X100570Y234990D01*
X103770Y236490D02*Y236390D01*
Y234990D02*Y232490D01*
X103270Y231990D02*X103770Y232490D01*
X104770Y235490D02*Y233990D01*
X105270Y233490D01*
X106270D01*
X106770Y233990D01*
Y235490D02*Y233990D01*
X107970Y236490D02*Y236390D01*
Y234990D02*Y233490D01*
X109470Y235490D02*X110970D01*
X108970Y234990D02*X109470Y235490D01*
X108970Y234990D02*Y233990D01*
X109470Y233490D01*
X110970D01*
X112670D02*X114170D01*
X112170Y233990D02*X112670Y233490D01*
X112170Y234990D02*Y233990D01*
Y234990D02*X112670Y235490D01*
X113670D01*
X114170Y234990D01*
X112170Y234490D02*X114170D01*
Y234990D02*Y234490D01*
X115370Y233490D02*X115870D01*
X117070Y236490D02*Y236390D01*
Y234990D02*Y233490D01*
X118570Y234990D02*Y233490D01*
Y234990D02*X119070Y235490D01*
X119570D01*
X120070Y234990D01*
Y233490D01*
X118070Y235490D02*X118570Y234990D01*
X121770Y236990D02*Y233490D01*
Y236990D02*X122270Y237490D01*
X122770D01*
X121270Y235490D02*X122270D01*
X123770Y234990D02*Y233990D01*
Y234990D02*X124270Y235490D01*
X125270D01*
X125770Y234990D01*
Y233990D01*
X125270Y233490D02*X125770Y233990D01*
X124270Y233490D02*X125270D01*
X123770Y233990D02*X124270Y233490D01*
G54D111*X344000Y380000D02*X362000D01*
X344000D02*Y340000D01*
X362000D01*
Y380000D02*Y340000D01*
G54D112*X357000Y380000D02*Y340000D01*
Y367500D02*X362000D01*
X357000Y352500D02*X362000D01*
X313000Y153000D02*X327000D01*
X327071Y152929D02*G75*G03X312929Y152929I-7071J7071D01*G01*
X312200Y207200D02*X337800D01*
X329922D02*Y190472D01*
X337800D01*
Y207200D03*
X312200Y190472D02*X320079D01*
Y207200D01*
X312200Y190472D02*Y240670D01*
X337800Y190472D02*Y240670D01*
D03*
X312200D02*X337800D01*
X302200Y327800D02*X327800D01*
X310078Y344528D02*Y327800D01*
X302200Y344528D02*X310078D01*
X302200Y327800D03*
X319921Y344528D02*X327800D01*
X319921D02*Y327800D01*
X327800Y344528D02*Y294330D01*
X302200Y344528D02*Y294330D01*
D03*
X327800D01*
G54D111*X315000Y185000D02*X335000D01*
Y175000D01*
X315000D02*X335000D01*
X315000Y185000D02*Y175000D01*
X305000Y180000D02*X315000D01*
X335000D02*X345000D01*
X304500Y352000D02*X324500D01*
X304500Y362000D02*Y352000D01*
Y362000D02*X324500D01*
Y352000D01*
Y357000D02*X334500D01*
X294500D02*X304500D01*
G54D112*X168000Y370500D02*X182000D01*
X182071Y370429D02*G75*G03X167929Y370429I-7071J7071D01*G01*
X238000Y368000D02*X252000D01*
X252071Y367929D02*G75*G03X237929Y367929I-7071J7071D01*G01*
X308000Y368000D02*X322000D01*
X322071Y367929D02*G75*G03X307929Y367929I-7071J7071D01*G01*
X263000Y153000D02*X277000D01*
X277071Y152929D02*G75*G03X262929Y152929I-7071J7071D01*G01*
X262200Y207200D02*X287800D01*
X279922D02*Y190472D01*
X287800D01*
Y207200D03*
X262200Y190472D02*X270079D01*
Y207200D01*
X262200Y190472D02*Y240670D01*
X287800Y190472D02*Y240670D01*
D03*
X262200D02*X287800D01*
X212200Y207200D02*X237800D01*
X229922D02*Y190472D01*
X237800D01*
Y207200D03*
X212200Y190472D02*X220079D01*
Y207200D01*
X212200Y190472D02*Y240670D01*
X237800Y190472D02*Y240670D01*
D03*
X212200D02*X237800D01*
G54D111*X265000Y185000D02*X285000D01*
Y175000D01*
X265000D02*X285000D01*
X265000Y185000D02*Y175000D01*
X255000Y180000D02*X265000D01*
X285000D02*X295000D01*
X215000Y185000D02*X235000D01*
Y175000D01*
X215000D02*X235000D01*
X215000Y185000D02*Y175000D01*
X205000Y180000D02*X215000D01*
X235000D02*X245000D01*
X190000Y190000D02*Y170000D01*
X180000D02*X190000D01*
X180000Y190000D02*Y170000D01*
Y190000D02*X190000D01*
X185000Y200000D02*Y190000D01*
Y170000D02*Y160000D01*
X180000Y190000D02*Y170000D01*
X170000D02*X180000D01*
X170000Y190000D02*Y170000D01*
Y190000D02*X180000D01*
X175000Y200000D02*Y190000D01*
Y170000D02*Y160000D01*
X170000Y190000D02*Y170000D01*
X160000D02*X170000D01*
X160000Y190000D02*Y170000D01*
Y190000D02*X170000D01*
X165000Y200000D02*Y190000D01*
Y170000D02*Y160000D01*
G54D112*X135000Y200000D02*X140000D01*
X120000D02*X125000D01*
Y198400D02*X135000D01*
X125000Y201600D02*Y198400D01*
Y201600D02*X135000D01*
Y198400D01*
X232200Y327800D02*X257800D01*
X240078Y344528D02*Y327800D01*
X232200Y344528D02*X240078D01*
X232200Y327800D03*
X249921Y344528D02*X257800D01*
X249921D02*Y327800D01*
X257800Y344528D02*Y294330D01*
X232200Y344528D02*Y294330D01*
D03*
X257800D01*
X162200Y327800D02*X187800D01*
X170078Y344528D02*Y327800D01*
X162200Y344528D02*X170078D01*
X162200Y327800D03*
X179921Y344528D02*X187800D01*
X179921D02*Y327800D01*
X187800Y344528D02*Y294330D01*
X162200Y344528D02*Y294330D01*
D03*
X187800D01*
G54D111*X164500Y352500D02*X184500D01*
X164500Y362500D02*Y352500D01*
Y362500D02*X184500D01*
Y352500D01*
Y357500D02*X194500D01*
X154500D02*X164500D01*
X235000Y352000D02*X255000D01*
X235000Y362000D02*Y352000D01*
Y362000D02*X255000D01*
Y352000D01*
Y357000D02*X265000D01*
X225000D02*X235000D01*
G54D112*X60000Y360000D02*X70000D01*
X80000D02*X90000D01*
X70000D02*X80000Y365000D01*
Y355000D01*
X70000Y360000D01*
Y365000D02*Y355000D01*
X60000Y370000D02*X70000D01*
X80000D02*X90000D01*
X70000D02*X80000Y375000D01*
Y365000D01*
X70000Y370000D01*
Y375000D02*Y365000D01*
X60000Y350000D02*X70000D01*
X80000D02*X90000D01*
X70000D02*X80000Y355000D01*
Y345000D01*
X70000Y350000D01*
Y355000D02*Y345000D01*
X60000Y330000D02*X70000D01*
X80000D02*X90000D01*
X70000D02*X80000Y335000D01*
Y325000D01*
X70000Y330000D01*
Y335000D02*Y325000D01*
X60000Y340000D02*X70000D01*
X80000D02*X90000D01*
X70000D02*X80000Y345000D01*
Y335000D01*
X70000Y340000D01*
Y345000D02*Y335000D01*
X50000Y350000D02*Y340000D01*
Y370000D02*Y360000D01*
Y350000D02*X45000Y360000D01*
X55000D01*
X50000Y350000D01*
X45000D02*X55000D01*
X43000Y326000D02*Y321000D01*
Y341000D02*Y336000D01*
X41400D02*Y326000D01*
Y336000D02*X44600D01*
Y326000D01*
X41400D02*X44600D01*
X50000Y240000D02*G75*G03X50000Y240000I0J-10000D01*G01*
Y285000D02*G75*G03X50000Y285000I0J10000D01*G01*
G54D111*X100000Y310000D02*Y290000D01*
Y310000D02*X110000D01*
Y290000D01*
X100000D02*X110000D01*
X105000D02*Y280000D01*
Y320000D02*Y310000D01*
X110000D02*Y290000D01*
Y310000D02*X120000D01*
Y290000D01*
X110000D02*X120000D01*
X115000D02*Y280000D01*
Y320000D02*Y310000D01*
X120000D02*Y290000D01*
Y310000D02*X130000D01*
Y290000D01*
X120000D02*X130000D01*
X125000D02*Y280000D01*
Y320000D02*Y310000D01*
X37000Y280000D02*Y240000D01*
X19000D02*X37000D01*
X19000Y280000D02*Y240000D01*
Y280000D02*X37000D01*
Y240000D01*
X31000D02*X37000D01*
X31000Y280000D02*Y240000D01*
Y280000D02*X37000D01*
G54D112*X31000Y267000D02*X37000D01*
X31000Y253000D02*X37000D01*
G54D113*X15000Y260000D02*X19000D01*
G54D111*X37000Y350000D02*Y310000D01*
X19000D02*X37000D01*
X19000Y350000D02*Y310000D01*
Y350000D02*X37000D01*
Y310000D01*
X31000D02*X37000D01*
X31000Y350000D02*Y310000D01*
Y350000D02*X37000D01*
G54D112*X31000Y337000D02*X37000D01*
X31000Y323000D02*X37000D01*
G54D113*X15000Y330000D02*X19000D01*
G54D112*X80000Y210000D02*X85000D01*
X65000D02*X70000D01*
Y208400D02*X80000D01*
X70000Y211600D02*Y208400D01*
Y211600D02*X80000D01*
Y208400D01*
G54D111*X30000Y150000D02*Y60000D01*
X40000Y150000D02*Y60000D01*
G54D112*X30000Y145000D02*X40000D01*
G54D111*Y150000D02*G75*G03X30000Y150000I-5000J0D01*G01*
Y60000D02*G75*G03X40000Y60000I5000J0D01*G01*
G54D112*X20000Y145000D02*Y75000D01*
X0Y145000D02*X20000D01*
X0D02*Y75000D01*
X20000D01*
X10000Y85000D02*X20000D01*
X10000D02*Y75000D01*
X11000Y166500D02*X19000D01*
X11000D02*Y148500D01*
X19000D01*
Y166500D02*Y148500D01*
X95000Y110000D02*Y30000D01*
X55000Y110000D02*X95000D01*
X55000D02*Y30000D01*
X80000D02*X95000D01*
X55000D02*X70000D01*
X80000D02*G75*G03X70000Y30000I-5000J0D01*G01*
X95000Y205000D02*Y125000D01*
X55000Y205000D02*X95000D01*
X55000D02*Y125000D01*
X80000D02*X95000D01*
X55000D02*X70000D01*
X80000D02*G75*G03X70000Y125000I-5000J0D01*G01*
X80000Y25000D02*X85000D01*
X65000D02*X70000D01*
Y23400D02*X80000D01*
X70000Y26600D02*Y23400D01*
Y26600D02*X80000D01*
Y23400D01*
X313000Y38000D02*X327000D01*
X327071Y37929D02*G75*G03X312929Y37929I-7071J7071D01*G01*
X312200Y92200D02*X337800D01*
X329922D02*Y75472D01*
X337800D01*
Y92200D03*
X312200Y75472D02*X320079D01*
Y92200D01*
X312200Y75472D02*Y125670D01*
X337800Y75472D02*Y125670D01*
D03*
X312200D02*X337800D01*
G54D111*X315000Y70000D02*X335000D01*
Y60000D01*
X315000D02*X335000D01*
X315000Y70000D02*Y60000D01*
X305000Y65000D02*X315000D01*
X335000D02*X345000D01*
G54D112*X263000Y38000D02*X277000D01*
X277071Y37929D02*G75*G03X262929Y37929I-7071J7071D01*G01*
X262200Y92200D02*X287800D01*
X279922D02*Y75472D01*
X287800D01*
Y92200D03*
X262200Y75472D02*X270079D01*
Y92200D01*
X262200Y75472D02*Y125670D01*
X287800Y75472D02*Y125670D01*
D03*
X262200D02*X287800D01*
X212200Y92200D02*X237800D01*
X229922D02*Y75472D01*
X237800D01*
Y92200D03*
X212200Y75472D02*X220079D01*
Y92200D01*
X212200Y75472D02*Y125670D01*
X237800Y75472D02*Y125670D01*
D03*
X212200D02*X237800D01*
G54D111*X215000Y70000D02*X235000D01*
Y60000D01*
X215000D02*X235000D01*
X215000Y70000D02*Y60000D01*
X205000Y65000D02*X215000D01*
X235000D02*X245000D01*
X265000Y70000D02*X285000D01*
Y60000D01*
X265000D02*X285000D01*
X265000Y70000D02*Y60000D01*
X255000Y65000D02*X265000D01*
X285000D02*X295000D01*
G54D112*X213000Y153000D02*X227000D01*
X227071Y152929D02*G75*G03X212929Y152929I-7071J7071D01*G01*
X213000Y38000D02*X227000D01*
X227071Y37929D02*G75*G03X212929Y37929I-7071J7071D01*G01*
G54D111*X180000Y80000D02*Y60000D01*
X170000D02*X180000D01*
X170000Y80000D02*Y60000D01*
Y80000D02*X180000D01*
X175000Y90000D02*Y80000D01*
Y60000D02*Y50000D01*
X190000Y80000D02*Y60000D01*
X180000D02*X190000D01*
X180000Y80000D02*Y60000D01*
Y80000D02*X190000D01*
X185000Y90000D02*Y80000D01*
Y60000D02*Y50000D01*
G54D112*X145000Y100000D02*Y30000D01*
X105000Y100000D02*X145000D01*
X105000D02*Y30000D01*
X130000D02*X145000D01*
X105000D02*X120000D01*
X130000D02*G75*G03X120000Y30000I-5000J0D01*G01*
X145000Y195000D02*Y125000D01*
X105000Y195000D02*X145000D01*
X105000D02*Y125000D01*
X130000D02*X145000D01*
X105000D02*X120000D01*
X130000D02*G75*G03X120000Y125000I-5000J0D01*G01*
G54D111*X170000Y80000D02*Y60000D01*
X160000D02*X170000D01*
X160000Y80000D02*Y60000D01*
Y80000D02*X170000D01*
X165000Y90000D02*Y80000D01*
Y60000D02*Y50000D01*
G54D112*X130000Y25000D02*X135000D01*
X115000D02*X120000D01*
Y23400D02*X130000D01*
X120000Y26600D02*Y23400D01*
Y26600D02*X130000D01*
Y23400D01*
G54D110*X31500Y170000D02*Y168000D01*
X31000Y167500D01*
X30000D02*X31000D01*
X29500Y168000D02*X30000Y167500D01*
X29500Y169500D02*Y168000D01*
X27500Y169500D02*X31500D01*
X29500Y168700D02*X27500Y167500D01*
Y165800D02*X31500D01*
Y166300D02*Y164300D01*
X31000Y163800D01*
X30000D02*X31000D01*
X29500Y164300D02*X30000Y163800D01*
X29500Y165800D02*Y164300D01*
X30700Y162600D02*X31500Y161800D01*
X27500D02*X31500D01*
X27500Y162600D02*Y161100D01*
X13000Y59000D02*Y57700D01*
X12300Y57000D02*X13000Y57700D01*
X9700Y57000D02*X12300D01*
X9700D02*X9000Y57700D01*
Y59000D02*Y57700D01*
X9500Y60200D02*X12500D01*
X9500D02*X9000Y60700D01*
Y61700D02*Y60700D01*
Y61700D02*X9500Y62200D01*
X12500D01*
X13000Y61700D02*X12500Y62200D01*
X13000Y61700D02*Y60700D01*
X12500Y60200D02*X13000Y60700D01*
X9000Y63400D02*X13000D01*
X9000D02*X13000Y65900D01*
X9000D02*X13000D01*
X9000Y67100D02*X13000D01*
X9000D02*X13000Y69600D01*
X9000D02*X13000D01*
X9800Y70800D02*X9000Y71600D01*
X13000D01*
Y72300D02*Y70800D01*
X16500Y171800D02*Y171000D01*
X13000D02*X16500D01*
X12500Y171500D02*X13000Y171000D01*
X12500Y172000D02*Y171500D01*
X13000Y172500D02*X12500Y172000D01*
X13000Y172500D02*X13500D01*
X15700Y169800D02*X16500Y169000D01*
X12500D02*X16500D01*
X12500Y169800D02*Y168300D01*
X163000Y32000D02*Y30000D01*
X159000Y31000D02*X163000D01*
Y26800D02*X162500Y26300D01*
X163000Y28300D02*Y26800D01*
X162500Y28800D02*X163000Y28300D01*
X159500Y28800D02*X162500D01*
X159500D02*X159000Y28300D01*
Y26800D01*
X159500Y26300D01*
X160500D01*
X161000Y26800D02*X160500Y26300D01*
X161000Y27800D02*Y26800D01*
X162200Y25100D02*X163000Y24300D01*
X159000D02*X163000D01*
X159000Y25100D02*Y23600D01*
X179000Y90000D02*Y88000D01*
X178500Y87500D01*
X177500D02*X178500D01*
X177000Y88000D02*X177500Y87500D01*
X177000Y89500D02*Y88000D01*
X175000Y89500D02*X179000D01*
X177000Y88700D02*X175000Y87500D01*
X178500Y86300D02*X179000Y85800D01*
Y84300D01*
X178500Y83800D01*
X177500D02*X178500D01*
X175000Y86300D02*X177500Y83800D01*
X175000Y86300D02*Y83800D01*
X146000Y30000D02*X149500D01*
X150000Y30500D01*
Y31500D02*Y30500D01*
Y31500D02*X149500Y32000D01*
X146000D02*X149500D01*
X148500Y33200D02*X146000Y35200D01*
X148500Y35700D02*Y33200D01*
X146000Y35200D02*X150000D01*
X96000Y30000D02*X99500D01*
X100000Y30500D01*
Y31500D02*Y30500D01*
Y31500D02*X99500Y32000D01*
X96000D02*X99500D01*
X96800Y33200D02*X96000Y34000D01*
X100000D01*
Y34700D02*Y33200D01*
X169000Y90000D02*Y88000D01*
X168500Y87500D01*
X167500D02*X168500D01*
X167000Y88000D02*X167500Y87500D01*
X167000Y89500D02*Y88000D01*
X165000Y89500D02*X169000D01*
X167000Y88700D02*X165000Y87500D01*
X168200Y86300D02*X169000Y85500D01*
X165000D02*X169000D01*
X165000Y86300D02*Y84800D01*
X143000Y28000D02*X144300D01*
X145000Y27300D02*X144300Y28000D01*
X145000Y27300D02*Y24700D01*
X144300Y24000D01*
X143000D02*X144300D01*
X140300D02*X139800Y24500D01*
X140300Y24000D02*X141300D01*
X141800Y24500D02*X141300Y24000D01*
X141800Y27500D02*Y24500D01*
Y27500D02*X141300Y28000D01*
X140300Y25800D02*X139800Y26300D01*
X140300Y25800D02*X141800D01*
X140300Y28000D02*X141300D01*
X140300D02*X139800Y27500D01*
Y26300D01*
X95500Y344000D02*Y340000D01*
X96800Y344000D02*X97500Y343300D01*
Y340700D01*
X96800Y340000D02*X97500Y340700D01*
X95000Y340000D02*X96800D01*
X95000Y344000D02*X96800D01*
X100200D02*X100700Y343500D01*
X99200Y344000D02*X100200D01*
X98700Y343500D02*X99200Y344000D01*
X98700Y343500D02*Y340500D01*
X99200Y340000D01*
X100200Y342200D02*X100700Y341700D01*
X98700Y342200D02*X100200D01*
X99200Y340000D02*X100200D01*
X100700Y340500D01*
Y341700D02*Y340500D01*
X152000Y201000D02*X153300D01*
X154000Y200300D02*X153300Y201000D01*
X154000Y200300D02*Y197700D01*
X153300Y197000D01*
X152000D02*X153300D01*
X150800Y199500D02*X148800Y197000D01*
X148300Y199500D02*X150800D01*
X148800Y201000D02*Y197000D01*
X93000Y212000D02*X94300D01*
X95000Y211300D02*X94300Y212000D01*
X95000Y211300D02*Y208700D01*
X94300Y208000D01*
X93000D02*X94300D01*
X89800D02*X91800D01*
Y210000D02*Y208000D01*
Y210000D02*X91300Y209500D01*
X90300D02*X91300D01*
X90300D02*X89800Y210000D01*
Y211500D02*Y210000D01*
X90300Y212000D02*X89800Y211500D01*
X90300Y212000D02*X91300D01*
X91800Y211500D02*X91300Y212000D01*
X40500Y280000D02*X44000D01*
X40500D02*X40000Y279500D01*
Y278500D01*
X40500Y278000D01*
X44000D01*
Y276800D02*Y274800D01*
X42000Y276800D02*X44000D01*
X42000D02*X42500Y276300D01*
Y275300D01*
X42000Y274800D01*
X40500D02*X42000D01*
X40000Y275300D02*X40500Y274800D01*
X40000Y276300D02*Y275300D01*
X40500Y276800D02*X40000Y276300D01*
X40500Y350000D02*X44000D01*
X40500D02*X40000Y349500D01*
Y348500D01*
X40500Y348000D01*
X44000D01*
Y345300D02*X43500Y344800D01*
X44000Y346300D02*Y345300D01*
X43500Y346800D02*X44000Y346300D01*
X40500Y346800D02*X43500D01*
X40500D02*X40000Y346300D01*
X42200Y345300D02*X41700Y344800D01*
X42200Y346800D02*Y345300D01*
X40000Y346300D02*Y345300D01*
X40500Y344800D01*
X41700D01*
X51000Y331000D02*Y329700D01*
X50300Y329000D02*X51000Y329700D01*
X47700Y329000D02*X50300D01*
X47700D02*X47000Y329700D01*
Y331000D02*Y329700D01*
X47800Y332200D02*X47000Y333000D01*
X51000D01*
Y333700D02*Y332200D01*
X94500Y28000D02*X95800D01*
X96500Y27300D02*X95800Y28000D01*
X96500Y27300D02*Y24700D01*
X95800Y24000D01*
X94500D02*X95800D01*
X92800Y28000D02*X90800Y24000D01*
X93300D01*
X369000Y112000D02*Y110000D01*
X365000Y111000D02*X369000D01*
X365000Y108800D02*X369000D01*
X365000D02*Y106800D01*
X368200Y105600D02*X369000Y104800D01*
X365000D02*X369000D01*
X365000Y105600D02*Y104100D01*
X361500Y385000D02*Y381000D01*
X360200D02*X359500Y381700D01*
Y384300D02*Y381700D01*
X360200Y385000D02*X359500Y384300D01*
X360200Y385000D02*X362000D01*
X360200Y381000D02*X362000D01*
X357800Y385000D02*X355800Y381000D01*
X358300D01*
X368000Y316000D02*Y314000D01*
X364000Y315000D02*X368000D01*
X364000Y312800D02*X368000D01*
X366000Y311300D01*
X368000Y309800D01*
X364000D02*X368000D01*
X367200Y308600D02*X368000Y307800D01*
X364000D02*X368000D01*
X364000Y308600D02*Y307100D01*
X368000Y227000D02*Y225000D01*
X364000Y226000D02*X368000D01*
X364000Y223800D02*X368000D01*
X364000D02*Y221800D01*
X367500Y220600D02*X368000Y220100D01*
Y218600D01*
X367500Y218100D01*
X366500D02*X367500D01*
X364000Y220600D02*X366500Y218100D01*
X364000Y220600D02*Y218100D01*
X332500Y369500D02*Y366500D01*
X332000Y366000D01*
X331000D02*X332000D01*
X331000D02*X330500Y366500D01*
Y369000D02*Y366500D01*
X331500Y370000D02*X330500Y369000D01*
X331500Y370000D02*X332000D01*
X332500Y369500D02*X332000Y370000D01*
X331500Y368500D02*X330500Y370000D01*
X328800D02*X326800Y366000D01*
X329300D01*
X313189Y246059D02*Y243059D01*
Y246059D02*X313689Y246559D01*
X314689D01*
X315189Y246059D01*
Y243559D01*
X314189Y242559D02*X315189Y243559D01*
X313689Y242559D02*X314189D01*
X313189Y243059D02*X313689Y242559D01*
X314189Y244059D02*X315189Y242559D01*
X316389Y245759D02*X317189Y246559D01*
Y242559D01*
X316389D02*X317889D01*
X319589D02*X321589Y246559D01*
X319089D02*X321589D01*
X326811Y291941D02*Y288941D01*
X326311Y288441D01*
X325311D02*X326311D01*
X325311D02*X324811Y288941D01*
Y291441D02*Y288941D01*
X325811Y292441D02*X324811Y291441D01*
X325811Y292441D02*X326311D01*
X326811Y291941D02*X326311Y292441D01*
X325811Y290941D02*X324811Y292441D01*
X323611Y289241D02*X322811Y288441D01*
Y292441D02*Y288441D01*
X322111Y292441D02*X323611D01*
X319411Y288441D02*X318911Y288941D01*
X319411Y288441D02*X320411D01*
X320911Y288941D02*X320411Y288441D01*
X320911Y291941D02*Y288941D01*
Y291941D02*X320411Y292441D01*
X319411Y290241D02*X318911Y290741D01*
X319411Y290241D02*X320911D01*
X319411Y292441D02*X320411D01*
X319411D02*X318911Y291941D01*
Y290741D01*
X305000Y184000D02*X307000D01*
X307500Y183500D01*
Y182500D01*
X307000Y182000D02*X307500Y182500D01*
X305500Y182000D02*X307000D01*
X305500Y184000D02*Y180000D01*
X306300Y182000D02*X307500Y180000D01*
X308700Y183200D02*X309500Y184000D01*
Y180000D01*
X308700D02*X310200D01*
X311900D02*X313900Y184000D01*
X311400D02*X313900D01*
X332500Y353000D02*X334500D01*
X332500D02*X332000Y353500D01*
Y354500D02*Y353500D01*
X332500Y355000D02*X332000Y354500D01*
X332500Y355000D02*X334000D01*
Y357000D02*Y353000D01*
X333200Y355000D02*X332000Y357000D01*
X330800Y353800D02*X330000Y353000D01*
Y357000D02*Y353000D01*
X329300Y357000D02*X330800D01*
X326600Y353000D02*X326100Y353500D01*
X326600Y353000D02*X327600D01*
X328100Y353500D02*X327600Y353000D01*
X328100Y356500D02*Y353500D01*
Y356500D02*X327600Y357000D01*
X326600Y354800D02*X326100Y355300D01*
X326600Y354800D02*X328100D01*
X326600Y357000D02*X327600D01*
X326600D02*X326100Y356500D01*
Y355300D01*
X284000Y33000D02*Y31000D01*
X280000Y32000D02*X284000D01*
X280000Y29800D02*Y27800D01*
X280500Y27300D01*
X281700D01*
X282200Y27800D02*X281700Y27300D01*
X282200Y29300D02*Y27800D01*
X280000Y29300D02*X284000D01*
Y29800D02*Y27800D01*
X283500Y27300D01*
X282700D02*X283500D01*
X282200Y27800D02*X282700Y27300D01*
X283500Y26100D02*X284000Y25600D01*
Y24100D01*
X283500Y23600D01*
X282500D02*X283500D01*
X280000Y26100D02*X282500Y23600D01*
X280000Y26100D02*Y23600D01*
X233000Y33000D02*Y31000D01*
X229000Y32000D02*X233000D01*
X229000Y29800D02*Y27800D01*
X229500Y27300D01*
X230700D01*
X231200Y27800D02*X230700Y27300D01*
X231200Y29300D02*Y27800D01*
X229000Y29300D02*X233000D01*
Y29800D02*Y27800D01*
X232500Y27300D01*
X231700D02*X232500D01*
X231200Y27800D02*X231700Y27300D01*
X232200Y26100D02*X233000Y25300D01*
X229000D02*X233000D01*
X229000Y26100D02*Y24600D01*
X235000Y37000D02*Y34000D01*
X234500Y33500D01*
X233500D02*X234500D01*
X233500D02*X233000Y34000D01*
Y36500D02*Y34000D01*
X234000Y37500D02*X233000Y36500D01*
X234000Y37500D02*X234500D01*
X235000Y37000D02*X234500Y37500D01*
X234000Y36000D02*X233000Y37500D01*
X231800Y34000D02*X231300Y33500D01*
X230300D02*X231300D01*
X230300D02*X229800Y34000D01*
X230300Y37500D02*X229800Y37000D01*
X230300Y37500D02*X231300D01*
X231800Y37000D02*X231300Y37500D01*
X230300Y35300D02*X231300D01*
X229800Y34800D02*Y34000D01*
Y37000D02*Y35800D01*
X230300Y35300D01*
X229800Y34800D02*X230300Y35300D01*
X189000Y90000D02*Y88000D01*
X188500Y87500D01*
X187500D02*X188500D01*
X187000Y88000D02*X187500Y87500D01*
X187000Y89500D02*Y88000D01*
X185000Y89500D02*X189000D01*
X187000Y88700D02*X185000Y87500D01*
X188500Y86300D02*X189000Y85800D01*
Y84800D01*
X188500Y84300D01*
X185000Y84800D02*X185500Y84300D01*
X185000Y85800D02*Y84800D01*
X185500Y86300D02*X185000Y85800D01*
X187200D02*Y84800D01*
X187700Y84300D02*X188500D01*
X185500D02*X186700D01*
X187200Y84800D01*
X187700Y84300D02*X187200Y84800D01*
X213189Y131059D02*Y128059D01*
Y131059D02*X213689Y131559D01*
X214689D01*
X215189Y131059D01*
Y128559D01*
X214189Y127559D02*X215189Y128559D01*
X213689Y127559D02*X214189D01*
X213189Y128059D02*X213689Y127559D01*
X214189Y129059D02*X215189Y127559D01*
X216389Y130759D02*X217189Y131559D01*
Y127559D01*
X216389D02*X217889D01*
X219089Y131059D02*X219589Y131559D01*
X221089D01*
X221589Y131059D01*
Y130059D01*
X219089Y127559D02*X221589Y130059D01*
X219089Y127559D02*X221589D01*
X205000Y69000D02*X207000D01*
X207500Y68500D01*
Y67500D01*
X207000Y67000D02*X207500Y67500D01*
X205500Y67000D02*X207000D01*
X205500Y69000D02*Y65000D01*
X206300Y67000D02*X207500Y65000D01*
X208700Y68200D02*X209500Y69000D01*
Y65000D01*
X208700D02*X210200D01*
X211400Y68500D02*X211900Y69000D01*
X213400D01*
X213900Y68500D01*
Y67500D01*
X211400Y65000D02*X213900Y67500D01*
X211400Y65000D02*X213900D01*
X255000Y69000D02*X257000D01*
X257500Y68500D01*
Y67500D01*
X257000Y67000D02*X257500Y67500D01*
X255500Y67000D02*X257000D01*
X255500Y69000D02*Y65000D01*
X256300Y67000D02*X257500Y65000D01*
X258700Y68200D02*X259500Y69000D01*
Y65000D01*
X258700D02*X260200D01*
X261400Y69000D02*X263400D01*
X261400D02*Y67000D01*
X261900Y67500D01*
X262900D01*
X263400Y67000D01*
Y65500D01*
X262900Y65000D02*X263400Y65500D01*
X261900Y65000D02*X262900D01*
X261400Y65500D02*X261900Y65000D01*
X333000Y33000D02*Y31000D01*
X329000Y32000D02*X333000D01*
X329000Y29800D02*Y27800D01*
X329500Y27300D01*
X330700D01*
X331200Y27800D02*X330700Y27300D01*
X331200Y29300D02*Y27800D01*
X329000Y29300D02*X333000D01*
Y29800D02*Y27800D01*
X332500Y27300D01*
X331700D02*X332500D01*
X331200Y27800D02*X331700Y27300D01*
X332500Y26100D02*X333000Y25600D01*
Y24600D01*
X332500Y24100D01*
X329000Y24600D02*X329500Y24100D01*
X329000Y25600D02*Y24600D01*
X329500Y26100D02*X329000Y25600D01*
X331200D02*Y24600D01*
X331700Y24100D02*X332500D01*
X329500D02*X330700D01*
X331200Y24600D01*
X331700Y24100D02*X331200Y24600D01*
X285000Y37000D02*Y34000D01*
X284500Y33500D01*
X283500D02*X284500D01*
X283500D02*X283000Y34000D01*
Y36500D02*Y34000D01*
X284000Y37500D02*X283000Y36500D01*
X284000Y37500D02*X284500D01*
X285000Y37000D02*X284500Y37500D01*
X284000Y36000D02*X283000Y37500D01*
X281800Y34000D02*X281300Y33500D01*
X279800D02*X281300D01*
X279800D02*X279300Y34000D01*
Y35000D02*Y34000D01*
X281800Y37500D02*X279300Y35000D01*
Y37500D02*X281800D01*
X335000Y37000D02*Y34000D01*
X334500Y33500D01*
X333500D02*X334500D01*
X333500D02*X333000Y34000D01*
Y36500D02*Y34000D01*
X334000Y37500D02*X333000Y36500D01*
X334000Y37500D02*X334500D01*
X335000Y37000D02*X334500Y37500D01*
X334000Y36000D02*X333000Y37500D01*
X331800Y34300D02*X331000Y33500D01*
Y37500D02*Y33500D01*
X330300Y37500D02*X331800D01*
X263189Y131059D02*Y128059D01*
Y131059D02*X263689Y131559D01*
X264689D01*
X265189Y131059D01*
Y128559D01*
X264189Y127559D02*X265189Y128559D01*
X263689Y127559D02*X264189D01*
X263189Y128059D02*X263689Y127559D01*
X264189Y129059D02*X265189Y127559D01*
X266389Y130759D02*X267189Y131559D01*
Y127559D01*
X266389D02*X267889D01*
X269089Y131559D02*X271089D01*
X269089D02*Y129559D01*
X269589Y130059D01*
X270589D01*
X271089Y129559D01*
Y128059D01*
X270589Y127559D02*X271089Y128059D01*
X269589Y127559D02*X270589D01*
X269089Y128059D02*X269589Y127559D01*
X327500Y149500D02*Y146500D01*
X327000Y146000D01*
X326000D02*X327000D01*
X326000D02*X325500Y146500D01*
Y149000D02*Y146500D01*
X326500Y150000D02*X325500Y149000D01*
X326500Y150000D02*X327000D01*
X327500Y149500D02*X327000Y150000D01*
X326500Y148500D02*X325500Y150000D01*
X324300Y148500D02*X322300Y146000D01*
X321800Y148500D02*X324300D01*
X322300Y150000D02*Y146000D01*
X313189Y131059D02*Y128059D01*
Y131059D02*X313689Y131559D01*
X314689D01*
X315189Y131059D01*
Y128559D01*
X314189Y127559D02*X315189Y128559D01*
X313689Y127559D02*X314189D01*
X313189Y128059D02*X313689Y127559D01*
X314189Y129059D02*X315189Y127559D01*
X316389Y130759D02*X317189Y131559D01*
Y127559D01*
X316389D02*X317889D01*
X319089Y128059D02*X319589Y127559D01*
X319089Y128859D02*Y128059D01*
Y128859D02*X319789Y129559D01*
X320389D01*
X321089Y128859D01*
Y128059D01*
X320589Y127559D02*X321089Y128059D01*
X319589Y127559D02*X320589D01*
X319089Y130259D02*X319789Y129559D01*
X319089Y131059D02*Y130259D01*
Y131059D02*X319589Y131559D01*
X320589D01*
X321089Y131059D01*
Y130259D01*
X320389Y129559D02*X321089Y130259D01*
X305000Y69000D02*X307000D01*
X307500Y68500D01*
Y67500D01*
X307000Y67000D02*X307500Y67500D01*
X305500Y67000D02*X307000D01*
X305500Y69000D02*Y65000D01*
X306300Y67000D02*X307500Y65000D01*
X308700Y68200D02*X309500Y69000D01*
Y65000D01*
X308700D02*X310200D01*
X311400Y65500D02*X311900Y65000D01*
X311400Y66300D02*Y65500D01*
Y66300D02*X312100Y67000D01*
X312700D01*
X313400Y66300D01*
Y65500D01*
X312900Y65000D02*X313400Y65500D01*
X311900Y65000D02*X312900D01*
X311400Y67700D02*X312100Y67000D01*
X311400Y68500D02*Y67700D01*
Y68500D02*X311900Y69000D01*
X312900D01*
X313400Y68500D01*
Y67700D01*
X312700Y67000D02*X313400Y67700D01*
X95500Y364000D02*Y360000D01*
X96800Y364000D02*X97500Y363300D01*
Y360700D01*
X96800Y360000D02*X97500Y360700D01*
X95000Y360000D02*X96800D01*
X95000Y364000D02*X96800D01*
X98700Y363500D02*X99200Y364000D01*
X100700D01*
X101200Y363500D01*
Y362500D01*
X98700Y360000D02*X101200Y362500D01*
X98700Y360000D02*X101200D01*
X190000Y372000D02*Y369000D01*
X189500Y368500D01*
X188500D02*X189500D01*
X188500D02*X188000Y369000D01*
Y371500D02*Y369000D01*
X189000Y372500D02*X188000Y371500D01*
X189000Y372500D02*X189500D01*
X190000Y372000D02*X189500Y372500D01*
X189000Y371000D02*X188000Y372500D01*
X186300D02*X184800Y370500D01*
Y369000D01*
X185300Y368500D02*X184800Y369000D01*
X185300Y368500D02*X186300D01*
X186800Y369000D02*X186300Y368500D01*
X186800Y370000D02*Y369000D01*
Y370000D02*X186300Y370500D01*
X184800D02*X186300D01*
X262500Y367000D02*Y364000D01*
X262000Y363500D01*
X261000D02*X262000D01*
X261000D02*X260500Y364000D01*
Y366500D02*Y364000D01*
X261500Y367500D02*X260500Y366500D01*
X261500Y367500D02*X262000D01*
X262500Y367000D02*X262000Y367500D01*
X261500Y366000D02*X260500Y367500D01*
X259300Y367000D02*X258800Y367500D01*
X259300Y367000D02*Y366200D01*
X258600Y365500D01*
X258000D02*X258600D01*
X258000D02*X257300Y366200D01*
Y367000D02*Y366200D01*
X257800Y367500D02*X257300Y367000D01*
X257800Y367500D02*X258800D01*
X259300Y364800D02*X258600Y365500D01*
X259300Y364800D02*Y364000D01*
X258800Y363500D01*
X257800D02*X258800D01*
X257800D02*X257300Y364000D01*
Y364800D02*Y364000D01*
X258000Y365500D02*X257300Y364800D01*
X95500Y374000D02*Y370000D01*
X96800Y374000D02*X97500Y373300D01*
Y370700D01*
X96800Y370000D02*X97500Y370700D01*
X95000Y370000D02*X96800D01*
X95000Y374000D02*X96800D01*
X98700Y373500D02*X99200Y374000D01*
X100200D01*
X100700Y373500D01*
X100200Y370000D02*X100700Y370500D01*
X99200Y370000D02*X100200D01*
X98700Y370500D02*X99200Y370000D01*
Y372200D02*X100200D01*
X100700Y373500D02*Y372700D01*
Y371700D02*Y370500D01*
Y371700D02*X100200Y372200D01*
X100700Y372700D02*X100200Y372200D01*
X36000Y355500D02*X40000D01*
X36000Y356800D02*X36700Y357500D01*
X39300D01*
X40000Y356800D02*X39300Y357500D01*
X40000Y356800D02*Y355000D01*
X36000Y356800D02*Y355000D01*
X38500Y358700D02*X36000Y360700D01*
X38500Y361200D02*Y358700D01*
X36000Y360700D02*X40000D01*
X95500Y354000D02*Y350000D01*
X96800Y354000D02*X97500Y353300D01*
Y350700D01*
X96800Y350000D02*X97500Y350700D01*
X95000Y350000D02*X96800D01*
X95000Y354000D02*X96800D01*
X98700Y353200D02*X99500Y354000D01*
Y350000D01*
X98700D02*X100200D01*
X95500Y334000D02*Y330000D01*
X96800Y334000D02*X97500Y333300D01*
Y330700D01*
X96800Y330000D02*X97500Y330700D01*
X95000Y330000D02*X96800D01*
X95000Y334000D02*X96800D01*
X98700D02*X100700D01*
X98700D02*Y332000D01*
X99200Y332500D01*
X100200D01*
X100700Y332000D01*
Y330500D01*
X100200Y330000D02*X100700Y330500D01*
X99200Y330000D02*X100200D01*
X98700Y330500D02*X99200Y330000D01*
X37500Y294500D02*Y293200D01*
X36800Y292500D02*X37500Y293200D01*
X34200Y292500D02*X36800D01*
X34200D02*X33500Y293200D01*
Y294500D02*Y293200D01*
X34000Y295700D02*X33500Y296200D01*
Y297200D02*Y296200D01*
Y297200D02*X34000Y297700D01*
X37500Y297200D02*X37000Y297700D01*
X37500Y297200D02*Y296200D01*
X37000Y295700D02*X37500Y296200D01*
X35300Y297200D02*Y296200D01*
X34000Y297700D02*X34800D01*
X35800D02*X37000D01*
X35800D02*X35300Y297200D01*
X34800Y297700D02*X35300Y297200D01*
X101000Y282000D02*Y280000D01*
Y282000D02*X101500Y282500D01*
X102500D01*
X103000Y282000D02*X102500Y282500D01*
X103000Y282000D02*Y280500D01*
X101000D02*X105000D01*
X103000Y281300D02*X105000Y282500D01*
Y284200D02*X103000Y285700D01*
X101500D02*X103000D01*
X101000Y285200D02*X101500Y285700D01*
X101000Y285200D02*Y284200D01*
X101500Y283700D02*X101000Y284200D01*
X101500Y283700D02*X102500D01*
X103000Y284200D01*
Y285700D02*Y284200D01*
X111000Y282000D02*Y280000D01*
Y282000D02*X111500Y282500D01*
X112500D01*
X113000Y282000D02*X112500Y282500D01*
X113000Y282000D02*Y280500D01*
X111000D02*X115000D01*
X113000Y281300D02*X115000Y282500D01*
X114500Y283700D02*X115000Y284200D01*
X113700Y283700D02*X114500D01*
X113700D02*X113000Y284400D01*
Y285000D02*Y284400D01*
Y285000D02*X113700Y285700D01*
X114500D01*
X115000Y285200D02*X114500Y285700D01*
X115000Y285200D02*Y284200D01*
X112300Y283700D02*X113000Y284400D01*
X111500Y283700D02*X112300D01*
X111500D02*X111000Y284200D01*
Y285200D02*Y284200D01*
Y285200D02*X111500Y285700D01*
X112300D01*
X113000Y285000D02*X112300Y285700D01*
X121000Y282000D02*Y280000D01*
Y282000D02*X121500Y282500D01*
X122500D01*
X123000Y282000D02*X122500Y282500D01*
X123000Y282000D02*Y280500D01*
X121000D02*X125000D01*
X123000Y281300D02*X125000Y282500D01*
Y284200D02*X121000Y286200D01*
Y283700D01*
X186811Y291941D02*Y288941D01*
X186311Y288441D01*
X185311D02*X186311D01*
X185311D02*X184811Y288941D01*
Y291441D02*Y288941D01*
X185811Y292441D02*X184811Y291441D01*
X185811Y292441D02*X186311D01*
X186811Y291941D02*X186311Y292441D01*
X185811Y290941D02*X184811Y292441D01*
X183611Y289241D02*X182811Y288441D01*
Y292441D02*Y288441D01*
X182111Y292441D02*X183611D01*
X180911Y291941D02*X180411Y292441D01*
X180911Y291941D02*Y288941D01*
X180411Y288441D01*
X179411D02*X180411D01*
X179411D02*X178911Y288941D01*
Y291941D02*Y288941D01*
X179411Y292441D02*X178911Y291941D01*
X179411Y292441D02*X180411D01*
X180911Y291441D02*X178911Y289441D01*
X192500Y353500D02*X194500D01*
X192500D02*X192000Y354000D01*
Y355000D02*Y354000D01*
X192500Y355500D02*X192000Y355000D01*
X192500Y355500D02*X194000D01*
Y357500D02*Y353500D01*
X193200Y355500D02*X192000Y357500D01*
X190800Y354300D02*X190000Y353500D01*
Y357500D02*Y353500D01*
X189300Y357500D02*X190800D01*
X188100Y357000D02*X187600Y357500D01*
X188100Y357000D02*Y354000D01*
X187600Y353500D01*
X186600D02*X187600D01*
X186600D02*X186100Y354000D01*
Y357000D02*Y354000D01*
X186600Y357500D02*X186100Y357000D01*
X186600Y357500D02*X187600D01*
X188100Y356500D02*X186100Y354500D01*
X263000Y353000D02*X265000D01*
X263000D02*X262500Y353500D01*
Y354500D02*Y353500D01*
X263000Y355000D02*X262500Y354500D01*
X263000Y355000D02*X264500D01*
Y357000D02*Y353000D01*
X263700Y355000D02*X262500Y357000D01*
X261300Y353800D02*X260500Y353000D01*
Y357000D02*Y353000D01*
X259800Y357000D02*X261300D01*
X258600Y353500D02*X258100Y353000D01*
X257100D02*X258100D01*
X257100D02*X256600Y353500D01*
X257100Y357000D02*X256600Y356500D01*
X257100Y357000D02*X258100D01*
X258600Y356500D02*X258100Y357000D01*
X257100Y354800D02*X258100D01*
X256600Y354300D02*Y353500D01*
Y356500D02*Y355300D01*
X257100Y354800D01*
X256600Y354300D02*X257100Y354800D01*
X65000Y234300D02*Y233000D01*
X65700Y235000D02*X65000Y234300D01*
X65700Y235000D02*X68300D01*
X69000Y234300D01*
Y233000D01*
X68500Y231800D02*X69000Y231300D01*
Y229800D01*
X68500Y229300D01*
X67500D02*X68500D01*
X65000Y231800D02*X67500Y229300D01*
X65000Y231800D02*Y229300D01*
X97000Y174000D02*X100500D01*
X101000Y174500D01*
Y175500D02*Y174500D01*
Y175500D02*X100500Y176000D01*
X97000D02*X100500D01*
X97500Y177200D02*X97000Y177700D01*
Y179200D02*Y177700D01*
Y179200D02*X97500Y179700D01*
X98500D01*
X101000Y177200D02*X98500Y179700D01*
X101000D02*Y177200D01*
X227500Y149500D02*Y146500D01*
X227000Y146000D01*
X226000D02*X227000D01*
X226000D02*X225500Y146500D01*
Y149000D02*Y146500D01*
X226500Y150000D02*X225500Y149000D01*
X226500Y150000D02*X227000D01*
X227500Y149500D02*X227000Y150000D01*
X226500Y148500D02*X225500Y150000D01*
X222800Y146000D02*X222300Y146500D01*
X222800Y146000D02*X223800D01*
X224300Y146500D02*X223800Y146000D01*
X224300Y149500D02*Y146500D01*
Y149500D02*X223800Y150000D01*
X222800Y147800D02*X222300Y148300D01*
X222800Y147800D02*X224300D01*
X222800Y150000D02*X223800D01*
X222800D02*X222300Y149500D01*
Y148300D01*
X277500Y149500D02*Y146500D01*
X277000Y146000D01*
X276000D02*X277000D01*
X276000D02*X275500Y146500D01*
Y149000D02*Y146500D01*
X276500Y150000D02*X275500Y149000D01*
X276500Y150000D02*X277000D01*
X277500Y149500D02*X277000Y150000D01*
X276500Y148500D02*X275500Y150000D01*
X272300Y146000D02*X274300D01*
Y148000D02*Y146000D01*
Y148000D02*X273800Y147500D01*
X272800D02*X273800D01*
X272800D02*X272300Y148000D01*
Y149500D02*Y148000D01*
X272800Y150000D02*X272300Y149500D01*
X272800Y150000D02*X273800D01*
X274300Y149500D02*X273800Y150000D01*
X263189Y246059D02*Y243059D01*
Y246059D02*X263689Y246559D01*
X264689D01*
X265189Y246059D01*
Y243559D01*
X264189Y242559D02*X265189Y243559D01*
X263689Y242559D02*X264189D01*
X263189Y243059D02*X263689Y242559D01*
X264189Y244059D02*X265189Y242559D01*
X266389Y245759D02*X267189Y246559D01*
Y242559D01*
X266389D02*X267889D01*
X269089Y244059D02*X271089Y246559D01*
X269089Y244059D02*X271589D01*
X271089Y246559D02*Y242559D01*
X255000Y184000D02*X257000D01*
X257500Y183500D01*
Y182500D01*
X257000Y182000D02*X257500Y182500D01*
X255500Y182000D02*X257000D01*
X255500Y184000D02*Y180000D01*
X256300Y182000D02*X257500Y180000D01*
X258700Y183200D02*X259500Y184000D01*
Y180000D01*
X258700D02*X260200D01*
X261400Y181500D02*X263400Y184000D01*
X261400Y181500D02*X263900D01*
X263400Y184000D02*Y180000D01*
X213189Y246059D02*Y243059D01*
Y246059D02*X213689Y246559D01*
X214689D01*
X215189Y246059D01*
Y243559D01*
X214189Y242559D02*X215189Y243559D01*
X213689Y242559D02*X214189D01*
X213189Y243059D02*X213689Y242559D01*
X214189Y244059D02*X215189Y242559D01*
X216389Y245759D02*X217189Y246559D01*
Y242559D01*
X216389D02*X217889D01*
X219089Y245759D02*X219889Y246559D01*
Y242559D01*
X219089D02*X220589D01*
X256811Y291941D02*Y288941D01*
X256311Y288441D01*
X255311D02*X256311D01*
X255311D02*X254811Y288941D01*
Y291441D02*Y288941D01*
X255811Y292441D02*X254811Y291441D01*
X255811Y292441D02*X256311D01*
X256811Y291941D02*X256311Y292441D01*
X255811Y290941D02*X254811Y292441D01*
X253611Y289241D02*X252811Y288441D01*
Y292441D02*Y288441D01*
X252111Y292441D02*X253611D01*
X250911Y288941D02*X250411Y288441D01*
X249411D02*X250411D01*
X249411D02*X248911Y288941D01*
X249411Y292441D02*X248911Y291941D01*
X249411Y292441D02*X250411D01*
X250911Y291941D02*X250411Y292441D01*
X249411Y290241D02*X250411D01*
X248911Y289741D02*Y288941D01*
Y291941D02*Y290741D01*
X249411Y290241D01*
X248911Y289741D02*X249411Y290241D01*
X189000Y200000D02*Y198000D01*
X188500Y197500D01*
X187500D02*X188500D01*
X187000Y198000D02*X187500Y197500D01*
X187000Y199500D02*Y198000D01*
X185000Y199500D02*X189000D01*
X187000Y198700D02*X185000Y197500D01*
X186500Y196300D02*X189000Y194300D01*
X186500Y196300D02*Y193800D01*
X185000Y194300D02*X189000D01*
X179000Y200000D02*Y198000D01*
X178500Y197500D01*
X177500D02*X178500D01*
X177000Y198000D02*X177500Y197500D01*
X177000Y199500D02*Y198000D01*
X175000Y199500D02*X179000D01*
X177000Y198700D02*X175000Y197500D01*
X179000Y196300D02*Y194300D01*
X177000Y196300D02*X179000D01*
X177000D02*X177500Y195800D01*
Y194800D01*
X177000Y194300D01*
X175500D02*X177000D01*
X175000Y194800D02*X175500Y194300D01*
X175000Y195800D02*Y194800D01*
X175500Y196300D02*X175000Y195800D01*
X169000Y200000D02*Y198000D01*
X168500Y197500D01*
X167500D02*X168500D01*
X167000Y198000D02*X167500Y197500D01*
X167000Y199500D02*Y198000D01*
X165000Y199500D02*X169000D01*
X167000Y198700D02*X165000Y197500D01*
X169000Y194800D02*X168500Y194300D01*
X169000Y195800D02*Y194800D01*
X168500Y196300D02*X169000Y195800D01*
X165500Y196300D02*X168500D01*
X165500D02*X165000Y195800D01*
X167200Y194800D02*X166700Y194300D01*
X167200Y196300D02*Y194800D01*
X165000Y195800D02*Y194800D01*
X165500Y194300D01*
X166700D01*
X148000Y174000D02*X151500D01*
X152000Y174500D01*
Y175500D02*Y174500D01*
Y175500D02*X151500Y176000D01*
X148000D02*X151500D01*
X148500Y177200D02*X148000Y177700D01*
Y178700D02*Y177700D01*
Y178700D02*X148500Y179200D01*
X152000Y178700D02*X151500Y179200D01*
X152000Y178700D02*Y177700D01*
X151500Y177200D02*X152000Y177700D01*
X149800Y178700D02*Y177700D01*
X148500Y179200D02*X149300D01*
X150300D02*X151500D01*
X150300D02*X149800Y178700D01*
X149300Y179200D02*X149800Y178700D01*
X205000Y184000D02*X207000D01*
X207500Y183500D01*
Y182500D01*
X207000Y182000D02*X207500Y182500D01*
X205500Y182000D02*X207000D01*
X205500Y184000D02*Y180000D01*
X206300Y182000D02*X207500Y180000D01*
X208700Y183200D02*X209500Y184000D01*
Y180000D01*
X208700D02*X210200D01*
X211400Y183200D02*X212200Y184000D01*
Y180000D01*
X211400D02*X212900D01*
M02*
