M48
INCH
T79C0.028
T78C0.084
T77C0.038
T76C0.042
T75C0.040
T74C0.030
T73C0.060
T72C0.020
T71C0.124
%
T72
X006000Y036000
X005000Y034000
X005000Y037000
X006000Y037000
X006000Y035000
X006000Y033000
X006000Y034000
X009000Y036000
X009000Y037000
X009000Y035000
X009000Y034000
X009000Y033000
X010800Y012050
X007550Y013050
X008150Y012900
X006800Y013000
X015000Y005050
X010200Y008000
X010250Y009050
X006850Y016150
X012700Y014300
X012450Y016600
T79
X003500Y008000
X003500Y007000
X003500Y012000
X003500Y011000
X003500Y010000
X003500Y009000
X003500Y015000
X003500Y014000
X003500Y013000
X001500Y016250
X001500Y015250
X006000Y014000
X006000Y013000
X003500Y006000
X006000Y006500
X006000Y005500
X009000Y007500
X009000Y008500
X009000Y009500
X009000Y010500
X006000Y010500
X006000Y009500
X006000Y008500
X006000Y007500
X006000Y004500
X006000Y003500
X009000Y003500
X009000Y004500
X009000Y005500
X009000Y006500
X014000Y003500
X014000Y004500
X014000Y005500
X014000Y006500
X014000Y007500
X014000Y008500
X011000Y008500
X014000Y009500
X011000Y009500
X011000Y007500
X011000Y006500
X011000Y005500
X011000Y004500
X011000Y003500
X014000Y013000
X014000Y014000
X014000Y015000
X014000Y016000
X014000Y017000
X014000Y018000
X014000Y019000
X011000Y019000
X011000Y018000
X011000Y017000
X011000Y016000
X011000Y015000
X011000Y014000
X011000Y013000
X009000Y013000
X009000Y014000
X009000Y015000
X009000Y016000
X009000Y017000
X009000Y018000
X009000Y019000
X009000Y020000
X006000Y020000
X006000Y019000
X006000Y018000
X006000Y017000
X006000Y016000
X006000Y015000
T74
X004300Y032100
X004300Y034100
X008500Y002500
X006500Y002500
X014000Y020000
X012000Y020000
X013500Y002500
X011500Y002500
X008500Y021000
X005000Y023500
X005000Y029000
X005000Y030000
X005000Y022500
X006500Y021000
T77
X033450Y035700
X010500Y028000
X010500Y032000
X011500Y028000
X011500Y032000
X012500Y028000
X012500Y032000
X019450Y035750
X015450Y035750
X026500Y035700
X022500Y035700
X029450Y035700
X001500Y008000
X000500Y008000
X001500Y009000
X000500Y009000
X001500Y010000
X000500Y010000
X001500Y011000
X000500Y011000
X001500Y012000
X000500Y012000
X001500Y013000
X000500Y013000
X001500Y014000
X000500Y014000
X034500Y018000
X024500Y006500
X025500Y006500
X030500Y006500
X029500Y006500
X034500Y006500
X018500Y016000
X017500Y016000
X016500Y016000
X018500Y020000
X017500Y020000
X016500Y020000
X017500Y009000
X018500Y009000
X016500Y009000
X020500Y018000
X017500Y005000
X018500Y005000
X016500Y005000
X020500Y006500
X030500Y018000
X025500Y018000
X024500Y018000
X029500Y018000
T75
X035200Y037000
X035200Y035000
X033500Y028500
X019500Y028500
X015500Y028500
X030500Y024000
X034500Y024000
X025500Y024000
X029500Y024000
X020500Y024000
X024500Y024000
X029500Y028500
X026500Y028500
X022500Y028500
X034500Y012500
X020500Y012500
X025500Y012500
X024500Y012500
X030500Y012500
X029500Y012500
T76
X032500Y037500
X016500Y037750
X017500Y037750
X018500Y037750
X023500Y037500
X024500Y037500
X025500Y037500
X030500Y037500
X031500Y037500
X031000Y016000
X032000Y016000
X033000Y016000
X027000Y004500
X028000Y004500
X031000Y004500
X032000Y004500
X033000Y004500
X026000Y004500
X021000Y016000
X022000Y016000
X021000Y004500
X022000Y004500
X023000Y004500
X026000Y016000
X023000Y016000
X027000Y016000
X028000Y016000
T73
X002500Y034000
X001500Y033000
X002500Y032000
X002500Y027000
X001500Y026000
X002500Y025000
T78
X036500Y033000
X036500Y024000
X036500Y012500
X034500Y015500
X034500Y016750
X034500Y003200
X034500Y004500
X029500Y003200
X029500Y004500
X024500Y003200
X024500Y004500
X024500Y015500
X024500Y016750
X029500Y015500
X029500Y016750
X017500Y003000
T71
X001500Y037500
X037500Y037500
X001500Y001500
X037500Y001500
M30
