G04 start of page 12 for group -3984 idx -3984 *
G04 Title: (unknown), fab *
G04 Creator: pcb 20110918 *
G04 CreationDate: Wed 26 Feb 2014 06:05:46 GMT UTC *
G04 For: ksarkies *
G04 Format: Gerber/RS-274X *
G04 PCB-Dimensions: 390000 390000 *
G04 PCB-Coordinate-Origin: lower left *
%MOIN*%
%FSLAX25Y25*%
%LNFAB*%
%ADD100C,0.0100*%
%ADD99C,0.0075*%
%ADD98C,0.0060*%
%ADD97R,0.0080X0.0080*%
G54D97*X24200Y375000D02*G75*G03X25800Y375000I800J0D01*G01*
G75*G03X24200Y375000I-800J0D01*G01*
X22600D02*G75*G03X27400Y375000I2400J0D01*G01*
G75*G03X22600Y375000I-2400J0D01*G01*
X26759Y43543D02*G75*G03X28359Y43543I800J0D01*G01*
G75*G03X26759Y43543I-800J0D01*G01*
X25159D02*G75*G03X29959Y43543I2400J0D01*G01*
G75*G03X25159Y43543I-2400J0D01*G01*
X369200Y15000D02*G75*G03X370800Y15000I800J0D01*G01*
G75*G03X369200Y15000I-800J0D01*G01*
X367600D02*G75*G03X372400Y15000I2400J0D01*G01*
G75*G03X367600Y15000I-2400J0D01*G01*
X369200Y375000D02*G75*G03X370800Y375000I800J0D01*G01*
G75*G03X369200Y375000I-800J0D01*G01*
X367600D02*G75*G03X372400Y375000I2400J0D01*G01*
G75*G03X367600Y375000I-2400J0D01*G01*
X26759Y157717D02*G75*G03X28359Y157717I800J0D01*G01*
G75*G03X26759Y157717I-800J0D01*G01*
X25159D02*G75*G03X29959Y157717I2400J0D01*G01*
G75*G03X25159Y157717I-2400J0D01*G01*
X14200Y401250D02*G75*G03X15800Y401250I800J0D01*G01*
G75*G03X14200Y401250I-800J0D01*G01*
X12600D02*G75*G03X17400Y401250I2400J0D01*G01*
G75*G03X12600Y401250I-2400J0D01*G01*
G54D98*X135000Y403500D02*X136500Y400500D01*
X138000Y403500D01*
X136500Y400500D02*Y397500D01*
X139800Y400800D02*X142050D01*
X139800Y397500D02*X142800D01*
X139800Y403500D02*Y397500D01*
Y403500D02*X142800D01*
X147600D02*X148350Y402750D01*
X145350Y403500D02*X147600D01*
X144600Y402750D02*X145350Y403500D01*
X144600Y402750D02*Y401250D01*
X145350Y400500D01*
X147600D01*
X148350Y399750D01*
Y398250D01*
X147600Y397500D02*X148350Y398250D01*
X145350Y397500D02*X147600D01*
X144600Y398250D02*X145350Y397500D01*
X98000Y403500D02*X101000D01*
X98000D02*Y400500D01*
X98750Y401250D01*
X100250D01*
X101000Y400500D01*
Y398250D01*
X100250Y397500D02*X101000Y398250D01*
X98750Y397500D02*X100250D01*
X98000Y398250D02*X98750Y397500D01*
X45000Y398250D02*X45750Y397500D01*
X45000Y402750D02*Y398250D01*
Y402750D02*X45750Y403500D01*
X47250D01*
X48000Y402750D01*
Y398250D01*
X47250Y397500D02*X48000Y398250D01*
X45750Y397500D02*X47250D01*
X45000Y399000D02*X48000Y402000D01*
X49800Y397500D02*X50550D01*
X52350Y402300D02*X53550Y403500D01*
Y397500D01*
X52350D02*X54600D01*
X56400Y402300D02*X57600Y403500D01*
Y397500D01*
X56400D02*X58650D01*
X60450Y399750D02*X63450Y403500D01*
X60450Y399750D02*X64200D01*
X63450Y403500D02*Y397500D01*
X97600Y142400D02*X102400Y137600D01*
X97600D02*X102400Y142400D01*
X98400Y141600D02*X101600D01*
X98400D02*Y138400D01*
X101600D01*
Y141600D02*Y138400D01*
X97600Y122400D02*X102400Y117600D01*
X97600D02*X102400Y122400D01*
X98400Y121600D02*X101600D01*
X98400D02*Y118400D01*
X101600D01*
Y121600D02*Y118400D01*
X97600Y162400D02*X102400Y157600D01*
X97600D02*X102400Y162400D01*
X98400Y161600D02*X101600D01*
X98400D02*Y158400D01*
X101600D01*
Y161600D02*Y158400D01*
X12600Y418650D02*X17400Y413850D01*
X12600D02*X17400Y418650D01*
X13400Y417850D02*X16600D01*
X13400D02*Y414650D01*
X16600D01*
Y417850D02*Y414650D01*
X135000Y418500D02*X136500Y415500D01*
X138000Y418500D01*
X136500Y415500D02*Y412500D01*
X139800Y415800D02*X142050D01*
X139800Y412500D02*X142800D01*
X139800Y418500D02*Y412500D01*
Y418500D02*X142800D01*
X147600D02*X148350Y417750D01*
X145350Y418500D02*X147600D01*
X144600Y417750D02*X145350Y418500D01*
X144600Y417750D02*Y416250D01*
X145350Y415500D01*
X147600D01*
X148350Y414750D01*
Y413250D01*
X147600Y412500D02*X148350Y413250D01*
X145350Y412500D02*X147600D01*
X144600Y413250D02*X145350Y412500D01*
X98000Y417750D02*X98750Y418500D01*
X100250D01*
X101000Y417750D01*
X100250Y412500D02*X101000Y413250D01*
X98750Y412500D02*X100250D01*
X98000Y413250D02*X98750Y412500D01*
Y415800D02*X100250D01*
X101000Y417750D02*Y416550D01*
Y415050D02*Y413250D01*
Y415050D02*X100250Y415800D01*
X101000Y416550D02*X100250Y415800D01*
X45000Y413250D02*X45750Y412500D01*
X45000Y417750D02*Y413250D01*
Y417750D02*X45750Y418500D01*
X47250D01*
X48000Y417750D01*
Y413250D01*
X47250Y412500D02*X48000Y413250D01*
X45750Y412500D02*X47250D01*
X45000Y414000D02*X48000Y417000D01*
X49800Y412500D02*X50550D01*
X52350Y413250D02*X53100Y412500D01*
X52350Y417750D02*Y413250D01*
Y417750D02*X53100Y418500D01*
X54600D01*
X55350Y417750D01*
Y413250D01*
X54600Y412500D02*X55350Y413250D01*
X53100Y412500D02*X54600D01*
X52350Y414000D02*X55350Y417000D01*
X57900Y412500D02*X60900Y418500D01*
X57150D02*X60900D01*
X62700Y413250D02*X63450Y412500D01*
X62700Y414450D02*Y413250D01*
Y414450D02*X63750Y415500D01*
X64650D01*
X65700Y414450D01*
Y413250D01*
X64950Y412500D02*X65700Y413250D01*
X63450Y412500D02*X64950D01*
X62700Y416550D02*X63750Y415500D01*
X62700Y417750D02*Y416550D01*
Y417750D02*X63450Y418500D01*
X64950D01*
X65700Y417750D01*
Y416550D01*
X64650Y415500D02*X65700Y416550D01*
X270000Y163200D02*Y156800D01*
X266800Y160000D02*X273200D01*
X268400Y161600D02*X271600D01*
X268400D02*Y158400D01*
X271600D01*
Y161600D02*Y158400D01*
X280000Y163200D02*Y156800D01*
X276800Y160000D02*X283200D01*
X278400Y161600D02*X281600D01*
X278400D02*Y158400D01*
X281600D01*
Y161600D02*Y158400D01*
X270000Y223200D02*Y216800D01*
X266800Y220000D02*X273200D01*
X268400Y221600D02*X271600D01*
X268400D02*Y218400D01*
X271600D01*
Y221600D02*Y218400D01*
X280000Y223200D02*Y216800D01*
X276800Y220000D02*X283200D01*
X278400Y221600D02*X281600D01*
X278400D02*Y218400D01*
X281600D01*
Y221600D02*Y218400D01*
X15000Y434450D02*Y428050D01*
X11800Y431250D02*X18200D01*
X13400Y432850D02*X16600D01*
X13400D02*Y429650D01*
X16600D01*
Y432850D02*Y429650D01*
X135000Y433500D02*X136500Y430500D01*
X138000Y433500D01*
X136500Y430500D02*Y427500D01*
X139800Y430800D02*X142050D01*
X139800Y427500D02*X142800D01*
X139800Y433500D02*Y427500D01*
Y433500D02*X142800D01*
X147600D02*X148350Y432750D01*
X145350Y433500D02*X147600D01*
X144600Y432750D02*X145350Y433500D01*
X144600Y432750D02*Y431250D01*
X145350Y430500D01*
X147600D01*
X148350Y429750D01*
Y428250D01*
X147600Y427500D02*X148350Y428250D01*
X145350Y427500D02*X147600D01*
X144600Y428250D02*X145350Y427500D01*
X98000Y429750D02*X101000Y433500D01*
X98000Y429750D02*X101750D01*
X101000Y433500D02*Y427500D01*
X45000Y428250D02*X45750Y427500D01*
X45000Y432750D02*Y428250D01*
Y432750D02*X45750Y433500D01*
X47250D01*
X48000Y432750D01*
Y428250D01*
X47250Y427500D02*X48000Y428250D01*
X45750Y427500D02*X47250D01*
X45000Y429000D02*X48000Y432000D01*
X49800Y427500D02*X50550D01*
X52350Y428250D02*X53100Y427500D01*
X52350Y432750D02*Y428250D01*
Y432750D02*X53100Y433500D01*
X54600D01*
X55350Y432750D01*
Y428250D01*
X54600Y427500D02*X55350Y428250D01*
X53100Y427500D02*X54600D01*
X52350Y429000D02*X55350Y432000D01*
X57150Y429750D02*X60150Y433500D01*
X57150Y429750D02*X60900D01*
X60150Y433500D02*Y427500D01*
X62700Y432750D02*X63450Y433500D01*
X64950D01*
X65700Y432750D01*
X64950Y427500D02*X65700Y428250D01*
X63450Y427500D02*X64950D01*
X62700Y428250D02*X63450Y427500D01*
Y430800D02*X64950D01*
X65700Y432750D02*Y431550D01*
Y430050D02*Y428250D01*
Y430050D02*X64950Y430800D01*
X65700Y431550D02*X64950Y430800D01*
X330000Y130000D02*Y126800D01*
Y130000D02*X332773Y131600D01*
X330000Y130000D02*X327227Y131600D01*
X328400Y130000D02*G75*G03X331600Y130000I1600J0D01*G01*
G75*G03X328400Y130000I-1600J0D01*G01*
X290000D02*Y126800D01*
Y130000D02*X292773Y131600D01*
X290000Y130000D02*X287227Y131600D01*
X288400Y130000D02*G75*G03X291600Y130000I1600J0D01*G01*
G75*G03X288400Y130000I-1600J0D01*G01*
X200000Y260000D02*Y256800D01*
Y260000D02*X202773Y261600D01*
X200000Y260000D02*X197227Y261600D01*
X198400Y260000D02*G75*G03X201600Y260000I1600J0D01*G01*
G75*G03X198400Y260000I-1600J0D01*G01*
X160000D02*Y256800D01*
Y260000D02*X162773Y261600D01*
X160000Y260000D02*X157227Y261600D01*
X158400Y260000D02*G75*G03X161600Y260000I1600J0D01*G01*
G75*G03X158400Y260000I-1600J0D01*G01*
X200000Y270000D02*Y266800D01*
Y270000D02*X202773Y271600D01*
X200000Y270000D02*X197227Y271600D01*
X198400Y270000D02*G75*G03X201600Y270000I1600J0D01*G01*
G75*G03X198400Y270000I-1600J0D01*G01*
X160000D02*Y266800D01*
Y270000D02*X162773Y271600D01*
X160000Y270000D02*X157227Y271600D01*
X158400Y270000D02*G75*G03X161600Y270000I1600J0D01*G01*
G75*G03X158400Y270000I-1600J0D01*G01*
X200000Y160000D02*Y156800D01*
Y160000D02*X202773Y161600D01*
X200000Y160000D02*X197227Y161600D01*
X198400Y160000D02*G75*G03X201600Y160000I1600J0D01*G01*
G75*G03X198400Y160000I-1600J0D01*G01*
X160000D02*Y156800D01*
Y160000D02*X162773Y161600D01*
X160000Y160000D02*X157227Y161600D01*
X158400Y160000D02*G75*G03X161600Y160000I1600J0D01*G01*
G75*G03X158400Y160000I-1600J0D01*G01*
X240000Y200000D02*Y196800D01*
Y200000D02*X242773Y201600D01*
X240000Y200000D02*X237227Y201600D01*
X238400Y200000D02*G75*G03X241600Y200000I1600J0D01*G01*
G75*G03X238400Y200000I-1600J0D01*G01*
X240000Y240000D02*Y236800D01*
Y240000D02*X242773Y241600D01*
X240000Y240000D02*X237227Y241600D01*
X238400Y240000D02*G75*G03X241600Y240000I1600J0D01*G01*
G75*G03X238400Y240000I-1600J0D01*G01*
X200000Y220000D02*Y216800D01*
Y220000D02*X202773Y221600D01*
X200000Y220000D02*X197227Y221600D01*
X198400Y220000D02*G75*G03X201600Y220000I1600J0D01*G01*
G75*G03X198400Y220000I-1600J0D01*G01*
X160000D02*Y216800D01*
Y220000D02*X162773Y221600D01*
X160000Y220000D02*X157227Y221600D01*
X158400Y220000D02*G75*G03X161600Y220000I1600J0D01*G01*
G75*G03X158400Y220000I-1600J0D01*G01*
X200000Y210000D02*Y206800D01*
Y210000D02*X202773Y211600D01*
X200000Y210000D02*X197227Y211600D01*
X198400Y210000D02*G75*G03X201600Y210000I1600J0D01*G01*
G75*G03X198400Y210000I-1600J0D01*G01*
X160000D02*Y206800D01*
Y210000D02*X162773Y211600D01*
X160000Y210000D02*X157227Y211600D01*
X158400Y210000D02*G75*G03X161600Y210000I1600J0D01*G01*
G75*G03X158400Y210000I-1600J0D01*G01*
X200000Y230000D02*Y226800D01*
Y230000D02*X202773Y231600D01*
X200000Y230000D02*X197227Y231600D01*
X198400Y230000D02*G75*G03X201600Y230000I1600J0D01*G01*
G75*G03X198400Y230000I-1600J0D01*G01*
X160000D02*Y226800D01*
Y230000D02*X162773Y231600D01*
X160000Y230000D02*X157227Y231600D01*
X158400Y230000D02*G75*G03X161600Y230000I1600J0D01*G01*
G75*G03X158400Y230000I-1600J0D01*G01*
X200000Y170000D02*Y166800D01*
Y170000D02*X202773Y171600D01*
X200000Y170000D02*X197227Y171600D01*
X198400Y170000D02*G75*G03X201600Y170000I1600J0D01*G01*
G75*G03X198400Y170000I-1600J0D01*G01*
X160000D02*Y166800D01*
Y170000D02*X162773Y171600D01*
X160000Y170000D02*X157227Y171600D01*
X158400Y170000D02*G75*G03X161600Y170000I1600J0D01*G01*
G75*G03X158400Y170000I-1600J0D01*G01*
X240000Y140000D02*Y136800D01*
Y140000D02*X242773Y141600D01*
X240000Y140000D02*X237227Y141600D01*
X238400Y140000D02*G75*G03X241600Y140000I1600J0D01*G01*
G75*G03X238400Y140000I-1600J0D01*G01*
X240000Y180000D02*Y176800D01*
Y180000D02*X242773Y181600D01*
X240000Y180000D02*X237227Y181600D01*
X238400Y180000D02*G75*G03X241600Y180000I1600J0D01*G01*
G75*G03X238400Y180000I-1600J0D01*G01*
X200000Y150000D02*Y146800D01*
Y150000D02*X202773Y151600D01*
X200000Y150000D02*X197227Y151600D01*
X198400Y150000D02*G75*G03X201600Y150000I1600J0D01*G01*
G75*G03X198400Y150000I-1600J0D01*G01*
X160000D02*Y146800D01*
Y150000D02*X162773Y151600D01*
X160000Y150000D02*X157227Y151600D01*
X158400Y150000D02*G75*G03X161600Y150000I1600J0D01*G01*
G75*G03X158400Y150000I-1600J0D01*G01*
X200000Y90000D02*Y86800D01*
Y90000D02*X202773Y91600D01*
X200000Y90000D02*X197227Y91600D01*
X198400Y90000D02*G75*G03X201600Y90000I1600J0D01*G01*
G75*G03X198400Y90000I-1600J0D01*G01*
X160000D02*Y86800D01*
Y90000D02*X162773Y91600D01*
X160000Y90000D02*X157227Y91600D01*
X158400Y90000D02*G75*G03X161600Y90000I1600J0D01*G01*
G75*G03X158400Y90000I-1600J0D01*G01*
X210000Y70000D02*Y66800D01*
Y70000D02*X212773Y71600D01*
X210000Y70000D02*X207227Y71600D01*
X208400Y70000D02*G75*G03X211600Y70000I1600J0D01*G01*
G75*G03X208400Y70000I-1600J0D01*G01*
X210000Y30000D02*Y26800D01*
Y30000D02*X212773Y31600D01*
X210000Y30000D02*X207227Y31600D01*
X208400Y30000D02*G75*G03X211600Y30000I1600J0D01*G01*
G75*G03X208400Y30000I-1600J0D01*G01*
X160000Y100000D02*Y96800D01*
Y100000D02*X162773Y101600D01*
X160000Y100000D02*X157227Y101600D01*
X158400Y100000D02*G75*G03X161600Y100000I1600J0D01*G01*
G75*G03X158400Y100000I-1600J0D01*G01*
X200000D02*Y96800D01*
Y100000D02*X202773Y101600D01*
X200000Y100000D02*X197227Y101600D01*
X198400Y100000D02*G75*G03X201600Y100000I1600J0D01*G01*
G75*G03X198400Y100000I-1600J0D01*G01*
X210000Y310000D02*Y306800D01*
Y310000D02*X212773Y311600D01*
X210000Y310000D02*X207227Y311600D01*
X208400Y310000D02*G75*G03X211600Y310000I1600J0D01*G01*
G75*G03X208400Y310000I-1600J0D01*G01*
X210000Y350000D02*Y346800D01*
Y350000D02*X212773Y351600D01*
X210000Y350000D02*X207227Y351600D01*
X208400Y350000D02*G75*G03X211600Y350000I1600J0D01*G01*
G75*G03X208400Y350000I-1600J0D01*G01*
X320000Y160000D02*Y156800D01*
Y160000D02*X322773Y161600D01*
X320000Y160000D02*X317227Y161600D01*
X318400Y160000D02*G75*G03X321600Y160000I1600J0D01*G01*
G75*G03X318400Y160000I-1600J0D01*G01*
X320000Y150000D02*Y146800D01*
Y150000D02*X322773Y151600D01*
X320000Y150000D02*X317227Y151600D01*
X318400Y150000D02*G75*G03X321600Y150000I1600J0D01*G01*
G75*G03X318400Y150000I-1600J0D01*G01*
X230000Y290000D02*Y286800D01*
Y290000D02*X232773Y291600D01*
X230000Y290000D02*X227227Y291600D01*
X228400Y290000D02*G75*G03X231600Y290000I1600J0D01*G01*
G75*G03X228400Y290000I-1600J0D01*G01*
X190000D02*Y286800D01*
Y290000D02*X192773Y291600D01*
X190000Y290000D02*X187227Y291600D01*
X188400Y290000D02*G75*G03X191600Y290000I1600J0D01*G01*
G75*G03X188400Y290000I-1600J0D01*G01*
X280000D02*Y286800D01*
Y290000D02*X282773Y291600D01*
X280000Y290000D02*X277227Y291600D01*
X278400Y290000D02*G75*G03X281600Y290000I1600J0D01*G01*
G75*G03X278400Y290000I-1600J0D01*G01*
X240000D02*Y286800D01*
Y290000D02*X242773Y291600D01*
X240000Y290000D02*X237227Y291600D01*
X238400Y290000D02*G75*G03X241600Y290000I1600J0D01*G01*
G75*G03X238400Y290000I-1600J0D01*G01*
X90000Y350000D02*Y346800D01*
Y350000D02*X92773Y351600D01*
X90000Y350000D02*X87227Y351600D01*
X88400Y350000D02*G75*G03X91600Y350000I1600J0D01*G01*
G75*G03X88400Y350000I-1600J0D01*G01*
X90000Y310000D02*Y306800D01*
Y310000D02*X92773Y311600D01*
X90000Y310000D02*X87227Y311600D01*
X88400Y310000D02*G75*G03X91600Y310000I1600J0D01*G01*
G75*G03X88400Y310000I-1600J0D01*G01*
X70000D02*Y306800D01*
Y310000D02*X72773Y311600D01*
X70000Y310000D02*X67227Y311600D01*
X68400Y310000D02*G75*G03X71600Y310000I1600J0D01*G01*
G75*G03X68400Y310000I-1600J0D01*G01*
X70000Y350000D02*Y346800D01*
Y350000D02*X72773Y351600D01*
X70000Y350000D02*X67227Y351600D01*
X68400Y350000D02*G75*G03X71600Y350000I1600J0D01*G01*
G75*G03X68400Y350000I-1600J0D01*G01*
X260000Y80000D02*Y76800D01*
Y80000D02*X262773Y81600D01*
X260000Y80000D02*X257227Y81600D01*
X258400Y80000D02*G75*G03X261600Y80000I1600J0D01*G01*
G75*G03X258400Y80000I-1600J0D01*G01*
X220000D02*Y76800D01*
Y80000D02*X222773Y81600D01*
X220000Y80000D02*X217227Y81600D01*
X218400Y80000D02*G75*G03X221600Y80000I1600J0D01*G01*
G75*G03X218400Y80000I-1600J0D01*G01*
X220000Y30000D02*Y26800D01*
Y30000D02*X222773Y31600D01*
X220000Y30000D02*X217227Y31600D01*
X218400Y30000D02*G75*G03X221600Y30000I1600J0D01*G01*
G75*G03X218400Y30000I-1600J0D01*G01*
X220000Y70000D02*Y66800D01*
Y70000D02*X222773Y71600D01*
X220000Y70000D02*X217227Y71600D01*
X218400Y70000D02*G75*G03X221600Y70000I1600J0D01*G01*
G75*G03X218400Y70000I-1600J0D01*G01*
X272450Y350200D02*Y347000D01*
Y350200D02*X275223Y351800D01*
X272450Y350200D02*X269677Y351800D01*
X270850Y350200D02*G75*G03X274050Y350200I1600J0D01*G01*
G75*G03X270850Y350200I-1600J0D01*G01*
X272450Y310200D02*Y307000D01*
Y310200D02*X275223Y311800D01*
X272450Y310200D02*X269677Y311800D01*
X270850Y310200D02*G75*G03X274050Y310200I1600J0D01*G01*
G75*G03X270850Y310200I-1600J0D01*G01*
X220000Y350000D02*Y346800D01*
Y350000D02*X222773Y351600D01*
X220000Y350000D02*X217227Y351600D01*
X218400Y350000D02*G75*G03X221600Y350000I1600J0D01*G01*
G75*G03X218400Y350000I-1600J0D01*G01*
X220000Y310000D02*Y306800D01*
Y310000D02*X222773Y311600D01*
X220000Y310000D02*X217227Y311600D01*
X218400Y310000D02*G75*G03X221600Y310000I1600J0D01*G01*
G75*G03X218400Y310000I-1600J0D01*G01*
X230000D02*Y306800D01*
Y310000D02*X232773Y311600D01*
X230000Y310000D02*X227227Y311600D01*
X228400Y310000D02*G75*G03X231600Y310000I1600J0D01*G01*
G75*G03X228400Y310000I-1600J0D01*G01*
X230000Y350000D02*Y346800D01*
Y350000D02*X232773Y351600D01*
X230000Y350000D02*X227227Y351600D01*
X228400Y350000D02*G75*G03X231600Y350000I1600J0D01*G01*
G75*G03X228400Y350000I-1600J0D01*G01*
X250000D02*Y346800D01*
Y350000D02*X252773Y351600D01*
X250000Y350000D02*X247227Y351600D01*
X248400Y350000D02*G75*G03X251600Y350000I1600J0D01*G01*
G75*G03X248400Y350000I-1600J0D01*G01*
X250000Y310000D02*Y306800D01*
Y310000D02*X252773Y311600D01*
X250000Y310000D02*X247227Y311600D01*
X248400Y310000D02*G75*G03X251600Y310000I1600J0D01*G01*
G75*G03X248400Y310000I-1600J0D01*G01*
X240000Y350000D02*Y346800D01*
Y350000D02*X242773Y351600D01*
X240000Y350000D02*X237227Y351600D01*
X238400Y350000D02*G75*G03X241600Y350000I1600J0D01*G01*
G75*G03X238400Y350000I-1600J0D01*G01*
X240000Y310000D02*Y306800D01*
Y310000D02*X242773Y311600D01*
X240000Y310000D02*X237227Y311600D01*
X238400Y310000D02*G75*G03X241600Y310000I1600J0D01*G01*
G75*G03X238400Y310000I-1600J0D01*G01*
X79000Y253000D02*Y249800D01*
Y253000D02*X81773Y254600D01*
X79000Y253000D02*X76227Y254600D01*
X77400Y253000D02*G75*G03X80600Y253000I1600J0D01*G01*
G75*G03X77400Y253000I-1600J0D01*G01*
X79000Y293000D02*Y289800D01*
Y293000D02*X81773Y294600D01*
X79000Y293000D02*X76227Y294600D01*
X77400Y293000D02*G75*G03X80600Y293000I1600J0D01*G01*
G75*G03X77400Y293000I-1600J0D01*G01*
X89000D02*Y289800D01*
Y293000D02*X91773Y294600D01*
X89000Y293000D02*X86227Y294600D01*
X87400Y293000D02*G75*G03X90600Y293000I1600J0D01*G01*
G75*G03X87400Y293000I-1600J0D01*G01*
X89000Y253000D02*Y249800D01*
Y253000D02*X91773Y254600D01*
X89000Y253000D02*X86227Y254600D01*
X87400Y253000D02*G75*G03X90600Y253000I1600J0D01*G01*
G75*G03X87400Y253000I-1600J0D01*G01*
X130290Y90570D02*Y87370D01*
Y90570D02*X133063Y92170D01*
X130290Y90570D02*X127517Y92170D01*
X128690Y90570D02*G75*G03X131890Y90570I1600J0D01*G01*
G75*G03X128690Y90570I-1600J0D01*G01*
X130290Y50570D02*Y47370D01*
Y50570D02*X133063Y52170D01*
X130290Y50570D02*X127517Y52170D01*
X128690Y50570D02*G75*G03X131890Y50570I1600J0D01*G01*
G75*G03X128690Y50570I-1600J0D01*G01*
X120290D02*Y47370D01*
Y50570D02*X123063Y52170D01*
X120290Y50570D02*X117517Y52170D01*
X118690Y50570D02*G75*G03X121890Y50570I1600J0D01*G01*
G75*G03X118690Y50570I-1600J0D01*G01*
X120290Y90570D02*Y87370D01*
Y90570D02*X123063Y92170D01*
X120290Y90570D02*X117517Y92170D01*
X118690Y90570D02*G75*G03X121890Y90570I1600J0D01*G01*
G75*G03X118690Y90570I-1600J0D01*G01*
X140000Y220000D02*Y216800D01*
Y220000D02*X142773Y221600D01*
X140000Y220000D02*X137227Y221600D01*
X138400Y220000D02*G75*G03X141600Y220000I1600J0D01*G01*
G75*G03X138400Y220000I-1600J0D01*G01*
X140000Y180000D02*Y176800D01*
Y180000D02*X142773Y181600D01*
X140000Y180000D02*X137227Y181600D01*
X138400Y180000D02*G75*G03X141600Y180000I1600J0D01*G01*
G75*G03X138400Y180000I-1600J0D01*G01*
X130000Y230000D02*Y226800D01*
Y230000D02*X132773Y231600D01*
X130000Y230000D02*X127227Y231600D01*
X128400Y230000D02*G75*G03X131600Y230000I1600J0D01*G01*
G75*G03X128400Y230000I-1600J0D01*G01*
X130000Y190000D02*Y186800D01*
Y190000D02*X132773Y191600D01*
X130000Y190000D02*X127227Y191600D01*
X128400Y190000D02*G75*G03X131600Y190000I1600J0D01*G01*
G75*G03X128400Y190000I-1600J0D01*G01*
X100000D02*Y186800D01*
Y190000D02*X102773Y191600D01*
X100000Y190000D02*X97227Y191600D01*
X98400Y190000D02*G75*G03X101600Y190000I1600J0D01*G01*
G75*G03X98400Y190000I-1600J0D01*G01*
X100000Y200000D02*Y196800D01*
Y200000D02*X102773Y201600D01*
X100000Y200000D02*X97227Y201600D01*
X98400Y200000D02*G75*G03X101600Y200000I1600J0D01*G01*
G75*G03X98400Y200000I-1600J0D01*G01*
X320000Y220000D02*Y216800D01*
Y220000D02*X322773Y221600D01*
X320000Y220000D02*X317227Y221600D01*
X318400Y220000D02*G75*G03X321600Y220000I1600J0D01*G01*
G75*G03X318400Y220000I-1600J0D01*G01*
X320000Y210000D02*Y206800D01*
Y210000D02*X322773Y211600D01*
X320000Y210000D02*X317227Y211600D01*
X318400Y210000D02*G75*G03X321600Y210000I1600J0D01*G01*
G75*G03X318400Y210000I-1600J0D01*G01*
X320000Y280000D02*Y276800D01*
Y280000D02*X322773Y281600D01*
X320000Y280000D02*X317227Y281600D01*
X318400Y280000D02*G75*G03X321600Y280000I1600J0D01*G01*
G75*G03X318400Y280000I-1600J0D01*G01*
X320000Y270000D02*Y266800D01*
Y270000D02*X322773Y271600D01*
X320000Y270000D02*X317227Y271600D01*
X318400Y270000D02*G75*G03X321600Y270000I1600J0D01*G01*
G75*G03X318400Y270000I-1600J0D01*G01*
X40000Y307000D02*Y303800D01*
Y307000D02*X42773Y308600D01*
X40000Y307000D02*X37227Y308600D01*
X38400Y307000D02*G75*G03X41600Y307000I1600J0D01*G01*
G75*G03X38400Y307000I-1600J0D01*G01*
X30000D02*Y303800D01*
Y307000D02*X32773Y308600D01*
X30000Y307000D02*X27227Y308600D01*
X28400Y307000D02*G75*G03X31600Y307000I1600J0D01*G01*
G75*G03X28400Y307000I-1600J0D01*G01*
X40000Y317000D02*Y313800D01*
Y317000D02*X42773Y318600D01*
X40000Y317000D02*X37227Y318600D01*
X38400Y317000D02*G75*G03X41600Y317000I1600J0D01*G01*
G75*G03X38400Y317000I-1600J0D01*G01*
X30000D02*Y313800D01*
Y317000D02*X32773Y318600D01*
X30000Y317000D02*X27227Y318600D01*
X28400Y317000D02*G75*G03X31600Y317000I1600J0D01*G01*
G75*G03X28400Y317000I-1600J0D01*G01*
X40000Y327000D02*Y323800D01*
Y327000D02*X42773Y328600D01*
X40000Y327000D02*X37227Y328600D01*
X38400Y327000D02*G75*G03X41600Y327000I1600J0D01*G01*
G75*G03X38400Y327000I-1600J0D01*G01*
X30000D02*Y323800D01*
Y327000D02*X32773Y328600D01*
X30000Y327000D02*X27227Y328600D01*
X28400Y327000D02*G75*G03X31600Y327000I1600J0D01*G01*
G75*G03X28400Y327000I-1600J0D01*G01*
X40000Y337000D02*Y333800D01*
Y337000D02*X42773Y338600D01*
X40000Y337000D02*X37227Y338600D01*
X38400Y337000D02*G75*G03X41600Y337000I1600J0D01*G01*
G75*G03X38400Y337000I-1600J0D01*G01*
X30000D02*Y333800D01*
Y337000D02*X32773Y338600D01*
X30000Y337000D02*X27227Y338600D01*
X28400Y337000D02*G75*G03X31600Y337000I1600J0D01*G01*
G75*G03X28400Y337000I-1600J0D01*G01*
X40000Y347000D02*Y343800D01*
Y347000D02*X42773Y348600D01*
X40000Y347000D02*X37227Y348600D01*
X38400Y347000D02*G75*G03X41600Y347000I1600J0D01*G01*
G75*G03X38400Y347000I-1600J0D01*G01*
X30000D02*Y343800D01*
Y347000D02*X32773Y348600D01*
X30000Y347000D02*X27227Y348600D01*
X28400Y347000D02*G75*G03X31600Y347000I1600J0D01*G01*
G75*G03X28400Y347000I-1600J0D01*G01*
X15000Y446250D02*Y443050D01*
Y446250D02*X17773Y447850D01*
X15000Y446250D02*X12227Y447850D01*
X13400Y446250D02*G75*G03X16600Y446250I1600J0D01*G01*
G75*G03X13400Y446250I-1600J0D01*G01*
X135000Y448500D02*X136500Y445500D01*
X138000Y448500D01*
X136500Y445500D02*Y442500D01*
X139800Y445800D02*X142050D01*
X139800Y442500D02*X142800D01*
X139800Y448500D02*Y442500D01*
Y448500D02*X142800D01*
X147600D02*X148350Y447750D01*
X145350Y448500D02*X147600D01*
X144600Y447750D02*X145350Y448500D01*
X144600Y447750D02*Y446250D01*
X145350Y445500D01*
X147600D01*
X148350Y444750D01*
Y443250D01*
X147600Y442500D02*X148350Y443250D01*
X145350Y442500D02*X147600D01*
X144600Y443250D02*X145350Y442500D01*
X98000Y443250D02*X98750Y442500D01*
X98000Y444450D02*Y443250D01*
Y444450D02*X99050Y445500D01*
X99950D01*
X101000Y444450D01*
Y443250D01*
X100250Y442500D02*X101000Y443250D01*
X98750Y442500D02*X100250D01*
X98000Y446550D02*X99050Y445500D01*
X98000Y447750D02*Y446550D01*
Y447750D02*X98750Y448500D01*
X100250D01*
X101000Y447750D01*
Y446550D01*
X99950Y445500D02*X101000Y446550D01*
X102800Y447750D02*X103550Y448500D01*
X105800D01*
X106550Y447750D01*
Y446250D01*
X102800Y442500D02*X106550Y446250D01*
X102800Y442500D02*X106550D01*
X45000Y443250D02*X45750Y442500D01*
X45000Y447750D02*Y443250D01*
Y447750D02*X45750Y448500D01*
X47250D01*
X48000Y447750D01*
Y443250D01*
X47250Y442500D02*X48000Y443250D01*
X45750Y442500D02*X47250D01*
X45000Y444000D02*X48000Y447000D01*
X49800Y442500D02*X50550D01*
X52350Y443250D02*X53100Y442500D01*
X52350Y447750D02*Y443250D01*
Y447750D02*X53100Y448500D01*
X54600D01*
X55350Y447750D01*
Y443250D01*
X54600Y442500D02*X55350Y443250D01*
X53100Y442500D02*X54600D01*
X52350Y444000D02*X55350Y447000D01*
X57150Y447750D02*X57900Y448500D01*
X59400D01*
X60150Y447750D01*
X59400Y442500D02*X60150Y443250D01*
X57900Y442500D02*X59400D01*
X57150Y443250D02*X57900Y442500D01*
Y445800D02*X59400D01*
X60150Y447750D02*Y446550D01*
Y445050D02*Y443250D01*
Y445050D02*X59400Y445800D01*
X60150Y446550D02*X59400Y445800D01*
X61950Y443250D02*X62700Y442500D01*
X61950Y444450D02*Y443250D01*
Y444450D02*X63000Y445500D01*
X63900D01*
X64950Y444450D01*
Y443250D01*
X64200Y442500D02*X64950Y443250D01*
X62700Y442500D02*X64200D01*
X61950Y446550D02*X63000Y445500D01*
X61950Y447750D02*Y446550D01*
Y447750D02*X62700Y448500D01*
X64200D01*
X64950Y447750D01*
Y446550D01*
X63900Y445500D02*X64950Y446550D01*
X130200Y280000D02*X133400D01*
X130200D02*Y276800D01*
X133400D01*
Y280000D02*Y276800D01*
X138400Y171600D02*X141600D01*
X138400D02*Y168400D01*
X141600D01*
Y171600D02*Y168400D01*
X13400Y462850D02*X16600D01*
X13400D02*Y459650D01*
X16600D01*
Y462850D02*Y459650D01*
X135000Y463500D02*X136500Y460500D01*
X138000Y463500D01*
X136500Y460500D02*Y457500D01*
X139800Y460800D02*X142050D01*
X139800Y457500D02*X142800D01*
X139800Y463500D02*Y457500D01*
Y463500D02*X142800D01*
X147600D02*X148350Y462750D01*
X145350Y463500D02*X147600D01*
X144600Y462750D02*X145350Y463500D01*
X144600Y462750D02*Y461250D01*
X145350Y460500D01*
X147600D01*
X148350Y459750D01*
Y458250D01*
X147600Y457500D02*X148350Y458250D01*
X145350Y457500D02*X147600D01*
X144600Y458250D02*X145350Y457500D01*
X98000Y462750D02*X98750Y463500D01*
X101000D01*
X101750Y462750D01*
Y461250D01*
X98000Y457500D02*X101750Y461250D01*
X98000Y457500D02*X101750D01*
X45000Y458250D02*X45750Y457500D01*
X45000Y462750D02*Y458250D01*
Y462750D02*X45750Y463500D01*
X47250D01*
X48000Y462750D01*
Y458250D01*
X47250Y457500D02*X48000Y458250D01*
X45750Y457500D02*X47250D01*
X45000Y459000D02*X48000Y462000D01*
X49800Y457500D02*X50550D01*
X52350Y458250D02*X53100Y457500D01*
X52350Y462750D02*Y458250D01*
Y462750D02*X53100Y463500D01*
X54600D01*
X55350Y462750D01*
Y458250D01*
X54600Y457500D02*X55350Y458250D01*
X53100Y457500D02*X54600D01*
X52350Y459000D02*X55350Y462000D01*
X57150Y462750D02*X57900Y463500D01*
X59400D01*
X60150Y462750D01*
X59400Y457500D02*X60150Y458250D01*
X57900Y457500D02*X59400D01*
X57150Y458250D02*X57900Y457500D01*
Y460800D02*X59400D01*
X60150Y462750D02*Y461550D01*
Y460050D02*Y458250D01*
Y460050D02*X59400Y460800D01*
X60150Y461550D02*X59400Y460800D01*
X61950Y463500D02*X64950D01*
X61950D02*Y460500D01*
X62700Y461250D01*
X64200D01*
X64950Y460500D01*
Y458250D01*
X64200Y457500D02*X64950Y458250D01*
X62700Y457500D02*X64200D01*
X61950Y458250D02*X62700Y457500D01*
X219200Y90000D02*G75*G03X220800Y90000I800J0D01*G01*
G75*G03X219200Y90000I-800J0D01*G01*
Y100000D02*G75*G03X220800Y100000I800J0D01*G01*
G75*G03X219200Y100000I-800J0D01*G01*
X239200Y60000D02*G75*G03X240800Y60000I800J0D01*G01*
G75*G03X239200Y60000I-800J0D01*G01*
Y50000D02*G75*G03X240800Y50000I800J0D01*G01*
G75*G03X239200Y50000I-800J0D01*G01*
X99200Y330000D02*G75*G03X100800Y330000I800J0D01*G01*
G75*G03X99200Y330000I-800J0D01*G01*
Y310000D02*G75*G03X100800Y310000I800J0D01*G01*
G75*G03X99200Y310000I-800J0D01*G01*
X79200Y329800D02*G75*G03X80800Y329800I800J0D01*G01*
G75*G03X79200Y329800I-800J0D01*G01*
Y349800D02*G75*G03X80800Y349800I800J0D01*G01*
G75*G03X79200Y349800I-800J0D01*G01*
X259200Y320000D02*G75*G03X260800Y320000I800J0D01*G01*
G75*G03X259200Y320000I-800J0D01*G01*
Y340000D02*G75*G03X260800Y340000I800J0D01*G01*
G75*G03X259200Y340000I-800J0D01*G01*
X59200Y233000D02*G75*G03X60800Y233000I800J0D01*G01*
G75*G03X59200Y233000I-800J0D01*G01*
Y253000D02*G75*G03X60800Y253000I800J0D01*G01*
G75*G03X59200Y253000I-800J0D01*G01*
X39200Y250000D02*G75*G03X40800Y250000I800J0D01*G01*
G75*G03X39200Y250000I-800J0D01*G01*
Y240000D02*G75*G03X40800Y240000I800J0D01*G01*
G75*G03X39200Y240000I-800J0D01*G01*
Y280000D02*G75*G03X40800Y280000I800J0D01*G01*
G75*G03X39200Y280000I-800J0D01*G01*
Y270000D02*G75*G03X40800Y270000I800J0D01*G01*
G75*G03X39200Y270000I-800J0D01*G01*
X59200Y265000D02*G75*G03X60800Y265000I800J0D01*G01*
G75*G03X59200Y265000I-800J0D01*G01*
Y285000D02*G75*G03X60800Y285000I800J0D01*G01*
G75*G03X59200Y285000I-800J0D01*G01*
X109200Y120000D02*G75*G03X110800Y120000I800J0D01*G01*
G75*G03X109200Y120000I-800J0D01*G01*
Y160000D02*G75*G03X110800Y160000I800J0D01*G01*
G75*G03X109200Y160000I-800J0D01*G01*
X159200Y120000D02*G75*G03X160800Y120000I800J0D01*G01*
G75*G03X159200Y120000I-800J0D01*G01*
X179200D02*G75*G03X180800Y120000I800J0D01*G01*
G75*G03X179200Y120000I-800J0D01*G01*
X169200Y349600D02*G75*G03X170800Y349600I800J0D01*G01*
G75*G03X169200Y349600I-800J0D01*G01*
X149200D02*G75*G03X150800Y349600I800J0D01*G01*
G75*G03X149200Y349600I-800J0D01*G01*
X14200Y476250D02*G75*G03X15800Y476250I800J0D01*G01*
G75*G03X14200Y476250I-800J0D01*G01*
X135000Y478500D02*X136500Y475500D01*
X138000Y478500D01*
X136500Y475500D02*Y472500D01*
X139800Y475800D02*X142050D01*
X139800Y472500D02*X142800D01*
X139800Y478500D02*Y472500D01*
Y478500D02*X142800D01*
X147600D02*X148350Y477750D01*
X145350Y478500D02*X147600D01*
X144600Y477750D02*X145350Y478500D01*
X144600Y477750D02*Y476250D01*
X145350Y475500D01*
X147600D01*
X148350Y474750D01*
Y473250D01*
X147600Y472500D02*X148350Y473250D01*
X145350Y472500D02*X147600D01*
X144600Y473250D02*X145350Y472500D01*
X98000Y477750D02*X98750Y478500D01*
X101000D01*
X101750Y477750D01*
Y476250D01*
X98000Y472500D02*X101750Y476250D01*
X98000Y472500D02*X101750D01*
X103550Y474750D02*X106550Y478500D01*
X103550Y474750D02*X107300D01*
X106550Y478500D02*Y472500D01*
X45000Y473250D02*X45750Y472500D01*
X45000Y477750D02*Y473250D01*
Y477750D02*X45750Y478500D01*
X47250D01*
X48000Y477750D01*
Y473250D01*
X47250Y472500D02*X48000Y473250D01*
X45750Y472500D02*X47250D01*
X45000Y474000D02*X48000Y477000D01*
X49800Y472500D02*X50550D01*
X52350Y473250D02*X53100Y472500D01*
X52350Y477750D02*Y473250D01*
Y477750D02*X53100Y478500D01*
X54600D01*
X55350Y477750D01*
Y473250D01*
X54600Y472500D02*X55350Y473250D01*
X53100Y472500D02*X54600D01*
X52350Y474000D02*X55350Y477000D01*
X57150Y477750D02*X57900Y478500D01*
X59400D01*
X60150Y477750D01*
X59400Y472500D02*X60150Y473250D01*
X57900Y472500D02*X59400D01*
X57150Y473250D02*X57900Y472500D01*
Y475800D02*X59400D01*
X60150Y477750D02*Y476550D01*
Y475050D02*Y473250D01*
Y475050D02*X59400Y475800D01*
X60150Y476550D02*X59400Y475800D01*
X61950Y473250D02*X62700Y472500D01*
X61950Y477750D02*Y473250D01*
Y477750D02*X62700Y478500D01*
X64200D01*
X64950Y477750D01*
Y473250D01*
X64200Y472500D02*X64950Y473250D01*
X62700Y472500D02*X64200D01*
X61950Y474000D02*X64950Y477000D01*
X218800Y151200D02*X221200Y148800D01*
X218800D02*X221200Y151200D01*
X218800Y145700D02*X221200Y143300D01*
X218800D02*X221200Y145700D01*
X218800Y140200D02*X221200Y137800D01*
X218800D02*X221200Y140200D01*
X218800Y181200D02*X221200Y178800D01*
X218800D02*X221200Y181200D01*
X218800Y175700D02*X221200Y173300D01*
X218800D02*X221200Y175700D01*
X218800Y170200D02*X221200Y167800D01*
X218800D02*X221200Y170200D01*
X218800Y211200D02*X221200Y208800D01*
X218800D02*X221200Y211200D01*
X218800Y205700D02*X221200Y203300D01*
X218800D02*X221200Y205700D01*
X218800Y200200D02*X221200Y197800D01*
X218800D02*X221200Y200200D01*
X218800Y241200D02*X221200Y238800D01*
X218800D02*X221200Y241200D01*
X218800Y235700D02*X221200Y233300D01*
X218800D02*X221200Y235700D01*
X218800Y230200D02*X221200Y227800D01*
X218800D02*X221200Y230200D01*
X318800Y321200D02*X321200Y318800D01*
X318800D02*X321200Y321200D01*
X318800Y326700D02*X321200Y324300D01*
X318800D02*X321200Y326700D01*
X318800Y332200D02*X321200Y329800D01*
X318800D02*X321200Y332200D01*
X108800Y251200D02*X111200Y248800D01*
X108800D02*X111200Y251200D01*
X108800Y256700D02*X111200Y254300D01*
X108800D02*X111200Y256700D01*
X108800Y262200D02*X111200Y259800D01*
X108800D02*X111200Y262200D01*
X13800Y492450D02*X16200Y490050D01*
X13800D02*X16200Y492450D01*
X135000Y493500D02*X136500Y490500D01*
X138000Y493500D01*
X136500Y490500D02*Y487500D01*
X139800Y490800D02*X142050D01*
X139800Y487500D02*X142800D01*
X139800Y493500D02*Y487500D01*
Y493500D02*X142800D01*
X147600D02*X148350Y492750D01*
X145350Y493500D02*X147600D01*
X144600Y492750D02*X145350Y493500D01*
X144600Y492750D02*Y491250D01*
X145350Y490500D01*
X147600D01*
X148350Y489750D01*
Y488250D01*
X147600Y487500D02*X148350Y488250D01*
X145350Y487500D02*X147600D01*
X144600Y488250D02*X145350Y487500D01*
X98000Y492300D02*X99200Y493500D01*
Y487500D01*
X98000D02*X100250D01*
X102050Y488250D02*X102800Y487500D01*
X102050Y489450D02*Y488250D01*
Y489450D02*X103100Y490500D01*
X104000D01*
X105050Y489450D01*
Y488250D01*
X104300Y487500D02*X105050Y488250D01*
X102800Y487500D02*X104300D01*
X102050Y491550D02*X103100Y490500D01*
X102050Y492750D02*Y491550D01*
Y492750D02*X102800Y493500D01*
X104300D01*
X105050Y492750D01*
Y491550D01*
X104000Y490500D02*X105050Y491550D01*
X45000Y488250D02*X45750Y487500D01*
X45000Y492750D02*Y488250D01*
Y492750D02*X45750Y493500D01*
X47250D01*
X48000Y492750D01*
Y488250D01*
X47250Y487500D02*X48000Y488250D01*
X45750Y487500D02*X47250D01*
X45000Y489000D02*X48000Y492000D01*
X49800Y487500D02*X50550D01*
X52350Y488250D02*X53100Y487500D01*
X52350Y492750D02*Y488250D01*
Y492750D02*X53100Y493500D01*
X54600D01*
X55350Y492750D01*
Y488250D01*
X54600Y487500D02*X55350Y488250D01*
X53100Y487500D02*X54600D01*
X52350Y489000D02*X55350Y492000D01*
X57150Y492750D02*X57900Y493500D01*
X60150D01*
X60900Y492750D01*
Y491250D01*
X57150Y487500D02*X60900Y491250D01*
X57150Y487500D02*X60900D01*
X63450D02*X65700Y490500D01*
Y492750D02*Y490500D01*
X64950Y493500D02*X65700Y492750D01*
X63450Y493500D02*X64950D01*
X62700Y492750D02*X63450Y493500D01*
X62700Y492750D02*Y491250D01*
X63450Y490500D01*
X65700D01*
X190000Y71600D02*Y68400D01*
X188400Y70000D02*X191600D01*
X180000Y71600D02*Y68400D01*
X178400Y70000D02*X181600D01*
X170000Y71600D02*Y68400D01*
X168400Y70000D02*X171600D01*
X160000Y71600D02*Y68400D01*
X158400Y70000D02*X161600D01*
X160000Y41600D02*Y38400D01*
X158400Y40000D02*X161600D01*
X170000Y41600D02*Y38400D01*
X168400Y40000D02*X171600D01*
X180000Y41600D02*Y38400D01*
X178400Y40000D02*X181600D01*
X190000Y41600D02*Y38400D01*
X188400Y40000D02*X191600D01*
X190000Y341600D02*Y338400D01*
X188400Y340000D02*X191600D01*
X180000Y341600D02*Y338400D01*
X178400Y340000D02*X181600D01*
X170000Y341600D02*Y338400D01*
X168400Y340000D02*X171600D01*
X160000Y341600D02*Y338400D01*
X158400Y340000D02*X161600D01*
X150000Y341600D02*Y338400D01*
X148400Y340000D02*X151600D01*
X140000Y341600D02*Y338400D01*
X138400Y340000D02*X141600D01*
X130000Y341600D02*Y338400D01*
X128400Y340000D02*X131600D01*
X130000Y311600D02*Y308400D01*
X128400Y310000D02*X131600D01*
X140000Y311600D02*Y308400D01*
X138400Y310000D02*X141600D01*
X150000Y311600D02*Y308400D01*
X148400Y310000D02*X151600D01*
X160000Y311600D02*Y308400D01*
X158400Y310000D02*X161600D01*
X170000Y311600D02*Y308400D01*
X168400Y310000D02*X171600D01*
X180000Y311600D02*Y308400D01*
X178400Y310000D02*X181600D01*
X190000Y311600D02*Y308400D01*
X188400Y310000D02*X191600D01*
X360000Y281600D02*Y278400D01*
X358400Y280000D02*X361600D01*
X370000Y271600D02*Y268400D01*
X368400Y270000D02*X371600D01*
X360000Y261600D02*Y258400D01*
X358400Y260000D02*X361600D01*
X360000Y221600D02*Y218400D01*
X358400Y220000D02*X361600D01*
X370000Y211600D02*Y208400D01*
X368400Y210000D02*X371600D01*
X360000Y201600D02*Y198400D01*
X358400Y200000D02*X361600D01*
X360000Y161600D02*Y158400D01*
X358400Y160000D02*X361600D01*
X370000Y151600D02*Y148400D01*
X368400Y150000D02*X371600D01*
X360000Y141600D02*Y138400D01*
X358400Y140000D02*X361600D01*
X350000Y91600D02*Y88400D01*
X348400Y90000D02*X351600D01*
X370000Y91600D02*Y88400D01*
X368400Y90000D02*X371600D01*
X370000Y71600D02*Y68400D01*
X368400Y70000D02*X371600D01*
X350000Y71600D02*Y68400D01*
X348400Y70000D02*X351600D01*
X15000Y507850D02*Y504650D01*
X13400Y506250D02*X16600D01*
X135000Y508500D02*X136500Y505500D01*
X138000Y508500D01*
X136500Y505500D02*Y502500D01*
X139800Y505800D02*X142050D01*
X139800Y502500D02*X142800D01*
X139800Y508500D02*Y502500D01*
Y508500D02*X142800D01*
X147600D02*X148350Y507750D01*
X145350Y508500D02*X147600D01*
X144600Y507750D02*X145350Y508500D01*
X144600Y507750D02*Y506250D01*
X145350Y505500D01*
X147600D01*
X148350Y504750D01*
Y503250D01*
X147600Y502500D02*X148350Y503250D01*
X145350Y502500D02*X147600D01*
X144600Y503250D02*X145350Y502500D01*
X98000Y507750D02*X98750Y508500D01*
X100250D01*
X101000Y507750D01*
X100250Y502500D02*X101000Y503250D01*
X98750Y502500D02*X100250D01*
X98000Y503250D02*X98750Y502500D01*
Y505800D02*X100250D01*
X101000Y507750D02*Y506550D01*
Y505050D02*Y503250D01*
Y505050D02*X100250Y505800D01*
X101000Y506550D02*X100250Y505800D01*
X102800Y508500D02*X105800D01*
X102800D02*Y505500D01*
X103550Y506250D01*
X105050D01*
X105800Y505500D01*
Y503250D01*
X105050Y502500D02*X105800Y503250D01*
X103550Y502500D02*X105050D01*
X102800Y503250D02*X103550Y502500D01*
X45000Y503250D02*X45750Y502500D01*
X45000Y507750D02*Y503250D01*
Y507750D02*X45750Y508500D01*
X47250D01*
X48000Y507750D01*
Y503250D01*
X47250Y502500D02*X48000Y503250D01*
X45750Y502500D02*X47250D01*
X45000Y504000D02*X48000Y507000D01*
X49800Y502500D02*X50550D01*
X52350Y503250D02*X53100Y502500D01*
X52350Y507750D02*Y503250D01*
Y507750D02*X53100Y508500D01*
X54600D01*
X55350Y507750D01*
Y503250D01*
X54600Y502500D02*X55350Y503250D01*
X53100Y502500D02*X54600D01*
X52350Y504000D02*X55350Y507000D01*
X57150Y507750D02*X57900Y508500D01*
X60150D01*
X60900Y507750D01*
Y506250D01*
X57150Y502500D02*X60900Y506250D01*
X57150Y502500D02*X60900D01*
X62700Y503250D02*X63450Y502500D01*
X62700Y504450D02*Y503250D01*
Y504450D02*X63750Y505500D01*
X64650D01*
X65700Y504450D01*
Y503250D01*
X64950Y502500D02*X65700Y503250D01*
X63450Y502500D02*X64950D01*
X62700Y506550D02*X63750Y505500D01*
X62700Y507750D02*Y506550D01*
Y507750D02*X63450Y508500D01*
X64950D01*
X65700Y507750D01*
Y506550D01*
X64650Y505500D02*X65700Y506550D01*
X150000Y290000D02*Y288400D01*
Y290000D02*X151387Y290800D01*
X150000Y290000D02*X148613Y290800D01*
X180000Y290000D02*Y288400D01*
Y290000D02*X181387Y290800D01*
X180000Y290000D02*X178613Y290800D01*
X110000Y340000D02*Y338400D01*
Y340000D02*X111387Y340800D01*
X110000Y340000D02*X108613Y340800D01*
X110000Y310000D02*Y308400D01*
Y310000D02*X111387Y310800D01*
X110000Y310000D02*X108613Y310800D01*
X80000Y220000D02*Y218400D01*
Y220000D02*X81387Y220800D01*
X80000Y220000D02*X78613Y220800D01*
X110000Y220000D02*Y218400D01*
Y220000D02*X111387Y220800D01*
X110000Y220000D02*X108613Y220800D01*
X80000Y230000D02*Y228400D01*
Y230000D02*X81387Y230800D01*
X80000Y230000D02*X78613Y230800D01*
X110000Y230000D02*Y228400D01*
Y230000D02*X111387Y230800D01*
X110000Y230000D02*X108613Y230800D01*
X340000Y310000D02*Y308400D01*
Y310000D02*X341387Y310800D01*
X340000Y310000D02*X338613Y310800D01*
X370000Y310000D02*Y308400D01*
Y310000D02*X371387Y310800D01*
X370000Y310000D02*X368613Y310800D01*
X370000Y320000D02*Y318400D01*
Y320000D02*X371387Y320800D01*
X370000Y320000D02*X368613Y320800D01*
X340000Y320000D02*Y318400D01*
Y320000D02*X341387Y320800D01*
X340000Y320000D02*X338613Y320800D01*
X142200Y60000D02*Y58400D01*
Y60000D02*X143587Y60800D01*
X142200Y60000D02*X140813Y60800D01*
X129900Y120900D02*Y119300D01*
Y120900D02*X131287Y121700D01*
X129900Y120900D02*X128513Y121700D01*
X139900Y146700D02*Y145100D01*
Y146700D02*X141287Y147500D01*
X139900Y146700D02*X138513Y147500D01*
X70000Y275000D02*Y273400D01*
Y275000D02*X71387Y275800D01*
X70000Y275000D02*X68613Y275800D01*
X57000Y295000D02*Y293400D01*
Y295000D02*X58387Y295800D01*
X57000Y295000D02*X55613Y295800D01*
X15000Y521250D02*Y519650D01*
Y521250D02*X16387Y522050D01*
X15000Y521250D02*X13613Y522050D01*
X135000Y523500D02*X136500Y520500D01*
X138000Y523500D01*
X136500Y520500D02*Y517500D01*
X139800Y520800D02*X142050D01*
X139800Y517500D02*X142800D01*
X139800Y523500D02*Y517500D01*
Y523500D02*X142800D01*
X147600D02*X148350Y522750D01*
X145350Y523500D02*X147600D01*
X144600Y522750D02*X145350Y523500D01*
X144600Y522750D02*Y521250D01*
X145350Y520500D01*
X147600D01*
X148350Y519750D01*
Y518250D01*
X147600Y517500D02*X148350Y518250D01*
X145350Y517500D02*X147600D01*
X144600Y518250D02*X145350Y517500D01*
X98000Y522300D02*X99200Y523500D01*
Y517500D01*
X98000D02*X100250D01*
X102800D02*X105800Y523500D01*
X102050D02*X105800D01*
X45000Y518250D02*X45750Y517500D01*
X45000Y522750D02*Y518250D01*
Y522750D02*X45750Y523500D01*
X47250D01*
X48000Y522750D01*
Y518250D01*
X47250Y517500D02*X48000Y518250D01*
X45750Y517500D02*X47250D01*
X45000Y519000D02*X48000Y522000D01*
X49800Y517500D02*X50550D01*
X52350Y518250D02*X53100Y517500D01*
X52350Y522750D02*Y518250D01*
Y522750D02*X53100Y523500D01*
X54600D01*
X55350Y522750D01*
Y518250D01*
X54600Y517500D02*X55350Y518250D01*
X53100Y517500D02*X54600D01*
X52350Y519000D02*X55350Y522000D01*
X57150Y522750D02*X57900Y523500D01*
X60150D01*
X60900Y522750D01*
Y521250D01*
X57150Y517500D02*X60900Y521250D01*
X57150Y517500D02*X60900D01*
X62700Y518250D02*X63450Y517500D01*
X62700Y522750D02*Y518250D01*
Y522750D02*X63450Y523500D01*
X64950D01*
X65700Y522750D01*
Y518250D01*
X64950Y517500D02*X65700Y518250D01*
X63450Y517500D02*X64950D01*
X62700Y519000D02*X65700Y522000D01*
X3000Y538500D02*X3750Y537750D01*
X750Y538500D02*X3000D01*
X0Y537750D02*X750Y538500D01*
X0Y537750D02*Y536250D01*
X750Y535500D01*
X3000D01*
X3750Y534750D01*
Y533250D01*
X3000Y532500D02*X3750Y533250D01*
X750Y532500D02*X3000D01*
X0Y533250D02*X750Y532500D01*
X5550Y535500D02*Y533250D01*
X6300Y532500D01*
X8550Y535500D02*Y531000D01*
X7800Y530250D02*X8550Y531000D01*
X6300Y530250D02*X7800D01*
X5550Y531000D02*X6300Y530250D01*
Y532500D02*X7800D01*
X8550Y533250D01*
X11100Y534750D02*Y532500D01*
Y534750D02*X11850Y535500D01*
X12600D01*
X13350Y534750D01*
Y532500D01*
Y534750D02*X14100Y535500D01*
X14850D01*
X15600Y534750D01*
Y532500D01*
X10350Y535500D02*X11100Y534750D01*
X17400Y538500D02*Y532500D01*
Y533250D02*X18150Y532500D01*
X19650D01*
X20400Y533250D01*
Y534750D02*Y533250D01*
X19650Y535500D02*X20400Y534750D01*
X18150Y535500D02*X19650D01*
X17400Y534750D02*X18150Y535500D01*
X22200Y534750D02*Y533250D01*
Y534750D02*X22950Y535500D01*
X24450D01*
X25200Y534750D01*
Y533250D01*
X24450Y532500D02*X25200Y533250D01*
X22950Y532500D02*X24450D01*
X22200Y533250D02*X22950Y532500D01*
X27000Y538500D02*Y533250D01*
X27750Y532500D01*
X0Y529250D02*X29250D01*
X41750Y538500D02*Y532500D01*
X43700Y538500D02*X44750Y537450D01*
Y533550D01*
X43700Y532500D02*X44750Y533550D01*
X41000Y532500D02*X43700D01*
X41000Y538500D02*X43700D01*
G54D99*X46550Y537000D02*Y536850D01*
G54D98*Y534750D02*Y532500D01*
X50300Y535500D02*X51050Y534750D01*
X48800Y535500D02*X50300D01*
X48050Y534750D02*X48800Y535500D01*
X48050Y534750D02*Y533250D01*
X48800Y532500D01*
X51050Y535500D02*Y533250D01*
X51800Y532500D01*
X48800D02*X50300D01*
X51050Y533250D01*
X54350Y534750D02*Y532500D01*
Y534750D02*X55100Y535500D01*
X55850D01*
X56600Y534750D01*
Y532500D01*
Y534750D02*X57350Y535500D01*
X58100D01*
X58850Y534750D01*
Y532500D01*
X53600Y535500D02*X54350Y534750D01*
X60650Y532500D02*X61400D01*
X65900Y533250D02*X66650Y532500D01*
X65900Y537750D02*X66650Y538500D01*
X65900Y537750D02*Y533250D01*
X68450Y538500D02*X69950D01*
X69200D02*Y532500D01*
X68450D02*X69950D01*
X72500Y534750D02*Y532500D01*
Y534750D02*X73250Y535500D01*
X74000D01*
X74750Y534750D01*
Y532500D01*
X71750Y535500D02*X72500Y534750D01*
X77300Y535500D02*X79550D01*
X76550Y534750D02*X77300Y535500D01*
X76550Y534750D02*Y533250D01*
X77300Y532500D01*
X79550D01*
X81350Y538500D02*Y532500D01*
Y534750D02*X82100Y535500D01*
X83600D01*
X84350Y534750D01*
Y532500D01*
X86150Y538500D02*X86900Y537750D01*
Y533250D01*
X86150Y532500D02*X86900Y533250D01*
X41000Y529250D02*X88700D01*
X96050Y532500D02*X98000D01*
X95000Y533550D02*X96050Y532500D01*
X95000Y537450D02*Y533550D01*
Y537450D02*X96050Y538500D01*
X98000D01*
X99800Y534750D02*Y533250D01*
Y534750D02*X100550Y535500D01*
X102050D01*
X102800Y534750D01*
Y533250D01*
X102050Y532500D02*X102800Y533250D01*
X100550Y532500D02*X102050D01*
X99800Y533250D02*X100550Y532500D01*
X104600Y535500D02*Y533250D01*
X105350Y532500D01*
X106850D01*
X107600Y533250D01*
Y535500D02*Y533250D01*
X110150Y534750D02*Y532500D01*
Y534750D02*X110900Y535500D01*
X111650D01*
X112400Y534750D01*
Y532500D01*
X109400Y535500D02*X110150Y534750D01*
X114950Y538500D02*Y533250D01*
X115700Y532500D01*
X114200Y536250D02*X115700D01*
X95000Y529250D02*X117200D01*
X130750Y538500D02*Y532500D01*
X130000Y538500D02*X133000D01*
X133750Y537750D01*
Y536250D01*
X133000Y535500D02*X133750Y536250D01*
X130750Y535500D02*X133000D01*
X135550Y538500D02*Y533250D01*
X136300Y532500D01*
X140050Y535500D02*X140800Y534750D01*
X138550Y535500D02*X140050D01*
X137800Y534750D02*X138550Y535500D01*
X137800Y534750D02*Y533250D01*
X138550Y532500D01*
X140800Y535500D02*Y533250D01*
X141550Y532500D01*
X138550D02*X140050D01*
X140800Y533250D01*
X144100Y538500D02*Y533250D01*
X144850Y532500D01*
X143350Y536250D02*X144850D01*
X147100Y532500D02*X149350D01*
X146350Y533250D02*X147100Y532500D01*
X146350Y534750D02*Y533250D01*
Y534750D02*X147100Y535500D01*
X148600D01*
X149350Y534750D01*
X146350Y534000D02*X149350D01*
Y534750D02*Y534000D01*
X154150Y538500D02*Y532500D01*
X153400D02*X154150Y533250D01*
X151900Y532500D02*X153400D01*
X151150Y533250D02*X151900Y532500D01*
X151150Y534750D02*Y533250D01*
Y534750D02*X151900Y535500D01*
X153400D01*
X154150Y534750D01*
X157450Y535500D02*Y534750D01*
Y533250D02*Y532500D01*
X155950Y537750D02*Y537000D01*
Y537750D02*X156700Y538500D01*
X158200D01*
X158950Y537750D01*
Y537000D01*
X157450Y535500D02*X158950Y537000D01*
X130000Y529250D02*X160750D01*
X0Y553500D02*X3000D01*
X1500D02*Y547500D01*
X4800Y553500D02*Y547500D01*
Y549750D02*X5550Y550500D01*
X7050D01*
X7800Y549750D01*
Y547500D01*
X10350D02*X12600D01*
X9600Y548250D02*X10350Y547500D01*
X9600Y549750D02*Y548250D01*
Y549750D02*X10350Y550500D01*
X11850D01*
X12600Y549750D01*
X9600Y549000D02*X12600D01*
Y549750D02*Y549000D01*
X15150Y549750D02*Y547500D01*
Y549750D02*X15900Y550500D01*
X17400D01*
X14400D02*X15150Y549750D01*
X19950Y547500D02*X22200D01*
X19200Y548250D02*X19950Y547500D01*
X19200Y549750D02*Y548250D01*
Y549750D02*X19950Y550500D01*
X21450D01*
X22200Y549750D01*
X19200Y549000D02*X22200D01*
Y549750D02*Y549000D01*
X28950Y550500D02*X29700Y549750D01*
X27450Y550500D02*X28950D01*
X26700Y549750D02*X27450Y550500D01*
X26700Y549750D02*Y548250D01*
X27450Y547500D01*
X29700Y550500D02*Y548250D01*
X30450Y547500D01*
X27450D02*X28950D01*
X29700Y548250D01*
X33000Y549750D02*Y547500D01*
Y549750D02*X33750Y550500D01*
X35250D01*
X32250D02*X33000Y549750D01*
X37800Y547500D02*X40050D01*
X37050Y548250D02*X37800Y547500D01*
X37050Y549750D02*Y548250D01*
Y549750D02*X37800Y550500D01*
X39300D01*
X40050Y549750D01*
X37050Y549000D02*X40050D01*
Y549750D02*Y549000D01*
X45300Y547500D02*X47550Y550500D01*
Y552750D02*Y550500D01*
X46800Y553500D02*X47550Y552750D01*
X45300Y553500D02*X46800D01*
X44550Y552750D02*X45300Y553500D01*
X44550Y552750D02*Y551250D01*
X45300Y550500D01*
X47550D01*
X55050Y553500D02*Y547500D01*
X54300D02*X55050Y548250D01*
X52800Y547500D02*X54300D01*
X52050Y548250D02*X52800Y547500D01*
X52050Y549750D02*Y548250D01*
Y549750D02*X52800Y550500D01*
X54300D01*
X55050Y549750D01*
G54D99*X56850Y552000D02*Y551850D01*
G54D98*Y549750D02*Y547500D01*
X59100Y552750D02*Y547500D01*
Y552750D02*X59850Y553500D01*
X60600D01*
X58350Y550500D02*X59850D01*
X62850Y552750D02*Y547500D01*
Y552750D02*X63600Y553500D01*
X64350D01*
X62100Y550500D02*X63600D01*
X66600Y547500D02*X68850D01*
X65850Y548250D02*X66600Y547500D01*
X65850Y549750D02*Y548250D01*
Y549750D02*X66600Y550500D01*
X68100D01*
X68850Y549750D01*
X65850Y549000D02*X68850D01*
Y549750D02*Y549000D01*
X71400Y549750D02*Y547500D01*
Y549750D02*X72150Y550500D01*
X73650D01*
X70650D02*X71400Y549750D01*
X76200Y547500D02*X78450D01*
X75450Y548250D02*X76200Y547500D01*
X75450Y549750D02*Y548250D01*
Y549750D02*X76200Y550500D01*
X77700D01*
X78450Y549750D01*
X75450Y549000D02*X78450D01*
Y549750D02*Y549000D01*
X81000Y549750D02*Y547500D01*
Y549750D02*X81750Y550500D01*
X82500D01*
X83250Y549750D01*
Y547500D01*
X80250Y550500D02*X81000Y549750D01*
X85800Y553500D02*Y548250D01*
X86550Y547500D01*
X85050Y551250D02*X86550D01*
X93750Y553500D02*Y547500D01*
X93000D02*X93750Y548250D01*
X91500Y547500D02*X93000D01*
X90750Y548250D02*X91500Y547500D01*
X90750Y549750D02*Y548250D01*
Y549750D02*X91500Y550500D01*
X93000D01*
X93750Y549750D01*
X96300D02*Y547500D01*
Y549750D02*X97050Y550500D01*
X98550D01*
X95550D02*X96300Y549750D01*
G54D99*X100350Y552000D02*Y551850D01*
G54D98*Y549750D02*Y547500D01*
X101850Y553500D02*Y548250D01*
X102600Y547500D01*
X104100Y553500D02*Y548250D01*
X104850Y547500D01*
X109800D02*X112050D01*
X112800Y548250D01*
X112050Y549000D02*X112800Y548250D01*
X109800Y549000D02*X112050D01*
X109050Y549750D02*X109800Y549000D01*
X109050Y549750D02*X109800Y550500D01*
X112050D01*
X112800Y549750D01*
X109050Y548250D02*X109800Y547500D01*
G54D99*X114600Y552000D02*Y551850D01*
G54D98*Y549750D02*Y547500D01*
X116100Y550500D02*X119100D01*
X116100Y547500D02*X119100Y550500D01*
X116100Y547500D02*X119100D01*
X121650D02*X123900D01*
X120900Y548250D02*X121650Y547500D01*
X120900Y549750D02*Y548250D01*
Y549750D02*X121650Y550500D01*
X123150D01*
X123900Y549750D01*
X120900Y549000D02*X123900D01*
Y549750D02*Y549000D01*
X126450Y547500D02*X128700D01*
X129450Y548250D01*
X128700Y549000D02*X129450Y548250D01*
X126450Y549000D02*X128700D01*
X125700Y549750D02*X126450Y549000D01*
X125700Y549750D02*X126450Y550500D01*
X128700D01*
X129450Y549750D01*
X125700Y548250D02*X126450Y547500D01*
X133950Y550500D02*Y548250D01*
X134700Y547500D01*
X136200D01*
X136950Y548250D01*
Y550500D02*Y548250D01*
X139500Y547500D02*X141750D01*
X142500Y548250D01*
X141750Y549000D02*X142500Y548250D01*
X139500Y549000D02*X141750D01*
X138750Y549750D02*X139500Y549000D01*
X138750Y549750D02*X139500Y550500D01*
X141750D01*
X142500Y549750D01*
X138750Y548250D02*X139500Y547500D01*
X145050D02*X147300D01*
X144300Y548250D02*X145050Y547500D01*
X144300Y549750D02*Y548250D01*
Y549750D02*X145050Y550500D01*
X146550D01*
X147300Y549750D01*
X144300Y549000D02*X147300D01*
Y549750D02*Y549000D01*
X152100Y553500D02*Y547500D01*
X151350D02*X152100Y548250D01*
X149850Y547500D02*X151350D01*
X149100Y548250D02*X149850Y547500D01*
X149100Y549750D02*Y548250D01*
Y549750D02*X149850Y550500D01*
X151350D01*
X152100Y549750D01*
G54D99*X156600Y552000D02*Y551850D01*
G54D98*Y549750D02*Y547500D01*
X158850Y549750D02*Y547500D01*
Y549750D02*X159600Y550500D01*
X160350D01*
X161100Y549750D01*
Y547500D01*
X158100Y550500D02*X158850Y549750D01*
X166350Y553500D02*Y548250D01*
X167100Y547500D01*
X165600Y551250D02*X167100D01*
X168600Y553500D02*Y547500D01*
Y549750D02*X169350Y550500D01*
X170850D01*
X171600Y549750D01*
Y547500D01*
G54D99*X173400Y552000D02*Y551850D01*
G54D98*Y549750D02*Y547500D01*
X175650D02*X177900D01*
X178650Y548250D01*
X177900Y549000D02*X178650Y548250D01*
X175650Y549000D02*X177900D01*
X174900Y549750D02*X175650Y549000D01*
X174900Y549750D02*X175650Y550500D01*
X177900D01*
X178650Y549750D01*
X174900Y548250D02*X175650Y547500D01*
X183150Y553500D02*Y548250D01*
X183900Y547500D01*
X187650Y550500D02*X188400Y549750D01*
X186150Y550500D02*X187650D01*
X185400Y549750D02*X186150Y550500D01*
X185400Y549750D02*Y548250D01*
X186150Y547500D01*
X188400Y550500D02*Y548250D01*
X189150Y547500D01*
X186150D02*X187650D01*
X188400Y548250D01*
X190950Y550500D02*Y548250D01*
X191700Y547500D01*
X193950Y550500D02*Y546000D01*
X193200Y545250D02*X193950Y546000D01*
X191700Y545250D02*X193200D01*
X190950Y546000D02*X191700Y545250D01*
Y547500D02*X193200D01*
X193950Y548250D01*
X195750Y549750D02*Y548250D01*
Y549750D02*X196500Y550500D01*
X198000D01*
X198750Y549750D01*
Y548250D01*
X198000Y547500D02*X198750Y548250D01*
X196500Y547500D02*X198000D01*
X195750Y548250D02*X196500Y547500D01*
X200550Y550500D02*Y548250D01*
X201300Y547500D01*
X202800D01*
X203550Y548250D01*
Y550500D02*Y548250D01*
X206100Y553500D02*Y548250D01*
X206850Y547500D01*
X205350Y551250D02*X206850D01*
X208350Y546000D02*X209850Y547500D01*
X214350Y552300D02*X215550Y553500D01*
Y547500D01*
X214350D02*X216600D01*
X219150D02*X221400Y550500D01*
Y552750D02*Y550500D01*
X220650Y553500D02*X221400Y552750D01*
X219150Y553500D02*X220650D01*
X218400Y552750D02*X219150Y553500D01*
X218400Y552750D02*Y551250D01*
X219150Y550500D01*
X221400D01*
X223200Y548250D02*X223950Y547500D01*
X223200Y552750D02*Y548250D01*
Y552750D02*X223950Y553500D01*
X225450D01*
X226200Y552750D01*
Y548250D01*
X225450Y547500D02*X226200Y548250D01*
X223950Y547500D02*X225450D01*
X223200Y549000D02*X226200Y552000D01*
X230700Y553500D02*Y547500D01*
Y549750D02*X231450Y550500D01*
X232950D01*
X233700Y549750D01*
Y547500D01*
X235500Y549750D02*Y548250D01*
Y549750D02*X236250Y550500D01*
X237750D01*
X238500Y549750D01*
Y548250D01*
X237750Y547500D02*X238500Y548250D01*
X236250Y547500D02*X237750D01*
X235500Y548250D02*X236250Y547500D01*
X240300Y553500D02*Y548250D01*
X241050Y547500D01*
X243300D02*X245550D01*
X242550Y548250D02*X243300Y547500D01*
X242550Y549750D02*Y548250D01*
Y549750D02*X243300Y550500D01*
X244800D01*
X245550Y549750D01*
X242550Y549000D02*X245550D01*
Y549750D02*Y549000D01*
X248100Y547500D02*X250350D01*
X251100Y548250D01*
X250350Y549000D02*X251100Y548250D01*
X248100Y549000D02*X250350D01*
X247350Y549750D02*X248100Y549000D01*
X247350Y549750D02*X248100Y550500D01*
X250350D01*
X251100Y549750D01*
X247350Y548250D02*X248100Y547500D01*
X256350Y553500D02*Y548250D01*
X257100Y547500D01*
X255600Y551250D02*X257100D01*
X258600Y549750D02*Y548250D01*
Y549750D02*X259350Y550500D01*
X260850D01*
X261600Y549750D01*
Y548250D01*
X260850Y547500D02*X261600Y548250D01*
X259350Y547500D02*X260850D01*
X258600Y548250D02*X259350Y547500D01*
X264150Y553500D02*Y548250D01*
X264900Y547500D01*
X263400Y551250D02*X264900D01*
X268650Y550500D02*X269400Y549750D01*
X267150Y550500D02*X268650D01*
X266400Y549750D02*X267150Y550500D01*
X266400Y549750D02*Y548250D01*
X267150Y547500D01*
X269400Y550500D02*Y548250D01*
X270150Y547500D01*
X267150D02*X268650D01*
X269400Y548250D01*
X271950Y553500D02*Y548250D01*
X272700Y547500D01*
G54D100*X0Y390000D02*X390000D01*
X0D02*Y0D01*
X390000Y390000D02*Y0D01*
X0D02*X390000D01*
G54D98*X200000Y403500D02*Y397500D01*
Y403500D02*X202250Y400500D01*
X204500Y403500D01*
Y397500D01*
X208550Y400500D02*X209300Y399750D01*
X207050Y400500D02*X208550D01*
X206300Y399750D02*X207050Y400500D01*
X206300Y399750D02*Y398250D01*
X207050Y397500D01*
X209300Y400500D02*Y398250D01*
X210050Y397500D01*
X207050D02*X208550D01*
X209300Y398250D01*
X211850Y400500D02*X214850Y397500D01*
X211850D02*X214850Y400500D01*
G54D99*X216650Y402000D02*Y401850D01*
G54D98*Y399750D02*Y397500D01*
X218900Y399750D02*Y397500D01*
Y399750D02*X219650Y400500D01*
X220400D01*
X221150Y399750D01*
Y397500D01*
Y399750D02*X221900Y400500D01*
X222650D01*
X223400Y399750D01*
Y397500D01*
X218150Y400500D02*X218900Y399750D01*
X225200Y400500D02*Y398250D01*
X225950Y397500D01*
X227450D01*
X228200Y398250D01*
Y400500D02*Y398250D01*
X230750Y399750D02*Y397500D01*
Y399750D02*X231500Y400500D01*
X232250D01*
X233000Y399750D01*
Y397500D01*
Y399750D02*X233750Y400500D01*
X234500D01*
X235250Y399750D01*
Y397500D01*
X230000Y400500D02*X230750Y399750D01*
X240500Y403500D02*Y397500D01*
X242450Y403500D02*X243500Y402450D01*
Y398550D01*
X242450Y397500D02*X243500Y398550D01*
X239750Y397500D02*X242450D01*
X239750Y403500D02*X242450D01*
G54D99*X245300Y402000D02*Y401850D01*
G54D98*Y399750D02*Y397500D01*
X247550Y399750D02*Y397500D01*
Y399750D02*X248300Y400500D01*
X249050D01*
X249800Y399750D01*
Y397500D01*
Y399750D02*X250550Y400500D01*
X251300D01*
X252050Y399750D01*
Y397500D01*
X246800Y400500D02*X247550Y399750D01*
X254600Y397500D02*X256850D01*
X253850Y398250D02*X254600Y397500D01*
X253850Y399750D02*Y398250D01*
Y399750D02*X254600Y400500D01*
X256100D01*
X256850Y399750D01*
X253850Y399000D02*X256850D01*
Y399750D02*Y399000D01*
X259400Y399750D02*Y397500D01*
Y399750D02*X260150Y400500D01*
X260900D01*
X261650Y399750D01*
Y397500D01*
X258650Y400500D02*X259400Y399750D01*
X264200Y397500D02*X266450D01*
X267200Y398250D01*
X266450Y399000D02*X267200Y398250D01*
X264200Y399000D02*X266450D01*
X263450Y399750D02*X264200Y399000D01*
X263450Y399750D02*X264200Y400500D01*
X266450D01*
X267200Y399750D01*
X263450Y398250D02*X264200Y397500D01*
G54D99*X269000Y402000D02*Y401850D01*
G54D98*Y399750D02*Y397500D01*
X270500Y399750D02*Y398250D01*
Y399750D02*X271250Y400500D01*
X272750D01*
X273500Y399750D01*
Y398250D01*
X272750Y397500D02*X273500Y398250D01*
X271250Y397500D02*X272750D01*
X270500Y398250D02*X271250Y397500D01*
X276050Y399750D02*Y397500D01*
Y399750D02*X276800Y400500D01*
X277550D01*
X278300Y399750D01*
Y397500D01*
X275300Y400500D02*X276050Y399750D01*
X280850Y397500D02*X283100D01*
X283850Y398250D01*
X283100Y399000D02*X283850Y398250D01*
X280850Y399000D02*X283100D01*
X280100Y399750D02*X280850Y399000D01*
X280100Y399750D02*X280850Y400500D01*
X283100D01*
X283850Y399750D01*
X280100Y398250D02*X280850Y397500D01*
X285650Y401250D02*X286400D01*
X285650Y399750D02*X286400D01*
X290900Y402750D02*X291650Y403500D01*
X293150D01*
X293900Y402750D01*
X293150Y397500D02*X293900Y398250D01*
X291650Y397500D02*X293150D01*
X290900Y398250D02*X291650Y397500D01*
Y400800D02*X293150D01*
X293900Y402750D02*Y401550D01*
Y400050D02*Y398250D01*
Y400050D02*X293150Y400800D01*
X293900Y401550D02*X293150Y400800D01*
X296450Y397500D02*X298700Y400500D01*
Y402750D02*Y400500D01*
X297950Y403500D02*X298700Y402750D01*
X296450Y403500D02*X297950D01*
X295700Y402750D02*X296450Y403500D01*
X295700Y402750D02*Y401250D01*
X296450Y400500D01*
X298700D01*
X300500Y398250D02*X301250Y397500D01*
X300500Y402750D02*Y398250D01*
Y402750D02*X301250Y403500D01*
X302750D01*
X303500Y402750D01*
Y398250D01*
X302750Y397500D02*X303500Y398250D01*
X301250Y397500D02*X302750D01*
X300500Y399000D02*X303500Y402000D01*
X305300Y398250D02*X306050Y397500D01*
X305300Y402750D02*Y398250D01*
Y402750D02*X306050Y403500D01*
X307550D01*
X308300Y402750D01*
Y398250D01*
X307550Y397500D02*X308300Y398250D01*
X306050Y397500D02*X307550D01*
X305300Y399000D02*X308300Y402000D01*
X310100Y397500D02*X310850D01*
X312650Y398250D02*X313400Y397500D01*
X312650Y402750D02*Y398250D01*
Y402750D02*X313400Y403500D01*
X314900D01*
X315650Y402750D01*
Y398250D01*
X314900Y397500D02*X315650Y398250D01*
X313400Y397500D02*X314900D01*
X312650Y399000D02*X315650Y402000D01*
X317450Y398250D02*X318200Y397500D01*
X317450Y402750D02*Y398250D01*
Y402750D02*X318200Y403500D01*
X319700D01*
X320450Y402750D01*
Y398250D01*
X319700Y397500D02*X320450Y398250D01*
X318200Y397500D02*X319700D01*
X317450Y399000D02*X320450Y402000D01*
X322250Y398250D02*X323000Y397500D01*
X322250Y402750D02*Y398250D01*
Y402750D02*X323000Y403500D01*
X324500D01*
X325250Y402750D01*
Y398250D01*
X324500Y397500D02*X325250Y398250D01*
X323000Y397500D02*X324500D01*
X322250Y399000D02*X325250Y402000D01*
X327050Y398250D02*X327800Y397500D01*
X327050Y402750D02*Y398250D01*
Y402750D02*X327800Y403500D01*
X329300D01*
X330050Y402750D01*
Y398250D01*
X329300Y397500D02*X330050Y398250D01*
X327800Y397500D02*X329300D01*
X327050Y399000D02*X330050Y402000D01*
X331850Y398250D02*X332600Y397500D01*
X331850Y402750D02*Y398250D01*
Y402750D02*X332600Y403500D01*
X334100D01*
X334850Y402750D01*
Y398250D01*
X334100Y397500D02*X334850Y398250D01*
X332600Y397500D02*X334100D01*
X331850Y399000D02*X334850Y402000D01*
X336650Y398250D02*X337400Y397500D01*
X336650Y402750D02*Y398250D01*
Y402750D02*X337400Y403500D01*
X338900D01*
X339650Y402750D01*
Y398250D01*
X338900Y397500D02*X339650Y398250D01*
X337400Y397500D02*X338900D01*
X336650Y399000D02*X339650Y402000D01*
X344900Y399750D02*Y397500D01*
Y399750D02*X345650Y400500D01*
X346400D01*
X347150Y399750D01*
Y397500D01*
Y399750D02*X347900Y400500D01*
X348650D01*
X349400Y399750D01*
Y397500D01*
X344150Y400500D02*X344900Y399750D01*
G54D99*X351200Y402000D02*Y401850D01*
G54D98*Y399750D02*Y397500D01*
X352700Y403500D02*Y398250D01*
X353450Y397500D01*
X355700D02*X357950D01*
X358700Y398250D01*
X357950Y399000D02*X358700Y398250D01*
X355700Y399000D02*X357950D01*
X354950Y399750D02*X355700Y399000D01*
X354950Y399750D02*X355700Y400500D01*
X357950D01*
X358700Y399750D01*
X354950Y398250D02*X355700Y397500D01*
X363200Y400500D02*Y398250D01*
X363950Y397500D01*
X364700D01*
X365450Y398250D01*
Y400500D02*Y398250D01*
X366200Y397500D01*
X366950D01*
X367700Y398250D01*
Y400500D02*Y398250D01*
G54D99*X369500Y402000D02*Y401850D01*
G54D98*Y399750D02*Y397500D01*
X374000Y403500D02*Y397500D01*
X373250D02*X374000Y398250D01*
X371750Y397500D02*X373250D01*
X371000Y398250D02*X371750Y397500D01*
X371000Y399750D02*Y398250D01*
Y399750D02*X371750Y400500D01*
X373250D01*
X374000Y399750D01*
X376550Y397500D02*X378800D01*
X375800Y398250D02*X376550Y397500D01*
X375800Y399750D02*Y398250D01*
Y399750D02*X376550Y400500D01*
X378050D01*
X378800Y399750D01*
X375800Y399000D02*X378800D01*
Y399750D02*Y399000D01*
X380600Y396000D02*X382100Y397500D01*
X386600Y402750D02*X387350Y403500D01*
X388850D01*
X389600Y402750D01*
X388850Y397500D02*X389600Y398250D01*
X387350Y397500D02*X388850D01*
X386600Y398250D02*X387350Y397500D01*
Y400800D02*X388850D01*
X389600Y402750D02*Y401550D01*
Y400050D02*Y398250D01*
Y400050D02*X388850Y400800D01*
X389600Y401550D02*X388850Y400800D01*
X392150Y397500D02*X394400Y400500D01*
Y402750D02*Y400500D01*
X393650Y403500D02*X394400Y402750D01*
X392150Y403500D02*X393650D01*
X391400Y402750D02*X392150Y403500D01*
X391400Y402750D02*Y401250D01*
X392150Y400500D01*
X394400D01*
X396200Y398250D02*X396950Y397500D01*
X396200Y402750D02*Y398250D01*
Y402750D02*X396950Y403500D01*
X398450D01*
X399200Y402750D01*
Y398250D01*
X398450Y397500D02*X399200Y398250D01*
X396950Y397500D02*X398450D01*
X396200Y399000D02*X399200Y402000D01*
X401000Y398250D02*X401750Y397500D01*
X401000Y402750D02*Y398250D01*
Y402750D02*X401750Y403500D01*
X403250D01*
X404000Y402750D01*
Y398250D01*
X403250Y397500D02*X404000Y398250D01*
X401750Y397500D02*X403250D01*
X401000Y399000D02*X404000Y402000D01*
X405800Y397500D02*X406550D01*
X408350Y398250D02*X409100Y397500D01*
X408350Y402750D02*Y398250D01*
Y402750D02*X409100Y403500D01*
X410600D01*
X411350Y402750D01*
Y398250D01*
X410600Y397500D02*X411350Y398250D01*
X409100Y397500D02*X410600D01*
X408350Y399000D02*X411350Y402000D01*
X413150Y398250D02*X413900Y397500D01*
X413150Y402750D02*Y398250D01*
Y402750D02*X413900Y403500D01*
X415400D01*
X416150Y402750D01*
Y398250D01*
X415400Y397500D02*X416150Y398250D01*
X413900Y397500D02*X415400D01*
X413150Y399000D02*X416150Y402000D01*
X417950Y398250D02*X418700Y397500D01*
X417950Y402750D02*Y398250D01*
Y402750D02*X418700Y403500D01*
X420200D01*
X420950Y402750D01*
Y398250D01*
X420200Y397500D02*X420950Y398250D01*
X418700Y397500D02*X420200D01*
X417950Y399000D02*X420950Y402000D01*
X422750Y398250D02*X423500Y397500D01*
X422750Y402750D02*Y398250D01*
Y402750D02*X423500Y403500D01*
X425000D01*
X425750Y402750D01*
Y398250D01*
X425000Y397500D02*X425750Y398250D01*
X423500Y397500D02*X425000D01*
X422750Y399000D02*X425750Y402000D01*
X427550Y398250D02*X428300Y397500D01*
X427550Y402750D02*Y398250D01*
Y402750D02*X428300Y403500D01*
X429800D01*
X430550Y402750D01*
Y398250D01*
X429800Y397500D02*X430550Y398250D01*
X428300Y397500D02*X429800D01*
X427550Y399000D02*X430550Y402000D01*
X432350Y398250D02*X433100Y397500D01*
X432350Y402750D02*Y398250D01*
Y402750D02*X433100Y403500D01*
X434600D01*
X435350Y402750D01*
Y398250D01*
X434600Y397500D02*X435350Y398250D01*
X433100Y397500D02*X434600D01*
X432350Y399000D02*X435350Y402000D01*
X440600Y399750D02*Y397500D01*
Y399750D02*X441350Y400500D01*
X442100D01*
X442850Y399750D01*
Y397500D01*
Y399750D02*X443600Y400500D01*
X444350D01*
X445100Y399750D01*
Y397500D01*
X439850Y400500D02*X440600Y399750D01*
G54D99*X446900Y402000D02*Y401850D01*
G54D98*Y399750D02*Y397500D01*
X448400Y403500D02*Y398250D01*
X449150Y397500D01*
X451400D02*X453650D01*
X454400Y398250D01*
X453650Y399000D02*X454400Y398250D01*
X451400Y399000D02*X453650D01*
X450650Y399750D02*X451400Y399000D01*
X450650Y399750D02*X451400Y400500D01*
X453650D01*
X454400Y399750D01*
X450650Y398250D02*X451400Y397500D01*
X458900Y403500D02*Y397500D01*
Y399750D02*X459650Y400500D01*
X461150D01*
X461900Y399750D01*
Y397500D01*
G54D99*X463700Y402000D02*Y401850D01*
G54D98*Y399750D02*Y397500D01*
X467450Y400500D02*X468200Y399750D01*
X465950Y400500D02*X467450D01*
X465200Y399750D02*X465950Y400500D01*
X465200Y399750D02*Y398250D01*
X465950Y397500D01*
X467450D01*
X468200Y398250D01*
X465200Y396000D02*X465950Y395250D01*
X467450D01*
X468200Y396000D01*
Y400500D02*Y396000D01*
X470000Y403500D02*Y397500D01*
Y399750D02*X470750Y400500D01*
X472250D01*
X473000Y399750D01*
Y397500D01*
X0Y-9500D02*X3000D01*
X3750Y-8750D01*
Y-6950D02*Y-8750D01*
X3000Y-6200D02*X3750Y-6950D01*
X750Y-6200D02*X3000D01*
X750Y-3500D02*Y-9500D01*
X0Y-3500D02*X3000D01*
X3750Y-4250D01*
Y-5450D01*
X3000Y-6200D02*X3750Y-5450D01*
X5550Y-7250D02*Y-8750D01*
Y-7250D02*X6300Y-6500D01*
X7800D01*
X8550Y-7250D01*
Y-8750D01*
X7800Y-9500D02*X8550Y-8750D01*
X6300Y-9500D02*X7800D01*
X5550Y-8750D02*X6300Y-9500D01*
X12600Y-6500D02*X13350Y-7250D01*
X11100Y-6500D02*X12600D01*
X10350Y-7250D02*X11100Y-6500D01*
X10350Y-7250D02*Y-8750D01*
X11100Y-9500D01*
X13350Y-6500D02*Y-8750D01*
X14100Y-9500D01*
X11100D02*X12600D01*
X13350Y-8750D01*
X16650Y-7250D02*Y-9500D01*
Y-7250D02*X17400Y-6500D01*
X18900D01*
X15900D02*X16650Y-7250D01*
X23700Y-3500D02*Y-9500D01*
X22950D02*X23700Y-8750D01*
X21450Y-9500D02*X22950D01*
X20700Y-8750D02*X21450Y-9500D01*
X20700Y-7250D02*Y-8750D01*
Y-7250D02*X21450Y-6500D01*
X22950D01*
X23700Y-7250D01*
X28200D02*Y-8750D01*
Y-7250D02*X28950Y-6500D01*
X30450D01*
X31200Y-7250D01*
Y-8750D01*
X30450Y-9500D02*X31200Y-8750D01*
X28950Y-9500D02*X30450D01*
X28200Y-8750D02*X28950Y-9500D01*
X33000Y-6500D02*Y-8750D01*
X33750Y-9500D01*
X35250D01*
X36000Y-8750D01*
Y-6500D02*Y-8750D01*
X38550Y-3500D02*Y-8750D01*
X39300Y-9500D01*
X37800Y-5750D02*X39300D01*
X40800Y-3500D02*Y-8750D01*
X41550Y-9500D01*
G54D99*X43050Y-5000D02*Y-5150D01*
G54D98*Y-7250D02*Y-9500D01*
X45300Y-7250D02*Y-9500D01*
Y-7250D02*X46050Y-6500D01*
X46800D01*
X47550Y-7250D01*
Y-9500D01*
X44550Y-6500D02*X45300Y-7250D01*
X50100Y-9500D02*X52350D01*
X49350Y-8750D02*X50100Y-9500D01*
X49350Y-7250D02*Y-8750D01*
Y-7250D02*X50100Y-6500D01*
X51600D01*
X52350Y-7250D01*
X49350Y-8000D02*X52350D01*
Y-7250D02*Y-8000D01*
G54D99*X56850Y-5000D02*Y-5150D01*
G54D98*Y-7250D02*Y-9500D01*
X59100D02*X61350D01*
X62100Y-8750D01*
X61350Y-8000D02*X62100Y-8750D01*
X59100Y-8000D02*X61350D01*
X58350Y-7250D02*X59100Y-8000D01*
X58350Y-7250D02*X59100Y-6500D01*
X61350D01*
X62100Y-7250D01*
X58350Y-8750D02*X59100Y-9500D01*
X67350Y-3500D02*Y-8750D01*
X68100Y-9500D01*
X66600Y-5750D02*X68100D01*
X69600Y-3500D02*Y-9500D01*
Y-7250D02*X70350Y-6500D01*
X71850D01*
X72600Y-7250D01*
Y-9500D01*
X75150D02*X77400D01*
X74400Y-8750D02*X75150Y-9500D01*
X74400Y-7250D02*Y-8750D01*
Y-7250D02*X75150Y-6500D01*
X76650D01*
X77400Y-7250D01*
X74400Y-8000D02*X77400D01*
Y-7250D02*Y-8000D01*
X82650Y-6500D02*X84900D01*
X81900Y-7250D02*X82650Y-6500D01*
X81900Y-7250D02*Y-8750D01*
X82650Y-9500D01*
X84900D01*
X87450D02*X89700D01*
X86700Y-8750D02*X87450Y-9500D01*
X86700Y-7250D02*Y-8750D01*
Y-7250D02*X87450Y-6500D01*
X88950D01*
X89700Y-7250D01*
X86700Y-8000D02*X89700D01*
Y-7250D02*Y-8000D01*
X92250Y-7250D02*Y-9500D01*
Y-7250D02*X93000Y-6500D01*
X93750D01*
X94500Y-7250D01*
Y-9500D01*
X91500Y-6500D02*X92250Y-7250D01*
X97050Y-3500D02*Y-8750D01*
X97800Y-9500D01*
X96300Y-5750D02*X97800D01*
X100050Y-9500D02*X102300D01*
X99300Y-8750D02*X100050Y-9500D01*
X99300Y-7250D02*Y-8750D01*
Y-7250D02*X100050Y-6500D01*
X101550D01*
X102300Y-7250D01*
X99300Y-8000D02*X102300D01*
Y-7250D02*Y-8000D01*
X104850Y-7250D02*Y-9500D01*
Y-7250D02*X105600Y-6500D01*
X107100D01*
X104100D02*X104850Y-7250D01*
X108900Y-3500D02*Y-8750D01*
X109650Y-9500D01*
G54D99*X111150Y-5000D02*Y-5150D01*
G54D98*Y-7250D02*Y-9500D01*
X113400Y-7250D02*Y-9500D01*
Y-7250D02*X114150Y-6500D01*
X114900D01*
X115650Y-7250D01*
Y-9500D01*
X112650Y-6500D02*X113400Y-7250D01*
X118200Y-9500D02*X120450D01*
X117450Y-8750D02*X118200Y-9500D01*
X117450Y-7250D02*Y-8750D01*
Y-7250D02*X118200Y-6500D01*
X119700D01*
X120450Y-7250D01*
X117450Y-8000D02*X120450D01*
Y-7250D02*Y-8000D01*
X124950Y-7250D02*Y-8750D01*
Y-7250D02*X125700Y-6500D01*
X127200D01*
X127950Y-7250D01*
Y-8750D01*
X127200Y-9500D02*X127950Y-8750D01*
X125700Y-9500D02*X127200D01*
X124950Y-8750D02*X125700Y-9500D01*
X130500Y-4250D02*Y-9500D01*
Y-4250D02*X131250Y-3500D01*
X132000D01*
X129750Y-6500D02*X131250D01*
X136950Y-3500D02*Y-8750D01*
X137700Y-9500D01*
X136200Y-5750D02*X137700D01*
X139200Y-3500D02*Y-9500D01*
Y-7250D02*X139950Y-6500D01*
X141450D01*
X142200Y-7250D01*
Y-9500D01*
G54D99*X144000Y-5000D02*Y-5150D01*
G54D98*Y-7250D02*Y-9500D01*
X146250D02*X148500D01*
X149250Y-8750D01*
X148500Y-8000D02*X149250Y-8750D01*
X146250Y-8000D02*X148500D01*
X145500Y-7250D02*X146250Y-8000D01*
X145500Y-7250D02*X146250Y-6500D01*
X148500D01*
X149250Y-7250D01*
X145500Y-8750D02*X146250Y-9500D01*
X153750Y-8750D02*X154500Y-9500D01*
X153750Y-7550D02*Y-8750D01*
Y-7550D02*X154800Y-6500D01*
X155700D01*
X156750Y-7550D01*
Y-8750D01*
X156000Y-9500D02*X156750Y-8750D01*
X154500Y-9500D02*X156000D01*
X153750Y-5450D02*X154800Y-6500D01*
X153750Y-4250D02*Y-5450D01*
Y-4250D02*X154500Y-3500D01*
X156000D01*
X156750Y-4250D01*
Y-5450D01*
X155700Y-6500D02*X156750Y-5450D01*
X158550Y-9500D02*X159300D01*
X161100Y-8750D02*X161850Y-9500D01*
X161100Y-4250D02*Y-8750D01*
Y-4250D02*X161850Y-3500D01*
X163350D01*
X164100Y-4250D01*
Y-8750D01*
X163350Y-9500D02*X164100Y-8750D01*
X161850Y-9500D02*X163350D01*
X161100Y-8000D02*X164100Y-5000D01*
X165900Y-8750D02*X166650Y-9500D01*
X165900Y-4250D02*Y-8750D01*
Y-4250D02*X166650Y-3500D01*
X168150D01*
X168900Y-4250D01*
Y-8750D01*
X168150Y-9500D02*X168900Y-8750D01*
X166650Y-9500D02*X168150D01*
X165900Y-8000D02*X168900Y-5000D01*
X170700Y-8750D02*X171450Y-9500D01*
X170700Y-4250D02*Y-8750D01*
Y-4250D02*X171450Y-3500D01*
X172950D01*
X173700Y-4250D01*
Y-8750D01*
X172950Y-9500D02*X173700Y-8750D01*
X171450Y-9500D02*X172950D01*
X170700Y-8000D02*X173700Y-5000D01*
X175500Y-8750D02*X176250Y-9500D01*
X175500Y-4250D02*Y-8750D01*
Y-4250D02*X176250Y-3500D01*
X177750D01*
X178500Y-4250D01*
Y-8750D01*
X177750Y-9500D02*X178500Y-8750D01*
X176250Y-9500D02*X177750D01*
X175500Y-8000D02*X178500Y-5000D01*
X180300Y-8750D02*X181050Y-9500D01*
X180300Y-4250D02*Y-8750D01*
Y-4250D02*X181050Y-3500D01*
X182550D01*
X183300Y-4250D01*
Y-8750D01*
X182550Y-9500D02*X183300Y-8750D01*
X181050Y-9500D02*X182550D01*
X180300Y-8000D02*X183300Y-5000D01*
X185100Y-8750D02*X185850Y-9500D01*
X185100Y-4250D02*Y-8750D01*
Y-4250D02*X185850Y-3500D01*
X187350D01*
X188100Y-4250D01*
Y-8750D01*
X187350Y-9500D02*X188100Y-8750D01*
X185850Y-9500D02*X187350D01*
X185100Y-8000D02*X188100Y-5000D01*
X193350Y-7250D02*Y-9500D01*
Y-7250D02*X194100Y-6500D01*
X194850D01*
X195600Y-7250D01*
Y-9500D01*
Y-7250D02*X196350Y-6500D01*
X197100D01*
X197850Y-7250D01*
Y-9500D01*
X192600Y-6500D02*X193350Y-7250D01*
G54D99*X199650Y-5000D02*Y-5150D01*
G54D98*Y-7250D02*Y-9500D01*
X201150Y-3500D02*Y-8750D01*
X201900Y-9500D01*
X206850Y-7250D02*Y-9500D01*
Y-7250D02*X207600Y-6500D01*
X209100D01*
X206100D02*X206850Y-7250D01*
X211650Y-9500D02*X213900D01*
X210900Y-8750D02*X211650Y-9500D01*
X210900Y-7250D02*Y-8750D01*
Y-7250D02*X211650Y-6500D01*
X213150D01*
X213900Y-7250D01*
X210900Y-8000D02*X213900D01*
Y-7250D02*Y-8000D01*
X216450Y-6500D02*X218700D01*
X215700Y-7250D02*X216450Y-6500D01*
X215700Y-7250D02*Y-8750D01*
X216450Y-9500D01*
X218700D01*
X221250Y-3500D02*Y-8750D01*
X222000Y-9500D01*
X220500Y-5750D02*X222000D01*
X225750Y-6500D02*X226500Y-7250D01*
X224250Y-6500D02*X225750D01*
X223500Y-7250D02*X224250Y-6500D01*
X223500Y-7250D02*Y-8750D01*
X224250Y-9500D01*
X226500Y-6500D02*Y-8750D01*
X227250Y-9500D01*
X224250D02*X225750D01*
X226500Y-8750D01*
X229800Y-7250D02*Y-9500D01*
Y-7250D02*X230550Y-6500D01*
X231300D01*
X232050Y-7250D01*
Y-9500D01*
X229050Y-6500D02*X229800Y-7250D01*
X236100Y-6500D02*X236850Y-7250D01*
X234600Y-6500D02*X236100D01*
X233850Y-7250D02*X234600Y-6500D01*
X233850Y-7250D02*Y-8750D01*
X234600Y-9500D01*
X236100D01*
X236850Y-8750D01*
X233850Y-11000D02*X234600Y-11750D01*
X236100D01*
X236850Y-11000D01*
Y-6500D02*Y-11000D01*
X238650Y-3500D02*Y-8750D01*
X239400Y-9500D01*
X241650D02*X243900D01*
X240900Y-8750D02*X241650Y-9500D01*
X240900Y-7250D02*Y-8750D01*
Y-7250D02*X241650Y-6500D01*
X243150D01*
X243900Y-7250D01*
X240900Y-8000D02*X243900D01*
Y-7250D02*Y-8000D01*
X248400Y-6500D02*X251400D01*
X255900Y-8750D02*X256650Y-9500D01*
X255900Y-4250D02*Y-8750D01*
Y-4250D02*X256650Y-3500D01*
X258150D01*
X258900Y-4250D01*
Y-8750D01*
X258150Y-9500D02*X258900Y-8750D01*
X256650Y-9500D02*X258150D01*
X255900Y-8000D02*X258900Y-5000D01*
X260700Y-11000D02*X262200Y-9500D01*
X264000Y-8750D02*X264750Y-9500D01*
X264000Y-4250D02*Y-8750D01*
Y-4250D02*X264750Y-3500D01*
X266250D01*
X267000Y-4250D01*
Y-8750D01*
X266250Y-9500D02*X267000Y-8750D01*
X264750Y-9500D02*X266250D01*
X264000Y-8000D02*X267000Y-5000D01*
X272250Y-3500D02*Y-8750D01*
X273000Y-9500D01*
X271500Y-5750D02*X273000D01*
X274500Y-7250D02*Y-8750D01*
Y-7250D02*X275250Y-6500D01*
X276750D01*
X277500Y-7250D01*
Y-8750D01*
X276750Y-9500D02*X277500Y-8750D01*
X275250Y-9500D02*X276750D01*
X274500Y-8750D02*X275250Y-9500D01*
X282000Y-4250D02*X282750Y-3500D01*
X284250D01*
X285000Y-4250D01*
X284250Y-9500D02*X285000Y-8750D01*
X282750Y-9500D02*X284250D01*
X282000Y-8750D02*X282750Y-9500D01*
Y-6200D02*X284250D01*
X285000Y-4250D02*Y-5450D01*
Y-6950D02*Y-8750D01*
Y-6950D02*X284250Y-6200D01*
X285000Y-5450D02*X284250Y-6200D01*
X287550Y-9500D02*X289800Y-6500D01*
Y-4250D02*Y-6500D01*
X289050Y-3500D02*X289800Y-4250D01*
X287550Y-3500D02*X289050D01*
X286800Y-4250D02*X287550Y-3500D01*
X286800Y-4250D02*Y-5750D01*
X287550Y-6500D01*
X289800D01*
X291600Y-8750D02*X292350Y-9500D01*
X291600Y-4250D02*Y-8750D01*
Y-4250D02*X292350Y-3500D01*
X293850D01*
X294600Y-4250D01*
Y-8750D01*
X293850Y-9500D02*X294600Y-8750D01*
X292350Y-9500D02*X293850D01*
X291600Y-8000D02*X294600Y-5000D01*
X296400Y-8750D02*X297150Y-9500D01*
X296400Y-4250D02*Y-8750D01*
Y-4250D02*X297150Y-3500D01*
X298650D01*
X299400Y-4250D01*
Y-8750D01*
X298650Y-9500D02*X299400Y-8750D01*
X297150Y-9500D02*X298650D01*
X296400Y-8000D02*X299400Y-5000D01*
X301200Y-9500D02*X301950D01*
X303750Y-8750D02*X304500Y-9500D01*
X303750Y-4250D02*Y-8750D01*
Y-4250D02*X304500Y-3500D01*
X306000D01*
X306750Y-4250D01*
Y-8750D01*
X306000Y-9500D02*X306750Y-8750D01*
X304500Y-9500D02*X306000D01*
X303750Y-8000D02*X306750Y-5000D01*
X308550Y-8750D02*X309300Y-9500D01*
X308550Y-4250D02*Y-8750D01*
Y-4250D02*X309300Y-3500D01*
X310800D01*
X311550Y-4250D01*
Y-8750D01*
X310800Y-9500D02*X311550Y-8750D01*
X309300Y-9500D02*X310800D01*
X308550Y-8000D02*X311550Y-5000D01*
X313350Y-8750D02*X314100Y-9500D01*
X313350Y-4250D02*Y-8750D01*
Y-4250D02*X314100Y-3500D01*
X315600D01*
X316350Y-4250D01*
Y-8750D01*
X315600Y-9500D02*X316350Y-8750D01*
X314100Y-9500D02*X315600D01*
X313350Y-8000D02*X316350Y-5000D01*
X318150Y-8750D02*X318900Y-9500D01*
X318150Y-4250D02*Y-8750D01*
Y-4250D02*X318900Y-3500D01*
X320400D01*
X321150Y-4250D01*
Y-8750D01*
X320400Y-9500D02*X321150Y-8750D01*
X318900Y-9500D02*X320400D01*
X318150Y-8000D02*X321150Y-5000D01*
X322950Y-8750D02*X323700Y-9500D01*
X322950Y-4250D02*Y-8750D01*
Y-4250D02*X323700Y-3500D01*
X325200D01*
X325950Y-4250D01*
Y-8750D01*
X325200Y-9500D02*X325950Y-8750D01*
X323700Y-9500D02*X325200D01*
X322950Y-8000D02*X325950Y-5000D01*
X327750Y-8750D02*X328500Y-9500D01*
X327750Y-4250D02*Y-8750D01*
Y-4250D02*X328500Y-3500D01*
X330000D01*
X330750Y-4250D01*
Y-8750D01*
X330000Y-9500D02*X330750Y-8750D01*
X328500Y-9500D02*X330000D01*
X327750Y-8000D02*X330750Y-5000D01*
X332550Y-11000D02*X334050Y-9500D01*
X335850Y-4250D02*X336600Y-3500D01*
X338100D01*
X338850Y-4250D01*
X338100Y-9500D02*X338850Y-8750D01*
X336600Y-9500D02*X338100D01*
X335850Y-8750D02*X336600Y-9500D01*
Y-6200D02*X338100D01*
X338850Y-4250D02*Y-5450D01*
Y-6950D02*Y-8750D01*
Y-6950D02*X338100Y-6200D01*
X338850Y-5450D02*X338100Y-6200D01*
X341400Y-9500D02*X343650Y-6500D01*
Y-4250D02*Y-6500D01*
X342900Y-3500D02*X343650Y-4250D01*
X341400Y-3500D02*X342900D01*
X340650Y-4250D02*X341400Y-3500D01*
X340650Y-4250D02*Y-5750D01*
X341400Y-6500D01*
X343650D01*
X345450Y-8750D02*X346200Y-9500D01*
X345450Y-4250D02*Y-8750D01*
Y-4250D02*X346200Y-3500D01*
X347700D01*
X348450Y-4250D01*
Y-8750D01*
X347700Y-9500D02*X348450Y-8750D01*
X346200Y-9500D02*X347700D01*
X345450Y-8000D02*X348450Y-5000D01*
X350250Y-8750D02*X351000Y-9500D01*
X350250Y-4250D02*Y-8750D01*
Y-4250D02*X351000Y-3500D01*
X352500D01*
X353250Y-4250D01*
Y-8750D01*
X352500Y-9500D02*X353250Y-8750D01*
X351000Y-9500D02*X352500D01*
X350250Y-8000D02*X353250Y-5000D01*
X355050Y-9500D02*X355800D01*
X357600Y-8750D02*X358350Y-9500D01*
X357600Y-4250D02*Y-8750D01*
Y-4250D02*X358350Y-3500D01*
X359850D01*
X360600Y-4250D01*
Y-8750D01*
X359850Y-9500D02*X360600Y-8750D01*
X358350Y-9500D02*X359850D01*
X357600Y-8000D02*X360600Y-5000D01*
X362400Y-8750D02*X363150Y-9500D01*
X362400Y-4250D02*Y-8750D01*
Y-4250D02*X363150Y-3500D01*
X364650D01*
X365400Y-4250D01*
Y-8750D01*
X364650Y-9500D02*X365400Y-8750D01*
X363150Y-9500D02*X364650D01*
X362400Y-8000D02*X365400Y-5000D01*
X367200Y-8750D02*X367950Y-9500D01*
X367200Y-4250D02*Y-8750D01*
Y-4250D02*X367950Y-3500D01*
X369450D01*
X370200Y-4250D01*
Y-8750D01*
X369450Y-9500D02*X370200Y-8750D01*
X367950Y-9500D02*X369450D01*
X367200Y-8000D02*X370200Y-5000D01*
X372000Y-8750D02*X372750Y-9500D01*
X372000Y-4250D02*Y-8750D01*
Y-4250D02*X372750Y-3500D01*
X374250D01*
X375000Y-4250D01*
Y-8750D01*
X374250Y-9500D02*X375000Y-8750D01*
X372750Y-9500D02*X374250D01*
X372000Y-8000D02*X375000Y-5000D01*
X376800Y-8750D02*X377550Y-9500D01*
X376800Y-4250D02*Y-8750D01*
Y-4250D02*X377550Y-3500D01*
X379050D01*
X379800Y-4250D01*
Y-8750D01*
X379050Y-9500D02*X379800Y-8750D01*
X377550Y-9500D02*X379050D01*
X376800Y-8000D02*X379800Y-5000D01*
X381600Y-8750D02*X382350Y-9500D01*
X381600Y-4250D02*Y-8750D01*
Y-4250D02*X382350Y-3500D01*
X383850D01*
X384600Y-4250D01*
Y-8750D01*
X383850Y-9500D02*X384600Y-8750D01*
X382350Y-9500D02*X383850D01*
X381600Y-8000D02*X384600Y-5000D01*
X389850Y-7250D02*Y-9500D01*
Y-7250D02*X390600Y-6500D01*
X391350D01*
X392100Y-7250D01*
Y-9500D01*
Y-7250D02*X392850Y-6500D01*
X393600D01*
X394350Y-7250D01*
Y-9500D01*
X389100Y-6500D02*X389850Y-7250D01*
G54D99*X396150Y-5000D02*Y-5150D01*
G54D98*Y-7250D02*Y-9500D01*
X397650Y-3500D02*Y-8750D01*
X398400Y-9500D01*
X400650D02*X402900D01*
X403650Y-8750D01*
X402900Y-8000D02*X403650Y-8750D01*
X400650Y-8000D02*X402900D01*
X399900Y-7250D02*X400650Y-8000D01*
X399900Y-7250D02*X400650Y-6500D01*
X402900D01*
X403650Y-7250D01*
X399900Y-8750D02*X400650Y-9500D01*
X200750Y418500D02*Y412500D01*
X202700Y418500D02*X203750Y417450D01*
Y413550D01*
X202700Y412500D02*X203750Y413550D01*
X200000Y412500D02*X202700D01*
X200000Y418500D02*X202700D01*
X207800Y415500D02*X208550Y414750D01*
X206300Y415500D02*X207800D01*
X205550Y414750D02*X206300Y415500D01*
X205550Y414750D02*Y413250D01*
X206300Y412500D01*
X208550Y415500D02*Y413250D01*
X209300Y412500D01*
X206300D02*X207800D01*
X208550Y413250D01*
X211850Y418500D02*Y413250D01*
X212600Y412500D01*
X211100Y416250D02*X212600D01*
X214850Y412500D02*X217100D01*
X214100Y413250D02*X214850Y412500D01*
X214100Y414750D02*Y413250D01*
Y414750D02*X214850Y415500D01*
X216350D01*
X217100Y414750D01*
X214100Y414000D02*X217100D01*
Y414750D02*Y414000D01*
X218900Y416250D02*X219650D01*
X218900Y414750D02*X219650D01*
X224150Y418500D02*Y415500D01*
X224900Y412500D01*
X226400Y415500D01*
X227900Y412500D01*
X228650Y415500D01*
Y418500D02*Y415500D01*
X231200Y412500D02*X233450D01*
X230450Y413250D02*X231200Y412500D01*
X230450Y414750D02*Y413250D01*
Y414750D02*X231200Y415500D01*
X232700D01*
X233450Y414750D01*
X230450Y414000D02*X233450D01*
Y414750D02*Y414000D01*
X238250Y418500D02*Y412500D01*
X237500D02*X238250Y413250D01*
X236000Y412500D02*X237500D01*
X235250Y413250D02*X236000Y412500D01*
X235250Y414750D02*Y413250D01*
Y414750D02*X236000Y415500D01*
X237500D01*
X238250Y414750D01*
X242750Y417750D02*X243500Y418500D01*
X245750D01*
X246500Y417750D01*
Y416250D01*
X242750Y412500D02*X246500Y416250D01*
X242750Y412500D02*X246500D01*
X250550Y418500D02*X251300Y417750D01*
X249050Y418500D02*X250550D01*
X248300Y417750D02*X249050Y418500D01*
X248300Y417750D02*Y413250D01*
X249050Y412500D01*
X250550Y415800D02*X251300Y415050D01*
X248300Y415800D02*X250550D01*
X249050Y412500D02*X250550D01*
X251300Y413250D01*
Y415050D02*Y413250D01*
X255800Y418500D02*Y412500D01*
Y418500D02*X258800D01*
X255800Y415800D02*X258050D01*
X261350Y412500D02*X263600D01*
X260600Y413250D02*X261350Y412500D01*
X260600Y414750D02*Y413250D01*
Y414750D02*X261350Y415500D01*
X262850D01*
X263600Y414750D01*
X260600Y414000D02*X263600D01*
Y414750D02*Y414000D01*
X265400Y418500D02*Y412500D01*
Y413250D02*X266150Y412500D01*
X267650D01*
X268400Y413250D01*
Y414750D02*Y413250D01*
X267650Y415500D02*X268400Y414750D01*
X266150Y415500D02*X267650D01*
X265400Y414750D02*X266150Y415500D01*
X272900Y417750D02*X273650Y418500D01*
X275900D01*
X276650Y417750D01*
Y416250D01*
X272900Y412500D02*X276650Y416250D01*
X272900Y412500D02*X276650D01*
X278450Y413250D02*X279200Y412500D01*
X278450Y417750D02*Y413250D01*
Y417750D02*X279200Y418500D01*
X280700D01*
X281450Y417750D01*
Y413250D01*
X280700Y412500D02*X281450Y413250D01*
X279200Y412500D02*X280700D01*
X278450Y414000D02*X281450Y417000D01*
X283250Y417300D02*X284450Y418500D01*
Y412500D01*
X283250D02*X285500D01*
X287300Y414750D02*X290300Y418500D01*
X287300Y414750D02*X291050D01*
X290300Y418500D02*Y412500D01*
X295550Y413250D02*X296300Y412500D01*
X295550Y417750D02*Y413250D01*
Y417750D02*X296300Y418500D01*
X297800D01*
X298550Y417750D01*
Y413250D01*
X297800Y412500D02*X298550Y413250D01*
X296300Y412500D02*X297800D01*
X295550Y414000D02*X298550Y417000D01*
X302600Y418500D02*X303350Y417750D01*
X301100Y418500D02*X302600D01*
X300350Y417750D02*X301100Y418500D01*
X300350Y417750D02*Y413250D01*
X301100Y412500D01*
X302600Y415800D02*X303350Y415050D01*
X300350Y415800D02*X302600D01*
X301100Y412500D02*X302600D01*
X303350Y413250D01*
Y415050D02*Y413250D01*
X305150Y416250D02*X305900D01*
X305150Y414750D02*X305900D01*
X307700Y413250D02*X308450Y412500D01*
X307700Y417750D02*Y413250D01*
Y417750D02*X308450Y418500D01*
X309950D01*
X310700Y417750D01*
Y413250D01*
X309950Y412500D02*X310700Y413250D01*
X308450Y412500D02*X309950D01*
X307700Y414000D02*X310700Y417000D01*
X312500Y418500D02*X315500D01*
X312500D02*Y415500D01*
X313250Y416250D01*
X314750D01*
X315500Y415500D01*
Y413250D01*
X314750Y412500D02*X315500Y413250D01*
X313250Y412500D02*X314750D01*
X312500Y413250D02*X313250Y412500D01*
X317300Y416250D02*X318050D01*
X317300Y414750D02*X318050D01*
X319850D02*X322850Y418500D01*
X319850Y414750D02*X323600D01*
X322850Y418500D02*Y412500D01*
X327650Y418500D02*X328400Y417750D01*
X326150Y418500D02*X327650D01*
X325400Y417750D02*X326150Y418500D01*
X325400Y417750D02*Y413250D01*
X326150Y412500D01*
X327650Y415800D02*X328400Y415050D01*
X325400Y415800D02*X327650D01*
X326150Y412500D02*X327650D01*
X328400Y413250D01*
Y415050D02*Y413250D01*
X335900Y418500D02*X336650Y417750D01*
X333650Y418500D02*X335900D01*
X332900Y417750D02*X333650Y418500D01*
X332900Y417750D02*Y413250D01*
X333650Y412500D01*
X335900D01*
X336650Y413250D01*
Y414750D02*Y413250D01*
X335900Y415500D02*X336650Y414750D01*
X334400Y415500D02*X335900D01*
X338450Y418500D02*Y412500D01*
Y418500D02*X340700Y415500D01*
X342950Y418500D01*
Y412500D01*
X344750Y418500D02*X347750D01*
X346250D02*Y412500D01*
X352250Y418500D02*Y413250D01*
X353000Y412500D01*
X354500D01*
X355250Y413250D01*
Y418500D02*Y413250D01*
X357050Y418500D02*X360050D01*
X358550D02*Y412500D01*
X362900D02*X364850D01*
X361850Y413550D02*X362900Y412500D01*
X361850Y417450D02*Y413550D01*
Y417450D02*X362900Y418500D01*
X364850D01*
X200000Y432000D02*Y427500D01*
Y432000D02*X201050Y433500D01*
X202700D01*
X203750Y432000D01*
Y427500D01*
X200000Y430500D02*X203750D01*
X205550D02*Y428250D01*
X206300Y427500D01*
X207800D01*
X208550Y428250D01*
Y430500D02*Y428250D01*
X211100Y433500D02*Y428250D01*
X211850Y427500D01*
X210350Y431250D02*X211850D01*
X213350Y433500D02*Y427500D01*
Y429750D02*X214100Y430500D01*
X215600D01*
X216350Y429750D01*
Y427500D01*
X218150Y429750D02*Y428250D01*
Y429750D02*X218900Y430500D01*
X220400D01*
X221150Y429750D01*
Y428250D01*
X220400Y427500D02*X221150Y428250D01*
X218900Y427500D02*X220400D01*
X218150Y428250D02*X218900Y427500D01*
X223700Y429750D02*Y427500D01*
Y429750D02*X224450Y430500D01*
X225950D01*
X222950D02*X223700Y429750D01*
X227750Y431250D02*X228500D01*
X227750Y429750D02*X228500D01*
X233000Y433500D02*Y427500D01*
Y430500D02*X236000Y433500D01*
X233000Y430500D02*X236000Y427500D01*
X238550D02*X240800D01*
X237800Y428250D02*X238550Y427500D01*
X237800Y429750D02*Y428250D01*
Y429750D02*X238550Y430500D01*
X240050D01*
X240800Y429750D01*
X237800Y429000D02*X240800D01*
Y429750D02*Y429000D01*
X243350Y429750D02*Y427500D01*
Y429750D02*X244100Y430500D01*
X244850D01*
X245600Y429750D01*
Y427500D01*
X242600Y430500D02*X243350Y429750D01*
X253100Y433500D02*X253850Y432750D01*
X250850Y433500D02*X253100D01*
X250100Y432750D02*X250850Y433500D01*
X250100Y432750D02*Y431250D01*
X250850Y430500D01*
X253100D01*
X253850Y429750D01*
Y428250D01*
X253100Y427500D02*X253850Y428250D01*
X250850Y427500D02*X253100D01*
X250100Y428250D02*X250850Y427500D01*
X257900Y430500D02*X258650Y429750D01*
X256400Y430500D02*X257900D01*
X255650Y429750D02*X256400Y430500D01*
X255650Y429750D02*Y428250D01*
X256400Y427500D01*
X258650Y430500D02*Y428250D01*
X259400Y427500D01*
X256400D02*X257900D01*
X258650Y428250D01*
X261950Y429750D02*Y427500D01*
Y429750D02*X262700Y430500D01*
X264200D01*
X261200D02*X261950Y429750D01*
X266000Y433500D02*Y427500D01*
Y429750D02*X268250Y427500D01*
X266000Y429750D02*X267500Y431250D01*
G54D99*X270050Y432000D02*Y431850D01*
G54D98*Y429750D02*Y427500D01*
X272300D02*X274550D01*
X271550Y428250D02*X272300Y427500D01*
X271550Y429750D02*Y428250D01*
Y429750D02*X272300Y430500D01*
X273800D01*
X274550Y429750D01*
X271550Y429000D02*X274550D01*
Y429750D02*Y429000D01*
X277100Y427500D02*X279350D01*
X280100Y428250D01*
X279350Y429000D02*X280100Y428250D01*
X277100Y429000D02*X279350D01*
X276350Y429750D02*X277100Y429000D01*
X276350Y429750D02*X277100Y430500D01*
X279350D01*
X280100Y429750D01*
X276350Y428250D02*X277100Y427500D01*
X200000Y448500D02*X203000D01*
X201500D02*Y442500D01*
G54D99*X204800Y447000D02*Y446850D01*
G54D98*Y444750D02*Y442500D01*
X207050Y448500D02*Y443250D01*
X207800Y442500D01*
X206300Y446250D02*X207800D01*
X209300Y448500D02*Y443250D01*
X210050Y442500D01*
X212300D02*X214550D01*
X211550Y443250D02*X212300Y442500D01*
X211550Y444750D02*Y443250D01*
Y444750D02*X212300Y445500D01*
X213800D01*
X214550Y444750D01*
X211550Y444000D02*X214550D01*
Y444750D02*Y444000D01*
X216350Y446250D02*X217100D01*
X216350Y444750D02*X217100D01*
X221600Y443250D02*X222350Y442500D01*
X221600Y447750D02*X222350Y448500D01*
X221600Y447750D02*Y443250D01*
X224150Y445500D02*Y443250D01*
X224900Y442500D01*
X226400D01*
X227150Y443250D01*
Y445500D02*Y443250D01*
X229700Y444750D02*Y442500D01*
Y444750D02*X230450Y445500D01*
X231200D01*
X231950Y444750D01*
Y442500D01*
X228950Y445500D02*X229700Y444750D01*
X233750Y448500D02*Y442500D01*
Y444750D02*X236000Y442500D01*
X233750Y444750D02*X235250Y446250D01*
X238550Y444750D02*Y442500D01*
Y444750D02*X239300Y445500D01*
X240050D01*
X240800Y444750D01*
Y442500D01*
X237800Y445500D02*X238550Y444750D01*
X242600D02*Y443250D01*
Y444750D02*X243350Y445500D01*
X244850D01*
X245600Y444750D01*
Y443250D01*
X244850Y442500D02*X245600Y443250D01*
X243350Y442500D02*X244850D01*
X242600Y443250D02*X243350Y442500D01*
X247400Y445500D02*Y443250D01*
X248150Y442500D01*
X248900D01*
X249650Y443250D01*
Y445500D02*Y443250D01*
X250400Y442500D01*
X251150D01*
X251900Y443250D01*
Y445500D02*Y443250D01*
X254450Y444750D02*Y442500D01*
Y444750D02*X255200Y445500D01*
X255950D01*
X256700Y444750D01*
Y442500D01*
X253700Y445500D02*X254450Y444750D01*
X258500Y448500D02*X259250Y447750D01*
Y443250D01*
X258500Y442500D02*X259250Y443250D01*
X263750Y445500D02*X266750D01*
X271250Y448500D02*Y442500D01*
Y448500D02*X274250D01*
X271250Y445800D02*X273500D01*
X278300Y445500D02*X279050Y444750D01*
X276800Y445500D02*X278300D01*
X276050Y444750D02*X276800Y445500D01*
X276050Y444750D02*Y443250D01*
X276800Y442500D01*
X279050Y445500D02*Y443250D01*
X279800Y442500D01*
X276800D02*X278300D01*
X279050Y443250D01*
X281600Y448500D02*Y442500D01*
Y443250D02*X282350Y442500D01*
X283850D01*
X284600Y443250D01*
Y444750D02*Y443250D01*
X283850Y445500D02*X284600Y444750D01*
X282350Y445500D02*X283850D01*
X281600Y444750D02*X282350Y445500D01*
X287150Y444750D02*Y442500D01*
Y444750D02*X287900Y445500D01*
X289400D01*
X286400D02*X287150Y444750D01*
G54D99*X291200Y447000D02*Y446850D01*
G54D98*Y444750D02*Y442500D01*
X293450Y445500D02*X295700D01*
X292700Y444750D02*X293450Y445500D01*
X292700Y444750D02*Y443250D01*
X293450Y442500D01*
X295700D01*
X299750Y445500D02*X300500Y444750D01*
X298250Y445500D02*X299750D01*
X297500Y444750D02*X298250Y445500D01*
X297500Y444750D02*Y443250D01*
X298250Y442500D01*
X300500Y445500D02*Y443250D01*
X301250Y442500D01*
X298250D02*X299750D01*
X300500Y443250D01*
X303800Y448500D02*Y443250D01*
X304550Y442500D01*
X303050Y446250D02*X304550D01*
G54D99*X306050Y447000D02*Y446850D01*
G54D98*Y444750D02*Y442500D01*
X307550Y444750D02*Y443250D01*
Y444750D02*X308300Y445500D01*
X309800D01*
X310550Y444750D01*
Y443250D01*
X309800Y442500D02*X310550Y443250D01*
X308300Y442500D02*X309800D01*
X307550Y443250D02*X308300Y442500D01*
X313100Y444750D02*Y442500D01*
Y444750D02*X313850Y445500D01*
X314600D01*
X315350Y444750D01*
Y442500D01*
X312350Y445500D02*X313100Y444750D01*
X320600Y448500D02*Y442500D01*
X322550Y448500D02*X323600Y447450D01*
Y443550D01*
X322550Y442500D02*X323600Y443550D01*
X319850Y442500D02*X322550D01*
X319850Y448500D02*X322550D01*
X326150Y444750D02*Y442500D01*
Y444750D02*X326900Y445500D01*
X328400D01*
X325400D02*X326150Y444750D01*
X332450Y445500D02*X333200Y444750D01*
X330950Y445500D02*X332450D01*
X330200Y444750D02*X330950Y445500D01*
X330200Y444750D02*Y443250D01*
X330950Y442500D01*
X333200Y445500D02*Y443250D01*
X333950Y442500D01*
X330950D02*X332450D01*
X333200Y443250D01*
X335750Y445500D02*Y443250D01*
X336500Y442500D01*
X337250D01*
X338000Y443250D01*
Y445500D02*Y443250D01*
X338750Y442500D01*
X339500D01*
X340250Y443250D01*
Y445500D02*Y443250D01*
G54D99*X342050Y447000D02*Y446850D01*
G54D98*Y444750D02*Y442500D01*
X344300Y444750D02*Y442500D01*
Y444750D02*X345050Y445500D01*
X345800D01*
X346550Y444750D01*
Y442500D01*
X343550Y445500D02*X344300Y444750D01*
X350600Y445500D02*X351350Y444750D01*
X349100Y445500D02*X350600D01*
X348350Y444750D02*X349100Y445500D01*
X348350Y444750D02*Y443250D01*
X349100Y442500D01*
X350600D01*
X351350Y443250D01*
X348350Y441000D02*X349100Y440250D01*
X350600D01*
X351350Y441000D01*
Y445500D02*Y441000D01*
M02*
