G04 start of page 8 for group -4079 idx -4079 *
G04 Title: (unknown), topsilk *
G04 Creator: pcb 20110918 *
G04 CreationDate: Mon 16 Jun 2014 00:48:58 GMT UTC *
G04 For: ksarkies *
G04 Format: Gerber/RS-274X *
G04 PCB-Dimensions: 390000 390000 *
G04 PCB-Coordinate-Origin: lower left *
%MOIN*%
%FSLAX25Y25*%
%LNTOPSILK*%
%ADD94C,0.0200*%
%ADD93C,0.0060*%
%ADD92C,0.0100*%
%ADD91C,0.0001*%
G54D91*G36*
X300177Y69614D02*X302754D01*
X302837Y69582D01*
X302884Y69506D01*
X302933Y69267D01*
X302977Y69045D01*
X303368Y66913D01*
X303415Y66825D01*
X303498Y66767D01*
X303601Y66723D01*
X304391Y66452D01*
X305141Y66094D01*
X305147D01*
X305234Y66056D01*
X305331Y66042D01*
X305429Y66073D01*
X307202Y67292D01*
X307393Y67417D01*
X307594Y67553D01*
X307680Y67578D01*
X307762Y67542D01*
X308093Y67212D01*
X308597Y66712D01*
X308755Y66549D01*
X309254Y66051D01*
X309416Y65894D01*
X309584Y65720D01*
X309623Y65635D01*
X309601Y65546D01*
X309465Y65345D01*
X309336Y65155D01*
X308147Y63419D01*
X308115Y63327D01*
X308130Y63230D01*
X308175Y63131D01*
X308858Y61525D01*
X308895Y61434D01*
X308958Y61356D01*
X309048Y61309D01*
X311087Y60928D01*
X311311Y60885D01*
X311554Y60842D01*
X311629Y60795D01*
X311658Y60712D01*
Y58135D01*
X311629Y58046D01*
X311554Y57999D01*
X311311Y57956D01*
X311087Y57913D01*
X309108Y57544D01*
X309020Y57496D01*
X308966Y57413D01*
X308938Y57353D01*
Y57342D01*
X308223Y55569D01*
X308218Y55557D01*
X308201Y55514D01*
X308184Y55413D01*
X308212Y55319D01*
X309341Y53687D01*
X309465Y53496D01*
X309606Y53295D01*
X309625Y53209D01*
X309584Y53127D01*
X309416Y52948D01*
X309254Y52791D01*
X307936Y51473D01*
X307762Y51305D01*
X307680Y51264D01*
X307594Y51282D01*
X307393Y51424D01*
X307202Y51548D01*
X305608Y52645D01*
X305509Y52674D01*
X305412Y52655D01*
X305081Y52471D01*
X304887Y52362D01*
X304540Y52184D01*
X304455Y52178D01*
X304393Y52238D01*
X304247Y52595D01*
X304159Y52802D01*
X302776Y56160D01*
X302688Y56366D01*
X302591Y56599D01*
X302587Y56694D01*
X302640Y56767D01*
X302863Y56898D01*
X303004Y57006D01*
X303540Y57452D01*
X303955Y58016D01*
X304222Y58675D01*
X304316Y59405D01*
X304258Y59980D01*
X304093Y60514D01*
X303830Y60999D01*
X303481Y61421D01*
X303061Y61770D01*
X302577Y62034D01*
X302043Y62199D01*
X301469Y62257D01*
X300894Y62199D01*
X300359Y62034D01*
X299876Y61770D01*
X299454Y61421D01*
X299106Y60999D01*
X298844Y60514D01*
X298679Y59980D01*
X298620Y59405D01*
X298713Y58675D01*
X298980Y58016D01*
X299394Y57452D01*
X299933Y57006D01*
X300069Y56898D01*
X300291Y56767D01*
X300345Y56694D01*
X300340Y56599D01*
X300243Y56366D01*
X300155Y56160D01*
X298772Y52802D01*
X298686Y52595D01*
X298538Y52238D01*
X298477Y52178D01*
X298393Y52184D01*
X298051Y52362D01*
X297850Y52471D01*
X297519Y52655D01*
X297420Y52674D01*
X297323Y52645D01*
X295729Y51548D01*
X295544Y51424D01*
X295338Y51282D01*
X295251Y51264D01*
X295169Y51305D01*
X294995Y51473D01*
X294838Y51635D01*
X294340Y52134D01*
X294177Y52292D01*
X293677Y52791D01*
X293515Y52948D01*
X293347Y53127D01*
X293308Y53209D01*
X293330Y53295D01*
X293466Y53496D01*
X293597Y53687D01*
X294719Y55319D01*
X294747Y55413D01*
X294730Y55514D01*
X294708Y55574D01*
X293998Y57348D01*
X293965Y57413D01*
X293911Y57496D01*
X293825Y57544D01*
X291844Y57913D01*
X291622Y57956D01*
X291383Y57999D01*
X291304Y58049D01*
X291275Y58135D01*
Y60712D01*
X291304Y60795D01*
X291383Y60842D01*
X291622Y60891D01*
X291844Y60928D01*
X293884Y61309D01*
X293973Y61356D01*
X294036Y61439D01*
X294073Y61525D01*
X294762Y63131D01*
X294801Y63230D01*
X294818Y63327D01*
X294790Y63419D01*
X293597Y65160D01*
X293466Y65345D01*
X293330Y65546D01*
X293308Y65635D01*
X293347Y65720D01*
X293515Y65894D01*
X293677Y66051D01*
X295169Y67542D01*
X295251Y67578D01*
X295338Y67559D01*
X295544Y67423D01*
X295729Y67292D01*
X297502Y66073D01*
X297600Y66044D01*
X297698Y66062D01*
X297784Y66094D01*
X297795Y66099D01*
X298541Y66453D01*
X299331Y66728D01*
X299434Y66767D01*
X299518Y66825D01*
X299563Y66913D01*
X299961Y69045D01*
X299998Y69267D01*
X300047Y69506D01*
X300094Y69582D01*
X300177Y69614D01*
G37*
G54D92*X0Y204961D02*X78740D01*
Y236D02*X0D01*
Y204961D01*
X78740D02*Y236D01*
G54D93*X275593Y104050D02*X276880D01*
X274900Y104743D02*X275593Y104050D01*
X274900Y107317D02*Y104743D01*
Y107317D02*X275593Y108010D01*
X276880D01*
X278068Y107020D02*Y106921D01*
Y105535D02*Y104050D01*
X279553Y105535D02*Y104050D01*
Y105535D02*X280048Y106030D01*
X281038D01*
X279058D02*X279553Y105535D01*
X282721Y106030D02*X284206D01*
X282226Y105535D02*X282721Y106030D01*
X282226Y105535D02*Y104545D01*
X282721Y104050D01*
X284206D01*
X285394Y106030D02*Y104545D01*
X285889Y104050D01*
X286879D01*
X287374Y104545D01*
Y106030D02*Y104545D01*
X288562Y107020D02*Y106921D01*
Y105535D02*Y104050D01*
X290047Y108010D02*Y104545D01*
X290542Y104050D01*
X289552Y106525D02*X290542D01*
X293314Y104050D02*X295294D01*
X295789Y104545D01*
Y105733D02*Y104545D01*
X295294Y106228D02*X295789Y105733D01*
X293809Y106228D02*X295294D01*
X293809Y108010D02*Y104050D01*
X293314Y108010D02*X295294D01*
X295789Y107515D01*
Y106723D01*
X295294Y106228D02*X295789Y106723D01*
X297472Y105535D02*Y104050D01*
Y105535D02*X297967Y106030D01*
X298957D01*
X296977D02*X297472Y105535D01*
X300640Y104050D02*X302125D01*
X300145Y104545D02*X300640Y104050D01*
X300145Y105535D02*Y104545D01*
Y105535D02*X300640Y106030D01*
X301630D01*
X302125Y105535D01*
X300145Y105040D02*X302125D01*
Y105535D02*Y105040D01*
X304798Y106030D02*X305293Y105535D01*
X303808Y106030D02*X304798D01*
X303313Y105535D02*X303808Y106030D01*
X303313Y105535D02*Y104545D01*
X303808Y104050D01*
X305293Y106030D02*Y104545D01*
X305788Y104050D01*
X303808D02*X304798D01*
X305293Y104545D01*
X306976Y108010D02*Y104050D01*
Y105535D02*X308461Y104050D01*
X306976Y105535D02*X307966Y106525D01*
X310144Y104050D02*X311629D01*
X309649Y104545D02*X310144Y104050D01*
X309649Y105535D02*Y104545D01*
Y105535D02*X310144Y106030D01*
X311134D01*
X311629Y105535D01*
X309649Y105040D02*X311629D01*
Y105535D02*Y105040D01*
X313312Y105535D02*Y104050D01*
Y105535D02*X313807Y106030D01*
X314797D01*
X312817D02*X313312Y105535D01*
X286000Y100010D02*Y96050D01*
Y98030D02*X287980Y100010D01*
X286000Y98030D02*X287980Y96050D01*
X289168D02*X289663D01*
X294613Y100010D02*X295108Y99515D01*
X293128Y100010D02*X294613D01*
X292633Y99515D02*X293128Y100010D01*
X292633Y99515D02*Y98525D01*
X293128Y98030D01*
X294613D01*
X295108Y97535D01*
Y96545D01*
X294613Y96050D02*X295108Y96545D01*
X293128Y96050D02*X294613D01*
X292633Y96545D02*X293128Y96050D01*
X297781Y98030D02*X298276Y97535D01*
X296791Y98030D02*X297781D01*
X296296Y97535D02*X296791Y98030D01*
X296296Y97535D02*Y96545D01*
X296791Y96050D01*
X298276Y98030D02*Y96545D01*
X298771Y96050D01*
X296791D02*X297781D01*
X298276Y96545D01*
X300454Y97535D02*Y96050D01*
Y97535D02*X300949Y98030D01*
X301939D01*
X299959D02*X300454Y97535D01*
X303127Y100010D02*Y96050D01*
Y97535D02*X304612Y96050D01*
X303127Y97535D02*X304117Y98525D01*
X305800Y99020D02*Y98921D01*
Y97535D02*Y96050D01*
X307285D02*X308770D01*
X306790Y96545D02*X307285Y96050D01*
X306790Y97535D02*Y96545D01*
Y97535D02*X307285Y98030D01*
X308275D01*
X308770Y97535D01*
X306790Y97040D02*X308770D01*
Y97535D02*Y97040D01*
X310453Y96050D02*X311938D01*
X312433Y96545D01*
X311938Y97040D02*X312433Y96545D01*
X310453Y97040D02*X311938D01*
X309958Y97535D02*X310453Y97040D01*
X309958Y97535D02*X310453Y98030D01*
X311938D01*
X312433Y97535D01*
X309958Y96545D02*X310453Y96050D01*
X273000Y111550D02*X275180D01*
X275725Y112095D01*
Y113403D02*Y112095D01*
X275180Y113948D02*X275725Y113403D01*
X273545Y113948D02*X275180D01*
X273545Y115910D02*Y111550D01*
X273000Y115910D02*X275180D01*
X275725Y115365D01*
Y114493D01*
X275180Y113948D02*X275725Y114493D01*
X278668Y113730D02*X279213Y113185D01*
X277578Y113730D02*X278668D01*
X277033Y113185D02*X277578Y113730D01*
X277033Y113185D02*Y112095D01*
X277578Y111550D01*
X279213Y113730D02*Y112095D01*
X279758Y111550D01*
X277578D02*X278668D01*
X279213Y112095D01*
X281611Y115910D02*Y112095D01*
X282156Y111550D01*
X281066Y114275D02*X282156D01*
X283791Y115910D02*Y112095D01*
X284336Y111550D01*
X283246Y114275D02*X284336D01*
X285971Y111550D02*X287606D01*
X285426Y112095D02*X285971Y111550D01*
X285426Y113185D02*Y112095D01*
Y113185D02*X285971Y113730D01*
X287061D01*
X287606Y113185D01*
X285426Y112640D02*X287606D01*
Y113185D02*Y112640D01*
X289459Y113185D02*Y111550D01*
Y113185D02*X290004Y113730D01*
X291094D01*
X288914D02*X289459Y113185D01*
X292402Y113730D02*Y112095D01*
X292947Y111550D01*
X294582Y113730D02*Y110460D01*
X294037Y109915D02*X294582Y110460D01*
X292947Y109915D02*X294037D01*
X292402Y110460D02*X292947Y109915D01*
Y111550D02*X294037D01*
X294582Y112095D01*
X297852Y115910D02*Y111550D01*
Y115910D02*X299487Y113730D01*
X301122Y115910D01*
Y111550D01*
X304065Y113730D02*X304610Y113185D01*
X302975Y113730D02*X304065D01*
X302430Y113185D02*X302975Y113730D01*
X302430Y113185D02*Y112095D01*
X302975Y111550D01*
X304610Y113730D02*Y112095D01*
X305155Y111550D01*
X302975D02*X304065D01*
X304610Y112095D01*
X307008Y113185D02*Y111550D01*
Y113185D02*X307553Y113730D01*
X308098D01*
X308643Y113185D01*
Y111550D01*
X306463Y113730D02*X307008Y113185D01*
X311586Y113730D02*X312131Y113185D01*
X310496Y113730D02*X311586D01*
X309951Y113185D02*X310496Y113730D01*
X309951Y113185D02*Y112095D01*
X310496Y111550D01*
X312131Y113730D02*Y112095D01*
X312676Y111550D01*
X310496D02*X311586D01*
X312131Y112095D01*
X315619Y113730D02*X316164Y113185D01*
X314529Y113730D02*X315619D01*
X313984Y113185D02*X314529Y113730D01*
X313984Y113185D02*Y112095D01*
X314529Y111550D01*
X315619D01*
X316164Y112095D01*
X313984Y110460D02*X314529Y109915D01*
X315619D01*
X316164Y110460D01*
Y113730D02*Y110460D01*
X318017Y111550D02*X319652D01*
X317472Y112095D02*X318017Y111550D01*
X317472Y113185D02*Y112095D01*
Y113185D02*X318017Y113730D01*
X319107D01*
X319652Y113185D01*
X317472Y112640D02*X319652D01*
Y113185D02*Y112640D01*
X321505Y113185D02*Y111550D01*
Y113185D02*X322050Y113730D01*
X322595D01*
X323140Y113185D01*
Y111550D01*
Y113185D02*X323685Y113730D01*
X324230D01*
X324775Y113185D01*
Y111550D01*
X320960Y113730D02*X321505Y113185D01*
X326628Y111550D02*X328263D01*
X326083Y112095D02*X326628Y111550D01*
X326083Y113185D02*Y112095D01*
Y113185D02*X326628Y113730D01*
X327718D01*
X328263Y113185D01*
X326083Y112640D02*X328263D01*
Y113185D02*Y112640D01*
X330116Y113185D02*Y111550D01*
Y113185D02*X330661Y113730D01*
X331206D01*
X331751Y113185D01*
Y111550D01*
X329571Y113730D02*X330116Y113185D01*
X333604Y115910D02*Y112095D01*
X334149Y111550D01*
X333059Y114275D02*X334149D01*
X279000Y84000D02*Y80000D01*
X281000D01*
X282200Y83000D02*Y82900D01*
Y81500D02*Y80000D01*
X283700Y82000D02*X285200D01*
X283200Y81500D02*X283700Y82000D01*
X283200Y81500D02*Y80500D01*
X283700Y80000D01*
X285200D01*
X286900D02*X288400D01*
X286400Y80500D02*X286900Y80000D01*
X286400Y81500D02*Y80500D01*
Y81500D02*X286900Y82000D01*
X287900D01*
X288400Y81500D01*
X286400Y81000D02*X288400D01*
Y81500D02*Y81000D01*
X290100Y81500D02*Y80000D01*
Y81500D02*X290600Y82000D01*
X291100D01*
X291600Y81500D01*
Y80000D01*
X289600Y82000D02*X290100Y81500D01*
X293300Y82000D02*X294800D01*
X292800Y81500D02*X293300Y82000D01*
X292800Y81500D02*Y80500D01*
X293300Y80000D01*
X294800D01*
X296500D02*X298000D01*
X296000Y80500D02*X296500Y80000D01*
X296000Y81500D02*Y80500D01*
Y81500D02*X296500Y82000D01*
X297500D01*
X298000Y81500D01*
X296000Y81000D02*X298000D01*
Y81500D02*Y81000D01*
X301500Y82000D02*X303000D01*
X301000Y81500D02*X301500Y82000D01*
X301000Y81500D02*Y80500D01*
X301500Y80000D01*
X303000D01*
X304700Y82000D02*X306200D01*
X304200Y81500D02*X304700Y82000D01*
X304200Y81500D02*Y80500D01*
X304700Y80000D01*
X306200D01*
X309200Y84000D02*Y80000D01*
Y80500D02*X309700Y80000D01*
X310700D01*
X311200Y80500D01*
Y81500D02*Y80500D01*
X310700Y82000D02*X311200Y81500D01*
X309700Y82000D02*X310700D01*
X309200Y81500D02*X309700Y82000D01*
X312400D02*Y80500D01*
X312900Y80000D01*
X314400Y82000D02*Y79000D01*
X313900Y78500D02*X314400Y79000D01*
X312900Y78500D02*X313900D01*
X312400Y79000D02*X312900Y78500D01*
Y80000D02*X313900D01*
X314400Y80500D01*
X315600Y82000D02*X317600D01*
X319300Y80000D02*X320800D01*
X321300Y80500D01*
X320800Y81000D02*X321300Y80500D01*
X319300Y81000D02*X320800D01*
X318800Y81500D02*X319300Y81000D01*
X318800Y81500D02*X319300Y82000D01*
X320800D01*
X321300Y81500D01*
X318800Y80500D02*X319300Y80000D01*
X324000Y82000D02*X324500Y81500D01*
X323000Y82000D02*X324000D01*
X322500Y81500D02*X323000Y82000D01*
X322500Y81500D02*Y80500D01*
X323000Y80000D01*
X324500Y82000D02*Y80500D01*
X325000Y80000D01*
X323000D02*X324000D01*
X324500Y80500D01*
X282500Y90560D02*X282980Y91040D01*
X284420D01*
X284900Y90560D01*
Y89600D01*
X282500Y87200D02*X284900Y89600D01*
X282500Y87200D02*X284900D01*
X286052Y90560D02*X286532Y91040D01*
X287492D01*
X287972Y90560D01*
X287492Y87200D02*X287972Y87680D01*
X286532Y87200D02*X287492D01*
X286052Y87680D02*X286532Y87200D01*
Y89312D02*X287492D01*
X287972Y90560D02*Y89792D01*
Y88832D02*Y87680D01*
Y88832D02*X287492Y89312D01*
X287972Y89792D02*X287492Y89312D01*
X289124Y87680D02*X292004Y90560D01*
X293156Y87680D02*X293636Y87200D01*
X293156Y90560D02*Y87680D01*
Y90560D02*X293636Y91040D01*
X294596D01*
X295076Y90560D01*
Y87680D01*
X294596Y87200D02*X295076Y87680D01*
X293636Y87200D02*X294596D01*
X293156Y88160D02*X295076Y90080D01*
X296228Y88640D02*X298148Y91040D01*
X296228Y88640D02*X298628D01*
X298148Y91040D02*Y87200D01*
X299780Y87680D02*X302660Y90560D01*
X303812D02*X304292Y91040D01*
X305732D01*
X306212Y90560D01*
Y89600D01*
X303812Y87200D02*X306212Y89600D01*
X303812Y87200D02*X306212D01*
X307364Y87680D02*X307844Y87200D01*
X307364Y90560D02*Y87680D01*
Y90560D02*X307844Y91040D01*
X308804D01*
X309284Y90560D01*
Y87680D01*
X308804Y87200D02*X309284Y87680D01*
X307844Y87200D02*X308804D01*
X307364Y88160D02*X309284Y90080D01*
X310436Y90272D02*X311204Y91040D01*
Y87200D01*
X310436D02*X311876D01*
X313028Y88640D02*X314948Y91040D01*
X313028Y88640D02*X315428D01*
X314948Y91040D02*Y87200D01*
X381960Y197000D02*X385320D01*
X385800Y197480D01*
Y198440D02*Y197480D01*
Y198440D02*X385320Y198920D01*
X381960D02*X385320D01*
X384360Y200552D02*X385800D01*
X384360D02*X383880Y201032D01*
Y201512D02*Y201032D01*
Y201512D02*X384360Y201992D01*
X385800D01*
X383880Y200072D02*X384360Y200552D01*
X381960Y205064D02*X385800D01*
Y204584D02*X385320Y205064D01*
X385800Y204584D02*Y203624D01*
X385320Y203144D02*X385800Y203624D01*
X384360Y203144D02*X385320D01*
X384360D02*X383880Y203624D01*
Y204584D02*Y203624D01*
Y204584D02*X384360Y205064D01*
X385800Y208136D02*Y206696D01*
X385320Y206216D02*X385800Y206696D01*
X384360Y206216D02*X385320D01*
X384360D02*X383880Y206696D01*
Y207656D02*Y206696D01*
Y207656D02*X384360Y208136D01*
X384840D02*Y206216D01*
X384360Y208136D02*X384840D01*
X384360Y209768D02*X385800D01*
X384360D02*X383880Y210248D01*
Y211208D02*Y210248D01*
Y209288D02*X384360Y209768D01*
X381960Y212360D02*X385800Y213320D01*
X381960Y214280D01*
X384360Y215432D02*X385320D01*
X384360D02*X383880Y215912D01*
Y216872D02*Y215912D01*
Y216872D02*X384360Y217352D01*
X385320D01*
X385800Y216872D02*X385320Y217352D01*
X385800Y216872D02*Y215912D01*
X385320Y215432D02*X385800Y215912D01*
X381960Y218504D02*X385320D01*
X385800Y218984D01*
X381960Y220424D02*X385320D01*
X385800Y220904D01*
X383400D02*Y219944D01*
X383880Y223304D02*X384360Y223784D01*
X383880Y223304D02*Y222344D01*
X384360Y221864D02*X383880Y222344D01*
X384360Y221864D02*X385320D01*
X385800Y222344D01*
X383880Y223784D02*X385320D01*
X385800Y224264D01*
Y223304D02*Y222344D01*
Y223304D02*X385320Y223784D01*
X383880Y226856D02*X384360Y227336D01*
X383880Y226856D02*Y225896D01*
X384360Y225416D02*X383880Y225896D01*
X384360Y225416D02*X385320D01*
X385800Y225896D01*
Y226856D02*Y225896D01*
Y226856D02*X385320Y227336D01*
X386760Y225416D02*X387240Y225896D01*
Y226856D02*Y225896D01*
Y226856D02*X386760Y227336D01*
X383880D02*X386760D01*
X385800Y230408D02*Y228968D01*
X385320Y228488D02*X385800Y228968D01*
X384360Y228488D02*X385320D01*
X384360D02*X383880Y228968D01*
Y229928D02*Y228968D01*
Y229928D02*X384360Y230408D01*
X384840D02*Y228488D01*
X384360Y230408D02*X384840D01*
X382440Y256000D02*X381960Y256480D01*
Y257920D02*Y256480D01*
Y257920D02*X382440Y258400D01*
X383400D01*
X385800Y256000D02*X383400Y258400D01*
X385800D02*Y256000D01*
Y260032D02*Y259552D01*
X381960Y263104D02*Y261184D01*
X383880D01*
X383400Y261664D01*
Y262624D02*Y261664D01*
Y262624D02*X383880Y263104D01*
X385320D01*
X385800Y262624D02*X385320Y263104D01*
X385800Y262624D02*Y261664D01*
X385320Y261184D02*X385800Y261664D01*
X381960Y264256D02*X385800Y265216D01*
X381960Y266176D01*
Y270976D02*Y269056D01*
Y270976D02*X382440Y271456D01*
X383400D01*
X383880Y270976D02*X383400Y271456D01*
X383880Y270976D02*Y269536D01*
X381960D02*X385800D01*
X383880Y270304D02*X385800Y271456D01*
Y274528D02*Y273088D01*
X385320Y272608D02*X385800Y273088D01*
X384360Y272608D02*X385320D01*
X384360D02*X383880Y273088D01*
Y274048D02*Y273088D01*
Y274048D02*X384360Y274528D01*
X384840D02*Y272608D01*
X384360Y274528D02*X384840D01*
X382440Y276160D02*X385800D01*
X382440D02*X381960Y276640D01*
Y277120D02*Y276640D01*
X383880D02*Y275680D01*
X385800Y280000D02*Y278560D01*
X385320Y278080D02*X385800Y278560D01*
X384360Y278080D02*X385320D01*
X384360D02*X383880Y278560D01*
Y279520D02*Y278560D01*
Y279520D02*X384360Y280000D01*
X384840D02*Y278080D01*
X384360Y280000D02*X384840D01*
X384360Y281632D02*X385800D01*
X384360D02*X383880Y282112D01*
Y283072D02*Y282112D01*
Y281152D02*X384360Y281632D01*
X385800Y286144D02*Y284704D01*
X385320Y284224D02*X385800Y284704D01*
X384360Y284224D02*X385320D01*
X384360D02*X383880Y284704D01*
Y285664D02*Y284704D01*
Y285664D02*X384360Y286144D01*
X384840D02*Y284224D01*
X384360Y286144D02*X384840D01*
X384360Y287776D02*X385800D01*
X384360D02*X383880Y288256D01*
Y288736D02*Y288256D01*
Y288736D02*X384360Y289216D01*
X385800D01*
X383880Y287296D02*X384360Y287776D01*
X383880Y292288D02*Y290848D01*
X384360Y290368D02*X383880Y290848D01*
X384360Y290368D02*X385320D01*
X385800Y290848D01*
Y292288D02*Y290848D01*
Y295360D02*Y293920D01*
X385320Y293440D02*X385800Y293920D01*
X384360Y293440D02*X385320D01*
X384360D02*X383880Y293920D01*
Y294880D02*Y293920D01*
Y294880D02*X384360Y295360D01*
X384840D02*Y293440D01*
X384360Y295360D02*X384840D01*
X382440Y136000D02*X385320D01*
X382440D02*X381960Y136480D01*
Y137440D02*Y136480D01*
Y137440D02*X382440Y137920D01*
X385320D01*
X385800Y137440D02*X385320Y137920D01*
X385800Y137440D02*Y136480D01*
X385320Y136000D02*X385800Y136480D01*
X383880Y139072D02*X385800Y140032D01*
X383880Y140992D02*X385800Y140032D01*
Y144064D02*Y142624D01*
X385320Y142144D02*X385800Y142624D01*
X384360Y142144D02*X385320D01*
X384360D02*X383880Y142624D01*
Y143584D02*Y142624D01*
Y143584D02*X384360Y144064D01*
X384840D02*Y142144D01*
X384360Y144064D02*X384840D01*
X384360Y145696D02*X385800D01*
X384360D02*X383880Y146176D01*
Y147136D02*Y146176D01*
Y145216D02*X384360Y145696D01*
X385800Y150208D02*Y148960D01*
X385128Y148288D02*X385800Y148960D01*
X382632Y148288D02*X385128D01*
X382632D02*X381960Y148960D01*
Y150208D02*Y148960D01*
X383880Y151360D02*X385320D01*
X385800Y151840D01*
Y152800D02*Y151840D01*
Y152800D02*X385320Y153280D01*
X383880D02*X385320D01*
X384360Y154912D02*X385800D01*
X384360D02*X383880Y155392D01*
Y156352D02*Y155392D01*
Y154432D02*X384360Y154912D01*
Y157984D02*X385800D01*
X384360D02*X383880Y158464D01*
Y159424D02*Y158464D01*
Y157504D02*X384360Y157984D01*
X385800Y162496D02*Y161056D01*
X385320Y160576D02*X385800Y161056D01*
X384360Y160576D02*X385320D01*
X384360D02*X383880Y161056D01*
Y162016D02*Y161056D01*
Y162016D02*X384360Y162496D01*
X384840D02*Y160576D01*
X384360Y162496D02*X384840D01*
X384360Y164128D02*X385800D01*
X384360D02*X383880Y164608D01*
Y165088D02*Y164608D01*
Y165088D02*X384360Y165568D01*
X385800D01*
X383880Y163648D02*X384360Y164128D01*
X381960Y167200D02*X385320D01*
X385800Y167680D01*
X383400D02*Y166720D01*
X276000Y75000D02*Y73500D01*
X276500Y73000D01*
X277000D01*
X277500Y73500D01*
Y75000D02*Y73500D01*
X278000Y73000D01*
X278500D01*
X279000Y73500D01*
Y75000D02*Y73500D01*
X280200Y75000D02*Y73500D01*
X280700Y73000D01*
X281200D01*
X281700Y73500D01*
Y75000D02*Y73500D01*
X282200Y73000D01*
X282700D01*
X283200Y73500D01*
Y75000D02*Y73500D01*
X284400Y75000D02*Y73500D01*
X284900Y73000D01*
X285400D01*
X285900Y73500D01*
Y75000D02*Y73500D01*
X286400Y73000D01*
X286900D01*
X287400Y73500D01*
Y75000D02*Y73500D01*
X288600Y73000D02*X289100D01*
X290800Y76000D02*Y75900D01*
Y74500D02*Y72000D01*
X290300Y71500D02*X290800Y72000D01*
X291800Y76000D02*Y75900D01*
Y74500D02*Y73000D01*
X294300Y75000D02*X294800Y74500D01*
X293300Y75000D02*X294300D01*
X292800Y74500D02*X293300Y75000D01*
X292800Y74500D02*Y73500D01*
X293300Y73000D01*
X294300D01*
X294800Y73500D01*
X292800Y72000D02*X293300Y71500D01*
X294300D01*
X294800Y72000D01*
Y75000D02*Y72000D01*
X297500Y75000D02*X298000Y74500D01*
X296500Y75000D02*X297500D01*
X296000Y74500D02*X296500Y75000D01*
X296000Y74500D02*Y73500D01*
X296500Y73000D01*
X297500D01*
X298000Y73500D01*
X296000Y72000D02*X296500Y71500D01*
X297500D01*
X298000Y72000D01*
Y75000D02*Y72000D01*
X299700Y73000D02*X301200D01*
X299200Y73500D02*X299700Y73000D01*
X299200Y74500D02*Y73500D01*
Y74500D02*X299700Y75000D01*
X300700D01*
X301200Y74500D01*
X299200Y74000D02*X301200D01*
Y74500D02*Y74000D01*
X302900Y74500D02*Y73000D01*
Y74500D02*X303400Y75000D01*
X304400D01*
X302400D02*X302900Y74500D01*
X306100Y76000D02*Y75900D01*
Y74500D02*Y72000D01*
X305600Y71500D02*X306100Y72000D01*
X307100Y75000D02*Y73500D01*
X307600Y73000D01*
X308600D01*
X309100Y73500D01*
Y75000D02*Y73500D01*
X310300Y76000D02*Y75900D01*
Y74500D02*Y73000D01*
X311800Y75000D02*X313300D01*
X311300Y74500D02*X311800Y75000D01*
X311300Y74500D02*Y73500D01*
X311800Y73000D01*
X313300D01*
X315000D02*X316500D01*
X314500Y73500D02*X315000Y73000D01*
X314500Y74500D02*Y73500D01*
Y74500D02*X315000Y75000D01*
X316000D01*
X316500Y74500D01*
X314500Y74000D02*X316500D01*
Y74500D02*Y74000D01*
X317700Y73000D02*X318200D01*
X319400Y76000D02*Y75900D01*
Y74500D02*Y73000D01*
X320900Y74500D02*Y73000D01*
Y74500D02*X321400Y75000D01*
X321900D01*
X322400Y74500D01*
Y73000D01*
X320400Y75000D02*X320900Y74500D01*
X324100Y76500D02*Y73000D01*
Y76500D02*X324600Y77000D01*
X325100D01*
X323600Y75000D02*X324600D01*
X326100Y74500D02*Y73500D01*
Y74500D02*X326600Y75000D01*
X327600D01*
X328100Y74500D01*
Y73500D01*
X327600Y73000D02*X328100Y73500D01*
X326600Y73000D02*X327600D01*
X326100Y73500D02*X326600Y73000D01*
X320000Y107540D02*X321920D01*
X322400Y107060D01*
Y106100D01*
X321920Y105620D02*X322400Y106100D01*
X320480Y105620D02*X321920D01*
X320480Y107540D02*Y103700D01*
X321248Y105620D02*X322400Y103700D01*
X324032D02*X325472D01*
X323552Y104180D02*X324032Y103700D01*
X323552Y105140D02*Y104180D01*
Y105140D02*X324032Y105620D01*
X324992D01*
X325472Y105140D01*
X323552Y104660D02*X325472D01*
Y105140D02*Y104660D01*
X326624Y105620D02*X327584Y103700D01*
X328544Y105620D02*X327584Y103700D01*
X331424Y107060D02*X331904Y107540D01*
X333344D01*
X333824Y107060D01*
Y106100D01*
X331424Y103700D02*X333824Y106100D01*
X331424Y103700D02*X333824D01*
X334976D02*X335456D01*
X336608Y104180D02*X337088Y103700D01*
X336608Y107060D02*Y104180D01*
Y107060D02*X337088Y107540D01*
X338048D01*
X338528Y107060D01*
Y104180D01*
X338048Y103700D02*X338528Y104180D01*
X337088Y103700D02*X338048D01*
X336608Y104660D02*X338528Y106580D01*
G54D92*X263200Y220000D02*G75*G03X263200Y220000I11800J0D01*G01*
X261200D02*G75*G03X261200Y220000I13800J0D01*G01*
X325200Y333100D02*Y317900D01*
X325145Y333127D02*G75*G03X325145Y317873I-5145J-7627D01*G01*
G54D94*X277450Y340200D02*Y320200D01*
X267450D02*X277450D01*
X267450Y340200D02*Y320200D01*
Y340200D02*X277450D01*
X272450Y350200D02*Y340200D01*
Y320200D02*Y310200D01*
X255000Y340000D02*Y320000D01*
X245000D02*X255000D01*
X245000Y340000D02*Y320000D01*
Y340000D02*X255000D01*
X250000Y350000D02*Y340000D01*
Y320000D02*Y310000D01*
G54D92*X261000Y325000D02*Y320000D01*
Y340000D02*Y335000D01*
X259400D02*Y325000D01*
Y335000D02*X262600D01*
Y325000D01*
X259400D02*X262600D01*
X360000Y320000D02*X370000D01*
X340000D02*X350000D01*
X360000D02*X350000Y315000D01*
Y325000D02*Y315000D01*
Y325000D02*X360000Y320000D01*
Y325000D02*Y315000D01*
X315000Y225000D02*Y205000D01*
X325000D01*
Y225000D02*Y205000D01*
X315000Y225000D02*X325000D01*
X315000Y215000D02*X325000D01*
Y225000D02*Y215000D01*
X352800Y214800D02*Y204800D01*
X368800D01*
X378800Y209800D02*X368800Y204800D01*
Y214800D02*X378800Y209800D01*
X352800Y214800D02*X368800D01*
X365800Y224800D02*G75*G03X365800Y224800I0J-15000D01*G01*
X315000Y285000D02*Y265000D01*
X325000D01*
Y285000D02*Y265000D01*
X315000Y285000D02*X325000D01*
X315000Y275000D02*X325000D01*
Y285000D02*Y275000D01*
X352600Y274000D02*Y264000D01*
X368600D01*
X378600Y269000D02*X368600Y264000D01*
Y274000D02*X378600Y269000D01*
X352600Y274000D02*X368600D01*
X365600Y284000D02*G75*G03X365600Y284000I0J-15000D01*G01*
X340000Y310000D02*X350000D01*
X360000D02*X370000D01*
X350000D02*X360000Y315000D01*
Y305000D01*
X350000Y310000D01*
Y315000D02*Y305000D01*
G54D94*X249500Y286500D02*X269500D01*
X249500Y296500D02*Y286500D01*
Y296500D02*X269500D01*
Y286500D01*
Y291500D02*X279500D01*
X239500D02*X249500D01*
X74000Y283000D02*Y263000D01*
Y283000D02*X84000D01*
Y263000D01*
X74000D02*X84000D01*
X79000D02*Y253000D01*
Y293000D02*Y283000D01*
G54D92*X60000Y238000D02*Y233000D01*
Y253000D02*Y248000D01*
X58400D02*Y238000D01*
Y248000D02*X61600D01*
Y238000D01*
X58400D02*X61600D01*
X60000Y270000D02*Y265000D01*
Y285000D02*Y280000D01*
X58400D02*Y270000D01*
Y280000D02*X61600D01*
Y270000D01*
X58400D02*X61600D01*
X40000Y255000D02*G75*G03X40000Y255000I0J-10000D01*G01*
Y285000D02*G75*G03X40000Y285000I0J-10000D01*G01*
G54D94*X94000Y283000D02*Y263000D01*
X84000D02*X94000D01*
X84000Y283000D02*Y263000D01*
Y283000D02*X94000D01*
X89000Y293000D02*Y283000D01*
Y263000D02*Y253000D01*
G54D92*X80000Y220000D02*X90000D01*
X100000D02*X110000D01*
X90000D02*X100000Y225000D01*
Y215000D01*
X90000Y220000D01*
Y225000D02*Y215000D01*
X80000Y230000D02*X90000D01*
X100000D02*X110000D01*
X90000D02*X100000Y235000D01*
Y225000D01*
X90000Y230000D01*
Y235000D02*Y225000D01*
G54D94*X170000Y255000D02*X190000D01*
X170000Y265000D02*Y255000D01*
Y265000D02*X190000D01*
Y255000D01*
Y260000D02*X200000D01*
X160000D02*X170000D01*
Y265000D02*X190000D01*
X170000Y275000D02*Y265000D01*
Y275000D02*X190000D01*
Y265000D01*
Y270000D02*X200000D01*
X160000D02*X170000D01*
G54D92*X115200Y263100D02*Y247900D01*
X115145Y263127D02*G75*G03X115145Y247873I-5145J-7627D01*G01*
G54D94*X235000Y230000D02*Y210000D01*
Y230000D02*X245000D01*
Y210000D01*
X235000D02*X245000D01*
X240000D02*Y200000D01*
Y240000D02*Y230000D01*
X235000Y170000D02*Y150000D01*
Y170000D02*X245000D01*
Y150000D01*
X235000D02*X245000D01*
X240000D02*Y140000D01*
Y180000D02*Y170000D01*
G54D92*X214800Y212100D02*Y196900D01*
X214855Y196873D02*G75*G03X214855Y212127I5145J7627D01*G01*
X214800Y242100D02*Y226900D01*
X214855Y226873D02*G75*G03X214855Y242127I5145J7627D01*G01*
G54D94*X170000Y215000D02*X190000D01*
X170000Y225000D02*Y215000D01*
Y225000D02*X190000D01*
Y215000D01*
Y220000D02*X200000D01*
X160000D02*X170000D01*
Y205000D02*X190000D01*
X170000Y215000D02*Y205000D01*
Y215000D02*X190000D01*
Y205000D01*
Y210000D02*X200000D01*
X160000D02*X170000D01*
Y225000D02*X190000D01*
X170000Y235000D02*Y225000D01*
Y235000D02*X190000D01*
Y225000D01*
Y230000D02*X200000D01*
X160000D02*X170000D01*
X135000Y220000D02*Y200000D01*
X125000D02*X135000D01*
X125000Y220000D02*Y200000D01*
Y220000D02*X135000D01*
X130000Y230000D02*Y220000D01*
Y200000D02*Y190000D01*
G54D92*X105000Y205000D02*Y185000D01*
X95000Y205000D02*X105000D01*
X95000D02*Y185000D01*
X105000D01*
X95000Y195000D02*X105000D01*
X95000D02*Y185000D01*
G54D94*X145000Y210000D02*Y190000D01*
X135000D02*X145000D01*
X135000Y210000D02*Y190000D01*
Y210000D02*X145000D01*
X140000Y220000D02*Y210000D01*
Y190000D02*Y180000D01*
G54D92*X93000Y330000D02*Y325000D01*
Y315000D02*Y310000D01*
X94600Y325000D02*Y315000D01*
X91400D02*X94600D01*
X91400Y325000D02*Y315000D01*
Y325000D02*X94600D01*
X45000Y349000D02*Y299000D01*
X25000Y349000D02*X45000D01*
X25000D02*Y299000D01*
X45000D01*
X35000Y309000D02*X45000D01*
X35000D02*Y299000D01*
G54D94*X87500Y340000D02*Y320000D01*
X77500D02*X87500D01*
X77500Y340000D02*Y320000D01*
Y340000D02*X87500D01*
X82500Y350000D02*Y340000D01*
Y320000D02*Y310000D01*
X55500Y340000D02*Y320000D01*
Y340000D02*X65500D01*
Y320000D01*
X55500D02*X65500D01*
X60500D02*Y310000D01*
Y350000D02*Y340000D01*
G54D92*X71500Y334800D02*Y329800D01*
Y349800D02*Y344800D01*
X69900D02*Y334800D01*
Y344800D02*X73100D01*
Y334800D01*
X69900D02*X73100D01*
X103000Y320000D02*Y310000D01*
Y340000D02*Y330000D01*
Y320000D02*X98000Y330000D01*
X108000D01*
X103000Y320000D01*
X98000D02*X108000D01*
G54D94*X205000Y340000D02*Y320000D01*
Y340000D02*X215000D01*
Y320000D01*
X205000D02*X215000D01*
X210000D02*Y310000D01*
Y350000D02*Y340000D01*
X225000D02*Y320000D01*
X215000D02*X225000D01*
X215000Y340000D02*Y320000D01*
Y340000D02*X225000D01*
X220000Y350000D02*Y340000D01*
Y320000D02*Y310000D01*
X225000Y340000D02*Y320000D01*
Y340000D02*X235000D01*
Y320000D01*
X225000D02*X235000D01*
X230000D02*Y310000D01*
Y350000D02*Y340000D01*
G54D92*X103000Y291500D02*X113000D01*
X123000D02*X133000D01*
X113000D02*X123000Y296500D01*
Y286500D01*
X113000Y291500D01*
Y296500D02*Y286500D01*
X125000Y345000D02*X195000D01*
X125000D02*Y305000D01*
X195000D01*
Y345000D02*Y330000D01*
Y320000D02*Y305000D01*
Y330000D02*G75*G03X195000Y320000I0J-5000D01*G01*
X165000Y349600D02*X170000D01*
X150000D02*X155000D01*
Y348000D02*X165000D01*
X155000Y351200D02*Y348000D01*
Y351200D02*X165000D01*
Y348000D01*
G54D94*X110300Y340600D02*Y320600D01*
Y340600D02*X120300D01*
Y320600D01*
X110300D02*X120300D01*
X115300D02*Y310600D01*
Y350600D02*Y340600D01*
G54D92*X240400Y328400D02*Y320900D01*
Y350900D02*Y343400D01*
X237900D02*Y328400D01*
Y343400D02*X242900D01*
Y328400D01*
X237900D02*X242900D01*
G54D94*X199500Y286500D02*X219500D01*
X199500Y296500D02*Y286500D01*
Y296500D02*X219500D01*
Y286500D01*
Y291500D02*X229500D01*
X189500D02*X199500D01*
X149900Y286200D02*X169900D01*
X149900Y296200D02*Y286200D01*
Y296200D02*X169900D01*
Y286200D01*
Y291200D02*X179900D01*
X139900D02*X149900D01*
X300000Y125000D02*X320000D01*
X300000Y135000D02*Y125000D01*
Y135000D02*X320000D01*
Y125000D01*
Y130000D02*X330000D01*
X290000D02*X300000D01*
G54D92*X214800Y152100D02*Y136900D01*
X214855Y136873D02*G75*G03X214855Y152127I5145J7627D01*G01*
X263200Y160000D02*G75*G03X263200Y160000I11800J0D01*G01*
X261200D02*G75*G03X261200Y160000I13800J0D01*G01*
X315000Y165000D02*Y145000D01*
X325000D01*
Y165000D02*Y145000D01*
X315000Y165000D02*X325000D01*
X315000Y155000D02*X325000D01*
Y165000D02*Y155000D01*
X352500Y155200D02*Y145200D01*
X368500D01*
X378500Y150200D02*X368500Y145200D01*
Y155200D02*X378500Y150200D01*
X352500Y155200D02*X368500D01*
X365500Y165200D02*G75*G03X365500Y165200I0J-15000D01*G01*
X220000Y85000D02*G75*G03X220000Y85000I0J10000D01*G01*
G54D94*X230000Y75000D02*X250000D01*
X230000Y85000D02*Y75000D01*
Y85000D02*X250000D01*
Y75000D01*
Y80000D02*X260000D01*
X220000D02*X230000D01*
G54D92*X356400Y69900D02*X366400D01*
X356400Y89900D02*X366400D01*
X371400Y84900D02*Y74900D01*
X351400Y84900D02*Y74900D01*
X361400D02*G75*G03X361400Y74900I0J5000D01*G01*
X240000Y65000D02*G75*G03X240000Y65000I0J-10000D01*G01*
X110100Y129800D02*Y119800D01*
Y159800D02*Y149800D01*
X106800D02*Y129800D01*
Y149800D02*X113400D01*
Y129800D01*
X106800D02*X113400D01*
X157400Y140200D02*X172600D01*
X157373Y140145D02*G75*G03X172627Y140145I7627J-5145D01*G01*
X214800Y182100D02*Y166900D01*
X214855Y166873D02*G75*G03X214855Y182127I5145J7627D01*G01*
G54D94*X170000Y155000D02*X190000D01*
X170000Y165000D02*Y155000D01*
Y165000D02*X190000D01*
Y155000D01*
Y160000D02*X200000D01*
X160000D02*X170000D01*
Y165000D02*X190000D01*
X170000Y175000D02*Y165000D01*
Y175000D02*X190000D01*
Y165000D01*
Y170000D02*X200000D01*
X160000D02*X170000D01*
Y145000D02*X190000D01*
X170000Y155000D02*Y145000D01*
Y155000D02*X190000D01*
Y145000D01*
Y150000D02*X200000D01*
X160000D02*X170000D01*
Y85000D02*X190000D01*
X170000Y95000D02*Y85000D01*
Y95000D02*X190000D01*
Y85000D01*
Y90000D02*X200000D01*
X160000D02*X170000D01*
X215000Y60000D02*Y40000D01*
X205000D02*X215000D01*
X205000Y60000D02*Y40000D01*
Y60000D02*X215000D01*
X210000Y70000D02*Y60000D01*
Y40000D02*Y30000D01*
G54D92*X155000Y75000D02*X195000D01*
X155000D02*Y35000D01*
X195000D01*
Y75000D02*Y60000D01*
Y50000D02*Y35000D01*
Y60000D02*G75*G03X195000Y50000I0J-5000D01*G01*
G54D94*X215000Y60000D02*Y40000D01*
Y60000D02*X225000D01*
Y40000D01*
X215000D02*X225000D01*
X220000D02*Y30000D01*
Y70000D02*Y60000D01*
X135290Y80570D02*Y60570D01*
X125290D02*X135290D01*
X125290Y80570D02*Y60570D01*
Y80570D02*X135290D01*
X130290Y90570D02*Y80570D01*
Y60570D02*Y50570D01*
X115290Y80570D02*Y60570D01*
Y80570D02*X125290D01*
Y60570D01*
X115290D02*X125290D01*
X120290D02*Y50570D01*
Y90570D02*Y80570D01*
X170000Y105000D02*X190000D01*
Y95000D01*
X170000D02*X190000D01*
X170000Y105000D02*Y95000D01*
X160000Y100000D02*X170000D01*
X190000D02*X200000D01*
G54D92*X126100Y118300D02*Y109600D01*
Y132100D02*Y123300D01*
Y132100D02*X138300D01*
Y109600D01*
X126100D02*X138300D01*
X126100Y118300D02*G75*G03X126100Y123300I0J2500D01*G01*
X160000Y120000D02*X165000D01*
X175000D02*X180000D01*
X165000Y121600D02*X175000D01*
Y118400D01*
X165000D01*
Y121600D01*
X95000Y125000D02*Y115000D01*
X105000D01*
Y125000D01*
X95000D01*
Y115000D02*X105000D01*
Y125000D01*
X93000Y145000D02*Y135000D01*
X103000D01*
Y145000D01*
X93000D01*
Y135000D02*X103000D01*
Y145000D01*
X95000Y165000D02*Y155000D01*
X105000D01*
Y165000D01*
X95000D01*
Y155000D02*X105000D01*
Y165000D01*
G54D93*X305502Y140871D02*X307502D01*
X308002Y140371D01*
Y139371D01*
X307502Y138871D02*X308002Y139371D01*
X306002Y138871D02*X307502D01*
X306002Y140871D02*Y136871D01*
X306802Y138871D02*X308002Y136871D01*
X309202Y140071D02*X310002Y140871D01*
Y136871D01*
X309202D02*X310702D01*
X311902Y140371D02*X312402Y140871D01*
X313902D01*
X314402Y140371D01*
Y139371D01*
X311902Y136871D02*X314402Y139371D01*
X311902Y136871D02*X314402D01*
X265000Y139000D02*Y135000D01*
X267000D01*
X268200Y137200D02*X269700D01*
X268200Y135000D02*X270200D01*
X268200Y139000D02*Y135000D01*
Y139000D02*X270200D01*
X271900D02*Y135000D01*
X273200Y139000D02*X273900Y138300D01*
Y135700D01*
X273200Y135000D02*X273900Y135700D01*
X271400Y135000D02*X273200D01*
X271400Y139000D02*X273200D01*
X275100Y138500D02*X275600Y139000D01*
X277100D01*
X277600Y138500D01*
Y137500D01*
X275100Y135000D02*X277600Y137500D01*
X275100Y135000D02*X277600D01*
X306800Y158600D02*Y156600D01*
Y157600D02*X310800D01*
X306800Y160300D02*X310800D01*
X306800Y161800D02*Y159800D01*
Y161800D02*X307300Y162300D01*
X308300D01*
X308800Y161800D02*X308300Y162300D01*
X308800Y161800D02*Y160300D01*
X307300Y163500D02*X306800Y164000D01*
Y165500D02*Y164000D01*
Y165500D02*X307300Y166000D01*
X308300D01*
X310800Y163500D02*X308300Y166000D01*
X310800D02*Y163500D01*
X232200Y106100D02*Y104800D01*
X231500Y104100D02*X232200Y104800D01*
X228900Y104100D02*X231500D01*
X228900D02*X228200Y104800D01*
Y106100D02*Y104800D01*
X231700Y107300D02*X232200Y107800D01*
X230900Y107300D02*X231700D01*
X230900D02*X230200Y108000D01*
Y108600D02*Y108000D01*
Y108600D02*X230900Y109300D01*
X231700D01*
X232200Y108800D02*X231700Y109300D01*
X232200Y108800D02*Y107800D01*
X229500Y107300D02*X230200Y108000D01*
X228700Y107300D02*X229500D01*
X228700D02*X228200Y107800D01*
Y108800D02*Y107800D01*
Y108800D02*X228700Y109300D01*
X229500D01*
X230200Y108600D02*X229500Y109300D01*
X237817Y92106D02*X239817D01*
X240317Y91606D01*
Y90606D01*
X239817Y90106D02*X240317Y90606D01*
X238317Y90106D02*X239817D01*
X238317Y92106D02*Y88106D01*
X239117Y90106D02*X240317Y88106D01*
X241517Y91306D02*X242317Y92106D01*
Y88106D01*
X241517D02*X243017D01*
X245717Y92106D02*X246217Y91606D01*
X244717Y92106D02*X245717D01*
X244217Y91606D02*X244717Y92106D01*
X244217Y91606D02*Y88606D01*
X244717Y88106D01*
X245717Y90306D02*X246217Y89806D01*
X244217Y90306D02*X245717D01*
X244717Y88106D02*X245717D01*
X246217Y88606D01*
Y89806D02*Y88606D01*
X257400Y56700D02*Y55400D01*
X256700Y54700D02*X257400Y55400D01*
X254100Y54700D02*X256700D01*
X254100D02*X253400Y55400D01*
Y56700D02*Y55400D01*
X257400Y58400D02*X255400Y59900D01*
X253900D02*X255400D01*
X253400Y59400D02*X253900Y59900D01*
X253400Y59400D02*Y58400D01*
X253900Y57900D02*X253400Y58400D01*
X253900Y57900D02*X254900D01*
X255400Y58400D01*
Y59900D02*Y58400D01*
X226699Y37334D02*Y35334D01*
Y37334D02*X227199Y37834D01*
X228199D01*
X228699Y37334D02*X228199Y37834D01*
X228699Y37334D02*Y35834D01*
X226699D02*X230699D01*
X228699Y36634D02*X230699Y37834D01*
X227499Y39034D02*X226699Y39834D01*
X230699D01*
Y40534D02*Y39034D01*
Y42234D02*X226699Y44234D01*
Y41734D01*
X357900Y65900D02*Y61900D01*
X357400Y65900D02*X359400D01*
X359900Y65400D01*
Y64400D01*
X359400Y63900D02*X359900Y64400D01*
X357900Y63900D02*X359400D01*
X361100Y61900D02*X363100D01*
X363600Y62400D01*
Y63600D02*Y62400D01*
X363100Y64100D02*X363600Y63600D01*
X361600Y64100D02*X363100D01*
X361600Y65900D02*Y61900D01*
X361100Y65900D02*X363100D01*
X363600Y65400D01*
Y64600D01*
X363100Y64100D02*X363600Y64600D01*
X364800Y65100D02*X365600Y65900D01*
Y61900D01*
X364800D02*X366300D01*
X338000Y150700D02*X339000Y146700D01*
X340000Y150700D01*
X341200D02*X343200D01*
X343700Y150200D01*
Y149200D01*
X343200Y148700D02*X343700Y149200D01*
X341700Y148700D02*X343200D01*
X341700Y150700D02*Y146700D01*
X342500Y148700D02*X343700Y146700D01*
X344900Y150200D02*X345400Y150700D01*
X346900D01*
X347400Y150200D01*
Y149200D01*
X344900Y146700D02*X347400Y149200D01*
X344900Y146700D02*X347400D01*
X174003Y252361D02*X176003D01*
X176503Y251861D01*
Y250861D01*
X176003Y250361D02*X176503Y250861D01*
X174503Y250361D02*X176003D01*
X174503Y252361D02*Y248361D01*
X175303Y250361D02*X176503Y248361D01*
X177703Y251861D02*X178203Y252361D01*
X179703D01*
X180203Y251861D01*
Y250861D01*
X177703Y248361D02*X180203Y250861D01*
X177703Y248361D02*X180203D01*
X181403Y248861D02*X181903Y248361D01*
X181403Y251861D02*Y248861D01*
Y251861D02*X181903Y252361D01*
X182903D01*
X183403Y251861D01*
Y248861D01*
X182903Y248361D02*X183403Y248861D01*
X181903Y248361D02*X182903D01*
X181403Y249361D02*X183403Y251361D01*
X174190Y281595D02*X176190D01*
X176690Y281095D01*
Y280095D01*
X176190Y279595D02*X176690Y280095D01*
X174690Y279595D02*X176190D01*
X174690Y281595D02*Y277595D01*
X175490Y279595D02*X176690Y277595D01*
X177890Y281095D02*X178390Y281595D01*
X179890D01*
X180390Y281095D01*
Y280095D01*
X177890Y277595D02*X180390Y280095D01*
X177890Y277595D02*X180390D01*
X181590Y281095D02*X182090Y281595D01*
X183590D01*
X184090Y281095D01*
Y280095D01*
X181590Y277595D02*X184090Y280095D01*
X181590Y277595D02*X184090D01*
X208591Y232048D02*X211591D01*
X208591D02*X208091Y232548D01*
Y233548D02*Y232548D01*
Y233548D02*X208591Y234048D01*
X211091D01*
X212091Y233048D02*X211091Y234048D01*
X212091Y233048D02*Y232548D01*
X211591Y232048D02*X212091Y232548D01*
X210591Y233048D02*X212091Y234048D01*
X208591Y235248D02*X208091Y235748D01*
Y237248D02*Y235748D01*
Y237248D02*X208591Y237748D01*
X209591D01*
X212091Y235248D02*X209591Y237748D01*
X212091D02*Y235248D01*
X166899Y241679D02*X168899D01*
X169399Y241179D01*
Y240179D01*
X168899Y239679D02*X169399Y240179D01*
X167399Y239679D02*X168899D01*
X167399Y241679D02*Y237679D01*
X168199Y239679D02*X169399Y237679D01*
X170599Y241179D02*X171099Y241679D01*
X172599D01*
X173099Y241179D01*
Y240179D01*
X170599Y237679D02*X173099Y240179D01*
X170599Y237679D02*X173099D01*
X174299Y241679D02*X176299D01*
X174299D02*Y239679D01*
X174799Y240179D01*
X175799D01*
X176299Y239679D01*
Y238179D01*
X175799Y237679D02*X176299Y238179D01*
X174799Y237679D02*X175799D01*
X174299Y238179D02*X174799Y237679D01*
X265000Y199000D02*Y195000D01*
X267000D01*
X268200Y197200D02*X269700D01*
X268200Y195000D02*X270200D01*
X268200Y199000D02*Y195000D01*
Y199000D02*X270200D01*
X271900D02*Y195000D01*
X273200Y199000D02*X273900Y198300D01*
Y195700D01*
X273200Y195000D02*X273900Y195700D01*
X271400Y195000D02*X273200D01*
X271400Y199000D02*X273200D01*
X275100Y198200D02*X275900Y199000D01*
Y195000D01*
X275100D02*X276600D01*
X308200Y216000D02*Y214000D01*
Y215000D02*X312200D01*
X308200Y217700D02*X312200D01*
X308200Y219200D02*Y217200D01*
Y219200D02*X308700Y219700D01*
X309700D01*
X310200Y219200D02*X309700Y219700D01*
X310200Y219200D02*Y217700D01*
X308700Y220900D02*X308200Y221400D01*
Y222400D02*Y221400D01*
Y222400D02*X308700Y222900D01*
X312200Y222400D02*X311700Y222900D01*
X312200Y222400D02*Y221400D01*
X311700Y220900D02*X312200Y221400D01*
X310000Y222400D02*Y221400D01*
X308700Y222900D02*X309500D01*
X310500D02*X311700D01*
X310500D02*X310000Y222400D01*
X309500Y222900D02*X310000Y222400D01*
X340300Y205800D02*X341300Y201800D01*
X342300Y205800D01*
X343500D02*X345500D01*
X346000Y205300D01*
Y204300D01*
X345500Y203800D02*X346000Y204300D01*
X344000Y203800D02*X345500D01*
X344000Y205800D02*Y201800D01*
X344800Y203800D02*X346000Y201800D01*
X347200Y205300D02*X347700Y205800D01*
X348700D01*
X349200Y205300D01*
X348700Y201800D02*X349200Y202300D01*
X347700Y201800D02*X348700D01*
X347200Y202300D02*X347700Y201800D01*
Y204000D02*X348700D01*
X349200Y205300D02*Y204500D01*
Y203500D02*Y202300D01*
Y203500D02*X348700Y204000D01*
X349200Y204500D02*X348700Y204000D01*
X220100Y187500D02*X223100D01*
X220100D02*X219600Y188000D01*
Y189000D02*Y188000D01*
Y189000D02*X220100Y189500D01*
X222600D01*
X223600Y188500D02*X222600Y189500D01*
X223600Y188500D02*Y188000D01*
X223100Y187500D02*X223600Y188000D01*
X222100Y188500D02*X223600Y189500D01*
X220100Y190700D02*X219600Y191200D01*
Y192200D02*Y191200D01*
Y192200D02*X220100Y192700D01*
X223600Y192200D02*X223100Y192700D01*
X223600Y192200D02*Y191200D01*
X223100Y190700D02*X223600Y191200D01*
X221400Y192200D02*Y191200D01*
X220100Y192700D02*X220900D01*
X221900D02*X223100D01*
X221900D02*X221400Y192200D01*
X220900Y192700D02*X221400Y192200D01*
X248160Y218780D02*Y216780D01*
Y218780D02*X248660Y219280D01*
X249660D01*
X250160Y218780D02*X249660Y219280D01*
X250160Y218780D02*Y217280D01*
X248160D02*X252160D01*
X250160Y218080D02*X252160Y219280D01*
X248660Y220480D02*X248160Y220980D01*
Y222480D02*Y220980D01*
Y222480D02*X248660Y222980D01*
X249660D01*
X252160Y220480D02*X249660Y222980D01*
X252160D02*Y220480D01*
Y224680D02*X248160Y226680D01*
Y224180D01*
X247717Y158410D02*Y156410D01*
Y158410D02*X248217Y158910D01*
X249217D01*
X249717Y158410D02*X249217Y158910D01*
X249717Y158410D02*Y156910D01*
X247717D02*X251717D01*
X249717Y157710D02*X251717Y158910D01*
X248217Y160110D02*X247717Y160610D01*
Y162110D02*Y160610D01*
Y162110D02*X248217Y162610D01*
X249217D01*
X251717Y160110D02*X249217Y162610D01*
X251717D02*Y160110D01*
X251217Y163810D02*X251717Y164310D01*
X250417Y163810D02*X251217D01*
X250417D02*X249717Y164510D01*
Y165110D02*Y164510D01*
Y165110D02*X250417Y165810D01*
X251217D01*
X251717Y165310D02*X251217Y165810D01*
X251717Y165310D02*Y164310D01*
X249017Y163810D02*X249717Y164510D01*
X248217Y163810D02*X249017D01*
X248217D02*X247717Y164310D01*
Y165310D02*Y164310D01*
Y165310D02*X248217Y165810D01*
X249017D01*
X249717Y165110D02*X249017Y165810D01*
X207891Y172597D02*X210891D01*
X207891D02*X207391Y173097D01*
Y174097D02*Y173097D01*
Y174097D02*X207891Y174597D01*
X210391D01*
X211391Y173597D02*X210391Y174597D01*
X211391Y173597D02*Y173097D01*
X210891Y172597D02*X211391Y173097D01*
X209891Y173597D02*X211391Y174597D01*
X209891Y175797D02*X207391Y177797D01*
X209891Y178297D02*Y175797D01*
X207391Y177797D02*X211391D01*
X205071Y162750D02*X207071D01*
X207571Y162250D01*
Y161250D01*
X207071Y160750D02*X207571Y161250D01*
X205571Y160750D02*X207071D01*
X205571Y162750D02*Y158750D01*
X206371Y160750D02*X207571Y158750D01*
X208771Y162250D02*X209271Y162750D01*
X210771D01*
X211271Y162250D01*
Y161250D01*
X208771Y158750D02*X211271Y161250D01*
X208771Y158750D02*X211271D01*
X212471Y160250D02*X214471Y162750D01*
X212471Y160250D02*X214971D01*
X214471Y162750D02*Y158750D01*
X204846Y221937D02*X206846D01*
X207346Y221437D01*
Y220437D01*
X206846Y219937D02*X207346Y220437D01*
X205346Y219937D02*X206846D01*
X205346Y221937D02*Y217937D01*
X206146Y219937D02*X207346Y217937D01*
X208546Y221437D02*X209046Y221937D01*
X210546D01*
X211046Y221437D01*
Y220437D01*
X208546Y217937D02*X211046Y220437D01*
X208546Y217937D02*X211046D01*
X212246Y221437D02*X212746Y221937D01*
X213746D01*
X214246Y221437D01*
X213746Y217937D02*X214246Y218437D01*
X212746Y217937D02*X213746D01*
X212246Y218437D02*X212746Y217937D01*
Y220137D02*X213746D01*
X214246Y221437D02*Y220637D01*
Y219637D02*Y218437D01*
Y219637D02*X213746Y220137D01*
X214246Y220637D02*X213746Y220137D01*
X174733Y202285D02*X176733D01*
X177233Y201785D01*
Y200785D01*
X176733Y200285D02*X177233Y200785D01*
X175233Y200285D02*X176733D01*
X175233Y202285D02*Y198285D01*
X176033Y200285D02*X177233Y198285D01*
X178433Y201785D02*X178933Y202285D01*
X180433D01*
X180933Y201785D01*
Y200785D01*
X178433Y198285D02*X180933Y200785D01*
X178433Y198285D02*X180933D01*
X182633D02*X184133Y200285D01*
Y201785D02*Y200285D01*
X183633Y202285D02*X184133Y201785D01*
X182633Y202285D02*X183633D01*
X182133Y201785D02*X182633Y202285D01*
X182133Y201785D02*Y200785D01*
X182633Y200285D01*
X184133D01*
X174456Y181239D02*X176456D01*
X176956Y180739D01*
Y179739D01*
X176456Y179239D02*X176956Y179739D01*
X174956Y179239D02*X176456D01*
X174956Y181239D02*Y177239D01*
X175756Y179239D02*X176956Y177239D01*
X178156Y180739D02*X178656Y181239D01*
X180156D01*
X180656Y180739D01*
Y179739D01*
X178156Y177239D02*X180656Y179739D01*
X178156Y177239D02*X180656D01*
X183356Y181239D02*X183856Y180739D01*
X182356Y181239D02*X183356D01*
X181856Y180739D02*X182356Y181239D01*
X181856Y180739D02*Y177739D01*
X182356Y177239D01*
X183356Y179439D02*X183856Y178939D01*
X181856Y179439D02*X183356D01*
X182356Y177239D02*X183356D01*
X183856Y177739D01*
Y178939D02*Y177739D01*
X118246Y207541D02*Y205541D01*
Y207541D02*X118746Y208041D01*
X119746D01*
X120246Y207541D02*X119746Y208041D01*
X120246Y207541D02*Y206041D01*
X118246D02*X122246D01*
X120246Y206841D02*X122246Y208041D01*
X119046Y209241D02*X118246Y210041D01*
X122246D01*
Y210741D02*Y209241D01*
X118746Y211941D02*X118246Y212441D01*
Y213441D02*Y212441D01*
Y213441D02*X118746Y213941D01*
X122246Y213441D02*X121746Y213941D01*
X122246Y213441D02*Y212441D01*
X121746Y211941D02*X122246Y212441D01*
X120046Y213441D02*Y212441D01*
X118746Y213941D02*X119546D01*
X120546D02*X121746D01*
X120546D02*X120046Y213441D01*
X119546Y213941D02*X120046Y213441D01*
X88100Y189000D02*Y187000D01*
Y188000D02*X92100D01*
X88100Y190700D02*X92100D01*
X88100Y192200D02*Y190200D01*
Y192200D02*X88600Y192700D01*
X89600D01*
X90100Y192200D02*X89600Y192700D01*
X90100Y192200D02*Y190700D01*
X90600Y193900D02*X88100Y195900D01*
X90600Y196400D02*Y193900D01*
X88100Y195900D02*X92100D01*
X149915Y198951D02*Y196951D01*
Y198951D02*X150415Y199451D01*
X151415D01*
X151915Y198951D02*X151415Y199451D01*
X151915Y198951D02*Y197451D01*
X149915D02*X153915D01*
X151915Y198251D02*X153915Y199451D01*
X150415Y200651D02*X149915Y201151D01*
Y202651D02*Y201151D01*
Y202651D02*X150415Y203151D01*
X151415D01*
X153915Y200651D02*X151415Y203151D01*
X153915D02*Y200651D01*
X150715Y204351D02*X149915Y205151D01*
X153915D01*
Y205851D02*Y204351D01*
X90500Y165000D02*X93500D01*
X94000Y164500D01*
Y163500D01*
X93500Y163000D01*
X90500D02*X93500D01*
X90000Y163500D02*X90500Y163000D01*
X90000Y164500D02*Y163500D01*
X90500Y165000D02*X90000Y164500D01*
X90500Y161800D02*X92000D01*
X90500D02*X90000Y161300D01*
Y160300D01*
X90500Y159800D01*
X92000D01*
X90500Y158100D02*X94000D01*
X90500D02*X90000Y157600D01*
X92500Y158600D02*Y157600D01*
X93200Y156600D02*X94000Y155800D01*
X90000D02*X94000D01*
X90000Y156600D02*Y155100D01*
X95500Y303100D02*Y301800D01*
X94800Y301100D02*X95500Y301800D01*
X92200Y301100D02*X94800D01*
X92200D02*X91500Y301800D01*
Y303100D02*Y301800D01*
X95500Y304800D02*X91500Y306800D01*
Y304300D01*
X92700Y293100D02*Y289100D01*
X94000Y293100D02*X94700Y292400D01*
Y289800D01*
X94000Y289100D02*X94700Y289800D01*
X92200Y289100D02*X94000D01*
X92200Y293100D02*X94000D01*
X95900Y290600D02*X97900Y293100D01*
X95900Y290600D02*X98400D01*
X97900Y293100D02*Y289100D01*
X117900Y257300D02*Y254300D01*
Y257300D02*X118400Y257800D01*
X119400D01*
X119900Y257300D01*
Y254800D01*
X118900Y253800D02*X119900Y254800D01*
X118400Y253800D02*X118900D01*
X117900Y254300D02*X118400Y253800D01*
X118900Y255300D02*X119900Y253800D01*
X121100Y257000D02*X121900Y257800D01*
Y253800D01*
X121100D02*X122600D01*
X96246Y264935D02*Y262935D01*
Y264935D02*X96746Y265435D01*
X97746D01*
X98246Y264935D02*X97746Y265435D01*
X98246Y264935D02*Y263435D01*
X96246D02*X100246D01*
X98246Y264235D02*X100246Y265435D01*
X97046Y266635D02*X96246Y267435D01*
X100246D01*
Y268135D02*Y266635D01*
X99746Y269335D02*X100246Y269835D01*
X98946Y269335D02*X99746D01*
X98946D02*X98246Y270035D01*
Y270635D02*Y270035D01*
Y270635D02*X98946Y271335D01*
X99746D01*
X100246Y270835D02*X99746Y271335D01*
X100246Y270835D02*Y269835D01*
X97546Y269335D02*X98246Y270035D01*
X96746Y269335D02*X97546D01*
X96746D02*X96246Y269835D01*
Y270835D02*Y269835D01*
Y270835D02*X96746Y271335D01*
X97546D01*
X98246Y270635D02*X97546Y271335D01*
X182600Y348800D02*X185100Y352800D01*
X182600D02*X185100Y348800D01*
X186300Y352000D02*X187100Y352800D01*
Y348800D01*
X186300D02*X187800D01*
X131700Y349000D02*X133000D01*
X131000Y349700D02*X131700Y349000D01*
X131000Y352300D02*Y349700D01*
Y352300D02*X131700Y353000D01*
X133000D01*
X134200Y352500D02*X134700Y353000D01*
X135700D01*
X136200Y352500D01*
X135700Y349000D02*X136200Y349500D01*
X134700Y349000D02*X135700D01*
X134200Y349500D02*X134700Y349000D01*
Y351200D02*X135700D01*
X136200Y352500D02*Y351700D01*
Y350700D02*Y349500D01*
Y350700D02*X135700Y351200D01*
X136200Y351700D02*X135700Y351200D01*
X137400Y352500D02*X137900Y353000D01*
X139400D01*
X139900Y352500D01*
Y351500D01*
X137400Y349000D02*X139900Y351500D01*
X137400Y349000D02*X139900D01*
X95300Y347200D02*X99300D01*
Y345900D02*X98600Y345200D01*
X96000D02*X98600D01*
X95300Y345900D02*X96000Y345200D01*
X95300Y347700D02*Y345900D01*
X99300Y347700D02*Y345900D01*
X98500Y344000D02*X99300Y343200D01*
X95300D02*X99300D01*
X95300Y344000D02*Y342500D01*
X119200Y345300D02*Y343300D01*
Y345300D02*X119700Y345800D01*
X120700D01*
X121200Y345300D02*X120700Y345800D01*
X121200Y345300D02*Y343800D01*
X119200D02*X123200D01*
X121200Y344600D02*X123200Y345800D01*
X120000Y347000D02*X119200Y347800D01*
X123200D01*
Y348500D02*Y347000D01*
X122700Y349700D02*X123200Y350200D01*
X119700Y349700D02*X122700D01*
X119700D02*X119200Y350200D01*
Y351200D02*Y350200D01*
Y351200D02*X119700Y351700D01*
X122700D01*
X123200Y351200D02*X122700Y351700D01*
X123200Y351200D02*Y350200D01*
X122200Y349700D02*X120200Y351700D01*
X122700Y352900D02*X123200Y353400D01*
X119700Y352900D02*X122700D01*
X119700D02*X119200Y353400D01*
Y354400D02*Y353400D01*
Y354400D02*X119700Y354900D01*
X122700D01*
X123200Y354400D02*X122700Y354900D01*
X123200Y354400D02*Y353400D01*
X122200Y352900D02*X120200Y354900D01*
X163300Y279700D02*X165300D01*
X163300D02*X162800Y280200D01*
Y281200D02*Y280200D01*
X163300Y281700D02*X162800Y281200D01*
X163300Y281700D02*X164800D01*
Y283700D02*Y279700D01*
X164000Y281700D02*X162800Y283700D01*
X161600Y280500D02*X160800Y279700D01*
Y283700D02*Y279700D01*
X160100Y283700D02*X161600D01*
X158900Y283200D02*X158400Y283700D01*
X158900Y283200D02*Y280200D01*
X158400Y279700D01*
X157400D02*X158400D01*
X157400D02*X156900Y280200D01*
Y283200D02*Y280200D01*
X157400Y283700D02*X156900Y283200D01*
X157400Y283700D02*X158400D01*
X158900Y282700D02*X156900Y280700D01*
X155700Y280500D02*X154900Y279700D01*
Y283700D02*Y279700D01*
X154200Y283700D02*X155700D01*
X175244Y92435D02*X177244D01*
X177744Y91935D01*
Y90935D01*
X177244Y90435D02*X177744Y90935D01*
X175744Y90435D02*X177244D01*
X175744Y92435D02*Y88435D01*
X176544Y90435D02*X177744Y88435D01*
X178944Y91635D02*X179744Y92435D01*
Y88435D01*
X178944D02*X180444D01*
X181644Y89935D02*X183644Y92435D01*
X181644Y89935D02*X184144D01*
X183644Y92435D02*Y88435D01*
X198789Y37298D02*Y35298D01*
Y37298D02*X199289Y37798D01*
X200289D01*
X200789Y37298D02*X200289Y37798D01*
X200789Y37298D02*Y35798D01*
X198789D02*X202789D01*
X200789Y36598D02*X202789Y37798D01*
X199589Y38998D02*X198789Y39798D01*
X202789D01*
Y40498D02*Y38998D01*
Y42198D02*X200789Y43698D01*
X199289D02*X200789D01*
X198789Y43198D02*X199289Y43698D01*
X198789Y43198D02*Y42198D01*
X199289Y41698D02*X198789Y42198D01*
X199289Y41698D02*X200289D01*
X200789Y42198D01*
Y43698D02*Y42198D01*
X177600Y28100D02*X180100Y32100D01*
X177600D02*X180100Y28100D01*
X181300Y31600D02*X181800Y32100D01*
X183300D01*
X183800Y31600D01*
Y30600D01*
X181300Y28100D02*X183800Y30600D01*
X181300Y28100D02*X183800D01*
X174423Y101700D02*X176423D01*
X176923Y101200D01*
Y100200D01*
X176423Y99700D02*X176923Y100200D01*
X174923Y99700D02*X176423D01*
X174923Y101700D02*Y97700D01*
X175723Y99700D02*X176923Y97700D01*
X178123Y100900D02*X178923Y101700D01*
Y97700D01*
X178123D02*X179623D01*
X180823Y101700D02*X182823D01*
X180823D02*Y99700D01*
X181323Y100200D01*
X182323D01*
X182823Y99700D01*
Y98200D01*
X182323Y97700D02*X182823Y98200D01*
X181323Y97700D02*X182323D01*
X180823Y98200D02*X181323Y97700D01*
X137507Y70079D02*Y68079D01*
Y70079D02*X138007Y70579D01*
X139007D01*
X139507Y70079D02*X139007Y70579D01*
X139507Y70079D02*Y68579D01*
X137507D02*X141507D01*
X139507Y69379D02*X141507Y70579D01*
X138007Y71779D02*X137507Y72279D01*
Y73779D02*Y72279D01*
Y73779D02*X138007Y74279D01*
X139007D01*
X141507Y71779D02*X139007Y74279D01*
X141507D02*Y71779D01*
X108890Y65570D02*Y63570D01*
Y65570D02*X109390Y66070D01*
X110390D01*
X110890Y65570D02*X110390Y66070D01*
X110890Y65570D02*Y64070D01*
X108890D02*X112890D01*
X110890Y64870D02*X112890Y66070D01*
X109390Y67270D02*X108890Y67770D01*
Y69270D02*Y67770D01*
Y69270D02*X109390Y69770D01*
X110390D01*
X112890Y67270D02*X110390Y69770D01*
X112890D02*Y67270D01*
X112390Y70970D02*X112890Y71470D01*
X109390Y70970D02*X112390D01*
X109390D02*X108890Y71470D01*
Y72470D02*Y71470D01*
Y72470D02*X109390Y72970D01*
X112390D01*
X112890Y72470D02*X112390Y72970D01*
X112890Y72470D02*Y71470D01*
X111890Y70970D02*X109890Y72970D01*
X112390Y74170D02*X112890Y74670D01*
X109390Y74170D02*X112390D01*
X109390D02*X108890Y74670D01*
Y75670D02*Y74670D01*
Y75670D02*X109390Y76170D01*
X112390D01*
X112890Y75670D02*X112390Y76170D01*
X112890Y75670D02*Y74670D01*
X111890Y74170D02*X109890Y76170D01*
X223200Y128000D02*X226200D01*
X223200D02*X222700Y128500D01*
Y129500D02*Y128500D01*
Y129500D02*X223200Y130000D01*
X225700D01*
X226700Y129000D02*X225700Y130000D01*
X226700Y129000D02*Y128500D01*
X226200Y128000D02*X226700Y128500D01*
X225200Y129000D02*X226700Y130000D01*
X222700Y133200D02*Y131200D01*
X224700D01*
X224200Y131700D01*
Y132700D02*Y131700D01*
Y132700D02*X224700Y133200D01*
X226200D01*
X226700Y132700D02*X226200Y133200D01*
X226700Y132700D02*Y131700D01*
X226200Y131200D02*X226700Y131700D01*
X178800Y142100D02*X180800D01*
X181300Y141600D01*
Y140600D01*
X180800Y140100D02*X181300Y140600D01*
X179300Y140100D02*X180800D01*
X179300Y142100D02*Y138100D01*
X180100Y140100D02*X181300Y138100D01*
X182500Y141600D02*X183000Y142100D01*
X184000D01*
X184500Y141600D01*
X184000Y138100D02*X184500Y138600D01*
X183000Y138100D02*X184000D01*
X182500Y138600D02*X183000Y138100D01*
Y140300D02*X184000D01*
X184500Y141600D02*Y140800D01*
Y139800D02*Y138600D01*
Y139800D02*X184000Y140300D01*
X184500Y140800D02*X184000Y140300D01*
X185700Y138600D02*X186200Y138100D01*
X185700Y141600D02*Y138600D01*
Y141600D02*X186200Y142100D01*
X187200D01*
X187700Y141600D01*
Y138600D01*
X187200Y138100D02*X187700Y138600D01*
X186200Y138100D02*X187200D01*
X185700Y139100D02*X187700Y141100D01*
X137200Y134800D02*X139700Y138800D01*
X137200D02*X139700Y134800D01*
X140900Y138300D02*X141400Y138800D01*
X142400D01*
X142900Y138300D01*
X142400Y134800D02*X142900Y135300D01*
X141400Y134800D02*X142400D01*
X140900Y135300D02*X141400Y134800D01*
Y137000D02*X142400D01*
X142900Y138300D02*Y137500D01*
Y136500D02*Y135300D01*
Y136500D02*X142400Y137000D01*
X142900Y137500D02*X142400Y137000D01*
X88000Y145000D02*X92000D01*
X88000Y142500D01*
X92000D01*
X88000Y140800D02*Y139300D01*
X88500Y141300D02*X88000Y140800D01*
X88500Y141300D02*X89500D01*
X90000Y140800D01*
Y139800D01*
X89500Y139300D01*
X89000Y141300D02*Y139300D01*
X89500D01*
X90000Y136600D02*X89500Y136100D01*
X90000Y137600D02*Y136600D01*
X89500Y138100D02*X90000Y137600D01*
X88500Y138100D02*X89500D01*
X88500D02*X88000Y137600D01*
Y136600D01*
X88500Y136100D01*
X87000Y138100D02*X86500Y137600D01*
Y136600D01*
X87000Y136100D01*
X90000D01*
X91200Y134900D02*X92000Y134100D01*
X88000D02*X92000D01*
X88000Y134900D02*Y133400D01*
X153100Y141200D02*X155600Y145200D01*
X153100D02*X155600Y141200D01*
X156800Y142700D02*X158800Y145200D01*
X156800Y142700D02*X159300D01*
X158800Y145200D02*Y141200D01*
X165900Y113000D02*X167200D01*
X165200Y113700D02*X165900Y113000D01*
X165200Y116300D02*Y113700D01*
Y116300D02*X165900Y117000D01*
X167200D01*
X168400Y116500D02*X168900Y117000D01*
X169900D01*
X170400Y116500D01*
X169900Y113000D02*X170400Y113500D01*
X168900Y113000D02*X169900D01*
X168400Y113500D02*X168900Y113000D01*
Y115200D02*X169900D01*
X170400Y116500D02*Y115700D01*
Y114700D02*Y113500D01*
Y114700D02*X169900Y115200D01*
X170400Y115700D02*X169900Y115200D01*
X171600Y116200D02*X172400Y117000D01*
Y113000D01*
X171600D02*X173100D01*
X90000Y124500D02*X94000D01*
Y125000D02*Y123000D01*
X93500Y122500D01*
X92500D02*X93500D01*
X92000Y123000D02*X92500Y122500D01*
X92000Y124500D02*Y123000D01*
X90500Y121300D02*X91500D01*
X92000Y120800D01*
Y119800D01*
X91500Y119300D01*
X90500D02*X91500D01*
X90000Y119800D02*X90500Y119300D01*
X90000Y120800D02*Y119800D01*
X90500Y121300D02*X90000Y120800D01*
Y117600D02*Y116100D01*
X90500Y115600D01*
X91000Y116100D02*X90500Y115600D01*
X91000Y117600D02*Y116100D01*
X91500Y118100D02*X91000Y117600D01*
X91500Y118100D02*X92000Y117600D01*
Y116100D01*
X91500Y115600D01*
X90500Y118100D02*X90000Y117600D01*
X93200Y114400D02*X94000Y113600D01*
X90000D02*X94000D01*
X90000Y114400D02*Y112900D01*
X115035Y123540D02*Y121540D01*
Y123540D02*X115535Y124040D01*
X116535D01*
X117035Y123540D02*X116535Y124040D01*
X117035Y123540D02*Y122040D01*
X115035D02*X119035D01*
X117035Y122840D02*X119035Y124040D01*
Y127240D02*Y125740D01*
Y127240D02*X118535Y127740D01*
X118035Y127240D02*X118535Y127740D01*
X118035Y127240D02*Y125740D01*
X117535Y125240D02*X118035Y125740D01*
X117535Y125240D02*X117035Y125740D01*
Y127240D02*Y125740D01*
Y127240D02*X117535Y127740D01*
X118535Y125240D02*X119035Y125740D01*
Y130940D02*Y129440D01*
X118535Y128940D02*X119035Y129440D01*
X117535Y128940D02*X118535D01*
X117535D02*X117035Y129440D01*
Y130440D02*Y129440D01*
Y130440D02*X117535Y130940D01*
X118035D02*Y128940D01*
X117535Y130940D02*X118035D01*
X117535Y132640D02*X119035D01*
X117535D02*X117035Y133140D01*
Y133640D02*Y133140D01*
Y133640D02*X117535Y134140D01*
X119035D01*
X117035Y132140D02*X117535Y132640D01*
X119035Y137340D02*Y135840D01*
Y137340D02*X118535Y137840D01*
X118035Y137340D02*X118535Y137840D01*
X118035Y137340D02*Y135840D01*
X117535Y135340D02*X118035Y135840D01*
X117535Y135340D02*X117035Y135840D01*
Y137340D02*Y135840D01*
Y137340D02*X117535Y137840D01*
X118535Y135340D02*X119035Y135840D01*
Y141040D02*Y139540D01*
X118535Y139040D02*X119035Y139540D01*
X117535Y139040D02*X118535D01*
X117535D02*X117035Y139540D01*
Y140540D02*Y139540D01*
Y140540D02*X117535Y141040D01*
X118035D02*Y139040D01*
X117535Y141040D02*X118035D01*
X115835Y142240D02*X115035Y143040D01*
X119035D01*
Y143740D02*Y142240D01*
X36700Y288600D02*Y287300D01*
X36000Y286600D02*X36700Y287300D01*
X33400Y286600D02*X36000D01*
X33400D02*X32700Y287300D01*
Y288600D02*Y287300D01*
X33200Y289800D02*X32700Y290300D01*
Y291800D02*Y290300D01*
Y291800D02*X33200Y292300D01*
X34200D01*
X36700Y289800D02*X34200Y292300D01*
X36700D02*Y289800D01*
X68278Y267498D02*Y265498D01*
Y267498D02*X68778Y267998D01*
X69778D01*
X70278Y267498D02*X69778Y267998D01*
X70278Y267498D02*Y265998D01*
X68278D02*X72278D01*
X70278Y266798D02*X72278Y267998D01*
X71778Y269198D02*X72278Y269698D01*
X70978Y269198D02*X71778D01*
X70978D02*X70278Y269898D01*
Y270498D02*Y269898D01*
Y270498D02*X70978Y271198D01*
X71778D01*
X72278Y270698D02*X71778Y271198D01*
X72278Y270698D02*Y269698D01*
X69578Y269198D02*X70278Y269898D01*
X68778Y269198D02*X69578D01*
X68778D02*X68278Y269698D01*
Y270698D02*Y269698D01*
Y270698D02*X68778Y271198D01*
X69578D01*
X70278Y270498D02*X69578Y271198D01*
X67471Y242577D02*Y241277D01*
X66771Y240577D02*X67471Y241277D01*
X64171Y240577D02*X66771D01*
X64171D02*X63471Y241277D01*
Y242577D02*Y241277D01*
Y245777D02*Y243777D01*
X65471D01*
X64971Y244277D01*
Y245277D02*Y244277D01*
Y245277D02*X65471Y245777D01*
X66971D01*
X67471Y245277D02*X66971Y245777D01*
X67471Y245277D02*Y244277D01*
X66971Y243777D02*X67471Y244277D01*
X36700Y258700D02*Y257400D01*
X36000Y256700D02*X36700Y257400D01*
X33400Y256700D02*X36000D01*
X33400D02*X32700Y257400D01*
Y258700D02*Y257400D01*
X35200Y259900D02*X32700Y261900D01*
X35200Y262400D02*Y259900D01*
X32700Y261900D02*X36700D01*
X57972Y274686D02*Y273386D01*
X57272Y272686D02*X57972Y273386D01*
X54672Y272686D02*X57272D01*
X54672D02*X53972Y273386D01*
Y274686D02*Y273386D01*
X54472Y275886D02*X53972Y276386D01*
Y277386D02*Y276386D01*
Y277386D02*X54472Y277886D01*
X57972Y277386D02*X57472Y277886D01*
X57972Y277386D02*Y276386D01*
X57472Y275886D02*X57972Y276386D01*
X55772Y277386D02*Y276386D01*
X54472Y277886D02*X55272D01*
X56272D02*X57472D01*
X56272D02*X55772Y277386D01*
X55272Y277886D02*X55772Y277386D01*
X67200Y222400D02*Y218400D01*
X68500Y222400D02*X69200Y221700D01*
Y219100D01*
X68500Y218400D02*X69200Y219100D01*
X66700Y218400D02*X68500D01*
X66700Y222400D02*X68500D01*
X71900D02*X72400Y221900D01*
X70900Y222400D02*X71900D01*
X70400Y221900D02*X70900Y222400D01*
X70400Y221900D02*Y218900D01*
X70900Y218400D01*
X71900Y220600D02*X72400Y220100D01*
X70400Y220600D02*X71900D01*
X70900Y218400D02*X71900D01*
X72400Y218900D01*
Y220100D02*Y218900D01*
X65800Y231600D02*Y227600D01*
X67100Y231600D02*X67800Y230900D01*
Y228300D01*
X67100Y227600D02*X67800Y228300D01*
X65300Y227600D02*X67100D01*
X65300Y231600D02*X67100D01*
X69000D02*X71000D01*
X69000D02*Y229600D01*
X69500Y230100D01*
X70500D01*
X71000Y229600D01*
Y228100D01*
X70500Y227600D02*X71000Y228100D01*
X69500Y227600D02*X70500D01*
X69000Y228100D02*X69500Y227600D01*
X18200Y354100D02*Y352800D01*
X18900Y354800D02*X18200Y354100D01*
X18900Y354800D02*X21500D01*
X22200Y354100D01*
Y352800D01*
X18700Y351600D02*X21700D01*
X22200Y351100D01*
Y350100D01*
X21700Y349600D01*
X18700D02*X21700D01*
X18200Y350100D02*X18700Y349600D01*
X18200Y351100D02*Y350100D01*
X18700Y351600D02*X18200Y351100D01*
Y348400D02*X22200D01*
X18200Y345900D01*
X22200D01*
X18200Y344700D02*X22200D01*
X18200Y342200D01*
X22200D01*
X21400Y341000D02*X22200Y340200D01*
X18200D02*X22200D01*
X18200Y341000D02*Y339500D01*
X74119Y341754D02*Y339754D01*
Y341754D02*X74619Y342254D01*
X75619D01*
X76119Y341754D02*X75619Y342254D01*
X76119Y341754D02*Y340254D01*
X74119D02*X78119D01*
X76119Y341054D02*X78119Y342254D01*
X74919Y343454D02*X74119Y344254D01*
X78119D01*
Y344954D02*Y343454D01*
X74919Y346154D02*X74119Y346954D01*
X78119D01*
Y347654D02*Y346154D01*
X53902Y344457D02*Y342457D01*
Y344457D02*X54402Y344957D01*
X55402D01*
X55902Y344457D02*X55402Y344957D01*
X55902Y344457D02*Y342957D01*
X53902D02*X57902D01*
X55902Y343757D02*X57902Y344957D01*
X54702Y346157D02*X53902Y346957D01*
X57902D01*
Y347657D02*Y346157D01*
X73753Y323402D02*Y322102D01*
X73053Y321402D02*X73753Y322102D01*
X70453Y321402D02*X73053D01*
X70453D02*X69753Y322102D01*
Y323402D02*Y322102D01*
X70553Y324602D02*X69753Y325402D01*
X73753D01*
Y326102D02*Y324602D01*
X207772Y300637D02*Y298637D01*
Y300637D02*X208272Y301137D01*
X209272D01*
X209772Y300637D02*X209272Y301137D01*
X209772Y300637D02*Y299137D01*
X207772D02*X211772D01*
X209772Y299937D02*X211772Y301137D01*
Y302837D02*X209772Y304337D01*
X208272D02*X209772D01*
X207772Y303837D02*X208272Y304337D01*
X207772Y303837D02*Y302837D01*
X208272Y302337D02*X207772Y302837D01*
X208272Y302337D02*X209272D01*
X209772Y302837D01*
Y304337D02*Y302837D01*
X317000Y340900D02*Y338400D01*
X321000D02*X317000Y340900D01*
X321000D02*Y338400D01*
X317800Y342100D02*X317000Y342900D01*
X321000D01*
Y343600D02*Y342100D01*
X278053Y312427D02*Y310427D01*
Y312427D02*X278553Y312927D01*
X279553D01*
X280053Y312427D02*X279553Y312927D01*
X280053Y312427D02*Y310927D01*
X278053D02*X282053D01*
X280053Y311727D02*X282053Y312927D01*
X278553Y314127D02*X278053Y314627D01*
Y315627D02*Y314627D01*
Y315627D02*X278553Y316127D01*
X282053Y315627D02*X281553Y316127D01*
X282053Y315627D02*Y314627D01*
X281553Y314127D02*X282053Y314627D01*
X279853Y315627D02*Y314627D01*
X278553Y316127D02*X279353D01*
X280353D02*X281553D01*
X280353D02*X279853Y315627D01*
X279353Y316127D02*X279853Y315627D01*
X218551Y300915D02*Y298915D01*
Y300915D02*X219051Y301415D01*
X220051D01*
X220551Y300915D02*X220051Y301415D01*
X220551Y300915D02*Y299415D01*
X218551D02*X222551D01*
X220551Y300215D02*X222551Y301415D01*
X218551Y304115D02*X219051Y304615D01*
X218551Y304115D02*Y303115D01*
X219051Y302615D02*X218551Y303115D01*
X219051Y302615D02*X222051D01*
X222551Y303115D01*
X220351Y304115D02*X220851Y304615D01*
X220351Y304115D02*Y302615D01*
X222551Y304115D02*Y303115D01*
Y304115D02*X222051Y304615D01*
X220851D02*X222051D01*
X248837Y300991D02*Y298991D01*
Y300991D02*X249337Y301491D01*
X250337D01*
X250837Y300991D02*X250337Y301491D01*
X250837Y300991D02*Y299491D01*
X248837D02*X252837D01*
X250837Y300291D02*X252837Y301491D01*
X251337Y302691D02*X248837Y304691D01*
X251337Y305191D02*Y302691D01*
X248837Y304691D02*X252837D01*
X235800Y312100D02*Y309600D01*
X239800D02*X235800Y312100D01*
X239800D02*Y309600D01*
X236300Y313300D02*X235800Y313800D01*
Y315300D02*Y313800D01*
Y315300D02*X236300Y315800D01*
X237300D01*
X239800Y313300D02*X237300Y315800D01*
X239800D02*Y313300D01*
X228526Y300415D02*Y298415D01*
Y300415D02*X229026Y300915D01*
X230026D01*
X230526Y300415D02*X230026Y300915D01*
X230526Y300415D02*Y298915D01*
X228526D02*X232526D01*
X230526Y299715D02*X232526Y300915D01*
X228526Y304115D02*Y302115D01*
X230526D01*
X230026Y302615D01*
Y303615D02*Y302615D01*
Y303615D02*X230526Y304115D01*
X232026D01*
X232526Y303615D02*X232026Y304115D01*
X232526Y303615D02*Y302615D01*
X232026Y302115D02*X232526Y302615D01*
X350000Y303000D02*Y299000D01*
X351300Y303000D02*X352000Y302300D01*
Y299700D01*
X351300Y299000D02*X352000Y299700D01*
X349500Y299000D02*X351300D01*
X349500Y303000D02*X351300D01*
X353200Y302500D02*X353700Y303000D01*
X355200D01*
X355700Y302500D01*
Y301500D01*
X353200Y299000D02*X355700Y301500D01*
X353200Y299000D02*X355700D01*
X263576Y348492D02*Y347192D01*
X262876Y346492D02*X263576Y347192D01*
X260276Y346492D02*X262876D01*
X260276D02*X259576Y347192D01*
Y348492D02*Y347192D01*
Y351192D02*X260076Y351692D01*
X259576Y351192D02*Y350192D01*
X260076Y349692D02*X259576Y350192D01*
X260076Y349692D02*X263076D01*
X263576Y350192D01*
X261376Y351192D02*X261876Y351692D01*
X261376Y351192D02*Y349692D01*
X263576Y351192D02*Y350192D01*
Y351192D02*X263076Y351692D01*
X261876D02*X263076D01*
X352500Y332000D02*Y328000D01*
X353800Y332000D02*X354500Y331300D01*
Y328700D01*
X353800Y328000D02*X354500Y328700D01*
X352000Y328000D02*X353800D01*
X352000Y332000D02*X353800D01*
X355700Y331500D02*X356200Y332000D01*
X357200D01*
X357700Y331500D01*
X357200Y328000D02*X357700Y328500D01*
X356200Y328000D02*X357200D01*
X355700Y328500D02*X356200Y328000D01*
Y330200D02*X357200D01*
X357700Y331500D02*Y330700D01*
Y329700D02*Y328500D01*
Y329700D02*X357200Y330200D01*
X357700Y330700D02*X357200Y330200D01*
X307200Y278800D02*Y276800D01*
Y277800D02*X311200D01*
X307200Y280500D02*X311200D01*
X307200Y282000D02*Y280000D01*
Y282000D02*X307700Y282500D01*
X308700D01*
X309200Y282000D02*X308700Y282500D01*
X309200Y282000D02*Y280500D01*
X308000Y283700D02*X307200Y284500D01*
X311200D01*
Y285200D02*Y283700D01*
X339600Y270000D02*X340600Y266000D01*
X341600Y270000D01*
X342800D02*X344800D01*
X345300Y269500D01*
Y268500D01*
X344800Y268000D02*X345300Y268500D01*
X343300Y268000D02*X344800D01*
X343300Y270000D02*Y266000D01*
X344100Y268000D02*X345300Y266000D01*
X346500Y269200D02*X347300Y270000D01*
Y266000D01*
X346500D02*X348000D01*
X207355Y283449D02*X209355D01*
X209855Y282949D01*
Y281949D01*
X209355Y281449D02*X209855Y281949D01*
X207855Y281449D02*X209355D01*
X207855Y283449D02*Y279449D01*
X208655Y281449D02*X209855Y279449D01*
X211055Y282649D02*X211855Y283449D01*
Y279449D01*
X211055D02*X212555D01*
X213755Y279949D02*X214255Y279449D01*
X213755Y282949D02*Y279949D01*
Y282949D02*X214255Y283449D01*
X215255D01*
X215755Y282949D01*
Y279949D01*
X215255Y279449D02*X215755Y279949D01*
X214255Y279449D02*X215255D01*
X213755Y280449D02*X215755Y282449D01*
X255786Y283126D02*X257786D01*
X258286Y282626D01*
Y281626D01*
X257786Y281126D02*X258286Y281626D01*
X256286Y281126D02*X257786D01*
X256286Y283126D02*Y279126D01*
X257086Y281126D02*X258286Y279126D01*
X259986D02*X261986Y283126D01*
X259486D02*X261986D01*
M02*
