M48
INCH
T71C0.035
T70C0.020
T69C0.040
T68C0.050
T67C0.078
T66C0.043
T65C0.114
T64C0.028
T63C0.030
T62C0.029
T61C0.038
%
T70
X014220Y006000
X012990Y012090
X007000Y027500
X005700Y029500
T64
X036060Y027900
X037060Y026900
X036060Y025900
X017000Y031000
X018000Y031000
X019000Y031000
X019000Y034000
X036050Y016020
X037050Y015020
X036050Y014020
X036080Y021980
X037080Y020980
X036080Y019980
X019000Y007000
X016000Y007000
X016000Y004000
X018000Y007000
X017000Y007000
X017000Y004000
X018000Y004000
X019000Y004000
X018000Y034000
X017000Y034000
X016000Y034000
X015000Y034000
X014000Y034000
X013000Y034000
X013000Y031000
X014000Y031000
X015000Y031000
X016000Y031000
T62
X032000Y032000
X032000Y032550
X032000Y033100
X022000Y015000
X022000Y014450
X022000Y013900
X022000Y018000
X022000Y021000
X022000Y020450
X022000Y019900
X022000Y017450
X022000Y024000
X022000Y023450
X022000Y022900
X022000Y016900
X011000Y025000
X011000Y025550
X011000Y026100
T63
X026100Y032000
X024040Y032090
X034000Y031000
X037000Y031000
X037000Y032000
X034000Y032000
X026100Y034000
X017000Y034960
X015000Y034960
X010300Y034000
X009300Y033000
X024040Y035090
X010300Y031000
X024000Y006000
X024000Y005000
X022000Y009000
X022000Y010000
X016000Y012000
X018000Y012000
X006000Y023300
X004000Y024000
X008000Y022000
X008000Y023000
X011000Y022000
X011000Y023000
X013300Y029150
X007150Y034980
X009300Y031000
X010300Y029150
X006000Y028500
X006000Y025300
X004000Y025000
X004000Y027000
X006000Y026500
X007150Y032980
X004000Y028000
T71
X013180Y027840
X014000Y017000
T61
X020000Y026000
X016000Y026000
X020000Y027000
X016000Y027000
X032000Y028000
X032000Y027000
X013990Y029120
X022950Y029150
X018950Y029150
X027950Y029150
X023950Y029150
X017990Y029120
X027245Y031020
X022000Y031000
X023000Y031000
X025000Y031000
X027245Y035020
X021000Y035000
X022000Y035000
X023000Y035000
X025000Y035000
X021000Y031000
X011530Y031060
X011530Y035060
X033000Y013000
X029000Y013000
X024000Y014000
X032000Y016000
X032000Y015000
X024000Y020000
X024000Y024000
X024000Y018000
X032000Y022000
X032000Y021000
X026000Y008000
X021000Y007000
X022000Y008000
X035140Y006990
X037140Y006990
X035140Y008990
X037140Y008990
X016000Y017000
X016000Y015000
X016000Y009000
X016000Y010000
X020000Y015000
X020000Y009000
X020000Y010000
X013029Y009057
X012029Y009057
X013029Y005057
X012029Y005057
X021000Y003000
X022000Y003000
X022000Y007000
X020000Y016000
X016000Y016000
X020000Y017000
X020000Y022000
X016000Y022000
X020000Y021000
X016000Y021000
X020000Y023000
X016000Y023000
X013000Y023000
X014000Y022000
X013000Y019000
X014000Y018000
X010000Y019000
X010000Y020000
X008250Y035000
X006050Y035000
X007900Y025300
X008900Y029300
X008900Y025300
X007900Y029300
X008250Y031000
X006050Y031000
X004000Y030400
X003000Y030400
X004000Y031400
X003000Y031400
X004000Y032400
X003000Y032400
X004000Y033400
X003000Y033400
X004000Y034400
X003000Y034400
T69
X011000Y016000
T66
X027000Y022000
X028000Y022000
X027000Y016000
X028000Y016000
T68
X011000Y012000
T67
X010000Y012000
X010000Y014000
X010000Y016000
T65
X037000Y037500
X037000Y001500
X002756Y004354
X002756Y015772
X002500Y037500
M30
