G04 start of page 2 for group 0 idx 0 *
G04 Title: (unknown), top *
G04 Creator: pcb 20110918 *
G04 CreationDate: Wed 26 Feb 2014 06:05:46 GMT UTC *
G04 For: ksarkies *
G04 Format: Gerber/RS-274X *
G04 PCB-Dimensions: 390000 390000 *
G04 PCB-Coordinate-Origin: lower left *
%MOIN*%
%FSLAX25Y25*%
%LNTOP*%
%ADD37C,0.0780*%
%ADD36C,0.0430*%
%ADD35C,0.0290*%
%ADD34C,0.1140*%
%ADD33C,0.0300*%
%ADD32C,0.0280*%
%ADD31C,0.0380*%
%ADD30C,0.0200*%
%ADD29C,0.0360*%
%ADD28C,0.0160*%
%ADD27R,0.0160X0.0160*%
%ADD26C,0.1650*%
%ADD25C,0.0700*%
%ADD24C,0.0850*%
%ADD23C,0.0680*%
%ADD22C,0.0001*%
%ADD21C,0.0450*%
%ADD20C,0.0150*%
%ADD19C,0.1250*%
%ADD18C,0.0550*%
%ADD17C,0.0250*%
%ADD16C,0.0650*%
%ADD15C,0.0500*%
%ADD14C,0.0400*%
%ADD13C,0.0600*%
%ADD12C,0.0350*%
%ADD11C,0.0100*%
G54D11*X180000Y40000D02*X190000Y30000D01*
X170200Y60200D02*X180000Y70000D01*
X210000Y30000D02*X190000D01*
G54D12*X208600Y80000D02*X197800Y69200D01*
Y47800D01*
X190000Y40000D01*
G54D13*X213300Y108800D02*X220000Y100000D01*
G54D11*X224900Y85100D02*X220000Y90000D01*
X224900Y85100D02*Y74900D01*
X220000Y70000D01*
G54D14*Y80000D02*Y79900D01*
X219700D01*
G54D15*X218750Y150000D02*X212750Y149700D01*
G54D14*X213150Y182050D02*X220000Y180000D01*
G54D13*X212750Y149700D02*X212886Y110850D01*
G54D14*X320000Y150000D02*X315600D01*
X305700Y159900D01*
Y195700D01*
X320000Y150000D02*Y149550D01*
D03*
X305700Y195700D02*X320000Y210000D01*
X370400Y182100D02*Y150400D01*
X370000Y208500D02*X361600Y200100D01*
Y190900D01*
X370400Y182100D01*
X370000Y210000D02*Y208500D01*
X370400Y150400D02*X360000Y140000D01*
Y140600D01*
X360300D01*
X370000Y149550D02*X370350D01*
X370000D02*X370350D01*
X360300Y140600D02*X350100Y130400D01*
Y90100D01*
X350000D02*X350100D01*
X350000Y90000D02*Y90100D01*
X320000Y149550D02*X370000D01*
Y150000D02*Y149550D01*
G54D11*X200000Y90000D02*X220000D01*
G54D14*X219700Y79900D02*X159900Y79700D01*
G54D13*X213300Y108800D02*X159978Y108900D01*
X159950Y119950D02*X160000Y100000D01*
G54D14*X179700Y109100D02*X179400Y108800D01*
X179500D01*
X179700Y108600D01*
X160000Y120000D02*X159550Y119550D01*
G54D13*X160000Y100000D02*Y99600D01*
G54D14*X180231Y128731D02*X180200Y120100D01*
X160000Y90000D02*X159900Y79700D01*
X160000Y99600D02*X157000D01*
G54D13*X160000Y100000D02*Y99600D01*
X150200Y92800D02*Y79800D01*
G54D14*X150000D01*
G54D16*X150200D02*X160000Y70000D01*
G54D14*X158900Y71100D01*
G54D11*X160000Y70000D02*Y71100D01*
Y70000D02*Y71100D01*
Y70000D01*
Y71100D01*
X142000Y60300D02*X141900Y60100D01*
X170200Y60200D01*
X142200Y60000D02*Y60300D01*
X142000D01*
X120290Y50570D02*X130290D01*
X160000Y72500D02*Y71100D01*
X158900D01*
X160000D02*Y72500D01*
Y71100D02*X158900D01*
G54D13*X157000Y99600D02*X150200Y92800D01*
G54D12*X160000Y170000D02*Y170050D01*
X160050D01*
G54D14*X122220Y82500D02*X130290Y90570D01*
G54D17*X136000Y96000D02*X134300Y94300D01*
G54D14*X130570Y90570D02*X160000Y120000D01*
G54D17*X136700Y112500D02*X144600Y104600D01*
G54D11*X133500Y116100D02*Y112600D01*
X133150Y112250D01*
X139900Y146700D02*X140000Y122600D01*
X129900Y120900D02*X132700D01*
X136100Y124300D01*
Y129200D01*
Y128400D01*
X140000Y122600D02*X133500Y116100D01*
X128300Y113600D02*Y115700D01*
G54D17*X128100Y129200D02*X124900Y132400D01*
Y154900D01*
X140000Y170000D01*
X139700Y169700D01*
G54D11*X200000Y320000D02*X180000Y340000D01*
X204500Y324900D02*X190000Y340000D01*
X204500Y324900D02*X204850Y264700D01*
X240000Y290000D02*X230000D01*
X190000D02*Y310000D01*
X200000Y270000D02*Y320000D01*
G54D14*X196500Y314300D02*Y282300D01*
G54D11*X184000Y281000D02*Y297000D01*
X182000Y299000D01*
X180000Y290000D02*Y293000D01*
X193428Y358300D02*X193500Y358800D01*
X320000Y331000D02*X271000D01*
G54D18*X193100Y358700D02*X209000Y350000D01*
G54D11*D03*
X210000D01*
X320000Y311000D02*Y320000D01*
Y311000D02*X361750Y270000D01*
X260000Y320000D02*X271000Y331000D01*
X272450Y310200D02*Y310000D01*
Y310200D02*Y310000D01*
X370000Y270000D02*X361750D01*
X220000Y230000D02*X200000D01*
X220000D02*Y229000D01*
G54D14*X229400Y236100D02*Y219400D01*
X220000Y240000D02*Y241300D01*
Y240000D02*Y241300D01*
X219700D01*
G54D11*X220000Y240000D02*Y241300D01*
X219700D01*
G54D14*X220000D02*X220950Y240000D01*
G54D11*X219700Y241300D02*X220950Y240000D01*
G54D14*X220000D02*X220950D01*
X225500D02*X229400Y236100D01*
X220950Y240000D02*X225500D01*
G54D11*X220000D02*X220950D01*
X195549Y254951D02*X160000Y220000D01*
G54D14*X160800Y229200D02*X153000Y223900D01*
X160000Y260000D02*Y230000D01*
X131800Y278400D02*X117300D01*
X110800Y284900D01*
G54D11*X122000Y290000D02*X139000D01*
X140000Y220000D02*X110000D01*
X130000Y230000D02*X110000D01*
X109000Y275000D02*X113000Y271000D01*
G54D14*X110000Y250000D02*X103000Y243000D01*
G54D11*X113000Y271000D02*X135000D01*
X150000Y286000D01*
X147000Y269000D02*X153000Y276000D01*
X150000Y286000D02*Y290000D01*
X146900Y208400D02*X147000Y269000D01*
X70000Y310000D02*Y309200D01*
X51200D02*X50000Y308000D01*
X100000Y310000D02*X90000D01*
G54D14*X110800Y284900D02*X60100D01*
G54D12*X60000Y285100D02*X59900D01*
G54D14*X60100Y284900D02*X59900Y285100D01*
G54D12*X60000Y285000D02*Y285100D01*
G54D14*Y285000D02*Y285100D01*
X59900D01*
G54D11*X57000Y295000D02*X62000Y298000D01*
X70000Y275000D02*X109000D01*
X62000Y298000D02*X114000D01*
X122000Y290000D01*
G54D13*X40000Y270000D02*X39900D01*
X40000D02*X39900D01*
G54D15*X40000Y280000D02*X30000D01*
X22000Y290000D01*
G54D14*X39800Y270100D02*X39900Y270000D01*
G54D13*X60000Y265000D02*X40000Y270000D01*
X60000Y265000D03*
G54D15*X50000Y250000D02*Y292900D01*
G54D14*X39900Y240100D02*X40000Y240000D01*
G54D15*X60000Y233000D01*
G54D14*X59800D01*
G54D11*X40000Y240000D02*X43000D01*
G54D15*X50000Y250000D01*
G54D14*X78550Y252750D02*X86600Y232700D01*
X78950Y252450D02*Y252650D01*
G54D11*X83000Y243000D02*X82664Y243336D01*
X80000Y233000D02*X60000Y253000D01*
X80000Y220000D02*Y233000D01*
G54D13*X60000Y265000D02*X78700Y253400D01*
G54D14*X103000Y243000D02*X83000D01*
G54D11*X110000Y255500D02*X94500D01*
X89000Y253000D01*
X204850Y255000D02*X195500Y254950D01*
X204850Y264700D02*Y255000D01*
G54D14*X196500Y282300D02*X174600Y260400D01*
X160400D02*X160000Y260000D01*
X161000Y260400D01*
X160000Y260000D02*Y260400D01*
X160400D01*
X161000D02*X160400D01*
X161000D01*
X161400D01*
X161000D02*X161400D01*
X161000D01*
G54D11*X153000Y276000D02*X179000D01*
G54D14*X174600Y260400D02*X161400D01*
G54D11*X179000Y276000D02*X184000Y281000D01*
X182000Y299000D02*X168000D01*
X165000Y302000D01*
X180000Y293000D02*X177000Y295000D01*
X144000D01*
X139000Y290000D01*
X227950Y139000D02*X236950Y148000D01*
X268000D02*X280000Y160000D01*
X268000Y148000D02*X236950D01*
G54D14*X221250Y180000D02*X226250Y177300D01*
G54D11*X221250Y180000D02*X220000D01*
X240000Y202750D02*Y200000D01*
Y202750D02*X220000D01*
Y204500D02*Y202750D01*
G54D14*X229400Y219400D02*X220000Y210000D01*
X219950Y156450D02*Y150700D01*
X226250Y177300D02*X226350Y158250D01*
G54D11*X227950Y139000D02*X220000D01*
G54D14*Y150000D02*Y150700D01*
X219950D01*
X218750Y210000D02*X213150Y205800D01*
Y182050D01*
G54D12*X226350Y158250D02*X219950Y156450D01*
X160000Y170000D02*X152600Y164400D01*
G54D11*X220000Y170000D02*X200000D01*
X220000D02*Y169000D01*
G54D14*X160193Y139700D02*X167800D01*
X179700Y129200D01*
G54D12*X152600Y154200D02*X160000Y150000D01*
X160200Y139300D01*
X152600Y164400D02*Y154200D01*
G54D14*X160500Y170500D02*X160050Y170050D01*
G54D12*X160000Y170000D02*Y170050D01*
X160050D01*
G54D14*X153000Y213100D02*X159400Y209800D01*
Y209400D02*X160000Y210000D01*
Y209400D01*
X160500D01*
G54D11*X146900Y208200D02*X147050Y208050D01*
G54D14*X160500Y209400D02*Y170500D01*
G54D11*X146600Y161700D02*X146900Y208200D01*
G54D14*X153000Y223900D02*Y213100D01*
G54D11*X133500Y147400D02*X146700Y161700D01*
G54D19*X109400Y160200D03*
G54D11*X118150Y144650D02*X110064Y159985D01*
X118150Y125850D02*Y144650D01*
G54D14*X84000Y176000D02*Y100000D01*
X86600Y178900D02*X84000Y176000D01*
G54D11*X88000Y173000D02*X92000Y177000D01*
Y198000D01*
X94000Y200000D01*
X100000D01*
G54D14*X86600Y232700D02*Y178900D01*
G54D11*X88000Y150000D02*Y173000D01*
X100000Y140000D02*X98000D01*
X88000Y150000D01*
X133500Y129200D02*Y147400D01*
G54D14*X130290Y90570D02*X130570D01*
G54D19*X110100Y119400D03*
G54D11*X108700Y120600D02*X109000Y120300D01*
G54D14*X84000Y100000D02*X100800Y82500D01*
X122220D01*
G54D11*X124600Y105300D02*X108700Y120600D01*
X128200Y105300D02*X124600D01*
X130900Y108000D02*X128200Y105300D01*
X130900Y112500D02*Y108000D01*
X128300Y115700D02*X118100Y125950D01*
X90600Y350000D02*X105950D01*
X110600D02*X119600Y341200D01*
G54D14*X150000Y350000D02*X160000Y340000D01*
G54D11*X105950Y350000D02*X110600D01*
X105950D02*X90000D01*
X90600D01*
X90000D03*
G54D14*X170000D02*Y358586D01*
X169700Y358886D01*
G54D11*X90000Y350000D02*X70000D01*
G54D15*X192959Y358900D02*X50000Y359000D01*
G54D11*X123000Y325000D02*X135000D01*
X119600Y327900D02*X120100Y327400D01*
X123000Y325000D01*
X110000Y310000D02*X130000D01*
X100000D02*Y309400D01*
Y310000D02*Y309400D01*
X119000Y302800D02*X119200Y302600D01*
G54D20*X119800D01*
G54D21*X122900Y299500D01*
G54D11*X119600Y341200D02*Y327900D01*
G54D21*X122900Y299500D02*X149700D01*
X160000Y309800D01*
G54D11*X130000Y310000D02*X140000D01*
X150000Y310100D02*X149700D01*
X165000Y302000D02*Y315000D01*
G54D14*X160550Y339450D02*Y338750D01*
X166300Y333000D01*
X177800D01*
X196500Y314300D01*
G54D11*X165100Y314500D02*X161200Y318400D01*
G54D14*X160000Y340000D02*Y339450D01*
X160550D01*
G54D11*X149700Y310100D02*X135000Y325000D01*
X161200Y318400D02*X153300D01*
X150000Y315100D01*
G54D14*X160000Y310000D02*Y309800D01*
Y310000D02*Y309800D01*
G54D11*X150000Y315100D02*Y310600D01*
Y310100D02*X149700D01*
X150000D02*Y310600D01*
Y310100D02*Y310600D01*
Y310100D01*
Y310000D02*Y310100D01*
Y310000D02*Y310100D01*
Y310000D02*Y310100D01*
Y310000D01*
Y310100D01*
G54D15*X70000Y309200D02*X76400Y302800D01*
X119000D01*
X70000Y309200D02*X51200D01*
G54D11*X20000Y320000D02*X22000Y322000D01*
G54D15*Y290000D02*Y337000D01*
X30000D01*
X50000Y293000D02*Y359000D01*
G54D21*Y347000D02*X40000D01*
G54D11*X41000D01*
G54D15*X50000Y317000D02*X40000D01*
X30000Y337000D02*Y347000D01*
G54D22*G36*
X326600Y133400D02*Y126600D01*
X333400D01*
Y133400D01*
X326600D01*
G37*
G54D23*X290000Y130000D03*
G54D22*G36*
X236600Y143400D02*Y136600D01*
X243400D01*
Y143400D01*
X236600D01*
G37*
G36*
X317000Y163000D02*Y157000D01*
X323000D01*
Y163000D01*
X317000D01*
G37*
G54D13*X320000Y150000D03*
G54D24*X360000Y160000D03*
X370000Y150000D03*
X360000Y140000D03*
G54D23*X160000Y170000D03*
Y150000D03*
Y90000D03*
G54D22*G36*
X156600Y103400D02*Y96600D01*
X163400D01*
Y103400D01*
X156600D01*
G37*
G36*
X157250Y122750D02*Y117250D01*
X162750D01*
Y122750D01*
X157250D01*
G37*
G36*
X196600Y153400D02*Y146600D01*
X203400D01*
Y153400D01*
X196600D01*
G37*
G54D18*X180000Y120000D03*
G54D22*G36*
X196600Y93400D02*Y86600D01*
X203400D01*
Y93400D01*
X196600D01*
G37*
G36*
X186500Y73500D02*Y66500D01*
X193500D01*
Y73500D01*
X186500D01*
G37*
G54D23*X200000Y100000D03*
G54D25*X160000Y70000D03*
G54D22*G36*
X126890Y93970D02*Y87170D01*
X133690D01*
Y93970D01*
X126890D01*
G37*
G54D23*X120290Y90570D03*
G54D25*X160000Y40000D03*
G54D26*X27559Y43543D03*
G54D23*X130290Y50570D03*
G54D22*G36*
X116890Y53970D02*Y47170D01*
X123690D01*
Y53970D01*
X116890D01*
G37*
G54D23*X210000Y30000D03*
G54D25*X180000Y70000D03*
X170000D03*
Y40000D03*
X180000D03*
X190000D03*
G54D22*G36*
X216600Y33400D02*Y26600D01*
X223400D01*
Y33400D01*
X216600D01*
G37*
G54D23*X220000Y70000D03*
G54D22*G36*
X237000Y63000D02*Y57000D01*
X243000D01*
Y63000D01*
X237000D01*
G37*
G36*
X256600Y83400D02*Y76600D01*
X263400D01*
Y83400D01*
X256600D01*
G37*
G54D13*X240000Y50000D03*
G54D22*G36*
X206600Y73400D02*Y66600D01*
X213400D01*
Y73400D01*
X206600D01*
G37*
G36*
X217000Y93000D02*Y87000D01*
X223000D01*
Y93000D01*
X217000D01*
G37*
G54D13*X220000Y100000D03*
G54D23*Y80000D03*
G54D26*X370000Y15000D03*
G54D22*G36*
X347000Y93000D02*Y87000D01*
X353000D01*
Y93000D01*
X347000D01*
G37*
G54D13*X350000Y70000D03*
X370000Y90000D03*
Y70000D03*
G54D21*X220000Y169000D03*
G54D22*G36*
X196600Y163400D02*Y156600D01*
X203400D01*
Y163400D01*
X196600D01*
G37*
G54D23*X160000Y160000D03*
G54D22*G36*
X266750Y163250D02*Y156750D01*
X273250D01*
Y163250D01*
X266750D01*
G37*
G54D16*X280000Y160000D03*
G54D22*G36*
X196600Y173400D02*Y166600D01*
X203400D01*
Y173400D01*
X196600D01*
G37*
G54D21*X220000Y150000D03*
Y144500D03*
Y139000D03*
G54D22*G36*
X107000Y123000D02*Y117000D01*
X113000D01*
Y123000D01*
X107000D01*
G37*
G36*
X94250Y145750D02*Y134250D01*
X105750D01*
Y145750D01*
X94250D01*
G37*
G36*
Y125750D02*Y114250D01*
X105750D01*
Y125750D01*
X94250D01*
G37*
G54D26*X27559Y157717D03*
G54D18*X110000Y160000D03*
G54D22*G36*
X94250Y165750D02*Y154250D01*
X105750D01*
Y165750D01*
X94250D01*
G37*
G36*
X196600Y263400D02*Y256600D01*
X203400D01*
Y263400D01*
X196600D01*
G37*
G54D23*X160000Y260000D03*
G54D22*G36*
X196600Y273400D02*Y266600D01*
X203400D01*
Y273400D01*
X196600D01*
G37*
G54D23*X160000Y270000D03*
G54D22*G36*
X206600Y313400D02*Y306600D01*
X213400D01*
Y313400D01*
X206600D01*
G37*
G54D23*X190000Y290000D03*
X220000Y310000D03*
G54D25*X170000D03*
X180000D03*
X190000D03*
G54D21*X220000Y180000D03*
Y210000D03*
Y204500D03*
Y199000D03*
G54D22*G36*
X236600Y203400D02*Y196600D01*
X243400D01*
Y203400D01*
X236600D01*
G37*
G54D23*X240000Y240000D03*
G54D21*X220000Y174500D03*
Y240000D03*
Y234500D03*
Y229000D03*
G54D22*G36*
X196600Y223400D02*Y216600D01*
X203400D01*
Y223400D01*
X196600D01*
G37*
G54D23*X160000Y220000D03*
G54D22*G36*
X196600Y213400D02*Y206600D01*
X203400D01*
Y213400D01*
X196600D01*
G37*
G54D23*X160000Y210000D03*
G54D22*G36*
X196600Y233400D02*Y226600D01*
X203400D01*
Y233400D01*
X196600D01*
G37*
G54D23*X160000Y230000D03*
X240000Y180000D03*
G54D22*G36*
X136600Y223400D02*Y216600D01*
X143400D01*
Y223400D01*
X136600D01*
G37*
G54D23*X140000Y180000D03*
G54D22*G36*
X126600Y233400D02*Y226600D01*
X133400D01*
Y233400D01*
X126600D01*
G37*
G54D23*X130000Y190000D03*
G54D21*X320000Y325500D03*
Y331000D03*
G54D22*G36*
X97250Y332750D02*Y327250D01*
X102750D01*
Y332750D01*
X97250D01*
G37*
G54D15*X110000Y310000D03*
G54D25*X130000D03*
G54D22*G36*
X147500Y292500D02*Y287500D01*
X152500D01*
Y292500D01*
X147500D01*
G37*
G54D15*X180000Y290000D03*
G54D25*X140000Y310000D03*
X150000D03*
X160000D03*
G54D23*X240000D03*
G54D22*G36*
X257250Y322750D02*Y317250D01*
X262750D01*
Y322750D01*
X257250D01*
G37*
G36*
X75600Y256400D02*Y249600D01*
X82400D01*
Y256400D01*
X75600D01*
G37*
G36*
X57250Y235750D02*Y230250D01*
X62750D01*
Y235750D01*
X57250D01*
G37*
G54D18*X60000Y253000D03*
G54D21*X110000Y250000D03*
Y255500D03*
G54D23*X89000Y253000D03*
G54D21*X110000Y261000D03*
G54D22*G36*
X77500Y222500D02*Y217500D01*
X82500D01*
Y222500D01*
X77500D01*
G37*
G36*
Y232500D02*Y227500D01*
X82500D01*
Y232500D01*
X77500D01*
G37*
G54D15*X110000Y220000D03*
Y230000D03*
G54D22*G36*
X97000Y193000D02*Y187000D01*
X103000D01*
Y193000D01*
X97000D01*
G37*
G54D13*X100000Y200000D03*
G54D23*X79000Y293000D03*
G54D18*X60000Y285000D03*
G54D22*G36*
X85600Y296400D02*Y289600D01*
X92400D01*
Y296400D01*
X85600D01*
G37*
G36*
X37000Y253000D02*Y247000D01*
X43000D01*
Y253000D01*
X37000D01*
G37*
G54D13*X40000Y240000D03*
G54D22*G36*
X37000Y283000D02*Y277000D01*
X43000D01*
Y283000D01*
X37000D01*
G37*
G54D13*X40000Y270000D03*
G54D22*G36*
X57250Y267750D02*Y262250D01*
X62750D01*
Y267750D01*
X57250D01*
G37*
G36*
X37000Y310000D02*Y304000D01*
X43000D01*
Y310000D01*
X37000D01*
G37*
G54D13*X40000Y317000D03*
Y327000D03*
G54D22*G36*
X86600Y353400D02*Y346600D01*
X93400D01*
Y353400D01*
X86600D01*
G37*
G54D18*X80000Y349800D03*
G54D22*G36*
X167250Y352350D02*Y346850D01*
X172750D01*
Y352350D01*
X167250D01*
G37*
G54D18*X150000Y349600D03*
G54D23*X70000Y350000D03*
G54D13*X40000Y347000D03*
X30000D03*
G54D22*G36*
X107500Y342500D02*Y337500D01*
X112500D01*
Y342500D01*
X107500D01*
G37*
G54D25*X150000Y340000D03*
X140000D03*
X130000D03*
G54D22*G36*
X77250Y332550D02*Y327050D01*
X82750D01*
Y332550D01*
X77250D01*
G37*
G54D13*X40000Y337000D03*
X30000D03*
G54D26*X25000Y375000D03*
X370000D03*
G54D22*G36*
X66600Y313400D02*Y306600D01*
X73400D01*
Y313400D01*
X66600D01*
G37*
G36*
X186500Y343500D02*Y336500D01*
X193500D01*
Y343500D01*
X186500D01*
G37*
G54D25*X180000Y340000D03*
X170000D03*
X160000D03*
G54D13*X30000Y307000D03*
Y317000D03*
Y327000D03*
G54D18*X100000Y310000D03*
G54D23*X90000D03*
G54D22*G36*
X226600Y313400D02*Y306600D01*
X233400D01*
Y313400D01*
X226600D01*
G37*
G54D23*X250000Y310000D03*
G54D22*G36*
X269050Y353600D02*Y346800D01*
X275850D01*
Y353600D01*
X269050D01*
G37*
G54D23*X210000Y350000D03*
G54D22*G36*
X216600Y353400D02*Y346600D01*
X223400D01*
Y353400D01*
X216600D01*
G37*
G54D23*X230000Y350000D03*
G54D22*G36*
X246600Y353400D02*Y346600D01*
X253400D01*
Y353400D01*
X246600D01*
G37*
G36*
X236600D02*Y346600D01*
X243400D01*
Y353400D01*
X236600D01*
G37*
G54D18*X260000Y340000D03*
G54D22*G36*
X337500Y312500D02*Y307500D01*
X342500D01*
Y312500D01*
X337500D01*
G37*
G54D15*X340000Y320000D03*
X370000Y310000D03*
G54D22*G36*
X367500Y322500D02*Y317500D01*
X372500D01*
Y322500D01*
X367500D01*
G37*
G54D21*X320000Y320000D03*
G54D22*G36*
X226600Y293400D02*Y286600D01*
X233400D01*
Y293400D01*
X226600D01*
G37*
G36*
X276600D02*Y286600D01*
X283400D01*
Y293400D01*
X276600D01*
G37*
G54D23*X240000Y290000D03*
X272450Y310200D03*
G54D22*G36*
X317000Y283000D02*Y277000D01*
X323000D01*
Y283000D01*
X317000D01*
G37*
G54D13*X320000Y270000D03*
G54D24*X360000Y280000D03*
Y260000D03*
X370000Y270000D03*
G54D22*G36*
X266750Y223250D02*Y216750D01*
X273250D01*
Y223250D01*
X266750D01*
G37*
G54D16*X280000Y220000D03*
G54D22*G36*
X317000Y223000D02*Y217000D01*
X323000D01*
Y223000D01*
X317000D01*
G37*
G54D13*X320000Y210000D03*
G54D24*X360000Y220000D03*
X370000Y210000D03*
X360000Y200000D03*
G54D27*X136100Y130300D02*Y128100D01*
X133500Y130300D02*Y128100D01*
X131000Y130300D02*Y128100D01*
G54D28*X128300Y113600D02*Y111400D01*
G54D27*X130900Y113600D02*Y111400D01*
X133400Y113600D02*Y111400D01*
X136000Y113600D02*Y111400D01*
X128400Y130300D02*Y128100D01*
G54D13*X131800Y278400D03*
G54D29*X70000Y275000D03*
X57000Y295000D03*
X142200Y60000D03*
X129900Y120900D03*
X139900Y146700D03*
G54D13*X140000Y170000D03*
G54D12*G54D30*G54D12*G54D31*G54D32*G54D31*G54D33*G54D31*G54D33*G54D31*G54D32*G54D31*G54D32*G54D31*G54D32*G54D34*G54D31*G54D32*G54D31*G54D33*G54D31*G54D33*G54D31*G54D33*G54D31*G54D34*G54D32*G54D35*G54D31*G54D36*G54D31*G54D35*G54D33*G54D37*G54D34*G54D33*G54D37*G54D31*G54D32*G54D35*G54D31*G54D35*G54D31*G54D35*G54D33*G54D30*G54D32*G54D30*G54D32*G54D31*G54D33*G54D31*G54D33*G54D35*G54D31*G54D35*G54D30*G54D31*G54D33*G54D31*G54D33*G54D31*G54D33*G54D31*G54D30*G54D32*G54D33*G54D31*G54D34*G54D31*G54D32*G54D31*G54D33*G54D31*G54D33*G54D30*G54D35*G54D31*G54D32*G54D36*G54D31*G54D32*M02*
