M48
INCH
T70C0.035
T69C0.020
T68C0.078
T67C0.043
T66C0.029
T65C0.114
T64C0.030
T63C0.028
T62C0.038
%
T69
X011000Y031000
X015000Y029000
X018000Y029000
X008000Y022000
X008000Y023000
X011000Y022000
X011000Y023000
X011000Y034000
X034000Y031000
X034000Y032000
X037000Y031000
X037000Y032000
X007000Y027500
X005700Y029500
X014220Y006000
X012990Y012090
X013990Y014670
T63
X036000Y016000
X037000Y015000
X036000Y014000
X019000Y007000
X016000Y007000
X016000Y004000
X018000Y007000
X017000Y007000
X017000Y004000
X018000Y004000
X019000Y004000
X035000Y009000
X035000Y007000
X037000Y009000
X037000Y007000
X017000Y031000
X018000Y031000
X019000Y031000
X013000Y031000
X014000Y031000
X015000Y031000
X016000Y031000
X015000Y034000
X014000Y034000
X013000Y034000
X019000Y034000
X018000Y034000
X017000Y034000
X016000Y034000
X036000Y028000
X036000Y026000
X037000Y027000
X036000Y022000
X037000Y021000
X036000Y020000
T66
X022000Y016900
X022000Y015000
X022000Y014450
X022000Y013900
X022000Y018000
X022000Y021000
X022000Y020450
X022000Y019900
X022000Y017450
X022000Y024000
X022000Y023450
X022000Y022900
X032000Y032550
X032000Y033100
X011000Y025000
X011000Y025550
X011000Y026100
X032000Y032000
T64
X016000Y012000
X018000Y012000
X024000Y006000
X024000Y005000
X022000Y009000
X022000Y010000
X011000Y012000
X011000Y016000
X010000Y033000
X026000Y032000
X006000Y023300
X006000Y025300
X006000Y028500
X004000Y025000
X004000Y024000
X004000Y028000
X004000Y027000
X006000Y026500
X008000Y034980
X017000Y034960
X015000Y034960
X008000Y032980
X010000Y031000
X026000Y034000
T70
X013180Y027840
X014000Y017000
T62
X033000Y013000
X029000Y013000
X024000Y014000
X032000Y016000
X032000Y015000
X016000Y017000
X016000Y015000
X016000Y009000
X016000Y010000
X020000Y015000
X020000Y009000
X020000Y010000
X013029Y009057
X012029Y009057
X013029Y005057
X012029Y005057
X021000Y003000
X022000Y003000
X022000Y007000
X026000Y008000
X021000Y007000
X022000Y008000
X020000Y016000
X016000Y016000
X020000Y017000
X020000Y026000
X016000Y026000
X020000Y027000
X016000Y027000
X021000Y031000
X019000Y029000
X022000Y031000
X024000Y020000
X024000Y024000
X020000Y022000
X016000Y022000
X020000Y021000
X016000Y021000
X020000Y023000
X016000Y023000
X024000Y018000
X014000Y022000
X014000Y018000
X013000Y023000
X013000Y019000
X024000Y031000
X007900Y025300
X008900Y025300
X010000Y019000
X010000Y020000
X007900Y029300
X008900Y029300
X004000Y030700
X004000Y031700
X004000Y032700
X009000Y035000
X007000Y035000
X004000Y034700
X003000Y034700
X004000Y033700
X003000Y033700
X007000Y031000
X003000Y030700
X003000Y031700
X003000Y032700
X009000Y031000
X023000Y031000
X025000Y031000
X027245Y035020
X021000Y035000
X022000Y035000
X023000Y035000
X025000Y035000
X024000Y035000
X023000Y029000
X028000Y029000
X024000Y029000
X027245Y031020
X032000Y028000
X032000Y027000
X032000Y022000
X032000Y021000
T67
X027000Y016000
X028000Y016000
X027000Y022000
X028000Y022000
T68
X010000Y014000
X010000Y012000
X010000Y016000
T65
X002756Y004354
X037000Y001500
X002756Y015772
X002500Y037500
X037000Y037500
M30
