G04 start of page 6 for group -4063 idx -4063 *
G04 Title: (unknown), componentmask *
G04 Creator: pcb 20110918 *
G04 CreationDate: Wed 26 Feb 2014 06:05:46 GMT UTC *
G04 For: ksarkies *
G04 Format: Gerber/RS-274X *
G04 PCB-Dimensions: 390000 390000 *
G04 PCB-Coordinate-Origin: lower left *
%MOIN*%
%FSLAX25Y25*%
%LNTOPMASK*%
%ADD81C,0.0220*%
%ADD80R,0.0220X0.0220*%
%ADD79C,0.0560*%
%ADD78C,0.0710*%
%ADD77C,0.0510*%
%ADD76C,0.0700*%
%ADD75C,0.0610*%
%ADD74C,0.0850*%
%ADD73C,0.0660*%
%ADD72C,0.0740*%
%ADD71C,0.0001*%
G54D71*G36*
X326300Y133700D02*Y126300D01*
X333700D01*
Y133700D01*
X326300D01*
G37*
G54D72*X290000Y130000D03*
G54D71*G36*
X236300Y143700D02*Y136300D01*
X243700D01*
Y143700D01*
X236300D01*
G37*
G36*
X316700Y163300D02*Y156700D01*
X323300D01*
Y163300D01*
X316700D01*
G37*
G54D73*X320000Y150000D03*
G54D74*X360000Y160000D03*
X370000Y150000D03*
X360000Y140000D03*
G54D72*X160000Y170000D03*
Y150000D03*
Y90000D03*
G54D71*G36*
X156300Y103700D02*Y96300D01*
X163700D01*
Y103700D01*
X156300D01*
G37*
G36*
X156950Y123050D02*Y116950D01*
X163050D01*
Y123050D01*
X156950D01*
G37*
G36*
X196300Y153700D02*Y146300D01*
X203700D01*
Y153700D01*
X196300D01*
G37*
G54D75*X180000Y120000D03*
G54D71*G36*
X196300Y93700D02*Y86300D01*
X203700D01*
Y93700D01*
X196300D01*
G37*
G36*
X186500Y73500D02*Y66500D01*
X193500D01*
Y73500D01*
X186500D01*
G37*
G54D72*X200000Y100000D03*
G54D76*X160000Y70000D03*
G54D71*G36*
X126590Y94270D02*Y86870D01*
X133990D01*
Y94270D01*
X126590D01*
G37*
G54D72*X120290Y90570D03*
G54D76*X160000Y40000D03*
G54D72*X130290Y50570D03*
G54D71*G36*
X116590Y54270D02*Y46870D01*
X123990D01*
Y54270D01*
X116590D01*
G37*
G54D72*X210000Y30000D03*
G54D76*X180000Y70000D03*
X170000D03*
Y40000D03*
X180000D03*
X190000D03*
G54D71*G36*
X216300Y33700D02*Y26300D01*
X223700D01*
Y33700D01*
X216300D01*
G37*
G54D72*X220000Y70000D03*
G54D71*G36*
X236700Y63300D02*Y56700D01*
X243300D01*
Y63300D01*
X236700D01*
G37*
G36*
X256300Y83700D02*Y76300D01*
X263700D01*
Y83700D01*
X256300D01*
G37*
G54D73*X240000Y50000D03*
G54D71*G36*
X206300Y73700D02*Y66300D01*
X213700D01*
Y73700D01*
X206300D01*
G37*
G36*
X216700Y93300D02*Y86700D01*
X223300D01*
Y93300D01*
X216700D01*
G37*
G54D73*X220000Y100000D03*
G54D72*Y80000D03*
G54D71*G36*
X346500Y93500D02*Y86500D01*
X353500D01*
Y93500D01*
X346500D01*
G37*
G54D76*X350000Y70000D03*
X370000Y90000D03*
Y70000D03*
G54D77*X220000Y169000D03*
G54D71*G36*
X196300Y163700D02*Y156300D01*
X203700D01*
Y163700D01*
X196300D01*
G37*
G54D72*X160000Y160000D03*
G54D71*G36*
X266450Y163550D02*Y156450D01*
X273550D01*
Y163550D01*
X266450D01*
G37*
G54D78*X280000Y160000D03*
G54D71*G36*
X196300Y173700D02*Y166300D01*
X203700D01*
Y173700D01*
X196300D01*
G37*
G54D77*X220000Y150000D03*
Y144500D03*
Y139000D03*
G54D71*G36*
X106700Y123300D02*Y116700D01*
X113300D01*
Y123300D01*
X106700D01*
G37*
G36*
X93950Y146050D02*Y133950D01*
X106050D01*
Y146050D01*
X93950D01*
G37*
G36*
Y126050D02*Y113950D01*
X106050D01*
Y126050D01*
X93950D01*
G37*
G54D75*X110000Y160000D03*
G54D71*G36*
X93950Y166050D02*Y153950D01*
X106050D01*
Y166050D01*
X93950D01*
G37*
G36*
X196300Y263700D02*Y256300D01*
X203700D01*
Y263700D01*
X196300D01*
G37*
G54D72*X160000Y260000D03*
G54D71*G36*
X196300Y273700D02*Y266300D01*
X203700D01*
Y273700D01*
X196300D01*
G37*
G54D72*X160000Y270000D03*
G54D71*G36*
X206300Y313700D02*Y306300D01*
X213700D01*
Y313700D01*
X206300D01*
G37*
G54D72*X190000Y290000D03*
X220000Y310000D03*
G54D76*X170000D03*
X180000D03*
X190000D03*
G54D77*X220000Y180000D03*
Y210000D03*
Y204500D03*
Y199000D03*
G54D71*G36*
X236300Y203700D02*Y196300D01*
X243700D01*
Y203700D01*
X236300D01*
G37*
G54D72*X240000Y240000D03*
G54D77*X220000Y174500D03*
Y240000D03*
Y234500D03*
Y229000D03*
G54D71*G36*
X196300Y223700D02*Y216300D01*
X203700D01*
Y223700D01*
X196300D01*
G37*
G54D72*X160000Y220000D03*
G54D71*G36*
X196300Y213700D02*Y206300D01*
X203700D01*
Y213700D01*
X196300D01*
G37*
G54D72*X160000Y210000D03*
G54D71*G36*
X196300Y233700D02*Y226300D01*
X203700D01*
Y233700D01*
X196300D01*
G37*
G54D72*X160000Y230000D03*
X240000Y180000D03*
G54D71*G36*
X136300Y223700D02*Y216300D01*
X143700D01*
Y223700D01*
X136300D01*
G37*
G54D72*X140000Y180000D03*
G54D71*G36*
X126300Y233700D02*Y226300D01*
X133700D01*
Y233700D01*
X126300D01*
G37*
G54D72*X130000Y190000D03*
G54D77*X320000Y325500D03*
Y331000D03*
G54D71*G36*
X96950Y333050D02*Y326950D01*
X103050D01*
Y333050D01*
X96950D01*
G37*
G54D79*X110000Y310000D03*
G54D76*X130000D03*
G54D71*G36*
X147200Y292800D02*Y287200D01*
X152800D01*
Y292800D01*
X147200D01*
G37*
G54D79*X180000Y290000D03*
G54D76*X140000Y310000D03*
X150000D03*
X160000D03*
G54D72*X240000D03*
G54D71*G36*
X256950Y323050D02*Y316950D01*
X263050D01*
Y323050D01*
X256950D01*
G37*
G36*
X75300Y256700D02*Y249300D01*
X82700D01*
Y256700D01*
X75300D01*
G37*
G36*
X56950Y236050D02*Y229950D01*
X63050D01*
Y236050D01*
X56950D01*
G37*
G54D75*X60000Y253000D03*
G54D77*X110000Y250000D03*
Y255500D03*
G54D72*X89000Y253000D03*
G54D77*X110000Y261000D03*
G54D71*G36*
X77200Y222800D02*Y217200D01*
X82800D01*
Y222800D01*
X77200D01*
G37*
G36*
Y232800D02*Y227200D01*
X82800D01*
Y232800D01*
X77200D01*
G37*
G54D79*X110000Y220000D03*
Y230000D03*
G54D71*G36*
X96700Y193300D02*Y186700D01*
X103300D01*
Y193300D01*
X96700D01*
G37*
G54D73*X100000Y200000D03*
G54D72*X79000Y293000D03*
G54D75*X60000Y285000D03*
G54D71*G36*
X85300Y296700D02*Y289300D01*
X92700D01*
Y296700D01*
X85300D01*
G37*
G36*
X36700Y253300D02*Y246700D01*
X43300D01*
Y253300D01*
X36700D01*
G37*
G54D73*X40000Y240000D03*
G54D71*G36*
X36700Y283300D02*Y276700D01*
X43300D01*
Y283300D01*
X36700D01*
G37*
G54D73*X40000Y270000D03*
G54D71*G36*
X56950Y268050D02*Y261950D01*
X63050D01*
Y268050D01*
X56950D01*
G37*
G36*
X36700Y310300D02*Y303700D01*
X43300D01*
Y310300D01*
X36700D01*
G37*
G54D73*X40000Y317000D03*
Y327000D03*
G54D71*G36*
X86300Y353700D02*Y346300D01*
X93700D01*
Y353700D01*
X86300D01*
G37*
G54D75*X80000Y349800D03*
G54D71*G36*
X166950Y352650D02*Y346550D01*
X173050D01*
Y352650D01*
X166950D01*
G37*
G54D75*X150000Y349600D03*
G54D72*X70000Y350000D03*
G54D73*X40000Y347000D03*
X30000D03*
G54D71*G36*
X107200Y342800D02*Y337200D01*
X112800D01*
Y342800D01*
X107200D01*
G37*
G54D76*X150000Y340000D03*
X140000D03*
X130000D03*
G54D71*G36*
X76950Y332850D02*Y326750D01*
X83050D01*
Y332850D01*
X76950D01*
G37*
G54D73*X40000Y337000D03*
X30000D03*
G54D71*G36*
X66300Y313700D02*Y306300D01*
X73700D01*
Y313700D01*
X66300D01*
G37*
G36*
X186500Y343500D02*Y336500D01*
X193500D01*
Y343500D01*
X186500D01*
G37*
G54D76*X180000Y340000D03*
X170000D03*
X160000D03*
G54D73*X30000Y307000D03*
Y317000D03*
Y327000D03*
G54D75*X100000Y310000D03*
G54D72*X90000D03*
G54D71*G36*
X226300Y313700D02*Y306300D01*
X233700D01*
Y313700D01*
X226300D01*
G37*
G54D72*X250000Y310000D03*
G54D71*G36*
X268750Y353900D02*Y346500D01*
X276150D01*
Y353900D01*
X268750D01*
G37*
G54D72*X210000Y350000D03*
G54D71*G36*
X216300Y353700D02*Y346300D01*
X223700D01*
Y353700D01*
X216300D01*
G37*
G54D72*X230000Y350000D03*
G54D71*G36*
X246300Y353700D02*Y346300D01*
X253700D01*
Y353700D01*
X246300D01*
G37*
G36*
X236300D02*Y346300D01*
X243700D01*
Y353700D01*
X236300D01*
G37*
G54D75*X260000Y340000D03*
G54D71*G36*
X337200Y312800D02*Y307200D01*
X342800D01*
Y312800D01*
X337200D01*
G37*
G54D79*X340000Y320000D03*
X370000Y310000D03*
G54D71*G36*
X367200Y322800D02*Y317200D01*
X372800D01*
Y322800D01*
X367200D01*
G37*
G54D77*X320000Y320000D03*
G54D71*G36*
X226300Y293700D02*Y286300D01*
X233700D01*
Y293700D01*
X226300D01*
G37*
G36*
X276300D02*Y286300D01*
X283700D01*
Y293700D01*
X276300D01*
G37*
G54D72*X240000Y290000D03*
X272450Y310200D03*
G54D71*G36*
X316700Y283300D02*Y276700D01*
X323300D01*
Y283300D01*
X316700D01*
G37*
G54D73*X320000Y270000D03*
G54D74*X360000Y280000D03*
Y260000D03*
X370000Y270000D03*
G54D71*G36*
X266450Y223550D02*Y216450D01*
X273550D01*
Y223550D01*
X266450D01*
G37*
G54D78*X280000Y220000D03*
G54D71*G36*
X316700Y223300D02*Y216700D01*
X323300D01*
Y223300D01*
X316700D01*
G37*
G54D73*X320000Y210000D03*
G54D74*X360000Y220000D03*
X370000Y210000D03*
X360000Y200000D03*
G54D80*X136100Y130300D02*Y128100D01*
X133500Y130300D02*Y128100D01*
X131000Y130300D02*Y128100D01*
G54D81*X128300Y113600D02*Y111400D01*
G54D80*X130900Y113600D02*Y111400D01*
X133400Y113600D02*Y111400D01*
X136000Y113600D02*Y111400D01*
X128400Y130300D02*Y128100D01*
M02*
