M48
INCH
T73C0.020
T72C0.045
T71C0.063
T70C0.029
T69C0.028
T68C0.060
T67C0.030
T66C0.038
T65C0.114
%
T73
X011000Y010900
X016500Y010000
X015200Y014300
X025700Y012900
X022100Y018100
X006500Y027400
X003400Y027400
X004800Y028300
X003800Y026700
X004200Y027000
X005300Y028200
X009600Y033950
X010500Y033100
X012900Y026500
X010500Y028900
X009700Y032800
X014400Y026600
X014700Y027500
X023700Y027500
X021800Y027900
X022500Y027700
X015650Y028500
X016300Y028300
X020000Y034150
X018500Y034150
X019450Y032350
X019000Y032300
X027200Y032300
X021000Y032300
X025800Y032300
X012900Y034200
X020500Y032300
X024000Y020400
X033300Y017600
X033700Y016800
X033000Y008900
X033300Y007900
X026600Y017300
X026600Y016800
X030900Y022100
X030500Y021800
X034000Y025000
X031900Y025200
X031900Y026100
X032200Y025800
X033000Y030900
X032700Y031800
X032000Y033100
X033400Y032200
X033700Y032600
X031500Y033500
X026800Y032100
X028500Y029500
X031500Y027600
X027500Y028700
X029200Y028300
X029000Y027900
X035400Y027600
X035400Y025400
T69
X026000Y016000
X027000Y016000
X028000Y016000
X029000Y016000
X030000Y016000
X031000Y016000
X032000Y016000
X030000Y024000
X030000Y027000
X020000Y006000
X021000Y005000
X020000Y004000
X002000Y018000
X002000Y026000
X002000Y025000
X002000Y024000
X002000Y023000
X002000Y020000
X002000Y019000
X006000Y012000
X007000Y012000
X008000Y012000
X009000Y012000
X010000Y012000
X011000Y012000
X008000Y016000
X009000Y016000
X010000Y016000
X012000Y012000
X013000Y012000
X014000Y012000
X015000Y012000
X011000Y016000
X012000Y016000
X013000Y016000
X008000Y020000
X009000Y020000
X010000Y020000
X011000Y020000
X012000Y020000
X013000Y020000
X013000Y023000
X012000Y023000
X011000Y023000
X010000Y023000
X009000Y023000
X008000Y023000
X013000Y031000
X012000Y031000
X011000Y031000
X010000Y031000
X009000Y031000
X008000Y031000
X014000Y016000
X015000Y016000
X016000Y016000
X017000Y016000
X018000Y016000
X019000Y016000
X020000Y016000
X021000Y016000
X022000Y016000
X023000Y016000
X024000Y016000
X025000Y016000
X014000Y020000
X014000Y023000
X032000Y031000
X031000Y031000
X030000Y031000
X025000Y031000
X024000Y031000
X023000Y031000
X022000Y031000
X021000Y031000
X020000Y031000
X019000Y031000
X018000Y031000
X017000Y031000
X016000Y031000
X015000Y031000
X014000Y031000
X029000Y031000
X028000Y031000
X027000Y031000
X026000Y031000
X026000Y024000
X027000Y024000
X028000Y024000
X029000Y024000
X029000Y027000
X028000Y027000
X027000Y027000
X026000Y027000
X031000Y024000
X032000Y024000
X032000Y027000
X031000Y027000
T70
X023000Y005000
X023550Y005000
X024100Y005000
T67
X027000Y005000
X028000Y005000
X030000Y005000
X031000Y005000
X028000Y008000
X029000Y008000
X015200Y022000
X015200Y024000
X025000Y025000
X025000Y027000
T66
X031000Y036100
X030000Y037100
X030000Y036100
X029000Y036100
X028000Y036100
X029000Y037100
X028000Y037100
X037000Y011000
X037000Y017000
X037000Y018000
X037000Y019000
X037000Y020000
X037000Y021000
X036000Y017000
X036000Y018000
X036000Y019000
X036000Y020000
X036000Y021000
X037000Y027000
X036000Y027000
X036000Y028000
X036000Y029000
X036000Y030000
X036000Y031000
X037000Y028000
X037000Y029000
X037000Y030000
X037000Y031000
X037000Y007000
X036000Y007000
X037000Y008000
X036000Y008000
X037000Y009000
X036000Y009000
X037000Y010000
X036000Y010000
X036000Y011000
X022000Y009000
X018000Y009000
X001900Y033000
X002900Y033000
X002900Y032000
X002900Y031000
X002900Y030000
X002900Y029000
X001900Y032000
X001900Y031000
X001900Y030000
X001900Y029000
X010000Y027000
X006000Y027000
X012000Y037000
X012000Y036000
X011000Y037000
X011000Y036000
X010000Y037000
X010000Y036000
X009000Y037000
X009000Y036000
X008000Y036000
X008000Y037000
X022000Y037000
X022000Y036000
X021000Y037000
X021000Y036000
X020000Y037000
X020000Y036000
X019000Y037000
X018000Y037000
X017000Y037000
X016000Y037000
X019000Y036000
X018000Y036000
X017000Y036000
X016000Y036000
X032000Y037100
X032000Y036100
X031000Y037100
T72
X006716Y008898
T68
X030000Y002000
X029000Y003000
X028000Y002000
X028000Y012000
X029000Y011000
X030000Y012000
T71
X014984Y008898
T65
X037000Y037000
X037000Y002000
X002000Y002000
X002000Y037000
M30
