G04 start of page 2 for group 0 idx 0 *
G04 Title: (unknown), top *
G04 Creator: pcb 20110918 *
G04 CreationDate: Sat 26 Apr 2014 10:08:02 GMT UTC *
G04 For: ksarkies *
G04 Format: Gerber/RS-274X *
G04 PCB-Dimensions: 390000 390000 *
G04 PCB-Coordinate-Origin: lower left *
%MOIN*%
%FSLAX25Y25*%
%LNTOP*%
%ADD38C,0.0453*%
%ADD37C,0.0630*%
%ADD36C,0.0290*%
%ADD35C,0.0280*%
%ADD34C,0.0380*%
%ADD33C,0.1140*%
%ADD32C,0.0200*%
%ADD31C,0.0360*%
%ADD30R,0.0590X0.0590*%
%ADD29R,0.0276X0.0276*%
%ADD28R,0.0394X0.0394*%
%ADD27C,0.0615*%
%ADD26C,0.0850*%
%ADD25C,0.0795*%
%ADD24C,0.0680*%
%ADD23C,0.1600*%
%ADD22C,0.0700*%
%ADD21C,0.0900*%
%ADD20C,0.0001*%
%ADD19C,0.0600*%
%ADD18C,0.1650*%
%ADD17C,0.0150*%
%ADD16C,0.0450*%
%ADD15C,0.0350*%
%ADD14C,0.0300*%
%ADD13C,0.0250*%
%ADD12C,0.0100*%
%ADD11C,0.0550*%
G54D11*X328000Y348000D02*X70000D01*
G54D12*X194500Y323500D02*X195000Y323000D01*
X196000Y326500D02*X193000D01*
X190000Y323000D01*
X125000Y342000D02*X129000D01*
X233000Y315000D02*X203000D01*
X194500Y323500D01*
X234500Y318000D02*X204000D01*
X196000Y326500D01*
X73000Y339500D02*X96000D01*
X72750Y342750D02*X124250D01*
X125000Y342000D01*
X180000Y360000D02*X181000D01*
G54D11*X290000Y361000D02*X280000D01*
X290000D02*Y349000D01*
G54D13*X300000Y370000D02*Y380000D01*
G54D11*X170000Y370000D02*Y348000D01*
X160000Y370000D02*Y348000D01*
G54D12*X129000Y293000D02*X203000D01*
X130000Y290000D02*X210000D01*
X161000Y281000D02*X163000Y283000D01*
X162500Y282500D02*X163500Y283500D01*
X167000Y287000D01*
X264000D01*
X218000Y279000D02*X219000D01*
X224000Y281000D01*
X227000Y279000D02*X225000Y277000D01*
X224000Y281000D02*X240000D01*
X243000Y277000D01*
X240000D02*X238000Y279000D01*
X227000D01*
X292000Y283000D02*X274000D01*
X290000Y279000D02*X275000D01*
X274000Y283000D02*X262000Y295000D01*
X275000Y279000D02*X262000Y292000D01*
X300000Y283000D02*X286000Y300000D01*
X270000Y270000D02*Y265000D01*
X277000Y258000D01*
X237000D02*X136000D01*
X149000Y260000D02*X238000D01*
X150000Y262000D02*X240000D01*
X322000Y258000D02*X319000D01*
X252000Y261000D02*X248000D01*
Y258000D02*X251000D01*
X237000Y269000D02*Y275000D01*
X243000Y277000D02*Y270000D01*
X240000Y269000D02*Y277000D01*
X238000Y257000D02*X237000Y258000D01*
X238000Y260000D02*X241000Y257000D01*
X243000Y270000D02*Y269000D01*
X246000Y266000D01*
X257000D01*
X248000Y261000D02*X240000Y269000D01*
X237000D02*X248000Y258000D01*
X320000Y270000D02*Y281000D01*
X318000Y283000D01*
X300000D01*
X210000Y290000D02*X230000Y310000D01*
X275000Y287000D02*X263000Y299000D01*
X203000Y293000D02*X220000Y310000D01*
X263000Y299000D02*X259000D01*
X255000Y303000D01*
Y314000D01*
X246000Y323000D01*
X262000Y295000D02*X255000D01*
X245000Y305000D01*
Y313000D01*
X262000Y292000D02*X243000D01*
X235000Y300000D01*
Y313000D01*
X240000Y310000D02*Y313000D01*
X245000D02*X238500Y320000D01*
X264000Y317000D02*X258000Y323000D01*
X235000Y313000D02*X233000Y315000D01*
X240000Y313000D02*X234500Y318000D01*
X286000Y300000D02*X279000D01*
X275000Y304000D01*
Y315000D01*
X273000Y317000D01*
X264000D01*
X246000Y323000D02*X211000D01*
D03*
X238500Y320000D02*X208000D01*
X206000Y322000D01*
G54D11*X65077Y224077D02*X71000Y230000D01*
G54D12*X20000Y250000D02*X40000D01*
X58000Y262000D02*X36000Y240000D01*
X20000D01*
X40000Y250000D02*X60000Y270000D01*
X42000D02*X44000D01*
G54D14*X20000Y260000D02*X42000D01*
G54D12*X34000Y274000D02*X38000Y279000D01*
Y267000D02*X34000D01*
X29000Y272000D01*
Y275000D01*
G54D13*X46000Y341000D02*X16000D01*
X56000Y375000D02*Y352000D01*
X46000Y341000D01*
X16000D02*X8000Y334000D01*
Y310000D01*
X20000D01*
G54D11*X56000Y334000D02*X43500Y324000D01*
Y300000D01*
X30000D01*
G54D12*X50000Y291000D02*Y317000D01*
X48000Y294000D02*Y318000D01*
D03*
X102000Y262000D02*X130000Y290000D01*
X100000Y309000D02*X65000Y274000D01*
X107000Y257000D02*X135000Y285000D01*
X110000Y254000D02*X137000Y281000D01*
X58000Y262000D02*X102000D01*
G54D14*X42000Y260000D02*X80000Y299027D01*
G54D12*X53000Y283000D02*X54000D01*
X44000Y270000D02*X56000Y280000D01*
X38000Y279000D02*X50000Y291000D01*
X53000Y282000D02*Y283000D01*
X54000D02*Y315000D01*
X48000Y283000D02*Y284000D01*
X52000Y288000D01*
Y316000D01*
X56000Y280000D02*Y314000D01*
X29000Y275000D02*X48000Y294000D01*
G54D11*X29000Y290000D02*Y300000D01*
X70000Y348000D02*X56000Y334000D01*
G54D15*D03*
G54D12*X50000Y317000D02*X73000Y339500D01*
X52000Y316000D02*X73500Y336500D01*
X48000Y318000D02*X72750Y342750D01*
X54000Y315000D02*X74000Y334500D01*
X56000Y314000D02*X74000Y331000D01*
G54D13*X100000Y370000D02*Y380000D01*
X61000D02*X56000Y375000D01*
G54D11*X90000Y360000D02*X80000D01*
X90000D02*Y348000D01*
G54D12*X328000Y282000D02*X322000Y288000D01*
X321000Y286000D02*X326000Y281000D01*
X323000Y290000D02*X330000Y283000D01*
X322000Y288000D02*X304000D01*
X275000Y276000D02*X315000D01*
X277000Y258000D02*X298000D01*
X310000Y270000D01*
X240000Y262000D02*X244000Y258000D01*
X301000Y286000D02*X321000D01*
X304000Y288000D02*X295000Y297000D01*
Y315000D01*
X286000Y323000D01*
X220000Y310000D02*X219000Y309000D01*
X286000Y323000D02*X272000D01*
X268000Y321000D02*X269000Y320000D01*
X292000Y297000D02*X301000Y286000D01*
X142000Y214000D02*X281000D01*
Y213000D01*
Y161000D01*
X300000Y213000D02*X298000Y216000D01*
X243000D01*
X244000Y258000D02*Y225000D01*
X269000Y320000D02*X282000D01*
X285000Y314000D01*
Y304000D01*
X310000Y295000D02*X315000Y290000D01*
X323000D01*
X285000Y304000D02*X291000Y298000D01*
X292000Y297000D01*
X310000Y310000D02*Y295000D01*
X320000Y310000D02*Y296000D01*
X264000Y287000D02*X275000Y276000D01*
X244000Y218000D02*X305000D01*
X326000Y281000D02*Y231000D01*
X328000Y282000D02*Y227000D01*
X325000Y224000D01*
X330000Y283000D02*Y225000D01*
X327000Y222000D01*
X326000Y231000D02*Y230000D01*
X325000Y229000D01*
X323000Y227000D01*
Y167000D01*
X325000Y224000D02*Y168000D01*
X327000Y222000D02*Y169000D01*
X329000Y220000D02*Y170000D01*
X100000Y270000D02*X106000D01*
X129000Y293000D01*
X137000Y281000D02*X161000D01*
X135000Y285000D02*X156500D01*
X147000Y275000D02*Y265000D01*
X136000Y258000D02*X129000Y265000D01*
X144000Y266000D02*Y265000D01*
X149000Y260000D01*
X147000Y265000D02*X150000Y262000D01*
G54D14*X80000Y299027D02*Y310000D01*
G54D12*Y309000D01*
X74000Y331000D02*X105000D01*
Y320000D02*Y289000D01*
X97000Y328000D02*X105000Y320000D01*
G54D15*X91000Y93000D02*X91094Y101024D01*
G54D12*X74566Y100000D02*Y104566D01*
X81259Y100000D02*Y101259D01*
Y100259D02*Y101259D01*
G54D15*X96000Y88000D02*X91000Y93000D01*
G54D16*X60000Y128000D02*Y120000D01*
G54D12*X64566Y100000D02*Y114566D01*
X70000Y120000D01*
X69500Y119500D01*
X69290Y100000D02*Y109290D01*
X74566Y104566D02*X90000Y120000D01*
X89000Y119000D01*
X81259Y101259D02*X100000Y120000D01*
X100629Y110629D02*X110000Y120000D01*
X109500Y119500D01*
X69290Y109290D02*X89000Y129000D01*
G54D11*X65077Y133923D02*Y224077D01*
G54D12*X20000Y190000D02*X21000D01*
X20000Y180000D02*X29000Y195000D01*
X21000Y190000D02*X88000Y257000D01*
X29000Y195000D02*X88000Y254000D01*
G54D15*X120149Y101024D02*Y87851D01*
X139000Y88000D02*X136172D01*
G54D17*X146000Y107000D02*X145000D01*
G54D15*Y94000D01*
X139000Y88000D01*
X136000D02*X96000D01*
G54D16*X110000Y108530D02*X110470Y100000D01*
G54D12*X100629D02*Y110629D01*
X130156Y100000D02*Y109844D01*
X120000Y120000D01*
X121000Y119000D01*
X89000Y129000D02*X257000D01*
X139999Y100000D02*Y110001D01*
X149841Y100000D02*X165000D01*
D03*
X139999Y110001D02*X130000Y120000D01*
X130500Y119500D01*
X133000Y143000D02*X152000D01*
X80000Y230000D02*Y231000D01*
X90000Y200000D02*Y192000D01*
X80000Y182000D01*
Y160000D01*
X90000Y230000D02*Y219000D01*
Y160000D02*Y185000D01*
G54D11*X71000Y230000D02*X80000D01*
G54D12*X100000D02*X108000Y222000D01*
X112000D01*
X120000Y230000D01*
Y231000D01*
X88000Y257000D02*X107000D01*
X88000Y254000D02*X110000D01*
X130000Y162000D02*Y146000D01*
X133000Y143000D01*
X130000Y230000D02*Y225000D01*
X90000Y219000D02*X97000Y212000D01*
X110000Y160000D02*Y175000D01*
X116000Y181000D01*
X100000Y200000D02*X120000D01*
X90000Y185000D02*X94000Y189000D01*
X100000Y160000D02*Y147000D01*
X107000Y140000D01*
X130000Y225000D02*X142000Y214000D01*
X116000Y181000D02*X221000D01*
X94000Y189000D02*X221000D01*
X183000Y173000D02*X170000Y160000D01*
X170500Y160500D01*
X188000Y168000D02*X180000Y160000D01*
G54D15*X250000Y227000D02*Y250000D01*
G54D12*X243000Y216000D02*X238000Y220000D01*
X241000Y221000D02*X244000Y218000D01*
Y225000D02*X246000Y223000D01*
X238000Y220000D02*Y257000D01*
X241000D02*Y221000D01*
X221000Y189000D02*X224000Y192000D01*
X230000Y198000D01*
X234000D01*
X240000Y204000D01*
G54D15*X206000Y107000D02*X146000D01*
G54D11*X290000Y135000D02*X66000D01*
G54D16*X60000Y128000D01*
G54D12*X97000Y212000D02*X269000D01*
X270000Y211000D01*
X266000Y173000D02*X183000D01*
X266000Y168000D02*X188000D01*
X270000Y211000D02*Y160000D01*
X299000Y151000D02*X290000Y160000D01*
X107000Y140000D02*X320000D01*
X280000Y120000D02*X279000D01*
G54D15*X266000Y107000D01*
X205000D01*
G54D12*X220000Y90000D02*X277000Y64000D01*
X220500Y89500D02*X220000Y90000D01*
X221000Y89000D01*
G54D11*X270000Y57000D02*X277000Y64000D01*
X270000Y57000D02*Y30000D01*
X300000Y120000D02*Y64000D01*
G54D13*X280000Y80000D02*Y100000D01*
X290000Y110000D01*
G54D11*X270000Y30000D02*X280000Y20000D01*
G54D12*X279500Y20500D01*
G54D11*X343000Y64000D02*X277000D01*
G54D13*X290000Y30000D02*Y40000D01*
X308000Y58000D01*
X380000D01*
X382000Y60000D01*
G54D12*X333000Y96000D02*Y79000D01*
G54D11*X360000Y110000D02*Y100000D01*
X343000Y64000D02*X347000Y68000D01*
X360000Y200000D02*X347000D01*
X360000Y100000D02*X347000D01*
G54D12*X320000Y140000D02*X328000Y147000D01*
Y165000D02*Y147000D01*
X326000Y154000D02*X323000Y151000D01*
X299000D01*
X335000Y177000D02*X333000Y176000D01*
X323000Y167000D02*X326000Y164000D01*
Y154000D01*
X325000Y168000D02*X328000Y165000D01*
X327000Y169000D02*X330000Y166000D01*
X329000Y170000D02*X333000Y166000D01*
X330000D02*Y89000D01*
X333000Y166000D02*Y96000D01*
G54D11*X347000Y328000D02*X328000Y348000D01*
G54D12*X322000Y328000D02*X332000Y318000D01*
X319000Y326000D02*X327000Y318000D01*
X340000Y329000D02*X334000Y335000D01*
G54D13*X356000Y336000D02*X339000Y353000D01*
G54D12*X251500Y332500D02*X253500Y331000D01*
X320000D01*
X249500Y330500D02*X252500Y328000D01*
X322000D01*
X247500Y328500D02*X250000Y326000D01*
X319000D01*
G54D11*X360000Y300000D02*X347000D01*
G54D12*X332000Y318000D02*X330000Y308000D01*
X334000Y322000D02*Y305000D01*
X335000Y304000D01*
G54D11*X360000Y300000D02*Y310000D01*
G54D12*Y309000D01*
X334000Y335000D02*X315000D01*
X110000Y310000D02*Y325000D01*
X120000Y310000D02*Y324000D01*
X170000Y310000D02*Y322000D01*
X176500Y328500D01*
X110000Y325000D02*X117500Y332500D01*
X120000Y324000D02*X126500Y330500D01*
X117500Y332500D02*X251500D01*
X126500Y330500D02*X249500D01*
X176500Y328500D02*X247500D01*
X192000Y334500D02*X199000Y340500D01*
X179500Y336500D02*X185000Y340500D01*
X74000Y334500D02*X192000D01*
X73500Y336500D02*X179500D01*
G54D13*X339000Y380000D02*X61000D01*
X259500Y272000D02*Y270500D01*
G54D12*X260000Y270000D01*
Y240000D02*Y243000D01*
X263000Y246000D01*
X285000Y295000D02*X275000D01*
X257000Y266000D02*X267000Y256000D01*
X275000Y295000D02*X270000Y300000D01*
Y310000D01*
Y309000D01*
X259000Y254000D02*X252000Y261000D01*
G54D11*X347000Y68000D02*Y328000D01*
G54D13*X339000Y353000D02*Y380000D01*
G54D12*X340000Y251000D02*Y329000D01*
G54D13*X382000Y60000D02*Y336000D01*
X370000Y190000D02*X382000D01*
X370000Y90000D02*X382000D01*
G54D11*X360000Y210000D02*Y200000D01*
G54D15*X320000Y159000D02*Y240000D01*
G54D12*X335000Y304000D02*Y177000D01*
X332000Y284000D02*Y223000D01*
X329000Y220000D01*
G54D11*X290000Y110000D02*Y134000D01*
G54D12*X281000Y161000D02*X280000Y160000D01*
X300000D02*Y213000D01*
G54D15*X320000Y227000D02*X250000D01*
G54D12*X246000Y223000D02*X307000D01*
X310000Y220000D01*
X263000Y246000D02*X294000D01*
X300500Y239500D01*
X319000Y252000D02*X257000D01*
X267000Y256000D02*X314000D01*
X319000Y261000D01*
Y258000D02*X315000Y254000D01*
X259000D01*
X251000Y258000D02*X257000Y252000D01*
X337000Y326000D02*Y169000D01*
X320000Y296000D02*X332000Y284000D01*
G54D13*X382000Y336000D02*X356000D01*
X370000Y290000D02*X382000D01*
G54D12*X354000Y276000D02*Y254000D01*
G54D18*X370000Y370000D03*
G54D19*X310000Y361000D03*
X300000Y371000D03*
Y361000D03*
X290000D03*
X280000D03*
X290000Y371000D03*
X280000D03*
G54D20*G36*
X267000Y53000D02*Y47000D01*
X273000D01*
Y53000D01*
X267000D01*
G37*
G54D19*X280000Y50000D03*
G54D20*G36*
X295500Y24500D02*Y15500D01*
X304500D01*
Y24500D01*
X295500D01*
G37*
G54D21*X290000Y30000D03*
X280000Y20000D03*
G54D20*G36*
X275500Y124500D02*Y115500D01*
X284500D01*
Y124500D01*
X275500D01*
G37*
G54D22*X260000Y160000D03*
X270000D03*
X280000D03*
X290000D03*
G54D21*Y110000D03*
X300000Y120000D03*
G54D22*Y160000D03*
X310000D03*
X320000D03*
X300000Y240000D03*
Y270000D03*
G54D20*G36*
X297000Y53000D02*Y47000D01*
X303000D01*
Y53000D01*
X297000D01*
G37*
G54D19*X310000Y50000D03*
G54D20*G36*
X277000Y83000D02*Y77000D01*
X283000D01*
Y83000D01*
X277000D01*
G37*
G54D19*X290000Y80000D03*
X370000Y110000D03*
G54D20*G36*
X367000Y173000D02*Y167000D01*
X373000D01*
Y173000D01*
X367000D01*
G37*
G54D19*X370000Y180000D03*
Y190000D03*
Y200000D03*
Y210000D03*
X360000Y170000D03*
Y180000D03*
Y190000D03*
Y200000D03*
Y210000D03*
G54D20*G36*
X367000Y273000D02*Y267000D01*
X373000D01*
Y273000D01*
X367000D01*
G37*
G54D19*X360000Y270000D03*
Y280000D03*
Y290000D03*
Y300000D03*
Y310000D03*
X370000Y280000D03*
Y290000D03*
Y300000D03*
Y310000D03*
G54D23*Y20000D03*
G54D20*G36*
X367000Y73000D02*Y67000D01*
X373000D01*
Y73000D01*
X367000D01*
G37*
G54D19*X360000Y70000D03*
X370000Y80000D03*
X360000D03*
X370000Y90000D03*
X360000D03*
X370000Y100000D03*
X360000D03*
Y110000D03*
G54D16*X230000Y50000D03*
G54D24*X220000Y90000D03*
G54D16*X235500Y50000D03*
X241000D03*
G54D20*G36*
X176600Y93400D02*Y86600D01*
X183400D01*
Y93400D01*
X176600D01*
G37*
G54D25*X149842Y88977D03*
G54D26*X208000Y60000D03*
X198000Y50000D03*
X188000Y60000D03*
G54D22*X20000Y180000D03*
G54D18*Y20000D03*
G54D20*G36*
X16500Y263500D02*Y256500D01*
X23500D01*
Y263500D01*
X16500D01*
G37*
G54D22*X20000Y250000D03*
Y240000D03*
Y230000D03*
G54D20*G36*
X16500Y203500D02*Y196500D01*
X23500D01*
Y203500D01*
X16500D01*
G37*
G54D22*X20000Y190000D03*
G54D18*Y370000D03*
G54D20*G36*
X16000Y333000D02*Y327000D01*
X22000D01*
Y333000D01*
X16000D01*
G37*
G54D19*X29000Y330000D03*
Y320000D03*
Y310000D03*
Y300000D03*
Y290000D03*
X19000Y320000D03*
Y310000D03*
Y300000D03*
Y290000D03*
G54D20*G36*
X57000Y123000D02*Y117000D01*
X63000D01*
Y123000D01*
X57000D01*
G37*
G54D19*X70000Y120000D03*
X80000D03*
X90000D03*
X100000D03*
X110000D03*
G54D20*G36*
X76500Y163500D02*Y156500D01*
X83500D01*
Y163500D01*
X76500D01*
G37*
G54D22*X90000Y160000D03*
X100000D03*
G54D27*X67165Y88977D03*
G54D19*X120000Y120000D03*
X130000D03*
X140000D03*
X150000D03*
G54D22*X110000Y160000D03*
X120000D03*
X130000D03*
G54D20*G36*
X96600Y273400D02*Y266600D01*
X103400D01*
Y273400D01*
X96600D01*
G37*
G54D24*X60000Y270000D03*
G54D20*G36*
X76500Y203500D02*Y196500D01*
X83500D01*
Y203500D01*
X76500D01*
G37*
G54D22*X90000Y200000D03*
X100000D03*
X110000D03*
X120000D03*
X130000D03*
Y230000D03*
X120000D03*
X110000D03*
X100000D03*
X90000D03*
X80000D03*
X130000Y310000D03*
X120000D03*
X110000D03*
X100000D03*
X90000D03*
X80000D03*
G54D20*G36*
X117000Y373000D02*Y367000D01*
X123000D01*
Y373000D01*
X117000D01*
G37*
G54D19*X120000Y360000D03*
X110000Y370000D03*
Y360000D03*
X100000Y370000D03*
Y360000D03*
X90000Y370000D03*
Y360000D03*
X80000D03*
Y370000D03*
G54D22*X140000Y160000D03*
X150000D03*
X160000D03*
X170000D03*
X180000D03*
X190000D03*
X200000D03*
X210000D03*
X220000D03*
X230000D03*
X240000D03*
X250000D03*
X140000Y200000D03*
Y230000D03*
G54D20*G36*
X149250Y222750D02*Y217250D01*
X154750D01*
Y222750D01*
X149250D01*
G37*
G54D11*X152000Y240000D03*
G54D20*G36*
X247250Y252750D02*Y247250D01*
X252750D01*
Y252750D01*
X247250D01*
G37*
G54D11*X250000Y270000D03*
G54D20*G36*
X316500Y313500D02*Y306500D01*
X323500D01*
Y313500D01*
X316500D01*
G37*
G54D22*X310000Y310000D03*
X300000D03*
X250000D03*
X240000D03*
X230000D03*
X220000D03*
X210000D03*
X200000D03*
X190000D03*
X180000D03*
X170000D03*
X160000D03*
X150000D03*
X140000D03*
G54D20*G36*
X217000Y373000D02*Y367000D01*
X223000D01*
Y373000D01*
X217000D01*
G37*
G54D19*X220000Y360000D03*
X210000Y370000D03*
Y360000D03*
X200000Y370000D03*
Y360000D03*
X190000Y370000D03*
X180000D03*
X170000D03*
X160000D03*
X190000Y360000D03*
X180000D03*
X170000D03*
X160000D03*
G54D22*X290000Y310000D03*
X280000D03*
X270000D03*
X260000D03*
G54D20*G36*
X256500Y243500D02*Y236500D01*
X263500D01*
Y243500D01*
X256500D01*
G37*
G54D22*X270000Y240000D03*
X280000D03*
X290000D03*
Y270000D03*
X280000D03*
X270000D03*
X260000D03*
X310000Y240000D03*
X320000D03*
Y270000D03*
X310000D03*
G54D20*G36*
X317000Y374000D02*Y368000D01*
X323000D01*
Y374000D01*
X317000D01*
G37*
G54D19*X320000Y361000D03*
X310000Y371000D03*
G54D28*X90786Y100985D02*Y99016D01*
X100629Y100985D02*Y99016D01*
X110471Y100985D02*Y99016D01*
G54D29*X64566Y101575D02*Y98426D01*
X69290Y101575D02*Y98426D01*
G54D28*X81259Y100985D02*Y99016D01*
X74566Y100985D02*Y99016D01*
G54D30*X59094Y95472D02*Y90354D01*
Y10828D02*Y5710D01*
G54D28*X120314Y100985D02*Y99016D01*
X130156Y100985D02*Y99016D01*
X139999Y100985D02*Y99016D01*
X149841Y100985D02*Y99016D01*
G54D30*X157913Y95472D02*Y90354D01*
X166575Y10828D02*Y5710D01*
G54D31*X110000Y109000D03*
X165000Y100000D03*
X152000Y143000D03*
X257000Y129000D03*
X221000Y181000D03*
X65000Y274000D03*
X34000D03*
X48000Y283000D03*
X38000Y267000D03*
X42000Y270000D03*
X53000Y282000D03*
X96000Y339500D03*
X105000Y331000D03*
X129000Y265000D03*
X105000Y289000D03*
X97000Y328000D03*
X144000Y266000D03*
X147000Y275000D03*
X237000D03*
X218000Y279000D03*
X225000Y277000D03*
X156500Y285000D03*
X163000Y283000D03*
X200000Y341500D03*
X185000D03*
X194500Y323500D03*
X190000Y323000D03*
X272000D03*
X210000D03*
X258000D03*
X129000Y342000D03*
X205000Y323000D03*
X240000Y204000D03*
X333000Y176000D03*
X337000Y168000D03*
X330000Y89000D03*
X333000Y79000D03*
X266000Y173000D03*
Y168000D03*
X309000Y221000D03*
X305000Y218000D03*
X340000Y250000D03*
X319000Y252000D03*
Y261000D03*
X322000Y258000D03*
X330000Y309000D03*
X327000Y318000D03*
X320000Y331000D03*
X334000Y322000D03*
X337000Y326000D03*
X315000Y335000D03*
X268000Y321000D03*
X285000Y295000D03*
X315000Y276000D03*
X275000Y287000D03*
X292000Y283000D03*
X290000Y279000D03*
X354000Y276000D03*
Y254000D03*
G54D32*G54D33*G54D34*G54D14*G54D19*G54D35*G54D19*G54D35*G54D14*G54D34*G54D33*G54D34*G54D36*G54D34*G54D36*G54D34*G54D37*G54D35*G54D33*G54D35*G54D33*G54D34*G54D35*G54D38*G54D35*G54D34*G54D35*G54D34*G54D35*G54D14*G54D35*G54D34*G54D35*G54D34*M02*
