G04 start of page 11 for group -3984 idx -3984 *
G04 Title: (unknown), fab *
G04 Creator: pcb 20110918 *
G04 CreationDate: Sat 30 Nov 2013 01:26:29 GMT UTC *
G04 For: ksarkies *
G04 Format: Gerber/RS-274X *
G04 PCB-Dimensions: 393701 393701 *
G04 PCB-Coordinate-Origin: lower left *
%MOIN*%
%FSLAX25Y25*%
%LNFAB*%
%ADD112C,0.0100*%
%ADD111C,0.0075*%
%ADD110C,0.0060*%
%ADD109R,0.0080X0.0080*%
%ADD108C,0.0001*%
G54D108*G36*
X376367Y380933D02*X381733Y375567D01*
X381167Y375001D01*
X375801Y380367D01*
X376367Y380933D01*
G37*
G36*
X375801Y375567D02*X381167Y380933D01*
X381733Y380367D01*
X376367Y375001D01*
X375801Y375567D01*
G37*
G54D109*X377167Y379567D02*X380367D01*
X377167D02*Y376367D01*
X380367D01*
Y379567D02*Y376367D01*
G54D108*G36*
X14162Y380933D02*X19528Y375567D01*
X18962Y375001D01*
X13596Y380367D01*
X14162Y380933D01*
G37*
G36*
X13596Y375567D02*X18962Y380933D01*
X19528Y380367D01*
X14162Y375001D01*
X13596Y375567D01*
G37*
G54D109*X14962Y379567D02*X18162D01*
X14962D02*Y376367D01*
X18162D01*
Y379567D02*Y376367D01*
G54D108*G36*
X376367Y18728D02*X381733Y13362D01*
X381167Y12796D01*
X375801Y18162D01*
X376367Y18728D01*
G37*
G36*
X375801Y13362D02*X381167Y18728D01*
X381733Y18162D01*
X376367Y12796D01*
X375801Y13362D01*
G37*
G54D109*X377167Y17362D02*X380367D01*
X377167D02*Y14162D01*
X380367D01*
Y17362D02*Y14162D01*
G54D108*G36*
X14328Y18811D02*X19694Y13445D01*
X19128Y12879D01*
X13762Y18245D01*
X14328Y18811D01*
G37*
G36*
X13762Y13445D02*X19128Y18811D01*
X19694Y18245D01*
X14328Y12879D01*
X13762Y13445D01*
G37*
G54D109*X15128Y17445D02*X18328D01*
X15128D02*Y14245D01*
X18328D01*
Y17445D02*Y14245D01*
G54D108*G36*
X12600Y407917D02*X17966Y402551D01*
X17400Y401985D01*
X12034Y407351D01*
X12600Y407917D01*
G37*
G36*
X12034Y402551D02*X17400Y407917D01*
X17966Y407351D01*
X12600Y401985D01*
X12034Y402551D01*
G37*
G54D109*X13400Y406551D02*X16600D01*
X13400D02*Y403351D01*
X16600D01*
Y406551D02*Y403351D01*
G54D110*X135000Y407201D02*X136500Y404201D01*
X138000Y407201D01*
X136500Y404201D02*Y401201D01*
X139800Y404501D02*X142050D01*
X139800Y401201D02*X142800D01*
X139800Y407201D02*Y401201D01*
Y407201D02*X142800D01*
X147600D02*X148350Y406451D01*
X145350Y407201D02*X147600D01*
X144600Y406451D02*X145350Y407201D01*
X144600Y406451D02*Y404951D01*
X145350Y404201D01*
X147600D01*
X148350Y403451D01*
Y401951D01*
X147600Y401201D02*X148350Y401951D01*
X145350Y401201D02*X147600D01*
X144600Y401951D02*X145350Y401201D01*
X98000Y403451D02*X101000Y407201D01*
X98000Y403451D02*X101750D01*
X101000Y407201D02*Y401201D01*
X45000Y401951D02*X45750Y401201D01*
X45000Y406451D02*Y401951D01*
Y406451D02*X45750Y407201D01*
X47250D01*
X48000Y406451D01*
Y401951D01*
X47250Y401201D02*X48000Y401951D01*
X45750Y401201D02*X47250D01*
X45000Y402701D02*X48000Y405701D01*
X49800Y401201D02*X50550D01*
X52350Y406001D02*X53550Y407201D01*
Y401201D01*
X52350D02*X54600D01*
X56400Y406451D02*X57150Y407201D01*
X59400D01*
X60150Y406451D01*
Y404951D01*
X56400Y401201D02*X60150Y404951D01*
X56400Y401201D02*X60150D01*
X61950Y406451D02*X62700Y407201D01*
X64950D01*
X65700Y406451D01*
Y404951D01*
X61950Y401201D02*X65700Y404951D01*
X61950Y401201D02*X65700D01*
X249162Y76213D02*Y69813D01*
X245962Y73013D02*X252362D01*
X247562Y74613D02*X250762D01*
X247562D02*Y71413D01*
X250762D01*
Y74613D02*Y71413D01*
X249232Y89033D02*Y82633D01*
X246032Y85833D02*X252432D01*
X247632Y87433D02*X250832D01*
X247632D02*Y84233D01*
X250832D01*
Y87433D02*Y84233D01*
X308112Y278608D02*Y272208D01*
X304912Y275408D02*X311312D01*
X306512Y277008D02*X309712D01*
X306512D02*Y273808D01*
X309712D01*
Y277008D02*Y273808D01*
X249948Y277822D02*Y271422D01*
X246748Y274622D02*X253148D01*
X248348Y276222D02*X251548D01*
X248348D02*Y273022D01*
X251548D01*
Y276222D02*Y273022D01*
X367569Y77541D02*Y71141D01*
X364369Y74341D02*X370769D01*
X365969Y75941D02*X369169D01*
X365969D02*Y72741D01*
X369169D01*
Y75941D02*Y72741D01*
X367455Y89575D02*Y83175D01*
X364255Y86375D02*X370655D01*
X365855Y87975D02*X369055D01*
X365855D02*Y84775D01*
X369055D01*
Y87975D02*Y84775D01*
X366669Y128875D02*Y122475D01*
X363469Y125675D02*X369869D01*
X365069Y127275D02*X368269D01*
X365069D02*Y124075D01*
X368269D01*
Y127275D02*Y124075D01*
X366276Y244024D02*Y237624D01*
X363076Y240824D02*X369476D01*
X364676Y242424D02*X367876D01*
X364676D02*Y239224D01*
X367876D01*
Y242424D02*Y239224D01*
X366276Y333628D02*Y327228D01*
X363076Y330428D02*X369476D01*
X364676Y332028D02*X367876D01*
X364676D02*Y328828D01*
X367876D01*
Y332028D02*Y328828D01*
X365883Y278608D02*Y272208D01*
X362683Y275408D02*X369083D01*
X364283Y277008D02*X367483D01*
X364283D02*Y273808D01*
X367483D01*
Y277008D02*Y273808D01*
X185433Y55562D02*Y49162D01*
X182233Y52362D02*X188633D01*
X183833Y53962D02*X187033D01*
X183833D02*Y50762D01*
X187033D01*
Y53962D02*Y50762D01*
X307087Y191192D02*Y184792D01*
X303887Y187992D02*X310287D01*
X305487Y189592D02*X308687D01*
X305487D02*Y186392D01*
X308687D01*
Y189592D02*Y186392D01*
X307087Y203791D02*Y197391D01*
X303887Y200591D02*X310287D01*
X305487Y202191D02*X308687D01*
X305487D02*Y198991D01*
X308687D01*
Y202191D02*Y198991D01*
X248031Y191192D02*Y184792D01*
X244831Y187992D02*X251231D01*
X246431Y189592D02*X249631D01*
X246431D02*Y186392D01*
X249631D01*
Y189592D02*Y186392D01*
X248031Y203790D02*Y197390D01*
X244831Y200590D02*X251231D01*
X246431Y202190D02*X249631D01*
X246431D02*Y198990D01*
X249631D01*
Y202190D02*Y198990D01*
X366142Y191192D02*Y184792D01*
X362942Y187992D02*X369342D01*
X364542Y189592D02*X367742D01*
X364542D02*Y186392D01*
X367742D01*
Y189592D02*Y186392D01*
X366142Y203791D02*Y197391D01*
X362942Y200591D02*X369342D01*
X364542Y202191D02*X367742D01*
X364542D02*Y198991D01*
X367742D01*
Y202191D02*Y198991D01*
X308290Y76795D02*Y70395D01*
X305090Y73595D02*X311490D01*
X306690Y75195D02*X309890D01*
X306690D02*Y71995D01*
X309890D01*
Y75195D02*Y71995D01*
X308071Y88830D02*Y82430D01*
X304871Y85630D02*X311271D01*
X306471Y87230D02*X309671D01*
X306471D02*Y84030D01*
X309671D01*
Y87230D02*Y84030D01*
X15000Y423151D02*Y416751D01*
X11800Y419951D02*X18200D01*
X13400Y421551D02*X16600D01*
X13400D02*Y418351D01*
X16600D01*
Y421551D02*Y418351D01*
X135000Y422201D02*X136500Y419201D01*
X138000Y422201D01*
X136500Y419201D02*Y416201D01*
X139800Y419501D02*X142050D01*
X139800Y416201D02*X142800D01*
X139800Y422201D02*Y416201D01*
Y422201D02*X142800D01*
X147600D02*X148350Y421451D01*
X145350Y422201D02*X147600D01*
X144600Y421451D02*X145350Y422201D01*
X144600Y421451D02*Y419951D01*
X145350Y419201D01*
X147600D01*
X148350Y418451D01*
Y416951D01*
X147600Y416201D02*X148350Y416951D01*
X145350Y416201D02*X147600D01*
X144600Y416951D02*X145350Y416201D01*
X98000Y421001D02*X99200Y422201D01*
Y416201D01*
X98000D02*X100250D01*
X102800D02*X105050Y419201D01*
Y421451D02*Y419201D01*
X104300Y422201D02*X105050Y421451D01*
X102800Y422201D02*X104300D01*
X102050Y421451D02*X102800Y422201D01*
X102050Y421451D02*Y419951D01*
X102800Y419201D01*
X105050D01*
X45000Y416951D02*X45750Y416201D01*
X45000Y421451D02*Y416951D01*
Y421451D02*X45750Y422201D01*
X47250D01*
X48000Y421451D01*
Y416951D01*
X47250Y416201D02*X48000Y416951D01*
X45750Y416201D02*X47250D01*
X45000Y417701D02*X48000Y420701D01*
X49800Y416201D02*X50550D01*
X52350Y416951D02*X53100Y416201D01*
X52350Y421451D02*Y416951D01*
Y421451D02*X53100Y422201D01*
X54600D01*
X55350Y421451D01*
Y416951D01*
X54600Y416201D02*X55350Y416951D01*
X53100Y416201D02*X54600D01*
X52350Y417701D02*X55350Y420701D01*
X57150Y416951D02*X57900Y416201D01*
X57150Y418151D02*Y416951D01*
Y418151D02*X58200Y419201D01*
X59100D01*
X60150Y418151D01*
Y416951D01*
X59400Y416201D02*X60150Y416951D01*
X57900Y416201D02*X59400D01*
X57150Y420251D02*X58200Y419201D01*
X57150Y421451D02*Y420251D01*
Y421451D02*X57900Y422201D01*
X59400D01*
X60150Y421451D01*
Y420251D01*
X59100Y419201D02*X60150Y420251D01*
X61950Y421451D02*X62700Y422201D01*
X64950D01*
X65700Y421451D01*
Y419951D01*
X61950Y416201D02*X65700Y419951D01*
X61950Y416201D02*X65700D01*
X304350Y331109D02*Y327909D01*
Y331109D02*X307123Y332709D01*
X304350Y331109D02*X301577Y332709D01*
X302750Y331109D02*G75*G03X305950Y331109I1600J0D01*G01*
G75*G03X302750Y331109I-1600J0D01*G01*
X314350Y321109D02*Y317909D01*
Y321109D02*X317123Y322709D01*
X314350Y321109D02*X311577Y322709D01*
X312750Y321109D02*G75*G03X315950Y321109I1600J0D01*G01*
G75*G03X312750Y321109I-1600J0D01*G01*
X324350Y331109D02*Y327909D01*
Y331109D02*X327123Y332709D01*
X324350Y331109D02*X321577Y332709D01*
X322750Y331109D02*G75*G03X325950Y331109I1600J0D01*G01*
G75*G03X322750Y331109I-1600J0D01*G01*
X60255Y192605D02*Y189405D01*
Y192605D02*X63028Y194205D01*
X60255Y192605D02*X57482Y194205D01*
X58655Y192605D02*G75*G03X61855Y192605I1600J0D01*G01*
G75*G03X58655Y192605I-1600J0D01*G01*
X50255Y182605D02*Y179405D01*
Y182605D02*X53028Y184205D01*
X50255Y182605D02*X47482Y184205D01*
X48655Y182605D02*G75*G03X51855Y182605I1600J0D01*G01*
G75*G03X48655Y182605I-1600J0D01*G01*
X60255Y172605D02*Y169405D01*
Y172605D02*X63028Y174205D01*
X60255Y172605D02*X57482Y174205D01*
X58655Y172605D02*G75*G03X61855Y172605I1600J0D01*G01*
G75*G03X58655Y172605I-1600J0D01*G01*
X60255Y252605D02*Y249405D01*
Y252605D02*X63028Y254205D01*
X60255Y252605D02*X57482Y254205D01*
X58655Y252605D02*G75*G03X61855Y252605I1600J0D01*G01*
G75*G03X58655Y252605I-1600J0D01*G01*
X50255Y242605D02*Y239405D01*
Y242605D02*X53028Y244205D01*
X50255Y242605D02*X47482Y244205D01*
X48655Y242605D02*G75*G03X51855Y242605I1600J0D01*G01*
G75*G03X48655Y242605I-1600J0D01*G01*
X60255Y232605D02*Y229405D01*
Y232605D02*X63028Y234205D01*
X60255Y232605D02*X57482Y234205D01*
X58655Y232605D02*G75*G03X61855Y232605I1600J0D01*G01*
G75*G03X58655Y232605I-1600J0D01*G01*
X15000Y434951D02*Y431751D01*
Y434951D02*X17773Y436551D01*
X15000Y434951D02*X12227Y436551D01*
X13400Y434951D02*G75*G03X16600Y434951I1600J0D01*G01*
G75*G03X13400Y434951I-1600J0D01*G01*
X135000Y437201D02*X136500Y434201D01*
X138000Y437201D01*
X136500Y434201D02*Y431201D01*
X139800Y434501D02*X142050D01*
X139800Y431201D02*X142800D01*
X139800Y437201D02*Y431201D01*
Y437201D02*X142800D01*
X147600D02*X148350Y436451D01*
X145350Y437201D02*X147600D01*
X144600Y436451D02*X145350Y437201D01*
X144600Y436451D02*Y434951D01*
X145350Y434201D01*
X147600D01*
X148350Y433451D01*
Y431951D01*
X147600Y431201D02*X148350Y431951D01*
X145350Y431201D02*X147600D01*
X144600Y431951D02*X145350Y431201D01*
X98750D02*X101000Y434201D01*
Y436451D02*Y434201D01*
X100250Y437201D02*X101000Y436451D01*
X98750Y437201D02*X100250D01*
X98000Y436451D02*X98750Y437201D01*
X98000Y436451D02*Y434951D01*
X98750Y434201D01*
X101000D01*
X45000Y431951D02*X45750Y431201D01*
X45000Y436451D02*Y431951D01*
Y436451D02*X45750Y437201D01*
X47250D01*
X48000Y436451D01*
Y431951D01*
X47250Y431201D02*X48000Y431951D01*
X45750Y431201D02*X47250D01*
X45000Y432701D02*X48000Y435701D01*
X49800Y431201D02*X50550D01*
X52350Y431951D02*X53100Y431201D01*
X52350Y436451D02*Y431951D01*
Y436451D02*X53100Y437201D01*
X54600D01*
X55350Y436451D01*
Y431951D01*
X54600Y431201D02*X55350Y431951D01*
X53100Y431201D02*X54600D01*
X52350Y432701D02*X55350Y435701D01*
X59400Y437201D02*X60150Y436451D01*
X57900Y437201D02*X59400D01*
X57150Y436451D02*X57900Y437201D01*
X57150Y436451D02*Y431951D01*
X57900Y431201D01*
X59400Y434501D02*X60150Y433751D01*
X57150Y434501D02*X59400D01*
X57900Y431201D02*X59400D01*
X60150Y431951D01*
Y433751D02*Y431951D01*
X61950D02*X62700Y431201D01*
X61950Y436451D02*Y431951D01*
Y436451D02*X62700Y437201D01*
X64200D01*
X64950Y436451D01*
Y431951D01*
X64200Y431201D02*X64950Y431951D01*
X62700Y431201D02*X64200D01*
X61950Y432701D02*X64950Y435701D01*
X228261Y45307D02*X231461D01*
X228261D02*Y42107D01*
X231461D01*
Y45307D02*Y42107D01*
X218261Y45307D02*X221461D01*
X218261D02*Y42107D01*
X221461D01*
Y45307D02*Y42107D01*
X208261Y45307D02*X211461D01*
X208261D02*Y42107D01*
X211461D01*
Y45307D02*Y42107D01*
X287317Y45307D02*X290517D01*
X287317D02*Y42107D01*
X290517D01*
Y45307D02*Y42107D01*
X277317Y45307D02*X280517D01*
X277317D02*Y42107D01*
X280517D01*
Y45307D02*Y42107D01*
X267317Y45307D02*X270517D01*
X267317D02*Y42107D01*
X270517D01*
Y45307D02*Y42107D01*
X346372Y45307D02*X349572D01*
X346372D02*Y42107D01*
X349572D01*
Y45307D02*Y42107D01*
X336372Y45307D02*X339572D01*
X336372D02*Y42107D01*
X339572D01*
Y45307D02*Y42107D01*
X326372Y45307D02*X329572D01*
X326372D02*Y42107D01*
X329572D01*
Y45307D02*Y42107D01*
X346372Y160110D02*X349572D01*
X346372D02*Y156910D01*
X349572D01*
Y160110D02*Y156910D01*
X336372Y160110D02*X339572D01*
X336372D02*Y156910D01*
X339572D01*
Y160110D02*Y156910D01*
X326372Y160110D02*X329572D01*
X326372D02*Y156910D01*
X329572D01*
Y160110D02*Y156910D01*
X228261Y160110D02*X231461D01*
X228261D02*Y156910D01*
X231461D01*
Y160110D02*Y156910D01*
X218261Y160110D02*X221461D01*
X218261D02*Y156910D01*
X221461D01*
Y160110D02*Y156910D01*
X208261Y160110D02*X211461D01*
X208261D02*Y156910D01*
X211461D01*
Y160110D02*Y156910D01*
X287317Y160110D02*X290517D01*
X287317D02*Y156910D01*
X290517D01*
Y160110D02*Y156910D01*
X277317Y160110D02*X280517D01*
X277317D02*Y156910D01*
X280517D01*
Y160110D02*Y156910D01*
X267317Y160110D02*X270517D01*
X267317D02*Y156910D01*
X270517D01*
Y160110D02*Y156910D01*
X287317Y372079D02*X290517D01*
X287317D02*Y368879D01*
X290517D01*
Y372079D02*Y368879D01*
X277317Y372079D02*X280517D01*
X277317D02*Y368879D01*
X280517D01*
Y372079D02*Y368879D01*
X267317Y372079D02*X270517D01*
X267317D02*Y368879D01*
X270517D01*
Y372079D02*Y368879D01*
X346372Y372079D02*X349572D01*
X346372D02*Y368879D01*
X349572D01*
Y372079D02*Y368879D01*
X336372Y372079D02*X339572D01*
X336372D02*Y368879D01*
X339572D01*
Y372079D02*Y368879D01*
X326372Y372079D02*X329572D01*
X326372D02*Y368879D01*
X329572D01*
Y372079D02*Y368879D01*
X228261Y372079D02*X231461D01*
X228261D02*Y368879D01*
X231461D01*
Y372079D02*Y368879D01*
X218261Y372079D02*X221461D01*
X218261D02*Y368879D01*
X221461D01*
Y372079D02*Y368879D01*
X208261Y372079D02*X211461D01*
X208261D02*Y368879D01*
X211461D01*
Y372079D02*Y368879D01*
X13400Y451551D02*X16600D01*
X13400D02*Y448351D01*
X16600D01*
Y451551D02*Y448351D01*
X135000Y452201D02*X136500Y449201D01*
X138000Y452201D01*
X136500Y449201D02*Y446201D01*
X139800Y449501D02*X142050D01*
X139800Y446201D02*X142800D01*
X139800Y452201D02*Y446201D01*
Y452201D02*X142800D01*
X147600D02*X148350Y451451D01*
X145350Y452201D02*X147600D01*
X144600Y451451D02*X145350Y452201D01*
X144600Y451451D02*Y449951D01*
X145350Y449201D01*
X147600D01*
X148350Y448451D01*
Y446951D01*
X147600Y446201D02*X148350Y446951D01*
X145350Y446201D02*X147600D01*
X144600Y446951D02*X145350Y446201D01*
X98000Y451451D02*X98750Y452201D01*
X101000D01*
X101750Y451451D01*
Y449951D01*
X98000Y446201D02*X101750Y449951D01*
X98000Y446201D02*X101750D01*
X104300D02*X107300Y452201D01*
X103550D02*X107300D01*
X45000Y446951D02*X45750Y446201D01*
X45000Y451451D02*Y446951D01*
Y451451D02*X45750Y452201D01*
X47250D01*
X48000Y451451D01*
Y446951D01*
X47250Y446201D02*X48000Y446951D01*
X45750Y446201D02*X47250D01*
X45000Y447701D02*X48000Y450701D01*
X49800Y446201D02*X50550D01*
X52350Y446951D02*X53100Y446201D01*
X52350Y451451D02*Y446951D01*
Y451451D02*X53100Y452201D01*
X54600D01*
X55350Y451451D01*
Y446951D01*
X54600Y446201D02*X55350Y446951D01*
X53100Y446201D02*X54600D01*
X52350Y447701D02*X55350Y450701D01*
X57150Y448451D02*X60150Y452201D01*
X57150Y448451D02*X60900D01*
X60150Y452201D02*Y446201D01*
X62700Y451451D02*X63450Y452201D01*
X65700D01*
X66450Y451451D01*
Y449951D01*
X62700Y446201D02*X66450Y449951D01*
X62700Y446201D02*X66450D01*
X200952Y173787D02*G75*G03X202552Y173787I800J0D01*G01*
G75*G03X200952Y173787I-800J0D01*G01*
X240952D02*G75*G03X242552Y173787I800J0D01*G01*
G75*G03X240952Y173787I-800J0D01*G01*
X200793Y28353D02*G75*G03X202393Y28353I800J0D01*G01*
G75*G03X200793Y28353I-800J0D01*G01*
X240793D02*G75*G03X242393Y28353I800J0D01*G01*
G75*G03X240793Y28353I-800J0D01*G01*
X200360Y142622D02*G75*G03X201960Y142622I800J0D01*G01*
G75*G03X200360Y142622I-800J0D01*G01*
X240360D02*G75*G03X241960Y142622I800J0D01*G01*
G75*G03X240360Y142622I-800J0D01*G01*
X300243Y315754D02*G75*G03X301843Y315754I800J0D01*G01*
G75*G03X300243Y315754I-800J0D01*G01*
X260243D02*G75*G03X261843Y315754I800J0D01*G01*
G75*G03X260243Y315754I-800J0D01*G01*
X249789Y316772D02*G75*G03X251389Y316772I800J0D01*G01*
G75*G03X249789Y316772I-800J0D01*G01*
X209789D02*G75*G03X211389Y316772I800J0D01*G01*
G75*G03X209789Y316772I-800J0D01*G01*
X241187Y354731D02*G75*G03X242787Y354731I800J0D01*G01*
G75*G03X241187Y354731I-800J0D01*G01*
X201187D02*G75*G03X202787Y354731I800J0D01*G01*
G75*G03X201187Y354731I-800J0D01*G01*
X30634Y294963D02*G75*G03X32234Y294963I800J0D01*G01*
G75*G03X30634Y294963I-800J0D01*G01*
Y304963D02*G75*G03X32234Y304963I800J0D01*G01*
G75*G03X30634Y304963I-800J0D01*G01*
Y314963D02*G75*G03X32234Y314963I800J0D01*G01*
G75*G03X30634Y314963I-800J0D01*G01*
Y324963D02*G75*G03X32234Y324963I800J0D01*G01*
G75*G03X30634Y324963I-800J0D01*G01*
Y334963D02*G75*G03X32234Y334963I800J0D01*G01*
G75*G03X30634Y334963I-800J0D01*G01*
Y344963D02*G75*G03X32234Y344963I800J0D01*G01*
G75*G03X30634Y344963I-800J0D01*G01*
Y354963D02*G75*G03X32234Y354963I800J0D01*G01*
G75*G03X30634Y354963I-800J0D01*G01*
Y364963D02*G75*G03X32234Y364963I800J0D01*G01*
G75*G03X30634Y364963I-800J0D01*G01*
X200558Y59455D02*G75*G03X202158Y59455I800J0D01*G01*
G75*G03X200558Y59455I-800J0D01*G01*
X240558D02*G75*G03X242158Y59455I800J0D01*G01*
G75*G03X240558Y59455I-800J0D01*G01*
X259613Y27959D02*G75*G03X261213Y27959I800J0D01*G01*
G75*G03X259613Y27959I-800J0D01*G01*
X299613D02*G75*G03X301213Y27959I800J0D01*G01*
G75*G03X299613Y27959I-800J0D01*G01*
X318668D02*G75*G03X320268Y27959I800J0D01*G01*
G75*G03X318668Y27959I-800J0D01*G01*
X358668D02*G75*G03X360268Y27959I800J0D01*G01*
G75*G03X358668Y27959I-800J0D01*G01*
X319298Y59455D02*G75*G03X320898Y59455I800J0D01*G01*
G75*G03X319298Y59455I-800J0D01*G01*
X359298D02*G75*G03X360898Y59455I800J0D01*G01*
G75*G03X359298Y59455I-800J0D01*G01*
X260243D02*G75*G03X261843Y59455I800J0D01*G01*
G75*G03X260243Y59455I-800J0D01*G01*
X300243D02*G75*G03X301843Y59455I800J0D01*G01*
G75*G03X300243Y59455I-800J0D01*G01*
X259613Y174258D02*G75*G03X261213Y174258I800J0D01*G01*
G75*G03X259613Y174258I-800J0D01*G01*
X299613D02*G75*G03X301213Y174258I800J0D01*G01*
G75*G03X299613Y174258I-800J0D01*G01*
X318668D02*G75*G03X320268Y174258I800J0D01*G01*
G75*G03X318668Y174258I-800J0D01*G01*
X358668D02*G75*G03X360268Y174258I800J0D01*G01*
G75*G03X358668Y174258I-800J0D01*G01*
X318668Y142762D02*G75*G03X320268Y142762I800J0D01*G01*
G75*G03X318668Y142762I-800J0D01*G01*
X358668D02*G75*G03X360268Y142762I800J0D01*G01*
G75*G03X358668Y142762I-800J0D01*G01*
X259613D02*G75*G03X261213Y142762I800J0D01*G01*
G75*G03X259613Y142762I-800J0D01*G01*
X299613D02*G75*G03X301213Y142762I800J0D01*G01*
G75*G03X299613Y142762I-800J0D01*G01*
X300243Y354731D02*G75*G03X301843Y354731I800J0D01*G01*
G75*G03X300243Y354731I-800J0D01*G01*
X260243D02*G75*G03X261843Y354731I800J0D01*G01*
G75*G03X260243Y354731I-800J0D01*G01*
X359298D02*G75*G03X360898Y354731I800J0D01*G01*
G75*G03X359298Y354731I-800J0D01*G01*
X319298D02*G75*G03X320898Y354731I800J0D01*G01*
G75*G03X319298Y354731I-800J0D01*G01*
X359298Y315361D02*G75*G03X360898Y315361I800J0D01*G01*
G75*G03X359298Y315361I-800J0D01*G01*
X319298D02*G75*G03X320898Y315361I800J0D01*G01*
G75*G03X319298Y315361I-800J0D01*G01*
X14200Y464951D02*G75*G03X15800Y464951I800J0D01*G01*
G75*G03X14200Y464951I-800J0D01*G01*
X135000Y467201D02*X136500Y464201D01*
X138000Y467201D01*
X136500Y464201D02*Y461201D01*
X139800Y464501D02*X142050D01*
X139800Y461201D02*X142800D01*
X139800Y467201D02*Y461201D01*
Y467201D02*X142800D01*
X147600D02*X148350Y466451D01*
X145350Y467201D02*X147600D01*
X144600Y466451D02*X145350Y467201D01*
X144600Y466451D02*Y464951D01*
X145350Y464201D01*
X147600D01*
X148350Y463451D01*
Y461951D01*
X147600Y461201D02*X148350Y461951D01*
X145350Y461201D02*X147600D01*
X144600Y461951D02*X145350Y461201D01*
X98000Y463451D02*X101000Y467201D01*
X98000Y463451D02*X101750D01*
X101000Y467201D02*Y461201D01*
X103550Y463451D02*X106550Y467201D01*
X103550Y463451D02*X107300D01*
X106550Y467201D02*Y461201D01*
X45000Y461951D02*X45750Y461201D01*
X45000Y466451D02*Y461951D01*
Y466451D02*X45750Y467201D01*
X47250D01*
X48000Y466451D01*
Y461951D01*
X47250Y461201D02*X48000Y461951D01*
X45750Y461201D02*X47250D01*
X45000Y462701D02*X48000Y465701D01*
X49800Y461201D02*X50550D01*
X52350Y461951D02*X53100Y461201D01*
X52350Y466451D02*Y461951D01*
Y466451D02*X53100Y467201D01*
X54600D01*
X55350Y466451D01*
Y461951D01*
X54600Y461201D02*X55350Y461951D01*
X53100Y461201D02*X54600D01*
X52350Y462701D02*X55350Y465701D01*
X57150Y466451D02*X57900Y467201D01*
X59400D01*
X60150Y466451D01*
X59400Y461201D02*X60150Y461951D01*
X57900Y461201D02*X59400D01*
X57150Y461951D02*X57900Y461201D01*
Y464501D02*X59400D01*
X60150Y466451D02*Y465251D01*
Y463751D02*Y461951D01*
Y463751D02*X59400Y464501D01*
X60150Y465251D02*X59400Y464501D01*
X61950Y461951D02*X62700Y461201D01*
X61950Y463151D02*Y461951D01*
Y463151D02*X63000Y464201D01*
X63900D01*
X64950Y463151D01*
Y461951D01*
X64200Y461201D02*X64950Y461951D01*
X62700Y461201D02*X64200D01*
X61950Y465251D02*X63000Y464201D01*
X61950Y466451D02*Y465251D01*
Y466451D02*X62700Y467201D01*
X64200D01*
X64950Y466451D01*
Y465251D01*
X63900Y464201D02*X64950Y465251D01*
X29055Y213805D02*X31455Y211405D01*
X29055D02*X31455Y213805D01*
X29055Y203805D02*X31455Y201405D01*
X29055D02*X31455Y203805D01*
X29055Y173805D02*X31455Y171405D01*
X29055D02*X31455Y173805D01*
X29055Y183805D02*X31455Y181405D01*
X29055D02*X31455Y183805D01*
X29055Y243805D02*X31455Y241405D01*
X29055D02*X31455Y243805D01*
X29055Y263805D02*X31455Y261405D01*
X29055D02*X31455Y263805D01*
X74391Y285925D02*X76791Y283525D01*
X74391D02*X76791Y285925D01*
X74391Y305925D02*X76791Y303525D01*
X74391D02*X76791Y305925D01*
X77540Y223720D02*X79940Y221320D01*
X77540D02*X79940Y223720D01*
X77540Y243720D02*X79940Y241320D01*
X77540D02*X79940Y243720D01*
X135808Y295767D02*X138208Y293367D01*
X135808D02*X138208Y295767D01*
X135808Y315767D02*X138208Y313367D01*
X135808D02*X138208Y315767D01*
X133839Y200413D02*X136239Y198013D01*
X133839D02*X136239Y200413D01*
X133839Y220413D02*X136239Y218013D01*
X133839D02*X136239Y220413D01*
X13800Y481151D02*X16200Y478751D01*
X13800D02*X16200Y481151D01*
X135000Y482201D02*X136500Y479201D01*
X138000Y482201D01*
X136500Y479201D02*Y476201D01*
X139800Y479501D02*X142050D01*
X139800Y476201D02*X142800D01*
X139800Y482201D02*Y476201D01*
Y482201D02*X142800D01*
X147600D02*X148350Y481451D01*
X145350Y482201D02*X147600D01*
X144600Y481451D02*X145350Y482201D01*
X144600Y481451D02*Y479951D01*
X145350Y479201D01*
X147600D01*
X148350Y478451D01*
Y476951D01*
X147600Y476201D02*X148350Y476951D01*
X145350Y476201D02*X147600D01*
X144600Y476951D02*X145350Y476201D01*
X98000Y481001D02*X99200Y482201D01*
Y476201D01*
X98000D02*X100250D01*
X102050Y478451D02*X105050Y482201D01*
X102050Y478451D02*X105800D01*
X105050Y482201D02*Y476201D01*
X45000Y476951D02*X45750Y476201D01*
X45000Y481451D02*Y476951D01*
Y481451D02*X45750Y482201D01*
X47250D01*
X48000Y481451D01*
Y476951D01*
X47250Y476201D02*X48000Y476951D01*
X45750Y476201D02*X47250D01*
X45000Y477701D02*X48000Y480701D01*
X49800Y476201D02*X50550D01*
X52350Y476951D02*X53100Y476201D01*
X52350Y481451D02*Y476951D01*
Y481451D02*X53100Y482201D01*
X54600D01*
X55350Y481451D01*
Y476951D01*
X54600Y476201D02*X55350Y476951D01*
X53100Y476201D02*X54600D01*
X52350Y477701D02*X55350Y480701D01*
X57150Y481451D02*X57900Y482201D01*
X59400D01*
X60150Y481451D01*
X59400Y476201D02*X60150Y476951D01*
X57900Y476201D02*X59400D01*
X57150Y476951D02*X57900Y476201D01*
Y479501D02*X59400D01*
X60150Y481451D02*Y480251D01*
Y478751D02*Y476951D01*
Y478751D02*X59400Y479501D01*
X60150Y480251D02*X59400Y479501D01*
X61950Y476951D02*X62700Y476201D01*
X61950Y481451D02*Y476951D01*
Y481451D02*X62700Y482201D01*
X64200D01*
X64950Y481451D01*
Y476951D01*
X64200Y476201D02*X64950Y476951D01*
X62700Y476201D02*X64200D01*
X61950Y477701D02*X64950Y480701D01*
X60648Y376563D02*Y373363D01*
X59048Y374963D02*X62248D01*
X60648Y366563D02*Y363363D01*
X59048Y364963D02*X62248D01*
X60648Y356563D02*Y353363D01*
X59048Y354963D02*X62248D01*
X60648Y346563D02*Y343363D01*
X59048Y344963D02*X62248D01*
X60648Y336563D02*Y333363D01*
X59048Y334963D02*X62248D01*
X60648Y326563D02*Y323363D01*
X59048Y324963D02*X62248D01*
X60648Y316563D02*Y313363D01*
X59048Y314963D02*X62248D01*
X60648Y306563D02*Y303363D01*
X59048Y304963D02*X62248D01*
X60648Y296563D02*Y293363D01*
X59048Y294963D02*X62248D01*
X60648Y286563D02*Y283363D01*
X59048Y284963D02*X62248D01*
X121751Y306567D02*Y303367D01*
X120151Y304967D02*X123351D01*
X121751Y316567D02*Y313367D01*
X120151Y314967D02*X123351D01*
X121751Y326567D02*Y323367D01*
X120151Y324967D02*X123351D01*
X121751Y336567D02*Y333367D01*
X120151Y334967D02*X123351D01*
X121751Y346567D02*Y343367D01*
X120151Y344967D02*X123351D01*
X121751Y356567D02*Y353367D01*
X120151Y354967D02*X123351D01*
X121751Y366567D02*Y363367D01*
X120151Y364967D02*X123351D01*
X121751Y376567D02*Y373367D01*
X120151Y374967D02*X123351D01*
X91751Y376567D02*Y373367D01*
X90151Y374967D02*X93351D01*
X91751Y366567D02*Y363367D01*
X90151Y364967D02*X93351D01*
X91751Y356567D02*Y353367D01*
X90151Y354967D02*X93351D01*
X91751Y346567D02*Y343367D01*
X90151Y344967D02*X93351D01*
X91751Y336567D02*Y333367D01*
X90151Y334967D02*X93351D01*
X91751Y326567D02*Y323367D01*
X90151Y324967D02*X93351D01*
X91751Y316567D02*Y313367D01*
X90151Y314967D02*X93351D01*
X91751Y306567D02*Y303367D01*
X90151Y304967D02*X93351D01*
X121751Y216567D02*Y213367D01*
X120151Y214967D02*X123351D01*
X121751Y226567D02*Y223367D01*
X120151Y224967D02*X123351D01*
X121751Y236567D02*Y233367D01*
X120151Y234967D02*X123351D01*
X121751Y246567D02*Y243367D01*
X120151Y244967D02*X123351D01*
X121751Y256567D02*Y253367D01*
X120151Y254967D02*X123351D01*
X121751Y266567D02*Y263367D01*
X120151Y264967D02*X123351D01*
X121751Y276567D02*Y273367D01*
X120151Y274967D02*X123351D01*
X121751Y286567D02*Y283367D01*
X120151Y284967D02*X123351D01*
X91751Y286567D02*Y283367D01*
X90151Y284967D02*X93351D01*
X91751Y276567D02*Y273367D01*
X90151Y274967D02*X93351D01*
X91751Y266567D02*Y263367D01*
X90151Y264967D02*X93351D01*
X91751Y256567D02*Y253367D01*
X90151Y254967D02*X93351D01*
X91751Y246567D02*Y243367D01*
X90151Y244967D02*X93351D01*
X91751Y236567D02*Y233367D01*
X90151Y234967D02*X93351D01*
X91751Y226567D02*Y223367D01*
X90151Y224967D02*X93351D01*
X91751Y216567D02*Y213367D01*
X90151Y214967D02*X93351D01*
X180806Y226016D02*Y222816D01*
X179206Y224416D02*X182406D01*
X180806Y236016D02*Y232816D01*
X179206Y234416D02*X182406D01*
X180806Y246016D02*Y242816D01*
X179206Y244416D02*X182406D01*
X180806Y256016D02*Y252816D01*
X179206Y254416D02*X182406D01*
X180806Y266016D02*Y262816D01*
X179206Y264416D02*X182406D01*
X180806Y276016D02*Y272816D01*
X179206Y274416D02*X182406D01*
X180806Y286016D02*Y282816D01*
X179206Y284416D02*X182406D01*
X150806Y286016D02*Y282816D01*
X149206Y284416D02*X152406D01*
X150806Y276016D02*Y272816D01*
X149206Y274416D02*X152406D01*
X150806Y266016D02*Y262816D01*
X149206Y264416D02*X152406D01*
X150806Y256016D02*Y252816D01*
X149206Y254416D02*X152406D01*
X150806Y246016D02*Y242816D01*
X149206Y244416D02*X152406D01*
X150806Y236016D02*Y232816D01*
X149206Y234416D02*X152406D01*
X150806Y226016D02*Y222816D01*
X149206Y224416D02*X152406D01*
X180806Y316016D02*Y312816D01*
X179206Y314416D02*X182406D01*
X180806Y326016D02*Y322816D01*
X179206Y324416D02*X182406D01*
X180806Y336016D02*Y332816D01*
X179206Y334416D02*X182406D01*
X180806Y346016D02*Y342816D01*
X179206Y344416D02*X182406D01*
X180806Y356016D02*Y352816D01*
X179206Y354416D02*X182406D01*
X180806Y366016D02*Y362816D01*
X179206Y364416D02*X182406D01*
X180806Y376016D02*Y372816D01*
X179206Y374416D02*X182406D01*
X150806Y376016D02*Y372816D01*
X149206Y374416D02*X152406D01*
X150806Y366016D02*Y362816D01*
X149206Y364416D02*X152406D01*
X150806Y356016D02*Y352816D01*
X149206Y354416D02*X152406D01*
X150806Y346016D02*Y342816D01*
X149206Y344416D02*X152406D01*
X150806Y336016D02*Y332816D01*
X149206Y334416D02*X152406D01*
X150806Y326016D02*Y322816D01*
X149206Y324416D02*X152406D01*
X150806Y316016D02*Y312816D01*
X149206Y314416D02*X152406D01*
X15000Y496551D02*Y493351D01*
X13400Y494951D02*X16600D01*
X135000Y497201D02*X136500Y494201D01*
X138000Y497201D01*
X136500Y494201D02*Y491201D01*
X139800Y494501D02*X142050D01*
X139800Y491201D02*X142800D01*
X139800Y497201D02*Y491201D01*
Y497201D02*X142800D01*
X147600D02*X148350Y496451D01*
X145350Y497201D02*X147600D01*
X144600Y496451D02*X145350Y497201D01*
X144600Y496451D02*Y494951D01*
X145350Y494201D01*
X147600D01*
X148350Y493451D01*
Y491951D01*
X147600Y491201D02*X148350Y491951D01*
X145350Y491201D02*X147600D01*
X144600Y491951D02*X145350Y491201D01*
X98750D02*X101750Y497201D01*
X98000D02*X101750D01*
X103550Y491951D02*X104300Y491201D01*
X103550Y496451D02*Y491951D01*
Y496451D02*X104300Y497201D01*
X105800D01*
X106550Y496451D01*
Y491951D01*
X105800Y491201D02*X106550Y491951D01*
X104300Y491201D02*X105800D01*
X103550Y492701D02*X106550Y495701D01*
X45000Y491951D02*X45750Y491201D01*
X45000Y496451D02*Y491951D01*
Y496451D02*X45750Y497201D01*
X47250D01*
X48000Y496451D01*
Y491951D01*
X47250Y491201D02*X48000Y491951D01*
X45750Y491201D02*X47250D01*
X45000Y492701D02*X48000Y495701D01*
X49800Y491201D02*X50550D01*
X52350Y491951D02*X53100Y491201D01*
X52350Y496451D02*Y491951D01*
Y496451D02*X53100Y497201D01*
X54600D01*
X55350Y496451D01*
Y491951D01*
X54600Y491201D02*X55350Y491951D01*
X53100Y491201D02*X54600D01*
X52350Y492701D02*X55350Y495701D01*
X57150Y496451D02*X57900Y497201D01*
X60150D01*
X60900Y496451D01*
Y494951D01*
X57150Y491201D02*X60900Y494951D01*
X57150Y491201D02*X60900D01*
X62700Y491951D02*X63450Y491201D01*
X62700Y493151D02*Y491951D01*
Y493151D02*X63750Y494201D01*
X64650D01*
X65700Y493151D01*
Y491951D01*
X64950Y491201D02*X65700Y491951D01*
X63450Y491201D02*X64950D01*
X62700Y495251D02*X63750Y494201D01*
X62700Y496451D02*Y495251D01*
Y496451D02*X63450Y497201D01*
X64950D01*
X65700Y496451D01*
Y495251D01*
X64650Y494201D02*X65700Y495251D01*
X148365Y178117D02*Y176517D01*
Y178117D02*X149752Y178917D01*
X148365Y178117D02*X146978Y178917D01*
X178365Y178117D02*Y176517D01*
Y178117D02*X179752Y178917D01*
X178365Y178117D02*X176978Y178917D01*
X148365Y198117D02*Y196517D01*
Y198117D02*X149752Y198917D01*
X148365Y198117D02*X146978Y198917D01*
X178365Y198117D02*Y196517D01*
Y198117D02*X179752Y198917D01*
X178365Y198117D02*X176978Y198917D01*
X148365Y118117D02*Y116517D01*
Y118117D02*X149752Y118917D01*
X148365Y118117D02*X146978Y118917D01*
X178365Y118117D02*Y116517D01*
Y118117D02*X179752Y118917D01*
X178365Y118117D02*X176978Y118917D01*
X148365Y138117D02*Y136517D01*
Y138117D02*X149752Y138917D01*
X148365Y138117D02*X146978Y138917D01*
X178365Y138117D02*Y136517D01*
Y138117D02*X179752Y138917D01*
X178365Y138117D02*X176978Y138917D01*
X148365Y158117D02*Y156517D01*
Y158117D02*X149752Y158917D01*
X148365Y158117D02*X146978Y158917D01*
X178365Y158117D02*Y156517D01*
Y158117D02*X179752Y158917D01*
X178365Y158117D02*X176978Y158917D01*
X105058Y189928D02*Y188328D01*
Y189928D02*X106445Y190728D01*
X105058Y189928D02*X103671Y190728D01*
X135058Y189928D02*Y188328D01*
Y189928D02*X136445Y190728D01*
X135058Y189928D02*X133671Y190728D01*
X15000Y509951D02*Y508351D01*
Y509951D02*X16387Y510751D01*
X15000Y509951D02*X13613Y510751D01*
X135000Y512201D02*X136500Y509201D01*
X138000Y512201D01*
X136500Y509201D02*Y506201D01*
X139800Y509501D02*X142050D01*
X139800Y506201D02*X142800D01*
X139800Y512201D02*Y506201D01*
Y512201D02*X142800D01*
X147600D02*X148350Y511451D01*
X145350Y512201D02*X147600D01*
X144600Y511451D02*X145350Y512201D01*
X144600Y511451D02*Y509951D01*
X145350Y509201D01*
X147600D01*
X148350Y508451D01*
Y506951D01*
X147600Y506201D02*X148350Y506951D01*
X145350Y506201D02*X147600D01*
X144600Y506951D02*X145350Y506201D01*
X98000Y511001D02*X99200Y512201D01*
Y506201D01*
X98000D02*X100250D01*
X102050Y511451D02*X102800Y512201D01*
X105050D01*
X105800Y511451D01*
Y509951D01*
X102050Y506201D02*X105800Y509951D01*
X102050Y506201D02*X105800D01*
X45000Y506951D02*X45750Y506201D01*
X45000Y511451D02*Y506951D01*
Y511451D02*X45750Y512201D01*
X47250D01*
X48000Y511451D01*
Y506951D01*
X47250Y506201D02*X48000Y506951D01*
X45750Y506201D02*X47250D01*
X45000Y507701D02*X48000Y510701D01*
X49800Y506201D02*X50550D01*
X52350Y506951D02*X53100Y506201D01*
X52350Y511451D02*Y506951D01*
Y511451D02*X53100Y512201D01*
X54600D01*
X55350Y511451D01*
Y506951D01*
X54600Y506201D02*X55350Y506951D01*
X53100Y506201D02*X54600D01*
X52350Y507701D02*X55350Y510701D01*
X57150Y511451D02*X57900Y512201D01*
X60150D01*
X60900Y511451D01*
Y509951D01*
X57150Y506201D02*X60900Y509951D01*
X57150Y506201D02*X60900D01*
X62700Y506951D02*X63450Y506201D01*
X62700Y511451D02*Y506951D01*
Y511451D02*X63450Y512201D01*
X64950D01*
X65700Y511451D01*
Y506951D01*
X64950Y506201D02*X65700Y506951D01*
X63450Y506201D02*X64950D01*
X62700Y507701D02*X65700Y510701D01*
X3000Y527201D02*X3750Y526451D01*
X750Y527201D02*X3000D01*
X0Y526451D02*X750Y527201D01*
X0Y526451D02*Y524951D01*
X750Y524201D01*
X3000D01*
X3750Y523451D01*
Y521951D01*
X3000Y521201D02*X3750Y521951D01*
X750Y521201D02*X3000D01*
X0Y521951D02*X750Y521201D01*
X5550Y524201D02*Y521951D01*
X6300Y521201D01*
X8550Y524201D02*Y519701D01*
X7800Y518951D02*X8550Y519701D01*
X6300Y518951D02*X7800D01*
X5550Y519701D02*X6300Y518951D01*
Y521201D02*X7800D01*
X8550Y521951D01*
X11100Y523451D02*Y521201D01*
Y523451D02*X11850Y524201D01*
X12600D01*
X13350Y523451D01*
Y521201D01*
Y523451D02*X14100Y524201D01*
X14850D01*
X15600Y523451D01*
Y521201D01*
X10350Y524201D02*X11100Y523451D01*
X17400Y527201D02*Y521201D01*
Y521951D02*X18150Y521201D01*
X19650D01*
X20400Y521951D01*
Y523451D02*Y521951D01*
X19650Y524201D02*X20400Y523451D01*
X18150Y524201D02*X19650D01*
X17400Y523451D02*X18150Y524201D01*
X22200Y523451D02*Y521951D01*
Y523451D02*X22950Y524201D01*
X24450D01*
X25200Y523451D01*
Y521951D01*
X24450Y521201D02*X25200Y521951D01*
X22950Y521201D02*X24450D01*
X22200Y521951D02*X22950Y521201D01*
X27000Y527201D02*Y521951D01*
X27750Y521201D01*
X0Y517951D02*X29250D01*
X41750Y527201D02*Y521201D01*
X43700Y527201D02*X44750Y526151D01*
Y522251D01*
X43700Y521201D02*X44750Y522251D01*
X41000Y521201D02*X43700D01*
X41000Y527201D02*X43700D01*
G54D111*X46550Y525701D02*Y525551D01*
G54D110*Y523451D02*Y521201D01*
X50300Y524201D02*X51050Y523451D01*
X48800Y524201D02*X50300D01*
X48050Y523451D02*X48800Y524201D01*
X48050Y523451D02*Y521951D01*
X48800Y521201D01*
X51050Y524201D02*Y521951D01*
X51800Y521201D01*
X48800D02*X50300D01*
X51050Y521951D01*
X54350Y523451D02*Y521201D01*
Y523451D02*X55100Y524201D01*
X55850D01*
X56600Y523451D01*
Y521201D01*
Y523451D02*X57350Y524201D01*
X58100D01*
X58850Y523451D01*
Y521201D01*
X53600Y524201D02*X54350Y523451D01*
X60650Y521201D02*X61400D01*
X65900Y521951D02*X66650Y521201D01*
X65900Y526451D02*X66650Y527201D01*
X65900Y526451D02*Y521951D01*
X68450Y527201D02*X69950D01*
X69200D02*Y521201D01*
X68450D02*X69950D01*
X72500Y523451D02*Y521201D01*
Y523451D02*X73250Y524201D01*
X74000D01*
X74750Y523451D01*
Y521201D01*
X71750Y524201D02*X72500Y523451D01*
X77300Y524201D02*X79550D01*
X76550Y523451D02*X77300Y524201D01*
X76550Y523451D02*Y521951D01*
X77300Y521201D01*
X79550D01*
X81350Y527201D02*Y521201D01*
Y523451D02*X82100Y524201D01*
X83600D01*
X84350Y523451D01*
Y521201D01*
X86150Y527201D02*X86900Y526451D01*
Y521951D01*
X86150Y521201D02*X86900Y521951D01*
X41000Y517951D02*X88700D01*
X96050Y521201D02*X98000D01*
X95000Y522251D02*X96050Y521201D01*
X95000Y526151D02*Y522251D01*
Y526151D02*X96050Y527201D01*
X98000D01*
X99800Y523451D02*Y521951D01*
Y523451D02*X100550Y524201D01*
X102050D01*
X102800Y523451D01*
Y521951D01*
X102050Y521201D02*X102800Y521951D01*
X100550Y521201D02*X102050D01*
X99800Y521951D02*X100550Y521201D01*
X104600Y524201D02*Y521951D01*
X105350Y521201D01*
X106850D01*
X107600Y521951D01*
Y524201D02*Y521951D01*
X110150Y523451D02*Y521201D01*
Y523451D02*X110900Y524201D01*
X111650D01*
X112400Y523451D01*
Y521201D01*
X109400Y524201D02*X110150Y523451D01*
X114950Y527201D02*Y521951D01*
X115700Y521201D01*
X114200Y524951D02*X115700D01*
X95000Y517951D02*X117200D01*
X130750Y527201D02*Y521201D01*
X130000Y527201D02*X133000D01*
X133750Y526451D01*
Y524951D01*
X133000Y524201D02*X133750Y524951D01*
X130750Y524201D02*X133000D01*
X135550Y527201D02*Y521951D01*
X136300Y521201D01*
X140050Y524201D02*X140800Y523451D01*
X138550Y524201D02*X140050D01*
X137800Y523451D02*X138550Y524201D01*
X137800Y523451D02*Y521951D01*
X138550Y521201D01*
X140800Y524201D02*Y521951D01*
X141550Y521201D01*
X138550D02*X140050D01*
X140800Y521951D01*
X144100Y527201D02*Y521951D01*
X144850Y521201D01*
X143350Y524951D02*X144850D01*
X147100Y521201D02*X149350D01*
X146350Y521951D02*X147100Y521201D01*
X146350Y523451D02*Y521951D01*
Y523451D02*X147100Y524201D01*
X148600D01*
X149350Y523451D01*
X146350Y522701D02*X149350D01*
Y523451D02*Y522701D01*
X154150Y527201D02*Y521201D01*
X153400D02*X154150Y521951D01*
X151900Y521201D02*X153400D01*
X151150Y521951D02*X151900Y521201D01*
X151150Y523451D02*Y521951D01*
Y523451D02*X151900Y524201D01*
X153400D01*
X154150Y523451D01*
X157450Y524201D02*Y523451D01*
Y521951D02*Y521201D01*
X155950Y526451D02*Y525701D01*
Y526451D02*X156700Y527201D01*
X158200D01*
X158950Y526451D01*
Y525701D01*
X157450Y524201D02*X158950Y525701D01*
X130000Y517951D02*X160750D01*
X0Y542201D02*X3000D01*
X1500D02*Y536201D01*
X4800Y542201D02*Y536201D01*
Y538451D02*X5550Y539201D01*
X7050D01*
X7800Y538451D01*
Y536201D01*
X10350D02*X12600D01*
X9600Y536951D02*X10350Y536201D01*
X9600Y538451D02*Y536951D01*
Y538451D02*X10350Y539201D01*
X11850D01*
X12600Y538451D01*
X9600Y537701D02*X12600D01*
Y538451D02*Y537701D01*
X15150Y538451D02*Y536201D01*
Y538451D02*X15900Y539201D01*
X17400D01*
X14400D02*X15150Y538451D01*
X19950Y536201D02*X22200D01*
X19200Y536951D02*X19950Y536201D01*
X19200Y538451D02*Y536951D01*
Y538451D02*X19950Y539201D01*
X21450D01*
X22200Y538451D01*
X19200Y537701D02*X22200D01*
Y538451D02*Y537701D01*
X28950Y539201D02*X29700Y538451D01*
X27450Y539201D02*X28950D01*
X26700Y538451D02*X27450Y539201D01*
X26700Y538451D02*Y536951D01*
X27450Y536201D01*
X29700Y539201D02*Y536951D01*
X30450Y536201D01*
X27450D02*X28950D01*
X29700Y536951D01*
X33000Y538451D02*Y536201D01*
Y538451D02*X33750Y539201D01*
X35250D01*
X32250D02*X33000Y538451D01*
X37800Y536201D02*X40050D01*
X37050Y536951D02*X37800Y536201D01*
X37050Y538451D02*Y536951D01*
Y538451D02*X37800Y539201D01*
X39300D01*
X40050Y538451D01*
X37050Y537701D02*X40050D01*
Y538451D02*Y537701D01*
X44550Y536951D02*X45300Y536201D01*
X44550Y538151D02*Y536951D01*
Y538151D02*X45600Y539201D01*
X46500D01*
X47550Y538151D01*
Y536951D01*
X46800Y536201D02*X47550Y536951D01*
X45300Y536201D02*X46800D01*
X44550Y540251D02*X45600Y539201D01*
X44550Y541451D02*Y540251D01*
Y541451D02*X45300Y542201D01*
X46800D01*
X47550Y541451D01*
Y540251D01*
X46500Y539201D02*X47550Y540251D01*
X55050Y542201D02*Y536201D01*
X54300D02*X55050Y536951D01*
X52800Y536201D02*X54300D01*
X52050Y536951D02*X52800Y536201D01*
X52050Y538451D02*Y536951D01*
Y538451D02*X52800Y539201D01*
X54300D01*
X55050Y538451D01*
G54D111*X56850Y540701D02*Y540551D01*
G54D110*Y538451D02*Y536201D01*
X59100Y541451D02*Y536201D01*
Y541451D02*X59850Y542201D01*
X60600D01*
X58350Y539201D02*X59850D01*
X62850Y541451D02*Y536201D01*
Y541451D02*X63600Y542201D01*
X64350D01*
X62100Y539201D02*X63600D01*
X66600Y536201D02*X68850D01*
X65850Y536951D02*X66600Y536201D01*
X65850Y538451D02*Y536951D01*
Y538451D02*X66600Y539201D01*
X68100D01*
X68850Y538451D01*
X65850Y537701D02*X68850D01*
Y538451D02*Y537701D01*
X71400Y538451D02*Y536201D01*
Y538451D02*X72150Y539201D01*
X73650D01*
X70650D02*X71400Y538451D01*
X76200Y536201D02*X78450D01*
X75450Y536951D02*X76200Y536201D01*
X75450Y538451D02*Y536951D01*
Y538451D02*X76200Y539201D01*
X77700D01*
X78450Y538451D01*
X75450Y537701D02*X78450D01*
Y538451D02*Y537701D01*
X81000Y538451D02*Y536201D01*
Y538451D02*X81750Y539201D01*
X82500D01*
X83250Y538451D01*
Y536201D01*
X80250Y539201D02*X81000Y538451D01*
X85800Y542201D02*Y536951D01*
X86550Y536201D01*
X85050Y539951D02*X86550D01*
X93750Y542201D02*Y536201D01*
X93000D02*X93750Y536951D01*
X91500Y536201D02*X93000D01*
X90750Y536951D02*X91500Y536201D01*
X90750Y538451D02*Y536951D01*
Y538451D02*X91500Y539201D01*
X93000D01*
X93750Y538451D01*
X96300D02*Y536201D01*
Y538451D02*X97050Y539201D01*
X98550D01*
X95550D02*X96300Y538451D01*
G54D111*X100350Y540701D02*Y540551D01*
G54D110*Y538451D02*Y536201D01*
X101850Y542201D02*Y536951D01*
X102600Y536201D01*
X104100Y542201D02*Y536951D01*
X104850Y536201D01*
X109800D02*X112050D01*
X112800Y536951D01*
X112050Y537701D02*X112800Y536951D01*
X109800Y537701D02*X112050D01*
X109050Y538451D02*X109800Y537701D01*
X109050Y538451D02*X109800Y539201D01*
X112050D01*
X112800Y538451D01*
X109050Y536951D02*X109800Y536201D01*
G54D111*X114600Y540701D02*Y540551D01*
G54D110*Y538451D02*Y536201D01*
X116100Y539201D02*X119100D01*
X116100Y536201D02*X119100Y539201D01*
X116100Y536201D02*X119100D01*
X121650D02*X123900D01*
X120900Y536951D02*X121650Y536201D01*
X120900Y538451D02*Y536951D01*
Y538451D02*X121650Y539201D01*
X123150D01*
X123900Y538451D01*
X120900Y537701D02*X123900D01*
Y538451D02*Y537701D01*
X126450Y536201D02*X128700D01*
X129450Y536951D01*
X128700Y537701D02*X129450Y536951D01*
X126450Y537701D02*X128700D01*
X125700Y538451D02*X126450Y537701D01*
X125700Y538451D02*X126450Y539201D01*
X128700D01*
X129450Y538451D01*
X125700Y536951D02*X126450Y536201D01*
X133950Y539201D02*Y536951D01*
X134700Y536201D01*
X136200D01*
X136950Y536951D01*
Y539201D02*Y536951D01*
X139500Y536201D02*X141750D01*
X142500Y536951D01*
X141750Y537701D02*X142500Y536951D01*
X139500Y537701D02*X141750D01*
X138750Y538451D02*X139500Y537701D01*
X138750Y538451D02*X139500Y539201D01*
X141750D01*
X142500Y538451D01*
X138750Y536951D02*X139500Y536201D01*
X145050D02*X147300D01*
X144300Y536951D02*X145050Y536201D01*
X144300Y538451D02*Y536951D01*
Y538451D02*X145050Y539201D01*
X146550D01*
X147300Y538451D01*
X144300Y537701D02*X147300D01*
Y538451D02*Y537701D01*
X152100Y542201D02*Y536201D01*
X151350D02*X152100Y536951D01*
X149850Y536201D02*X151350D01*
X149100Y536951D02*X149850Y536201D01*
X149100Y538451D02*Y536951D01*
Y538451D02*X149850Y539201D01*
X151350D01*
X152100Y538451D01*
G54D111*X156600Y540701D02*Y540551D01*
G54D110*Y538451D02*Y536201D01*
X158850Y538451D02*Y536201D01*
Y538451D02*X159600Y539201D01*
X160350D01*
X161100Y538451D01*
Y536201D01*
X158100Y539201D02*X158850Y538451D01*
X166350Y542201D02*Y536951D01*
X167100Y536201D01*
X165600Y539951D02*X167100D01*
X168600Y542201D02*Y536201D01*
Y538451D02*X169350Y539201D01*
X170850D01*
X171600Y538451D01*
Y536201D01*
G54D111*X173400Y540701D02*Y540551D01*
G54D110*Y538451D02*Y536201D01*
X175650D02*X177900D01*
X178650Y536951D01*
X177900Y537701D02*X178650Y536951D01*
X175650Y537701D02*X177900D01*
X174900Y538451D02*X175650Y537701D01*
X174900Y538451D02*X175650Y539201D01*
X177900D01*
X178650Y538451D01*
X174900Y536951D02*X175650Y536201D01*
X183150Y542201D02*Y536951D01*
X183900Y536201D01*
X187650Y539201D02*X188400Y538451D01*
X186150Y539201D02*X187650D01*
X185400Y538451D02*X186150Y539201D01*
X185400Y538451D02*Y536951D01*
X186150Y536201D01*
X188400Y539201D02*Y536951D01*
X189150Y536201D01*
X186150D02*X187650D01*
X188400Y536951D01*
X190950Y539201D02*Y536951D01*
X191700Y536201D01*
X193950Y539201D02*Y534701D01*
X193200Y533951D02*X193950Y534701D01*
X191700Y533951D02*X193200D01*
X190950Y534701D02*X191700Y533951D01*
Y536201D02*X193200D01*
X193950Y536951D01*
X195750Y538451D02*Y536951D01*
Y538451D02*X196500Y539201D01*
X198000D01*
X198750Y538451D01*
Y536951D01*
X198000Y536201D02*X198750Y536951D01*
X196500Y536201D02*X198000D01*
X195750Y536951D02*X196500Y536201D01*
X200550Y539201D02*Y536951D01*
X201300Y536201D01*
X202800D01*
X203550Y536951D01*
Y539201D02*Y536951D01*
X206100Y542201D02*Y536951D01*
X206850Y536201D01*
X205350Y539951D02*X206850D01*
X208350Y534701D02*X209850Y536201D01*
X214350Y541001D02*X215550Y542201D01*
Y536201D01*
X214350D02*X216600D01*
X219150D02*X221400Y539201D01*
Y541451D02*Y539201D01*
X220650Y542201D02*X221400Y541451D01*
X219150Y542201D02*X220650D01*
X218400Y541451D02*X219150Y542201D01*
X218400Y541451D02*Y539951D01*
X219150Y539201D01*
X221400D01*
X223950Y536201D02*X226200Y539201D01*
Y541451D02*Y539201D01*
X225450Y542201D02*X226200Y541451D01*
X223950Y542201D02*X225450D01*
X223200Y541451D02*X223950Y542201D01*
X223200Y541451D02*Y539951D01*
X223950Y539201D01*
X226200D01*
X230700Y542201D02*Y536201D01*
Y538451D02*X231450Y539201D01*
X232950D01*
X233700Y538451D01*
Y536201D01*
X235500Y538451D02*Y536951D01*
Y538451D02*X236250Y539201D01*
X237750D01*
X238500Y538451D01*
Y536951D01*
X237750Y536201D02*X238500Y536951D01*
X236250Y536201D02*X237750D01*
X235500Y536951D02*X236250Y536201D01*
X240300Y542201D02*Y536951D01*
X241050Y536201D01*
X243300D02*X245550D01*
X242550Y536951D02*X243300Y536201D01*
X242550Y538451D02*Y536951D01*
Y538451D02*X243300Y539201D01*
X244800D01*
X245550Y538451D01*
X242550Y537701D02*X245550D01*
Y538451D02*Y537701D01*
X248100Y536201D02*X250350D01*
X251100Y536951D01*
X250350Y537701D02*X251100Y536951D01*
X248100Y537701D02*X250350D01*
X247350Y538451D02*X248100Y537701D01*
X247350Y538451D02*X248100Y539201D01*
X250350D01*
X251100Y538451D01*
X247350Y536951D02*X248100Y536201D01*
X256350Y542201D02*Y536951D01*
X257100Y536201D01*
X255600Y539951D02*X257100D01*
X258600Y538451D02*Y536951D01*
Y538451D02*X259350Y539201D01*
X260850D01*
X261600Y538451D01*
Y536951D01*
X260850Y536201D02*X261600Y536951D01*
X259350Y536201D02*X260850D01*
X258600Y536951D02*X259350Y536201D01*
X264150Y542201D02*Y536951D01*
X264900Y536201D01*
X263400Y539951D02*X264900D01*
X268650Y539201D02*X269400Y538451D01*
X267150Y539201D02*X268650D01*
X266400Y538451D02*X267150Y539201D01*
X266400Y538451D02*Y536951D01*
X267150Y536201D01*
X269400Y539201D02*Y536951D01*
X270150Y536201D01*
X267150D02*X268650D01*
X269400Y536951D01*
X271950Y542201D02*Y536951D01*
X272700Y536201D01*
G54D112*X0Y393701D02*X393701D01*
X0D02*Y0D01*
X393701Y393701D02*Y0D01*
X0D02*X393701D01*
G54D110*X200000Y407201D02*Y401201D01*
Y407201D02*X202250Y404201D01*
X204500Y407201D01*
Y401201D01*
X208550Y404201D02*X209300Y403451D01*
X207050Y404201D02*X208550D01*
X206300Y403451D02*X207050Y404201D01*
X206300Y403451D02*Y401951D01*
X207050Y401201D01*
X209300Y404201D02*Y401951D01*
X210050Y401201D01*
X207050D02*X208550D01*
X209300Y401951D01*
X211850Y404201D02*X214850Y401201D01*
X211850D02*X214850Y404201D01*
G54D111*X216650Y405701D02*Y405551D01*
G54D110*Y403451D02*Y401201D01*
X218900Y403451D02*Y401201D01*
Y403451D02*X219650Y404201D01*
X220400D01*
X221150Y403451D01*
Y401201D01*
Y403451D02*X221900Y404201D01*
X222650D01*
X223400Y403451D01*
Y401201D01*
X218150Y404201D02*X218900Y403451D01*
X225200Y404201D02*Y401951D01*
X225950Y401201D01*
X227450D01*
X228200Y401951D01*
Y404201D02*Y401951D01*
X230750Y403451D02*Y401201D01*
Y403451D02*X231500Y404201D01*
X232250D01*
X233000Y403451D01*
Y401201D01*
Y403451D02*X233750Y404201D01*
X234500D01*
X235250Y403451D01*
Y401201D01*
X230000Y404201D02*X230750Y403451D01*
X240500Y407201D02*Y401201D01*
X242450Y407201D02*X243500Y406151D01*
Y402251D01*
X242450Y401201D02*X243500Y402251D01*
X239750Y401201D02*X242450D01*
X239750Y407201D02*X242450D01*
G54D111*X245300Y405701D02*Y405551D01*
G54D110*Y403451D02*Y401201D01*
X247550Y403451D02*Y401201D01*
Y403451D02*X248300Y404201D01*
X249050D01*
X249800Y403451D01*
Y401201D01*
Y403451D02*X250550Y404201D01*
X251300D01*
X252050Y403451D01*
Y401201D01*
X246800Y404201D02*X247550Y403451D01*
X254600Y401201D02*X256850D01*
X253850Y401951D02*X254600Y401201D01*
X253850Y403451D02*Y401951D01*
Y403451D02*X254600Y404201D01*
X256100D01*
X256850Y403451D01*
X253850Y402701D02*X256850D01*
Y403451D02*Y402701D01*
X259400Y403451D02*Y401201D01*
Y403451D02*X260150Y404201D01*
X260900D01*
X261650Y403451D01*
Y401201D01*
X258650Y404201D02*X259400Y403451D01*
X264200Y401201D02*X266450D01*
X267200Y401951D01*
X266450Y402701D02*X267200Y401951D01*
X264200Y402701D02*X266450D01*
X263450Y403451D02*X264200Y402701D01*
X263450Y403451D02*X264200Y404201D01*
X266450D01*
X267200Y403451D01*
X263450Y401951D02*X264200Y401201D01*
G54D111*X269000Y405701D02*Y405551D01*
G54D110*Y403451D02*Y401201D01*
X270500Y403451D02*Y401951D01*
Y403451D02*X271250Y404201D01*
X272750D01*
X273500Y403451D01*
Y401951D01*
X272750Y401201D02*X273500Y401951D01*
X271250Y401201D02*X272750D01*
X270500Y401951D02*X271250Y401201D01*
X276050Y403451D02*Y401201D01*
Y403451D02*X276800Y404201D01*
X277550D01*
X278300Y403451D01*
Y401201D01*
X275300Y404201D02*X276050Y403451D01*
X280850Y401201D02*X283100D01*
X283850Y401951D01*
X283100Y402701D02*X283850Y401951D01*
X280850Y402701D02*X283100D01*
X280100Y403451D02*X280850Y402701D01*
X280100Y403451D02*X280850Y404201D01*
X283100D01*
X283850Y403451D01*
X280100Y401951D02*X280850Y401201D01*
X285650Y404951D02*X286400D01*
X285650Y403451D02*X286400D01*
X290900Y406451D02*X291650Y407201D01*
X293150D01*
X293900Y406451D01*
X293150Y401201D02*X293900Y401951D01*
X291650Y401201D02*X293150D01*
X290900Y401951D02*X291650Y401201D01*
Y404501D02*X293150D01*
X293900Y406451D02*Y405251D01*
Y403751D02*Y401951D01*
Y403751D02*X293150Y404501D01*
X293900Y405251D02*X293150Y404501D01*
X296450Y401201D02*X298700Y404201D01*
Y406451D02*Y404201D01*
X297950Y407201D02*X298700Y406451D01*
X296450Y407201D02*X297950D01*
X295700Y406451D02*X296450Y407201D01*
X295700Y406451D02*Y404951D01*
X296450Y404201D01*
X298700D01*
X300500Y406451D02*X301250Y407201D01*
X302750D01*
X303500Y406451D01*
X302750Y401201D02*X303500Y401951D01*
X301250Y401201D02*X302750D01*
X300500Y401951D02*X301250Y401201D01*
Y404501D02*X302750D01*
X303500Y406451D02*Y405251D01*
Y403751D02*Y401951D01*
Y403751D02*X302750Y404501D01*
X303500Y405251D02*X302750Y404501D01*
X306050Y401201D02*X309050Y407201D01*
X305300D02*X309050D01*
X310850Y401201D02*X311600D01*
X313400Y401951D02*X314150Y401201D01*
X313400Y406451D02*Y401951D01*
Y406451D02*X314150Y407201D01*
X315650D01*
X316400Y406451D01*
Y401951D01*
X315650Y401201D02*X316400Y401951D01*
X314150Y401201D02*X315650D01*
X313400Y402701D02*X316400Y405701D01*
X318200Y406001D02*X319400Y407201D01*
Y401201D01*
X318200D02*X320450D01*
X322250Y401951D02*X323000Y401201D01*
X322250Y406451D02*Y401951D01*
Y406451D02*X323000Y407201D01*
X324500D01*
X325250Y406451D01*
Y401951D01*
X324500Y401201D02*X325250Y401951D01*
X323000Y401201D02*X324500D01*
X322250Y402701D02*X325250Y405701D01*
X327050Y401951D02*X327800Y401201D01*
X327050Y406451D02*Y401951D01*
Y406451D02*X327800Y407201D01*
X329300D01*
X330050Y406451D01*
Y401951D01*
X329300Y401201D02*X330050Y401951D01*
X327800Y401201D02*X329300D01*
X327050Y402701D02*X330050Y405701D01*
X331850Y401951D02*X332600Y401201D01*
X331850Y406451D02*Y401951D01*
Y406451D02*X332600Y407201D01*
X334100D01*
X334850Y406451D01*
Y401951D01*
X334100Y401201D02*X334850Y401951D01*
X332600Y401201D02*X334100D01*
X331850Y402701D02*X334850Y405701D01*
X336650Y401951D02*X337400Y401201D01*
X336650Y406451D02*Y401951D01*
Y406451D02*X337400Y407201D01*
X338900D01*
X339650Y406451D01*
Y401951D01*
X338900Y401201D02*X339650Y401951D01*
X337400Y401201D02*X338900D01*
X336650Y402701D02*X339650Y405701D01*
X344900Y403451D02*Y401201D01*
Y403451D02*X345650Y404201D01*
X346400D01*
X347150Y403451D01*
Y401201D01*
Y403451D02*X347900Y404201D01*
X348650D01*
X349400Y403451D01*
Y401201D01*
X344150Y404201D02*X344900Y403451D01*
G54D111*X351200Y405701D02*Y405551D01*
G54D110*Y403451D02*Y401201D01*
X352700Y407201D02*Y401951D01*
X353450Y401201D01*
X355700D02*X357950D01*
X358700Y401951D01*
X357950Y402701D02*X358700Y401951D01*
X355700Y402701D02*X357950D01*
X354950Y403451D02*X355700Y402701D01*
X354950Y403451D02*X355700Y404201D01*
X357950D01*
X358700Y403451D01*
X354950Y401951D02*X355700Y401201D01*
X363200Y404201D02*Y401951D01*
X363950Y401201D01*
X364700D01*
X365450Y401951D01*
Y404201D02*Y401951D01*
X366200Y401201D01*
X366950D01*
X367700Y401951D01*
Y404201D02*Y401951D01*
G54D111*X369500Y405701D02*Y405551D01*
G54D110*Y403451D02*Y401201D01*
X374000Y407201D02*Y401201D01*
X373250D02*X374000Y401951D01*
X371750Y401201D02*X373250D01*
X371000Y401951D02*X371750Y401201D01*
X371000Y403451D02*Y401951D01*
Y403451D02*X371750Y404201D01*
X373250D01*
X374000Y403451D01*
X376550Y401201D02*X378800D01*
X375800Y401951D02*X376550Y401201D01*
X375800Y403451D02*Y401951D01*
Y403451D02*X376550Y404201D01*
X378050D01*
X378800Y403451D01*
X375800Y402701D02*X378800D01*
Y403451D02*Y402701D01*
X380600Y399701D02*X382100Y401201D01*
X386600Y406451D02*X387350Y407201D01*
X388850D01*
X389600Y406451D01*
X388850Y401201D02*X389600Y401951D01*
X387350Y401201D02*X388850D01*
X386600Y401951D02*X387350Y401201D01*
Y404501D02*X388850D01*
X389600Y406451D02*Y405251D01*
Y403751D02*Y401951D01*
Y403751D02*X388850Y404501D01*
X389600Y405251D02*X388850Y404501D01*
X392150Y401201D02*X394400Y404201D01*
Y406451D02*Y404201D01*
X393650Y407201D02*X394400Y406451D01*
X392150Y407201D02*X393650D01*
X391400Y406451D02*X392150Y407201D01*
X391400Y406451D02*Y404951D01*
X392150Y404201D01*
X394400D01*
X396200Y406451D02*X396950Y407201D01*
X398450D01*
X399200Y406451D01*
X398450Y401201D02*X399200Y401951D01*
X396950Y401201D02*X398450D01*
X396200Y401951D02*X396950Y401201D01*
Y404501D02*X398450D01*
X399200Y406451D02*Y405251D01*
Y403751D02*Y401951D01*
Y403751D02*X398450Y404501D01*
X399200Y405251D02*X398450Y404501D01*
X401750Y401201D02*X404750Y407201D01*
X401000D02*X404750D01*
X406550Y401201D02*X407300D01*
X409100Y401951D02*X409850Y401201D01*
X409100Y406451D02*Y401951D01*
Y406451D02*X409850Y407201D01*
X411350D01*
X412100Y406451D01*
Y401951D01*
X411350Y401201D02*X412100Y401951D01*
X409850Y401201D02*X411350D01*
X409100Y402701D02*X412100Y405701D01*
X413900Y406001D02*X415100Y407201D01*
Y401201D01*
X413900D02*X416150D01*
X417950Y401951D02*X418700Y401201D01*
X417950Y406451D02*Y401951D01*
Y406451D02*X418700Y407201D01*
X420200D01*
X420950Y406451D01*
Y401951D01*
X420200Y401201D02*X420950Y401951D01*
X418700Y401201D02*X420200D01*
X417950Y402701D02*X420950Y405701D01*
X422750Y401951D02*X423500Y401201D01*
X422750Y406451D02*Y401951D01*
Y406451D02*X423500Y407201D01*
X425000D01*
X425750Y406451D01*
Y401951D01*
X425000Y401201D02*X425750Y401951D01*
X423500Y401201D02*X425000D01*
X422750Y402701D02*X425750Y405701D01*
X427550Y401951D02*X428300Y401201D01*
X427550Y406451D02*Y401951D01*
Y406451D02*X428300Y407201D01*
X429800D01*
X430550Y406451D01*
Y401951D01*
X429800Y401201D02*X430550Y401951D01*
X428300Y401201D02*X429800D01*
X427550Y402701D02*X430550Y405701D01*
X432350Y401951D02*X433100Y401201D01*
X432350Y406451D02*Y401951D01*
Y406451D02*X433100Y407201D01*
X434600D01*
X435350Y406451D01*
Y401951D01*
X434600Y401201D02*X435350Y401951D01*
X433100Y401201D02*X434600D01*
X432350Y402701D02*X435350Y405701D01*
X440600Y403451D02*Y401201D01*
Y403451D02*X441350Y404201D01*
X442100D01*
X442850Y403451D01*
Y401201D01*
Y403451D02*X443600Y404201D01*
X444350D01*
X445100Y403451D01*
Y401201D01*
X439850Y404201D02*X440600Y403451D01*
G54D111*X446900Y405701D02*Y405551D01*
G54D110*Y403451D02*Y401201D01*
X448400Y407201D02*Y401951D01*
X449150Y401201D01*
X451400D02*X453650D01*
X454400Y401951D01*
X453650Y402701D02*X454400Y401951D01*
X451400Y402701D02*X453650D01*
X450650Y403451D02*X451400Y402701D01*
X450650Y403451D02*X451400Y404201D01*
X453650D01*
X454400Y403451D01*
X450650Y401951D02*X451400Y401201D01*
X458900Y407201D02*Y401201D01*
Y403451D02*X459650Y404201D01*
X461150D01*
X461900Y403451D01*
Y401201D01*
G54D111*X463700Y405701D02*Y405551D01*
G54D110*Y403451D02*Y401201D01*
X467450Y404201D02*X468200Y403451D01*
X465950Y404201D02*X467450D01*
X465200Y403451D02*X465950Y404201D01*
X465200Y403451D02*Y401951D01*
X465950Y401201D01*
X467450D01*
X468200Y401951D01*
X465200Y399701D02*X465950Y398951D01*
X467450D01*
X468200Y399701D01*
Y404201D02*Y399701D01*
X470000Y407201D02*Y401201D01*
Y403451D02*X470750Y404201D01*
X472250D01*
X473000Y403451D01*
Y401201D01*
X0Y-9500D02*X3000D01*
X3750Y-8750D01*
Y-6950D02*Y-8750D01*
X3000Y-6200D02*X3750Y-6950D01*
X750Y-6200D02*X3000D01*
X750Y-3500D02*Y-9500D01*
X0Y-3500D02*X3000D01*
X3750Y-4250D01*
Y-5450D01*
X3000Y-6200D02*X3750Y-5450D01*
X5550Y-7250D02*Y-8750D01*
Y-7250D02*X6300Y-6500D01*
X7800D01*
X8550Y-7250D01*
Y-8750D01*
X7800Y-9500D02*X8550Y-8750D01*
X6300Y-9500D02*X7800D01*
X5550Y-8750D02*X6300Y-9500D01*
X12600Y-6500D02*X13350Y-7250D01*
X11100Y-6500D02*X12600D01*
X10350Y-7250D02*X11100Y-6500D01*
X10350Y-7250D02*Y-8750D01*
X11100Y-9500D01*
X13350Y-6500D02*Y-8750D01*
X14100Y-9500D01*
X11100D02*X12600D01*
X13350Y-8750D01*
X16650Y-7250D02*Y-9500D01*
Y-7250D02*X17400Y-6500D01*
X18900D01*
X15900D02*X16650Y-7250D01*
X23700Y-3500D02*Y-9500D01*
X22950D02*X23700Y-8750D01*
X21450Y-9500D02*X22950D01*
X20700Y-8750D02*X21450Y-9500D01*
X20700Y-7250D02*Y-8750D01*
Y-7250D02*X21450Y-6500D01*
X22950D01*
X23700Y-7250D01*
X28200D02*Y-8750D01*
Y-7250D02*X28950Y-6500D01*
X30450D01*
X31200Y-7250D01*
Y-8750D01*
X30450Y-9500D02*X31200Y-8750D01*
X28950Y-9500D02*X30450D01*
X28200Y-8750D02*X28950Y-9500D01*
X33000Y-6500D02*Y-8750D01*
X33750Y-9500D01*
X35250D01*
X36000Y-8750D01*
Y-6500D02*Y-8750D01*
X38550Y-3500D02*Y-8750D01*
X39300Y-9500D01*
X37800Y-5750D02*X39300D01*
X40800Y-3500D02*Y-8750D01*
X41550Y-9500D01*
G54D111*X43050Y-5000D02*Y-5150D01*
G54D110*Y-7250D02*Y-9500D01*
X45300Y-7250D02*Y-9500D01*
Y-7250D02*X46050Y-6500D01*
X46800D01*
X47550Y-7250D01*
Y-9500D01*
X44550Y-6500D02*X45300Y-7250D01*
X50100Y-9500D02*X52350D01*
X49350Y-8750D02*X50100Y-9500D01*
X49350Y-7250D02*Y-8750D01*
Y-7250D02*X50100Y-6500D01*
X51600D01*
X52350Y-7250D01*
X49350Y-8000D02*X52350D01*
Y-7250D02*Y-8000D01*
G54D111*X56850Y-5000D02*Y-5150D01*
G54D110*Y-7250D02*Y-9500D01*
X59100D02*X61350D01*
X62100Y-8750D01*
X61350Y-8000D02*X62100Y-8750D01*
X59100Y-8000D02*X61350D01*
X58350Y-7250D02*X59100Y-8000D01*
X58350Y-7250D02*X59100Y-6500D01*
X61350D01*
X62100Y-7250D01*
X58350Y-8750D02*X59100Y-9500D01*
X67350Y-3500D02*Y-8750D01*
X68100Y-9500D01*
X66600Y-5750D02*X68100D01*
X69600Y-3500D02*Y-9500D01*
Y-7250D02*X70350Y-6500D01*
X71850D01*
X72600Y-7250D01*
Y-9500D01*
X75150D02*X77400D01*
X74400Y-8750D02*X75150Y-9500D01*
X74400Y-7250D02*Y-8750D01*
Y-7250D02*X75150Y-6500D01*
X76650D01*
X77400Y-7250D01*
X74400Y-8000D02*X77400D01*
Y-7250D02*Y-8000D01*
X82650Y-6500D02*X84900D01*
X81900Y-7250D02*X82650Y-6500D01*
X81900Y-7250D02*Y-8750D01*
X82650Y-9500D01*
X84900D01*
X87450D02*X89700D01*
X86700Y-8750D02*X87450Y-9500D01*
X86700Y-7250D02*Y-8750D01*
Y-7250D02*X87450Y-6500D01*
X88950D01*
X89700Y-7250D01*
X86700Y-8000D02*X89700D01*
Y-7250D02*Y-8000D01*
X92250Y-7250D02*Y-9500D01*
Y-7250D02*X93000Y-6500D01*
X93750D01*
X94500Y-7250D01*
Y-9500D01*
X91500Y-6500D02*X92250Y-7250D01*
X97050Y-3500D02*Y-8750D01*
X97800Y-9500D01*
X96300Y-5750D02*X97800D01*
X100050Y-9500D02*X102300D01*
X99300Y-8750D02*X100050Y-9500D01*
X99300Y-7250D02*Y-8750D01*
Y-7250D02*X100050Y-6500D01*
X101550D01*
X102300Y-7250D01*
X99300Y-8000D02*X102300D01*
Y-7250D02*Y-8000D01*
X104850Y-7250D02*Y-9500D01*
Y-7250D02*X105600Y-6500D01*
X107100D01*
X104100D02*X104850Y-7250D01*
X108900Y-3500D02*Y-8750D01*
X109650Y-9500D01*
G54D111*X111150Y-5000D02*Y-5150D01*
G54D110*Y-7250D02*Y-9500D01*
X113400Y-7250D02*Y-9500D01*
Y-7250D02*X114150Y-6500D01*
X114900D01*
X115650Y-7250D01*
Y-9500D01*
X112650Y-6500D02*X113400Y-7250D01*
X118200Y-9500D02*X120450D01*
X117450Y-8750D02*X118200Y-9500D01*
X117450Y-7250D02*Y-8750D01*
Y-7250D02*X118200Y-6500D01*
X119700D01*
X120450Y-7250D01*
X117450Y-8000D02*X120450D01*
Y-7250D02*Y-8000D01*
X124950Y-7250D02*Y-8750D01*
Y-7250D02*X125700Y-6500D01*
X127200D01*
X127950Y-7250D01*
Y-8750D01*
X127200Y-9500D02*X127950Y-8750D01*
X125700Y-9500D02*X127200D01*
X124950Y-8750D02*X125700Y-9500D01*
X130500Y-4250D02*Y-9500D01*
Y-4250D02*X131250Y-3500D01*
X132000D01*
X129750Y-6500D02*X131250D01*
X136950Y-3500D02*Y-8750D01*
X137700Y-9500D01*
X136200Y-5750D02*X137700D01*
X139200Y-3500D02*Y-9500D01*
Y-7250D02*X139950Y-6500D01*
X141450D01*
X142200Y-7250D01*
Y-9500D01*
G54D111*X144000Y-5000D02*Y-5150D01*
G54D110*Y-7250D02*Y-9500D01*
X146250D02*X148500D01*
X149250Y-8750D01*
X148500Y-8000D02*X149250Y-8750D01*
X146250Y-8000D02*X148500D01*
X145500Y-7250D02*X146250Y-8000D01*
X145500Y-7250D02*X146250Y-6500D01*
X148500D01*
X149250Y-7250D01*
X145500Y-8750D02*X146250Y-9500D01*
X153750Y-8750D02*X154500Y-9500D01*
X153750Y-7550D02*Y-8750D01*
Y-7550D02*X154800Y-6500D01*
X155700D01*
X156750Y-7550D01*
Y-8750D01*
X156000Y-9500D02*X156750Y-8750D01*
X154500Y-9500D02*X156000D01*
X153750Y-5450D02*X154800Y-6500D01*
X153750Y-4250D02*Y-5450D01*
Y-4250D02*X154500Y-3500D01*
X156000D01*
X156750Y-4250D01*
Y-5450D01*
X155700Y-6500D02*X156750Y-5450D01*
X158550Y-9500D02*X159300D01*
X161100Y-8750D02*X161850Y-9500D01*
X161100Y-4250D02*Y-8750D01*
Y-4250D02*X161850Y-3500D01*
X163350D01*
X164100Y-4250D01*
Y-8750D01*
X163350Y-9500D02*X164100Y-8750D01*
X161850Y-9500D02*X163350D01*
X161100Y-8000D02*X164100Y-5000D01*
X165900Y-8750D02*X166650Y-9500D01*
X165900Y-4250D02*Y-8750D01*
Y-4250D02*X166650Y-3500D01*
X168150D01*
X168900Y-4250D01*
Y-8750D01*
X168150Y-9500D02*X168900Y-8750D01*
X166650Y-9500D02*X168150D01*
X165900Y-8000D02*X168900Y-5000D01*
X170700Y-8750D02*X171450Y-9500D01*
X170700Y-4250D02*Y-8750D01*
Y-4250D02*X171450Y-3500D01*
X172950D01*
X173700Y-4250D01*
Y-8750D01*
X172950Y-9500D02*X173700Y-8750D01*
X171450Y-9500D02*X172950D01*
X170700Y-8000D02*X173700Y-5000D01*
X175500Y-8750D02*X176250Y-9500D01*
X175500Y-4250D02*Y-8750D01*
Y-4250D02*X176250Y-3500D01*
X177750D01*
X178500Y-4250D01*
Y-8750D01*
X177750Y-9500D02*X178500Y-8750D01*
X176250Y-9500D02*X177750D01*
X175500Y-8000D02*X178500Y-5000D01*
X180300Y-8750D02*X181050Y-9500D01*
X180300Y-4250D02*Y-8750D01*
Y-4250D02*X181050Y-3500D01*
X182550D01*
X183300Y-4250D01*
Y-8750D01*
X182550Y-9500D02*X183300Y-8750D01*
X181050Y-9500D02*X182550D01*
X180300Y-8000D02*X183300Y-5000D01*
X185100Y-8750D02*X185850Y-9500D01*
X185100Y-4250D02*Y-8750D01*
Y-4250D02*X185850Y-3500D01*
X187350D01*
X188100Y-4250D01*
Y-8750D01*
X187350Y-9500D02*X188100Y-8750D01*
X185850Y-9500D02*X187350D01*
X185100Y-8000D02*X188100Y-5000D01*
X193350Y-7250D02*Y-9500D01*
Y-7250D02*X194100Y-6500D01*
X194850D01*
X195600Y-7250D01*
Y-9500D01*
Y-7250D02*X196350Y-6500D01*
X197100D01*
X197850Y-7250D01*
Y-9500D01*
X192600Y-6500D02*X193350Y-7250D01*
G54D111*X199650Y-5000D02*Y-5150D01*
G54D110*Y-7250D02*Y-9500D01*
X201150Y-3500D02*Y-8750D01*
X201900Y-9500D01*
X206850Y-7250D02*Y-9500D01*
Y-7250D02*X207600Y-6500D01*
X209100D01*
X206100D02*X206850Y-7250D01*
X211650Y-9500D02*X213900D01*
X210900Y-8750D02*X211650Y-9500D01*
X210900Y-7250D02*Y-8750D01*
Y-7250D02*X211650Y-6500D01*
X213150D01*
X213900Y-7250D01*
X210900Y-8000D02*X213900D01*
Y-7250D02*Y-8000D01*
X216450Y-6500D02*X218700D01*
X215700Y-7250D02*X216450Y-6500D01*
X215700Y-7250D02*Y-8750D01*
X216450Y-9500D01*
X218700D01*
X221250Y-3500D02*Y-8750D01*
X222000Y-9500D01*
X220500Y-5750D02*X222000D01*
X225750Y-6500D02*X226500Y-7250D01*
X224250Y-6500D02*X225750D01*
X223500Y-7250D02*X224250Y-6500D01*
X223500Y-7250D02*Y-8750D01*
X224250Y-9500D01*
X226500Y-6500D02*Y-8750D01*
X227250Y-9500D01*
X224250D02*X225750D01*
X226500Y-8750D01*
X229800Y-7250D02*Y-9500D01*
Y-7250D02*X230550Y-6500D01*
X231300D01*
X232050Y-7250D01*
Y-9500D01*
X229050Y-6500D02*X229800Y-7250D01*
X236100Y-6500D02*X236850Y-7250D01*
X234600Y-6500D02*X236100D01*
X233850Y-7250D02*X234600Y-6500D01*
X233850Y-7250D02*Y-8750D01*
X234600Y-9500D01*
X236100D01*
X236850Y-8750D01*
X233850Y-11000D02*X234600Y-11750D01*
X236100D01*
X236850Y-11000D01*
Y-6500D02*Y-11000D01*
X238650Y-3500D02*Y-8750D01*
X239400Y-9500D01*
X241650D02*X243900D01*
X240900Y-8750D02*X241650Y-9500D01*
X240900Y-7250D02*Y-8750D01*
Y-7250D02*X241650Y-6500D01*
X243150D01*
X243900Y-7250D01*
X240900Y-8000D02*X243900D01*
Y-7250D02*Y-8000D01*
X248400Y-6500D02*X251400D01*
X255900Y-8750D02*X256650Y-9500D01*
X255900Y-4250D02*Y-8750D01*
Y-4250D02*X256650Y-3500D01*
X258150D01*
X258900Y-4250D01*
Y-8750D01*
X258150Y-9500D02*X258900Y-8750D01*
X256650Y-9500D02*X258150D01*
X255900Y-8000D02*X258900Y-5000D01*
X260700Y-11000D02*X262200Y-9500D01*
X264000Y-8750D02*X264750Y-9500D01*
X264000Y-4250D02*Y-8750D01*
Y-4250D02*X264750Y-3500D01*
X266250D01*
X267000Y-4250D01*
Y-8750D01*
X266250Y-9500D02*X267000Y-8750D01*
X264750Y-9500D02*X266250D01*
X264000Y-8000D02*X267000Y-5000D01*
X272250Y-3500D02*Y-8750D01*
X273000Y-9500D01*
X271500Y-5750D02*X273000D01*
X274500Y-7250D02*Y-8750D01*
Y-7250D02*X275250Y-6500D01*
X276750D01*
X277500Y-7250D01*
Y-8750D01*
X276750Y-9500D02*X277500Y-8750D01*
X275250Y-9500D02*X276750D01*
X274500Y-8750D02*X275250Y-9500D01*
X282000Y-4250D02*X282750Y-3500D01*
X284250D01*
X285000Y-4250D01*
X284250Y-9500D02*X285000Y-8750D01*
X282750Y-9500D02*X284250D01*
X282000Y-8750D02*X282750Y-9500D01*
Y-6200D02*X284250D01*
X285000Y-4250D02*Y-5450D01*
Y-6950D02*Y-8750D01*
Y-6950D02*X284250Y-6200D01*
X285000Y-5450D02*X284250Y-6200D01*
X287550Y-9500D02*X289800Y-6500D01*
Y-4250D02*Y-6500D01*
X289050Y-3500D02*X289800Y-4250D01*
X287550Y-3500D02*X289050D01*
X286800Y-4250D02*X287550Y-3500D01*
X286800Y-4250D02*Y-5750D01*
X287550Y-6500D01*
X289800D01*
X291600Y-4250D02*X292350Y-3500D01*
X293850D01*
X294600Y-4250D01*
X293850Y-9500D02*X294600Y-8750D01*
X292350Y-9500D02*X293850D01*
X291600Y-8750D02*X292350Y-9500D01*
Y-6200D02*X293850D01*
X294600Y-4250D02*Y-5450D01*
Y-6950D02*Y-8750D01*
Y-6950D02*X293850Y-6200D01*
X294600Y-5450D02*X293850Y-6200D01*
X297150Y-9500D02*X300150Y-3500D01*
X296400D02*X300150D01*
X301950Y-9500D02*X302700D01*
X304500Y-8750D02*X305250Y-9500D01*
X304500Y-4250D02*Y-8750D01*
Y-4250D02*X305250Y-3500D01*
X306750D01*
X307500Y-4250D01*
Y-8750D01*
X306750Y-9500D02*X307500Y-8750D01*
X305250Y-9500D02*X306750D01*
X304500Y-8000D02*X307500Y-5000D01*
X309300Y-4700D02*X310500Y-3500D01*
Y-9500D01*
X309300D02*X311550D01*
X313350Y-8750D02*X314100Y-9500D01*
X313350Y-4250D02*Y-8750D01*
Y-4250D02*X314100Y-3500D01*
X315600D01*
X316350Y-4250D01*
Y-8750D01*
X315600Y-9500D02*X316350Y-8750D01*
X314100Y-9500D02*X315600D01*
X313350Y-8000D02*X316350Y-5000D01*
X318150Y-8750D02*X318900Y-9500D01*
X318150Y-4250D02*Y-8750D01*
Y-4250D02*X318900Y-3500D01*
X320400D01*
X321150Y-4250D01*
Y-8750D01*
X320400Y-9500D02*X321150Y-8750D01*
X318900Y-9500D02*X320400D01*
X318150Y-8000D02*X321150Y-5000D01*
X322950Y-8750D02*X323700Y-9500D01*
X322950Y-4250D02*Y-8750D01*
Y-4250D02*X323700Y-3500D01*
X325200D01*
X325950Y-4250D01*
Y-8750D01*
X325200Y-9500D02*X325950Y-8750D01*
X323700Y-9500D02*X325200D01*
X322950Y-8000D02*X325950Y-5000D01*
X327750Y-8750D02*X328500Y-9500D01*
X327750Y-4250D02*Y-8750D01*
Y-4250D02*X328500Y-3500D01*
X330000D01*
X330750Y-4250D01*
Y-8750D01*
X330000Y-9500D02*X330750Y-8750D01*
X328500Y-9500D02*X330000D01*
X327750Y-8000D02*X330750Y-5000D01*
X332550Y-11000D02*X334050Y-9500D01*
X335850Y-4250D02*X336600Y-3500D01*
X338100D01*
X338850Y-4250D01*
X338100Y-9500D02*X338850Y-8750D01*
X336600Y-9500D02*X338100D01*
X335850Y-8750D02*X336600Y-9500D01*
Y-6200D02*X338100D01*
X338850Y-4250D02*Y-5450D01*
Y-6950D02*Y-8750D01*
Y-6950D02*X338100Y-6200D01*
X338850Y-5450D02*X338100Y-6200D01*
X341400Y-9500D02*X343650Y-6500D01*
Y-4250D02*Y-6500D01*
X342900Y-3500D02*X343650Y-4250D01*
X341400Y-3500D02*X342900D01*
X340650Y-4250D02*X341400Y-3500D01*
X340650Y-4250D02*Y-5750D01*
X341400Y-6500D01*
X343650D01*
X345450Y-4250D02*X346200Y-3500D01*
X347700D01*
X348450Y-4250D01*
X347700Y-9500D02*X348450Y-8750D01*
X346200Y-9500D02*X347700D01*
X345450Y-8750D02*X346200Y-9500D01*
Y-6200D02*X347700D01*
X348450Y-4250D02*Y-5450D01*
Y-6950D02*Y-8750D01*
Y-6950D02*X347700Y-6200D01*
X348450Y-5450D02*X347700Y-6200D01*
X351000Y-9500D02*X354000Y-3500D01*
X350250D02*X354000D01*
X355800Y-9500D02*X356550D01*
X358350Y-8750D02*X359100Y-9500D01*
X358350Y-4250D02*Y-8750D01*
Y-4250D02*X359100Y-3500D01*
X360600D01*
X361350Y-4250D01*
Y-8750D01*
X360600Y-9500D02*X361350Y-8750D01*
X359100Y-9500D02*X360600D01*
X358350Y-8000D02*X361350Y-5000D01*
X363150Y-4700D02*X364350Y-3500D01*
Y-9500D01*
X363150D02*X365400D01*
X367200Y-8750D02*X367950Y-9500D01*
X367200Y-4250D02*Y-8750D01*
Y-4250D02*X367950Y-3500D01*
X369450D01*
X370200Y-4250D01*
Y-8750D01*
X369450Y-9500D02*X370200Y-8750D01*
X367950Y-9500D02*X369450D01*
X367200Y-8000D02*X370200Y-5000D01*
X372000Y-8750D02*X372750Y-9500D01*
X372000Y-4250D02*Y-8750D01*
Y-4250D02*X372750Y-3500D01*
X374250D01*
X375000Y-4250D01*
Y-8750D01*
X374250Y-9500D02*X375000Y-8750D01*
X372750Y-9500D02*X374250D01*
X372000Y-8000D02*X375000Y-5000D01*
X376800Y-8750D02*X377550Y-9500D01*
X376800Y-4250D02*Y-8750D01*
Y-4250D02*X377550Y-3500D01*
X379050D01*
X379800Y-4250D01*
Y-8750D01*
X379050Y-9500D02*X379800Y-8750D01*
X377550Y-9500D02*X379050D01*
X376800Y-8000D02*X379800Y-5000D01*
X381600Y-8750D02*X382350Y-9500D01*
X381600Y-4250D02*Y-8750D01*
Y-4250D02*X382350Y-3500D01*
X383850D01*
X384600Y-4250D01*
Y-8750D01*
X383850Y-9500D02*X384600Y-8750D01*
X382350Y-9500D02*X383850D01*
X381600Y-8000D02*X384600Y-5000D01*
X389850Y-7250D02*Y-9500D01*
Y-7250D02*X390600Y-6500D01*
X391350D01*
X392100Y-7250D01*
Y-9500D01*
Y-7250D02*X392850Y-6500D01*
X393600D01*
X394350Y-7250D01*
Y-9500D01*
X389100Y-6500D02*X389850Y-7250D01*
G54D111*X396150Y-5000D02*Y-5150D01*
G54D110*Y-7250D02*Y-9500D01*
X397650Y-3500D02*Y-8750D01*
X398400Y-9500D01*
X400650D02*X402900D01*
X403650Y-8750D01*
X402900Y-8000D02*X403650Y-8750D01*
X400650Y-8000D02*X402900D01*
X399900Y-7250D02*X400650Y-8000D01*
X399900Y-7250D02*X400650Y-6500D01*
X402900D01*
X403650Y-7250D01*
X399900Y-8750D02*X400650Y-9500D01*
X200750Y422201D02*Y416201D01*
X202700Y422201D02*X203750Y421151D01*
Y417251D01*
X202700Y416201D02*X203750Y417251D01*
X200000Y416201D02*X202700D01*
X200000Y422201D02*X202700D01*
X207800Y419201D02*X208550Y418451D01*
X206300Y419201D02*X207800D01*
X205550Y418451D02*X206300Y419201D01*
X205550Y418451D02*Y416951D01*
X206300Y416201D01*
X208550Y419201D02*Y416951D01*
X209300Y416201D01*
X206300D02*X207800D01*
X208550Y416951D01*
X211850Y422201D02*Y416951D01*
X212600Y416201D01*
X211100Y419951D02*X212600D01*
X214850Y416201D02*X217100D01*
X214100Y416951D02*X214850Y416201D01*
X214100Y418451D02*Y416951D01*
Y418451D02*X214850Y419201D01*
X216350D01*
X217100Y418451D01*
X214100Y417701D02*X217100D01*
Y418451D02*Y417701D01*
X218900Y419951D02*X219650D01*
X218900Y418451D02*X219650D01*
X227150Y422201D02*X227900Y421451D01*
X224900Y422201D02*X227150D01*
X224150Y421451D02*X224900Y422201D01*
X224150Y421451D02*Y419951D01*
X224900Y419201D01*
X227150D01*
X227900Y418451D01*
Y416951D01*
X227150Y416201D02*X227900Y416951D01*
X224900Y416201D02*X227150D01*
X224150Y416951D02*X224900Y416201D01*
X231950Y419201D02*X232700Y418451D01*
X230450Y419201D02*X231950D01*
X229700Y418451D02*X230450Y419201D01*
X229700Y418451D02*Y416951D01*
X230450Y416201D01*
X232700Y419201D02*Y416951D01*
X233450Y416201D01*
X230450D02*X231950D01*
X232700Y416951D01*
X236000Y422201D02*Y416951D01*
X236750Y416201D01*
X235250Y419951D02*X236750D01*
X240950Y421451D02*X241700Y422201D01*
X243200D01*
X243950Y421451D01*
X243200Y416201D02*X243950Y416951D01*
X241700Y416201D02*X243200D01*
X240950Y416951D02*X241700Y416201D01*
Y419501D02*X243200D01*
X243950Y421451D02*Y420251D01*
Y418751D02*Y416951D01*
Y418751D02*X243200Y419501D01*
X243950Y420251D02*X243200Y419501D01*
X245750Y416951D02*X246500Y416201D01*
X245750Y421451D02*Y416951D01*
Y421451D02*X246500Y422201D01*
X248000D01*
X248750Y421451D01*
Y416951D01*
X248000Y416201D02*X248750Y416951D01*
X246500Y416201D02*X248000D01*
X245750Y417701D02*X248750Y420701D01*
X253250Y422201D02*Y416201D01*
Y422201D02*X257000Y416201D01*
Y422201D02*Y416201D01*
X258800Y418451D02*Y416951D01*
Y418451D02*X259550Y419201D01*
X261050D01*
X261800Y418451D01*
Y416951D01*
X261050Y416201D02*X261800Y416951D01*
X259550Y416201D02*X261050D01*
X258800Y416951D02*X259550Y416201D01*
X263600Y419201D02*X265100Y416201D01*
X266600Y419201D02*X265100Y416201D01*
X271100Y421451D02*X271850Y422201D01*
X274100D01*
X274850Y421451D01*
Y419951D01*
X271100Y416201D02*X274850Y419951D01*
X271100Y416201D02*X274850D01*
X276650Y416951D02*X277400Y416201D01*
X276650Y421451D02*Y416951D01*
Y421451D02*X277400Y422201D01*
X278900D01*
X279650Y421451D01*
Y416951D01*
X278900Y416201D02*X279650Y416951D01*
X277400Y416201D02*X278900D01*
X276650Y417701D02*X279650Y420701D01*
X281450Y421001D02*X282650Y422201D01*
Y416201D01*
X281450D02*X283700D01*
X285500Y421451D02*X286250Y422201D01*
X287750D01*
X288500Y421451D01*
X287750Y416201D02*X288500Y416951D01*
X286250Y416201D02*X287750D01*
X285500Y416951D02*X286250Y416201D01*
Y419501D02*X287750D01*
X288500Y421451D02*Y420251D01*
Y418751D02*Y416951D01*
Y418751D02*X287750Y419501D01*
X288500Y420251D02*X287750Y419501D01*
X293000Y416951D02*X293750Y416201D01*
X293000Y421451D02*Y416951D01*
Y421451D02*X293750Y422201D01*
X295250D01*
X296000Y421451D01*
Y416951D01*
X295250Y416201D02*X296000Y416951D01*
X293750Y416201D02*X295250D01*
X293000Y417701D02*X296000Y420701D01*
X297800Y421001D02*X299000Y422201D01*
Y416201D01*
X297800D02*X300050D01*
X301850Y419951D02*X302600D01*
X301850Y418451D02*X302600D01*
X304400Y421451D02*X305150Y422201D01*
X307400D01*
X308150Y421451D01*
Y419951D01*
X304400Y416201D02*X308150Y419951D01*
X304400Y416201D02*X308150D01*
X312200Y422201D02*X312950Y421451D01*
X310700Y422201D02*X312200D01*
X309950Y421451D02*X310700Y422201D01*
X309950Y421451D02*Y416951D01*
X310700Y416201D01*
X312200Y419501D02*X312950Y418751D01*
X309950Y419501D02*X312200D01*
X310700Y416201D02*X312200D01*
X312950Y416951D01*
Y418751D02*Y416951D01*
X314750Y419951D02*X315500D01*
X314750Y418451D02*X315500D01*
X317300Y421451D02*X318050Y422201D01*
X320300D01*
X321050Y421451D01*
Y419951D01*
X317300Y416201D02*X321050Y419951D01*
X317300Y416201D02*X321050D01*
X323600D02*X325850Y419201D01*
Y421451D02*Y419201D01*
X325100Y422201D02*X325850Y421451D01*
X323600Y422201D02*X325100D01*
X322850Y421451D02*X323600Y422201D01*
X322850Y421451D02*Y419951D01*
X323600Y419201D01*
X325850D01*
X333350Y422201D02*X334100Y421451D01*
X331100Y422201D02*X333350D01*
X330350Y421451D02*X331100Y422201D01*
X330350Y421451D02*Y416951D01*
X331100Y416201D01*
X333350D01*
X334100Y416951D01*
Y418451D02*Y416951D01*
X333350Y419201D02*X334100Y418451D01*
X331850Y419201D02*X333350D01*
X335900Y422201D02*Y416201D01*
Y422201D02*X338150Y419201D01*
X340400Y422201D01*
Y416201D01*
X342200Y422201D02*X345200D01*
X343700D02*Y416201D01*
X349700Y422201D02*Y416951D01*
X350450Y416201D01*
X351950D01*
X352700Y416951D01*
Y422201D02*Y416951D01*
X354500Y422201D02*X357500D01*
X356000D02*Y416201D01*
X360350D02*X362300D01*
X359300Y417251D02*X360350Y416201D01*
X359300Y421151D02*Y417251D01*
Y421151D02*X360350Y422201D01*
X362300D01*
X200000Y435701D02*Y431201D01*
Y435701D02*X201050Y437201D01*
X202700D01*
X203750Y435701D01*
Y431201D01*
X200000Y434201D02*X203750D01*
X205550D02*Y431951D01*
X206300Y431201D01*
X207800D01*
X208550Y431951D01*
Y434201D02*Y431951D01*
X211100Y437201D02*Y431951D01*
X211850Y431201D01*
X210350Y434951D02*X211850D01*
X213350Y437201D02*Y431201D01*
Y433451D02*X214100Y434201D01*
X215600D01*
X216350Y433451D01*
Y431201D01*
X218150Y433451D02*Y431951D01*
Y433451D02*X218900Y434201D01*
X220400D01*
X221150Y433451D01*
Y431951D01*
X220400Y431201D02*X221150Y431951D01*
X218900Y431201D02*X220400D01*
X218150Y431951D02*X218900Y431201D01*
X223700Y433451D02*Y431201D01*
Y433451D02*X224450Y434201D01*
X225950D01*
X222950D02*X223700Y433451D01*
X227750Y434951D02*X228500D01*
X227750Y433451D02*X228500D01*
X233000Y437201D02*Y431201D01*
Y434201D02*X236000Y437201D01*
X233000Y434201D02*X236000Y431201D01*
X238550D02*X240800D01*
X237800Y431951D02*X238550Y431201D01*
X237800Y433451D02*Y431951D01*
Y433451D02*X238550Y434201D01*
X240050D01*
X240800Y433451D01*
X237800Y432701D02*X240800D01*
Y433451D02*Y432701D01*
X243350Y433451D02*Y431201D01*
Y433451D02*X244100Y434201D01*
X244850D01*
X245600Y433451D01*
Y431201D01*
X242600Y434201D02*X243350Y433451D01*
X253100Y437201D02*X253850Y436451D01*
X250850Y437201D02*X253100D01*
X250100Y436451D02*X250850Y437201D01*
X250100Y436451D02*Y434951D01*
X250850Y434201D01*
X253100D01*
X253850Y433451D01*
Y431951D01*
X253100Y431201D02*X253850Y431951D01*
X250850Y431201D02*X253100D01*
X250100Y431951D02*X250850Y431201D01*
X257900Y434201D02*X258650Y433451D01*
X256400Y434201D02*X257900D01*
X255650Y433451D02*X256400Y434201D01*
X255650Y433451D02*Y431951D01*
X256400Y431201D01*
X258650Y434201D02*Y431951D01*
X259400Y431201D01*
X256400D02*X257900D01*
X258650Y431951D01*
X261950Y433451D02*Y431201D01*
Y433451D02*X262700Y434201D01*
X264200D01*
X261200D02*X261950Y433451D01*
X266000Y437201D02*Y431201D01*
Y433451D02*X268250Y431201D01*
X266000Y433451D02*X267500Y434951D01*
G54D111*X270050Y435701D02*Y435551D01*
G54D110*Y433451D02*Y431201D01*
X272300D02*X274550D01*
X271550Y431951D02*X272300Y431201D01*
X271550Y433451D02*Y431951D01*
Y433451D02*X272300Y434201D01*
X273800D01*
X274550Y433451D01*
X271550Y432701D02*X274550D01*
Y433451D02*Y432701D01*
X277100Y431201D02*X279350D01*
X280100Y431951D01*
X279350Y432701D02*X280100Y431951D01*
X277100Y432701D02*X279350D01*
X276350Y433451D02*X277100Y432701D01*
X276350Y433451D02*X277100Y434201D01*
X279350D01*
X280100Y433451D01*
X276350Y431951D02*X277100Y431201D01*
X200000Y452201D02*X203000D01*
X201500D02*Y446201D01*
G54D111*X204800Y450701D02*Y450551D01*
G54D110*Y448451D02*Y446201D01*
X207050Y452201D02*Y446951D01*
X207800Y446201D01*
X206300Y449951D02*X207800D01*
X209300Y452201D02*Y446951D01*
X210050Y446201D01*
X212300D02*X214550D01*
X211550Y446951D02*X212300Y446201D01*
X211550Y448451D02*Y446951D01*
Y448451D02*X212300Y449201D01*
X213800D01*
X214550Y448451D01*
X211550Y447701D02*X214550D01*
Y448451D02*Y447701D01*
X216350Y449951D02*X217100D01*
X216350Y448451D02*X217100D01*
X221600Y446951D02*X222350Y446201D01*
X221600Y451451D02*X222350Y452201D01*
X221600Y451451D02*Y446951D01*
X224150Y449201D02*Y446951D01*
X224900Y446201D01*
X226400D01*
X227150Y446951D01*
Y449201D02*Y446951D01*
X229700Y448451D02*Y446201D01*
Y448451D02*X230450Y449201D01*
X231200D01*
X231950Y448451D01*
Y446201D01*
X228950Y449201D02*X229700Y448451D01*
X233750Y452201D02*Y446201D01*
Y448451D02*X236000Y446201D01*
X233750Y448451D02*X235250Y449951D01*
X238550Y448451D02*Y446201D01*
Y448451D02*X239300Y449201D01*
X240050D01*
X240800Y448451D01*
Y446201D01*
X237800Y449201D02*X238550Y448451D01*
X242600D02*Y446951D01*
Y448451D02*X243350Y449201D01*
X244850D01*
X245600Y448451D01*
Y446951D01*
X244850Y446201D02*X245600Y446951D01*
X243350Y446201D02*X244850D01*
X242600Y446951D02*X243350Y446201D01*
X247400Y449201D02*Y446951D01*
X248150Y446201D01*
X248900D01*
X249650Y446951D01*
Y449201D02*Y446951D01*
X250400Y446201D01*
X251150D01*
X251900Y446951D01*
Y449201D02*Y446951D01*
X254450Y448451D02*Y446201D01*
Y448451D02*X255200Y449201D01*
X255950D01*
X256700Y448451D01*
Y446201D01*
X253700Y449201D02*X254450Y448451D01*
X258500Y452201D02*X259250Y451451D01*
Y446951D01*
X258500Y446201D02*X259250Y446951D01*
X263750Y449201D02*X266750D01*
X271250Y452201D02*Y446201D01*
Y452201D02*X274250D01*
X271250Y449501D02*X273500D01*
X278300Y449201D02*X279050Y448451D01*
X276800Y449201D02*X278300D01*
X276050Y448451D02*X276800Y449201D01*
X276050Y448451D02*Y446951D01*
X276800Y446201D01*
X279050Y449201D02*Y446951D01*
X279800Y446201D01*
X276800D02*X278300D01*
X279050Y446951D01*
X281600Y452201D02*Y446201D01*
Y446951D02*X282350Y446201D01*
X283850D01*
X284600Y446951D01*
Y448451D02*Y446951D01*
X283850Y449201D02*X284600Y448451D01*
X282350Y449201D02*X283850D01*
X281600Y448451D02*X282350Y449201D01*
X287150Y448451D02*Y446201D01*
Y448451D02*X287900Y449201D01*
X289400D01*
X286400D02*X287150Y448451D01*
G54D111*X291200Y450701D02*Y450551D01*
G54D110*Y448451D02*Y446201D01*
X293450Y449201D02*X295700D01*
X292700Y448451D02*X293450Y449201D01*
X292700Y448451D02*Y446951D01*
X293450Y446201D01*
X295700D01*
X299750Y449201D02*X300500Y448451D01*
X298250Y449201D02*X299750D01*
X297500Y448451D02*X298250Y449201D01*
X297500Y448451D02*Y446951D01*
X298250Y446201D01*
X300500Y449201D02*Y446951D01*
X301250Y446201D01*
X298250D02*X299750D01*
X300500Y446951D01*
X303800Y452201D02*Y446951D01*
X304550Y446201D01*
X303050Y449951D02*X304550D01*
G54D111*X306050Y450701D02*Y450551D01*
G54D110*Y448451D02*Y446201D01*
X307550Y448451D02*Y446951D01*
Y448451D02*X308300Y449201D01*
X309800D01*
X310550Y448451D01*
Y446951D01*
X309800Y446201D02*X310550Y446951D01*
X308300Y446201D02*X309800D01*
X307550Y446951D02*X308300Y446201D01*
X313100Y448451D02*Y446201D01*
Y448451D02*X313850Y449201D01*
X314600D01*
X315350Y448451D01*
Y446201D01*
X312350Y449201D02*X313100Y448451D01*
X320600Y452201D02*Y446201D01*
X322550Y452201D02*X323600Y451151D01*
Y447251D01*
X322550Y446201D02*X323600Y447251D01*
X319850Y446201D02*X322550D01*
X319850Y452201D02*X322550D01*
X326150Y448451D02*Y446201D01*
Y448451D02*X326900Y449201D01*
X328400D01*
X325400D02*X326150Y448451D01*
X332450Y449201D02*X333200Y448451D01*
X330950Y449201D02*X332450D01*
X330200Y448451D02*X330950Y449201D01*
X330200Y448451D02*Y446951D01*
X330950Y446201D01*
X333200Y449201D02*Y446951D01*
X333950Y446201D01*
X330950D02*X332450D01*
X333200Y446951D01*
X335750Y449201D02*Y446951D01*
X336500Y446201D01*
X337250D01*
X338000Y446951D01*
Y449201D02*Y446951D01*
X338750Y446201D01*
X339500D01*
X340250Y446951D01*
Y449201D02*Y446951D01*
G54D111*X342050Y450701D02*Y450551D01*
G54D110*Y448451D02*Y446201D01*
X344300Y448451D02*Y446201D01*
Y448451D02*X345050Y449201D01*
X345800D01*
X346550Y448451D01*
Y446201D01*
X343550Y449201D02*X344300Y448451D01*
X350600Y449201D02*X351350Y448451D01*
X349100Y449201D02*X350600D01*
X348350Y448451D02*X349100Y449201D01*
X348350Y448451D02*Y446951D01*
X349100Y446201D01*
X350600D01*
X351350Y446951D01*
X348350Y444701D02*X349100Y443951D01*
X350600D01*
X351350Y444701D01*
Y449201D02*Y444701D01*
M02*
