G04 start of page 5 for group -4063 idx -4063 *
G04 Title: (unknown), componentmask *
G04 Creator: pcb 20110918 *
G04 CreationDate: Sat 30 Nov 2013 01:26:29 GMT UTC *
G04 For: ksarkies *
G04 Format: Gerber/RS-274X *
G04 PCB-Dimensions: 393701 393701 *
G04 PCB-Coordinate-Origin: lower left *
%MOIN*%
%FSLAX25Y25*%
%LNTOPMASK*%
%ADD93R,0.2528X0.2528*%
%ADD92R,0.2578X0.2578*%
%ADD91R,0.0746X0.0746*%
%ADD90R,0.2478X0.2478*%
%ADD89C,0.0740*%
%ADD88C,0.0780*%
%ADD87C,0.0560*%
%ADD86C,0.0960*%
%ADD85C,0.0610*%
%ADD84C,0.0001*%
%ADD83C,0.0660*%
G54D83*X60648Y344963D03*
Y334963D03*
Y324963D03*
Y314963D03*
G54D84*G36*
X57348Y378263D02*Y371663D01*
X63948D01*
Y378263D01*
X57348D01*
G37*
G54D83*X60648Y364963D03*
Y354963D03*
Y304963D03*
Y294963D03*
G54D84*G36*
X72541Y287775D02*Y281675D01*
X78641D01*
Y287775D01*
X72541D01*
G37*
G54D85*X75591Y304725D03*
G54D83*X60648Y284963D03*
G54D84*G36*
X55455Y257405D02*Y247805D01*
X65055D01*
Y257405D01*
X55455D01*
G37*
G54D86*X50255Y242605D03*
X60255Y232605D03*
G54D84*G36*
X26955Y215905D02*Y209305D01*
X33555D01*
Y215905D01*
X26955D01*
G37*
G54D83*X30255Y202605D03*
G54D84*G36*
X26955Y175905D02*Y169305D01*
X33555D01*
Y175905D01*
X26955D01*
G37*
G54D83*X30255Y182605D03*
G54D84*G36*
X27205Y245655D02*Y239555D01*
X33305D01*
Y245655D01*
X27205D01*
G37*
G54D85*X30255Y262605D03*
G54D84*G36*
X55455Y197405D02*Y187805D01*
X65055D01*
Y197405D01*
X55455D01*
G37*
G54D86*X50255Y182605D03*
X60255Y172605D03*
G54D84*G36*
X28134Y298263D02*Y291663D01*
X34734D01*
Y298263D01*
X28134D01*
G37*
G54D83*X31434Y304963D03*
Y314963D03*
Y324963D03*
Y334963D03*
Y344963D03*
Y354963D03*
Y364963D03*
G54D84*G36*
X102258Y192728D02*Y187128D01*
X107858D01*
Y192728D01*
X102258D01*
G37*
G54D87*X135058Y189928D03*
G54D84*G36*
X118451Y218267D02*Y211667D01*
X125051D01*
Y218267D01*
X118451D01*
G37*
G36*
X75690Y225570D02*Y219470D01*
X81790D01*
Y225570D01*
X75690D01*
G37*
G54D85*X78740Y242520D03*
G54D84*G36*
X131989Y202263D02*Y196163D01*
X138089D01*
Y202263D01*
X131989D01*
G37*
G54D85*X135039Y219213D03*
G54D83*X91751Y374967D03*
Y364967D03*
Y354967D03*
Y344967D03*
Y334967D03*
Y324967D03*
Y314967D03*
Y304967D03*
Y284967D03*
Y274967D03*
Y264967D03*
Y254967D03*
Y244967D03*
Y234967D03*
Y224967D03*
Y214967D03*
G54D84*G36*
X225961Y47607D02*Y39807D01*
X233761D01*
Y47607D01*
X225961D01*
G37*
G54D88*X219861Y43707D03*
X209861D03*
G54D84*G36*
X197893Y32053D02*Y24653D01*
X205293D01*
Y32053D01*
X197893D01*
G37*
G54D89*X241593Y28353D03*
G54D84*G36*
X197658Y63155D02*Y55755D01*
X205058D01*
Y63155D01*
X197658D01*
G37*
G36*
X198052Y177487D02*Y170087D01*
X205452D01*
Y177487D01*
X198052D01*
G37*
G36*
X145565Y180917D02*Y175317D01*
X151165D01*
Y180917D01*
X145565D01*
G37*
G54D87*X178365Y178117D03*
G54D84*G36*
X145565Y200917D02*Y195317D01*
X151165D01*
Y200917D01*
X145565D01*
G37*
G54D87*X178365Y198117D03*
G54D89*X241752Y173787D03*
X241160Y142622D03*
G54D84*G36*
X197460Y146322D02*Y138922D01*
X204860D01*
Y146322D01*
X197460D01*
G37*
G54D87*X178365Y118117D03*
Y138117D03*
Y158117D03*
G54D84*G36*
X145565Y120917D02*Y115317D01*
X151165D01*
Y120917D01*
X145565D01*
G37*
G36*
Y140917D02*Y135317D01*
X151165D01*
Y140917D01*
X145565D01*
G37*
G36*
Y160917D02*Y155317D01*
X151165D01*
Y160917D01*
X145565D01*
G37*
G36*
X225961Y162410D02*Y154610D01*
X233761D01*
Y162410D01*
X225961D01*
G37*
G54D88*X219861Y158510D03*
X209861D03*
G54D89*X241358Y59455D03*
G54D84*G36*
X316398Y63155D02*Y55755D01*
X323798D01*
Y63155D01*
X316398D01*
G37*
G54D89*X360098Y59455D03*
G54D84*G36*
X257343Y63155D02*Y55755D01*
X264743D01*
Y63155D01*
X257343D01*
G37*
G54D89*X301043Y59455D03*
G54D84*G36*
X256713Y31659D02*Y24259D01*
X264113D01*
Y31659D01*
X256713D01*
G37*
G54D89*X300413Y27959D03*
G54D84*G36*
X315768Y31659D02*Y24259D01*
X323168D01*
Y31659D01*
X315768D01*
G37*
G54D89*X359468Y27959D03*
G54D84*G36*
X285017Y47607D02*Y39807D01*
X292817D01*
Y47607D01*
X285017D01*
G37*
G54D88*X278917Y43707D03*
X268917D03*
G54D84*G36*
X344072Y47607D02*Y39807D01*
X351872D01*
Y47607D01*
X344072D01*
G37*
G54D88*X337972Y43707D03*
X327972D03*
G54D84*G36*
X256713Y177958D02*Y170558D01*
X264113D01*
Y177958D01*
X256713D01*
G37*
G36*
Y146462D02*Y139062D01*
X264113D01*
Y146462D01*
X256713D01*
G37*
G54D89*X300413Y174258D03*
G54D84*G36*
X315768Y177958D02*Y170558D01*
X323168D01*
Y177958D01*
X315768D01*
G37*
G54D89*X359468Y174258D03*
G54D84*G36*
X344072Y162410D02*Y154610D01*
X351872D01*
Y162410D01*
X344072D01*
G37*
G54D88*X337972Y158510D03*
X327972D03*
G54D84*G36*
X315768Y146462D02*Y139062D01*
X323168D01*
Y146462D01*
X315768D01*
G37*
G54D89*X359468Y142762D03*
G54D84*G36*
X285017Y162410D02*Y154610D01*
X292817D01*
Y162410D01*
X285017D01*
G37*
G54D89*X300413Y142762D03*
G54D88*X278917Y158510D03*
X268917D03*
G54D84*G36*
X118451Y308267D02*Y301667D01*
X125051D01*
Y308267D01*
X118451D01*
G37*
G54D83*X121751Y314967D03*
Y324967D03*
Y334967D03*
Y344967D03*
Y354967D03*
Y364967D03*
Y374967D03*
G54D84*G36*
X297343Y319454D02*Y312054D01*
X304743D01*
Y319454D01*
X297343D01*
G37*
G54D89*X261043Y315754D03*
G54D84*G36*
X246889Y320472D02*Y313072D01*
X254289D01*
Y320472D01*
X246889D01*
G37*
G54D89*X210589Y316772D03*
G54D84*G36*
X177506Y317716D02*Y311116D01*
X184106D01*
Y317716D01*
X177506D01*
G37*
G54D83*X180806Y324416D03*
G54D84*G36*
X238287Y358431D02*Y351031D01*
X245687D01*
Y358431D01*
X238287D01*
G37*
G36*
X225961Y374379D02*Y366579D01*
X233761D01*
Y374379D01*
X225961D01*
G37*
G54D88*X219861Y370479D03*
X209861D03*
G54D83*X121751Y224967D03*
Y234967D03*
Y244967D03*
Y254967D03*
Y264967D03*
Y274967D03*
Y284967D03*
G54D84*G36*
X133958Y297617D02*Y291517D01*
X140058D01*
Y297617D01*
X133958D01*
G37*
G54D85*X137008Y314567D03*
G54D84*G36*
X177506Y227716D02*Y221116D01*
X184106D01*
Y227716D01*
X177506D01*
G37*
G54D83*X180806Y234416D03*
Y244416D03*
Y254416D03*
Y264416D03*
Y274416D03*
Y284416D03*
X150806D03*
Y274416D03*
Y264416D03*
Y254416D03*
Y244416D03*
Y234416D03*
Y224416D03*
G54D89*X201987Y354731D03*
G54D83*X180806Y334416D03*
Y344416D03*
Y354416D03*
Y364416D03*
Y374416D03*
X150806D03*
Y364416D03*
Y354416D03*
Y344416D03*
Y334416D03*
Y324416D03*
Y314416D03*
G54D89*X261043Y354731D03*
G54D84*G36*
X285017Y374379D02*Y366579D01*
X292817D01*
Y374379D01*
X285017D01*
G37*
G54D88*X278917Y370479D03*
X268917D03*
G54D84*G36*
X299550Y335909D02*Y326309D01*
X309150D01*
Y335909D01*
X299550D01*
G37*
G54D86*X314350Y321109D03*
G54D89*X320098Y315361D03*
G54D86*X324350Y331109D03*
G54D84*G36*
X297343Y358431D02*Y351031D01*
X304743D01*
Y358431D01*
X297343D01*
G37*
G36*
X356398D02*Y351031D01*
X363798D01*
Y358431D01*
X356398D01*
G37*
G54D89*X320098Y354731D03*
G54D84*G36*
X344072Y374379D02*Y366579D01*
X351872D01*
Y374379D01*
X344072D01*
G37*
G54D88*X337972Y370479D03*
X327972D03*
G54D84*G36*
X356398Y319061D02*Y311661D01*
X363798D01*
Y319061D01*
X356398D01*
G37*
G54D90*X220491Y223669D02*Y215795D01*
X279547Y223669D02*Y215795D01*
G54D91*X229546Y197684D02*Y190203D01*
X288602Y197684D02*Y190203D01*
X270492Y197684D02*Y190203D01*
X347657Y197684D02*Y190203D01*
X329547Y197684D02*Y190203D01*
X211436Y197684D02*Y190203D01*
G54D90*X338602Y223669D02*Y215795D01*
G54D92*X279547Y273824D02*Y265950D01*
G54D91*X270492Y299416D02*Y291935D01*
X288602Y299416D02*Y291935D01*
G54D90*X338602Y273824D02*Y265950D01*
G54D91*X329547Y299416D02*Y291935D01*
X347657Y299416D02*Y291935D01*
G54D93*X220491Y273824D02*Y265950D01*
G54D91*X211436Y299416D02*Y291935D01*
X229546Y299416D02*Y291935D01*
G54D90*X279547Y108866D02*Y100992D01*
G54D91*X288602Y82881D02*Y75400D01*
X270492Y82881D02*Y75400D01*
G54D90*X220491Y108866D02*Y100992D01*
G54D91*X229546Y82881D02*Y75400D01*
G54D90*X338602Y108866D02*Y100992D01*
G54D91*X347657Y82881D02*Y75400D01*
X329547Y82881D02*Y75400D01*
X211436Y82881D02*Y75400D01*
M02*
