M48
INCH
T82C0.121
T81C0.082
T80C0.042
T79C0.020
T78C0.038
T77C0.060
T76C0.030
T75C0.028
%
T79
X010506Y018993
X013506Y018993
X014836Y017812
X017836Y017812
X014836Y019812
X017836Y019812
X017836Y011812
X017836Y013812
X017836Y015812
X014836Y011812
X014836Y013812
X014836Y015812
T75
X006065Y034496
X006065Y033496
X006065Y032496
X006065Y031496
X006065Y037496
X006065Y036496
X006065Y035496
X006065Y030496
X006065Y029496
X006065Y028496
X012175Y021497
X009175Y037497
X009175Y036497
X009175Y035497
X009175Y034497
X009175Y033497
X009175Y032497
X009175Y031497
X009175Y030497
X009175Y028497
X009175Y027497
X009175Y026497
X009175Y025497
X009175Y024497
X009175Y023497
X009175Y022497
X009175Y021497
X012175Y030497
X012175Y031497
X012175Y032497
X012175Y033497
X012175Y034497
X012175Y035497
X012175Y036497
X012175Y037497
X018081Y031442
X018081Y032442
X012175Y022497
X012175Y023497
X012175Y024497
X012175Y025497
X012175Y026497
X012175Y027497
X012175Y028497
X018081Y022442
X018081Y023442
X018081Y024442
X018081Y025442
X018081Y026442
X018081Y027442
X018081Y028442
X015081Y028442
X015081Y027442
X015081Y026442
X015081Y025442
X015081Y024442
X015081Y023442
X015081Y022442
X018081Y033442
X018081Y034442
X018081Y035442
X018081Y036442
X018081Y037442
X015081Y037442
X015081Y036442
X015081Y035442
X015081Y034442
X015081Y033442
X015081Y032442
X015081Y031442
T76
X007559Y028472
X007559Y030472
X003026Y021260
X003026Y020260
X003026Y017260
X003026Y018260
X003026Y024260
X003026Y026260
X007874Y022252
X007874Y024252
X013504Y019921
X013504Y021921
X013701Y029457
X013701Y031457
T78
X003143Y029496
X003143Y030496
X003143Y031496
X003143Y032496
X003143Y033496
X003143Y034496
X003143Y035496
X003143Y036496
X020159Y002835
X024159Y002835
X020136Y005946
X020175Y017379
X024175Y017379
X024116Y014262
X020116Y014262
X024136Y005946
X032010Y005946
X036010Y005946
X026104Y005946
X030104Y005946
X026041Y002796
X030041Y002796
X031947Y002796
X035947Y002796
X026041Y017426
X026041Y014276
X030041Y017426
X031947Y017426
X035947Y017426
X031947Y014276
X035947Y014276
X030041Y014276
X030104Y031575
X026104Y031575
X025059Y031677
X021059Y031677
X024199Y035473
X020199Y035473
X026104Y035473
X032010Y031536
X030104Y035473
X036010Y035473
X032010Y035473
X036010Y031536
T80
X022986Y004371
X021986Y004371
X020986Y004371
X022986Y015851
X021986Y015851
X020986Y015851
X028892Y004371
X027892Y004371
X026892Y004371
X034797Y004371
X033797Y004371
X032797Y004371
X034797Y015851
X033797Y015851
X032797Y015851
X028892Y015851
X027892Y015851
X026892Y015851
X022986Y037048
X021986Y037048
X020986Y037048
X028892Y037048
X027892Y037048
X026892Y037048
X034797Y037048
X033797Y037048
X032797Y037048
T77
X006026Y025260
X005026Y024260
X006026Y023260
X006026Y019260
X005026Y018260
X006026Y017260
X030435Y033111
X031435Y032111
X032435Y033111
T81
X024916Y007301
X024923Y008583
X018543Y005236
X036757Y007434
X036746Y008638
X036667Y012568
X030829Y007360
X030807Y008563
X030811Y027541
X024995Y027462
X036628Y024082
X036588Y027541
X036628Y033043
X030709Y018799
X030709Y020059
X024803Y018799
X024803Y020059
X036614Y018799
X036614Y020059
T82
X037877Y001576
X001673Y001584
X037877Y037797
X001656Y037797
M30
