G04 start of page 3 for group 1 idx 1 *
G04 Title: (unknown), ground *
G04 Creator: pcb 20110918 *
G04 CreationDate: Sat 30 Nov 2013 01:26:29 GMT UTC *
G04 For: ksarkies *
G04 Format: Gerber/RS-274X *
G04 PCB-Dimensions: 393701 393701 *
G04 PCB-Coordinate-Origin: lower left *
%MOIN*%
%FSLAX25Y25*%
%LNBOTTOM*%
%ADD74C,0.0420*%
%ADD73C,0.0200*%
%ADD72C,0.0380*%
%ADD71C,0.0300*%
%ADD70C,0.0280*%
%ADD69C,0.1215*%
%ADD68C,0.0815*%
%ADD67C,0.1691*%
%ADD66C,0.0680*%
%ADD65C,0.0720*%
%ADD64C,0.0500*%
%ADD63C,0.0900*%
%ADD62C,0.0550*%
%ADD61C,0.0001*%
%ADD60C,0.0600*%
%ADD59C,0.0247*%
%ADD58C,0.0147*%
%ADD57C,0.0647*%
%ADD56C,0.0747*%
%ADD55C,0.0697*%
%ADD54C,0.0597*%
%ADD53C,0.0397*%
%ADD52C,0.0297*%
%ADD51C,0.0347*%
%ADD50C,0.0197*%
G54D50*X151305Y25853D02*X165846Y11312D01*
X151305Y111527D02*Y25853D01*
G54D51*X186239Y68510D02*X178365Y76384D01*
G54D50*X179547Y27959D02*X172461Y35045D01*
X166677Y17053D02*X156558Y27172D01*
X302821Y11312D02*X319468Y27959D01*
X342696Y28604D02*X358823D01*
X337972Y33328D02*X342696Y28604D01*
X299879Y27425D02*X300413Y27959D01*
X285318Y27425D02*X299879D01*
X278917Y43707D02*Y33826D01*
X165846Y11312D02*X302821D01*
X278917Y33826D02*X285318Y27425D01*
X241451Y28211D02*X241593Y28353D01*
X225975Y28211D02*X241451D01*
X249507Y17053D02*X166677D01*
X249661Y17207D02*X260413Y27959D01*
X219861Y34325D02*X225975Y28211D01*
X219861Y43707D02*Y34325D01*
X201358Y27959D02*X179547D01*
X261043Y51581D02*X268917Y43707D01*
X201358Y52210D02*X209861Y43707D01*
G54D51*X292539Y59455D02*X253956Y98038D01*
G54D52*X301043Y59455D02*X292539D01*
G54D51*X232696Y68510D02*X186239D01*
X241358Y59849D02*X232696Y68510D01*
G54D50*X241358Y59455D02*Y59849D01*
X261043Y59455D02*Y51581D01*
X201358Y59455D02*Y52210D01*
G54D51*X178365Y118117D02*Y76384D01*
G54D50*X156558Y168103D02*Y27053D01*
X156798Y168103D02*X156558D01*
X143052Y111527D02*X151305D01*
X143052Y152792D02*Y111527D01*
X142659Y153185D02*X143052Y152792D01*
G54D51*X148365Y158117D02*Y138117D01*
Y118117D01*
G54D50*X156558Y168103D02*X143881D01*
X84802Y267941D02*X58950D01*
G54D53*X91751Y244967D02*Y234967D01*
X97470Y244967D02*X91751D01*
G54D51*X38394Y262605D02*X30255D01*
G54D50*X91751Y214967D02*X84802D01*
Y214574D01*
G54D53*X91751Y234967D02*Y224967D01*
G54D50*X160737Y333965D02*Y214100D01*
X150806Y284186D02*X143985D01*
X150806Y284416D02*Y284186D01*
G54D51*Y314416D02*X156542D01*
G54D50*X156693Y314567D01*
G54D51*Y230303D01*
G54D50*X166008Y354809D02*X166401Y208703D01*
X160286Y334416D02*X160737Y333965D01*
X150806Y334416D02*X160286D01*
X143526Y379170D02*Y284186D01*
X150806Y374416D02*Y374753D01*
X149886D01*
G54D51*X38532Y262211D02*Y212605D01*
G54D50*X38857D02*X38532D01*
G54D54*X45981Y246879D02*X50255Y242605D01*
G54D55*Y217605D01*
G54D56*Y202605D02*X30255D01*
G54D51*X50255Y172605D02*X30255D01*
X38532Y212605D02*X30255D01*
G54D57*X60255Y192605D02*X50255D01*
G54D50*Y217605D02*Y202605D01*
G54D51*Y182605D02*Y172605D01*
G54D55*Y217605D02*Y202605D01*
G54D57*Y192605D01*
G54D53*X121751Y304967D02*Y284967D01*
G54D50*X115588Y349558D02*Y234967D01*
G54D53*X128700Y374967D02*X129093Y305337D01*
G54D50*X109868Y319558D02*Y224967D01*
G54D53*X91751Y314967D02*Y315114D01*
G54D52*X84802Y304883D02*Y214967D01*
G54D53*X91751Y315114D02*X92633D01*
G54D51*X91751Y314548D02*X74784D01*
X69291Y309055D01*
Y291024D01*
X75591Y284725D01*
G54D50*X60648Y354963D02*X60255D01*
G54D51*X98645Y315000D02*Y245261D01*
G54D53*X128889Y305199D02*X122144Y305010D01*
X121751Y304967D02*Y305010D01*
X122144D01*
X137008Y294173D02*Y302615D01*
X129064Y310560D01*
G54D50*X51483Y365798D02*X60648Y374963D01*
X51483Y275408D02*Y365798D01*
X58950Y267941D02*X51483Y275408D01*
G54D57*X45981Y310778D02*Y246879D01*
X41796Y314963D02*X45981Y310778D01*
X31434Y314963D02*X41796D01*
G54D50*X60255Y354963D02*Y349951D01*
X170687Y374725D02*X149886Y374753D01*
G54D53*X128700Y374837D02*X121751Y374967D01*
G54D50*X166008Y354401D02*X150806Y354416D01*
X196063Y349213D02*X180806Y364416D01*
X202026Y378980D02*Y354731D01*
X201744Y379588D02*X143772Y379601D01*
X201987Y354731D02*X202026D01*
X335846Y340401D02*X358917Y317330D01*
X318523Y340558D02*X335373Y340479D01*
X352249Y354418D02*X338912Y368598D01*
X360098Y354731D02*X352121Y354637D01*
X327972Y370479D02*X320098D01*
X268917Y347487D02*X301043Y315361D01*
X304350Y331109D02*Y330373D01*
X268917Y370479D02*Y347487D01*
X291726Y354437D02*X279946Y367687D01*
X301043Y354731D02*X291657Y354761D01*
X312224Y346463D02*X318129Y340558D01*
X312224Y362605D02*Y346463D01*
X320098Y370479D02*X312224Y362605D01*
X209861Y355934D02*X250400Y315395D01*
X209861Y370479D02*Y355934D01*
X234231Y354501D02*X218483Y370249D01*
X240765Y354449D02*X234387D01*
G54D53*X98645Y315000D02*X92633Y315114D01*
G54D51*X98645Y315261D02*Y315000D01*
G54D58*X109868Y319951D02*X81658Y319817D01*
X115634Y349824D02*X60255Y349951D01*
G54D50*X81744Y344963D02*X81658Y319951D01*
X81744Y344963D02*X60648D01*
G54D52*X91751Y304967D02*X75591Y304725D01*
G54D59*X84802Y304883D03*
G54D50*X192177Y138714D02*X194142Y136749D01*
X192177Y139430D02*Y138714D01*
X187853Y135107D02*X192177Y130784D01*
G54D51*X183924Y130391D02*X191391Y122924D01*
G54D50*X195974Y147683D02*X201160Y142622D01*
G54D51*X185889Y101182D02*X189033Y98038D01*
X185889Y120173D02*Y101182D01*
X178365Y127697D02*X185889Y120173D01*
G54D50*X191391Y103548D02*X192177Y102762D01*
G54D51*X307893D02*X191391Y102881D01*
Y122924D02*Y103548D01*
X178365Y138117D02*Y127697D01*
X183924Y141395D02*Y130391D01*
X178365Y146954D02*X183924Y141395D01*
G54D50*X306299Y130709D02*X192177Y130784D01*
X260413Y142762D02*X257013Y136749D01*
X194184D01*
G54D51*X253956Y98038D02*X188995D01*
G54D50*X359280Y142574D02*X359468Y142762D01*
X358823Y28604D02*X359468Y27959D01*
X343089Y142574D02*X359280D01*
X319468Y142762D02*X305906Y130709D01*
X337972Y147691D02*X343089Y142574D01*
X319468Y167014D02*X327972Y158510D01*
X319468Y174258D02*Y167014D01*
X337972Y158510D02*Y147691D01*
Y43707D02*Y33328D01*
G54D51*X351200Y59455D02*X307893Y102762D01*
G54D50*X320098Y51581D02*X327972Y43707D01*
X320098Y59455D02*Y51581D01*
G54D51*X360098Y59455D02*X351200D01*
G54D50*X299832Y142181D02*X300413Y142762D01*
X284925Y142181D02*X299832D01*
X278917Y148189D02*X284925Y142181D01*
X278917Y158510D02*Y148189D01*
X219861Y149081D02*X226761Y142181D01*
X219861Y158510D02*Y149081D01*
X240719Y142181D02*X241160Y142622D01*
X226761Y142181D02*X240719D01*
X260413Y167014D02*X268917Y158510D01*
X260413Y174258D02*Y167014D01*
X201987Y166384D02*X209861Y158510D01*
X201987Y174258D02*Y166384D01*
X127332Y153185D02*X142659D01*
G54D51*X148365Y158117D02*X135058D01*
G54D50*X127332Y194439D02*Y153185D01*
G54D51*X135058Y189928D02*Y158117D01*
G54D50*X140694Y214100D02*X140301Y213707D01*
G54D51*X178365Y158117D02*Y146954D01*
X148365Y198117D02*Y178117D01*
G54D50*X143838Y208991D02*Y168103D01*
X140301Y194439D02*X127332D01*
X140301Y213707D02*Y194439D01*
X121751Y224967D02*X109868D01*
X121751Y234967D02*X115588D01*
Y234574D01*
X109868Y224967D02*Y224574D01*
X160737Y214100D02*X140694D01*
X166479Y208760D02*X143935Y208991D01*
X170888Y374023D02*X171785Y35722D01*
X187678Y324023D02*X187853Y135107D01*
X187677Y324410D02*X180806Y324416D01*
X192219Y332999D02*X192177Y139430D01*
X192218Y333465D02*X180806Y344416D01*
X196063Y349213D02*X195974Y147517D01*
G54D51*X156693Y230303D02*X150806Y224416D01*
G54D60*X60648Y344963D03*
Y334963D03*
Y324963D03*
Y314963D03*
G54D61*G36*
X57648Y377963D02*Y371963D01*
X63648D01*
Y377963D01*
X57648D01*
G37*
G54D60*X60648Y364963D03*
Y354963D03*
Y304963D03*
Y294963D03*
G54D61*G36*
X72841Y287475D02*Y281975D01*
X78341D01*
Y287475D01*
X72841D01*
G37*
G54D62*X75591Y304725D03*
G54D60*X60648Y284963D03*
G54D61*G36*
X55755Y257105D02*Y248105D01*
X64755D01*
Y257105D01*
X55755D01*
G37*
G54D63*X50255Y242605D03*
X60255Y232605D03*
G54D61*G36*
X27255Y215605D02*Y209605D01*
X33255D01*
Y215605D01*
X27255D01*
G37*
G54D60*X30255Y202605D03*
G54D61*G36*
X27255Y175605D02*Y169605D01*
X33255D01*
Y175605D01*
X27255D01*
G37*
G54D60*X30255Y182605D03*
G54D61*G36*
X27505Y245355D02*Y239855D01*
X33005D01*
Y245355D01*
X27505D01*
G37*
G54D62*X30255Y262605D03*
G54D61*G36*
X55755Y197105D02*Y188105D01*
X64755D01*
Y197105D01*
X55755D01*
G37*
G54D63*X50255Y182605D03*
X60255Y172605D03*
G54D61*G36*
X28434Y297963D02*Y291963D01*
X34434D01*
Y297963D01*
X28434D01*
G37*
G54D60*X31434Y304963D03*
Y314963D03*
Y324963D03*
Y334963D03*
Y344963D03*
Y354963D03*
Y364963D03*
G54D61*G36*
X102558Y192428D02*Y187428D01*
X107558D01*
Y192428D01*
X102558D01*
G37*
G54D64*X135058Y189928D03*
G54D61*G36*
X118751Y217967D02*Y211967D01*
X124751D01*
Y217967D01*
X118751D01*
G37*
G36*
X75990Y225270D02*Y219770D01*
X81490D01*
Y225270D01*
X75990D01*
G37*
G54D62*X78740Y242520D03*
G54D61*G36*
X132289Y201963D02*Y196463D01*
X137789D01*
Y201963D01*
X132289D01*
G37*
G54D62*X135039Y219213D03*
G54D60*X91751Y374967D03*
Y364967D03*
Y354967D03*
Y344967D03*
Y334967D03*
Y324967D03*
Y314967D03*
Y304967D03*
Y284967D03*
Y274967D03*
Y264967D03*
Y254967D03*
Y244967D03*
Y234967D03*
Y224967D03*
Y214967D03*
G54D61*G36*
X226261Y47307D02*Y40107D01*
X233461D01*
Y47307D01*
X226261D01*
G37*
G54D65*X219861Y43707D03*
X209861D03*
G54D61*G36*
X198193Y31753D02*Y24953D01*
X204993D01*
Y31753D01*
X198193D01*
G37*
G54D66*X241593Y28353D03*
G54D61*G36*
X197958Y62855D02*Y56055D01*
X204758D01*
Y62855D01*
X197958D01*
G37*
G36*
X198352Y177187D02*Y170387D01*
X205152D01*
Y177187D01*
X198352D01*
G37*
G36*
X145865Y180617D02*Y175617D01*
X150865D01*
Y180617D01*
X145865D01*
G37*
G54D64*X178365Y178117D03*
G54D61*G36*
X145865Y200617D02*Y195617D01*
X150865D01*
Y200617D01*
X145865D01*
G37*
G54D64*X178365Y198117D03*
G54D66*X241752Y173787D03*
X241160Y142622D03*
G54D61*G36*
X197760Y146022D02*Y139222D01*
X204560D01*
Y146022D01*
X197760D01*
G37*
G54D64*X178365Y118117D03*
Y138117D03*
Y158117D03*
G54D61*G36*
X145865Y120617D02*Y115617D01*
X150865D01*
Y120617D01*
X145865D01*
G37*
G36*
Y140617D02*Y135617D01*
X150865D01*
Y140617D01*
X145865D01*
G37*
G36*
Y160617D02*Y155617D01*
X150865D01*
Y160617D01*
X145865D01*
G37*
G36*
X226261Y162110D02*Y154910D01*
X233461D01*
Y162110D01*
X226261D01*
G37*
G54D65*X219861Y158510D03*
X209861D03*
G54D66*X241358Y59455D03*
G54D61*G36*
X316698Y62855D02*Y56055D01*
X323498D01*
Y62855D01*
X316698D01*
G37*
G54D66*X360098Y59455D03*
G54D61*G36*
X257643Y62855D02*Y56055D01*
X264443D01*
Y62855D01*
X257643D01*
G37*
G54D66*X301043Y59455D03*
G54D61*G36*
X257013Y31359D02*Y24559D01*
X263813D01*
Y31359D01*
X257013D01*
G37*
G54D66*X300413Y27959D03*
G54D61*G36*
X316068Y31359D02*Y24559D01*
X322868D01*
Y31359D01*
X316068D01*
G37*
G54D66*X359468Y27959D03*
G54D61*G36*
X285317Y47307D02*Y40107D01*
X292517D01*
Y47307D01*
X285317D01*
G37*
G54D65*X278917Y43707D03*
X268917D03*
G54D61*G36*
X344372Y47307D02*Y40107D01*
X351572D01*
Y47307D01*
X344372D01*
G37*
G54D65*X337972Y43707D03*
X327972D03*
G54D61*G36*
X257013Y177658D02*Y170858D01*
X263813D01*
Y177658D01*
X257013D01*
G37*
G36*
Y146162D02*Y139362D01*
X263813D01*
Y146162D01*
X257013D01*
G37*
G54D66*X300413Y174258D03*
G54D61*G36*
X316068Y177658D02*Y170858D01*
X322868D01*
Y177658D01*
X316068D01*
G37*
G54D66*X359468Y174258D03*
G54D61*G36*
X344372Y162110D02*Y154910D01*
X351572D01*
Y162110D01*
X344372D01*
G37*
G54D65*X337972Y158510D03*
X327972D03*
G54D61*G36*
X316068Y146162D02*Y139362D01*
X322868D01*
Y146162D01*
X316068D01*
G37*
G54D66*X359468Y142762D03*
G54D61*G36*
X285317Y162110D02*Y154910D01*
X292517D01*
Y162110D01*
X285317D01*
G37*
G54D66*X300413Y142762D03*
G54D65*X278917Y158510D03*
X268917D03*
G54D61*G36*
X118751Y307967D02*Y301967D01*
X124751D01*
Y307967D01*
X118751D01*
G37*
G54D60*X121751Y314967D03*
Y324967D03*
Y334967D03*
Y344967D03*
Y354967D03*
Y364967D03*
Y374967D03*
G54D61*G36*
X297643Y319154D02*Y312354D01*
X304443D01*
Y319154D01*
X297643D01*
G37*
G54D66*X261043Y315754D03*
G54D61*G36*
X247189Y320172D02*Y313372D01*
X253989D01*
Y320172D01*
X247189D01*
G37*
G54D66*X210589Y316772D03*
G54D61*G36*
X177806Y317416D02*Y311416D01*
X183806D01*
Y317416D01*
X177806D01*
G37*
G54D60*X180806Y324416D03*
G54D61*G36*
X238587Y358131D02*Y351331D01*
X245387D01*
Y358131D01*
X238587D01*
G37*
G36*
X226261Y374079D02*Y366879D01*
X233461D01*
Y374079D01*
X226261D01*
G37*
G54D65*X219861Y370479D03*
X209861D03*
G54D60*X121751Y224967D03*
Y234967D03*
Y244967D03*
Y254967D03*
Y264967D03*
Y274967D03*
Y284967D03*
G54D61*G36*
X134258Y297317D02*Y291817D01*
X139758D01*
Y297317D01*
X134258D01*
G37*
G54D62*X137008Y314567D03*
G54D61*G36*
X177806Y227416D02*Y221416D01*
X183806D01*
Y227416D01*
X177806D01*
G37*
G54D60*X180806Y234416D03*
Y244416D03*
Y254416D03*
Y264416D03*
Y274416D03*
Y284416D03*
X150806D03*
Y274416D03*
Y264416D03*
Y254416D03*
Y244416D03*
Y234416D03*
Y224416D03*
G54D66*X201987Y354731D03*
G54D60*X180806Y334416D03*
Y344416D03*
Y354416D03*
Y364416D03*
Y374416D03*
X150806D03*
Y364416D03*
Y354416D03*
Y344416D03*
Y334416D03*
Y324416D03*
Y314416D03*
G54D66*X261043Y354731D03*
G54D61*G36*
X285317Y374079D02*Y366879D01*
X292517D01*
Y374079D01*
X285317D01*
G37*
G54D65*X278917Y370479D03*
X268917D03*
G54D61*G36*
X299850Y335609D02*Y326609D01*
X308850D01*
Y335609D01*
X299850D01*
G37*
G54D63*X314350Y321109D03*
G54D66*X320098Y315361D03*
G54D63*X324350Y331109D03*
G54D61*G36*
X297643Y358131D02*Y351331D01*
X304443D01*
Y358131D01*
X297643D01*
G37*
G36*
X356698D02*Y351331D01*
X363498D01*
Y358131D01*
X356698D01*
G37*
G54D66*X320098Y354731D03*
G54D61*G36*
X344372Y374079D02*Y366879D01*
X351572D01*
Y374079D01*
X344372D01*
G37*
G54D65*X337972Y370479D03*
X327972D03*
G54D61*G36*
X356698Y318761D02*Y311961D01*
X363498D01*
Y318761D01*
X356698D01*
G37*
G54D67*X249162Y73013D03*
X249232Y85833D03*
X185433Y52362D03*
X367569Y74341D03*
X367455Y86375D03*
X366669Y125675D03*
X378767Y15762D03*
X308290Y73595D03*
X308071Y85630D03*
X16728Y15845D03*
X308112Y275408D03*
X249948Y274622D03*
X366276Y240824D03*
X365883Y275408D03*
X366276Y330428D03*
X378767Y377967D03*
X16562D03*
X307087Y187992D03*
Y200591D03*
X248031Y187992D03*
Y200590D03*
X366142Y187992D03*
Y200591D03*
G54D68*G54D69*G54D68*G54D69*G54D68*G54D69*G54D68*G54D70*G54D71*G54D70*G54D60*G54D71*G54D60*G54D72*G54D73*G54D70*G54D71*G54D70*G54D74*G54D72*G54D73*G54D72*G54D73*G54D74*G54D72*G54D74*G54D72*G54D74*G54D72*G54D74*G54D72*G54D74*G54D70*G54D72*G54D70*G54D72*G54D74*G54D70*G54D71*G54D70*G54D72*G54D70*G54D72*G54D74*G54D60*G54D72*G54D60*G54D72*G54D74*G54D72*M02*
