G04 start of page 7 for group -4079 idx -4079 *
G04 Title: (unknown), topsilk *
G04 Creator: pcb 20110918 *
G04 CreationDate: Sat 30 Nov 2013 01:26:29 GMT UTC *
G04 For: ksarkies *
G04 Format: Gerber/RS-274X *
G04 PCB-Dimensions: 393701 393701 *
G04 PCB-Coordinate-Origin: lower left *
%MOIN*%
%FSLAX25Y25*%
%LNTOPSILK*%
%ADD103C,0.0300*%
%ADD102C,0.0100*%
%ADD101C,0.0200*%
G54D101*X55648Y374963D02*Y284963D01*
X65648Y374963D02*Y284963D01*
G54D102*X55648Y369963D02*X65648D01*
G54D101*Y374963D02*G75*G03X55648Y374963I-5000J0D01*G01*
Y284963D02*G75*G03X65648Y284963I5000J0D01*G01*
G54D102*X126751Y379967D02*Y299967D01*
X86751Y379967D02*X126751D01*
X86751D02*Y299967D01*
X111751D02*X126751D01*
X86751D02*X101751D01*
X111751D02*G75*G03X101751Y299967I-5000J0D01*G01*
X36434Y369963D02*Y289963D01*
X26434Y369963D02*X36434D01*
X26434D02*Y289963D01*
X36434D01*
X26434Y299963D02*X36434D01*
X26434D02*Y289963D01*
X75591Y289725D02*Y284725D01*
Y304725D02*Y299725D01*
X73991D02*Y289725D01*
Y299725D02*X77191D01*
Y289725D01*
X73991D02*X77191D01*
X30255Y217605D02*G75*G03X30255Y217605I0J-10000D01*G01*
Y167605D02*G75*G03X30255Y167605I0J10000D01*G01*
G54D101*X72255Y202605D02*Y162605D01*
X54255D02*X72255D01*
X54255Y202605D02*Y162605D01*
Y202605D02*X72255D01*
Y162605D01*
X66255D02*X72255D01*
X66255Y202605D02*Y162605D01*
Y202605D02*X72255D01*
G54D102*X66255Y189605D02*X72255D01*
X66255Y175605D02*X72255D01*
G54D103*X50255Y182605D02*X54255D01*
G54D102*X30255Y247605D02*Y242605D01*
Y262605D02*Y257605D01*
X28655D02*Y247605D01*
Y257605D02*X31855D01*
Y247605D01*
X28655D02*X31855D01*
G54D101*X72255Y262605D02*Y222605D01*
X54255D02*X72255D01*
X54255Y262605D02*Y222605D01*
Y262605D02*X72255D01*
Y222605D01*
X66255D02*X72255D01*
X66255Y262605D02*Y222605D01*
Y262605D02*X72255D01*
G54D102*X66255Y249605D02*X72255D01*
X66255Y235605D02*X72255D01*
G54D103*X50255Y242605D02*X54255D01*
G54D102*X126751Y289967D02*Y209967D01*
X86751Y289967D02*X126751D01*
X86751D02*Y209967D01*
X111751D02*X126751D01*
X86751D02*X101751D01*
X111751D02*G75*G03X101751Y209967I-5000J0D01*G01*
X78740Y227520D02*Y222520D01*
Y242520D02*Y237520D01*
X77140D02*Y227520D01*
Y237520D02*X80340D01*
Y227520D01*
X77140D02*X80340D01*
X212861Y50707D02*X226861D01*
X212790Y50778D02*G75*G03X226932Y50778I7071J-7071D01*G01*
G54D101*X211593Y33353D02*X231593D01*
Y23353D01*
X211593D02*X231593D01*
X211593Y33353D02*Y23353D01*
X201593Y28353D02*X211593D01*
X231593D02*X241593D01*
X211358Y64455D02*X231358D01*
Y54455D01*
X211358D02*X231358D01*
X211358Y64455D02*Y54455D01*
X201358Y59455D02*X211358D01*
X231358D02*X241358D01*
G54D102*X207696Y88196D02*X233286D01*
X225413D02*Y71464D01*
X233287D01*
Y88195D02*X233286Y88196D01*
X207696Y71464D02*X215570D01*
Y88196D02*Y71464D01*
X207696Y121661D02*Y71464D01*
X233287Y121660D02*Y71464D01*
Y121660D02*X233286Y121661D01*
X207696D02*X233286D01*
X148365Y178117D02*X158365D01*
X168365D02*X178365D01*
X158365D02*X168365Y183117D01*
Y173117D01*
X158365Y178117D01*
Y183117D02*Y173117D01*
X148365Y118117D02*X158365D01*
X168365D02*X178365D01*
X158365D02*X168365Y123117D01*
Y113117D01*
X158365Y118117D01*
Y123117D02*Y113117D01*
X148365Y138117D02*X158365D01*
X168365D02*X178365D01*
X158365D02*X168365Y143117D01*
Y133117D01*
X158365Y138117D01*
Y143117D02*Y133117D01*
X148365Y158117D02*X158365D01*
X168365D02*X178365D01*
X158365D02*X168365Y163117D01*
Y153117D01*
X158365Y158117D01*
Y163117D02*Y153117D01*
X185806Y289416D02*Y219416D01*
X145806Y289416D02*X185806D01*
X145806D02*Y219416D01*
X170806D02*X185806D01*
X145806D02*X160806D01*
X170806D02*G75*G03X160806Y219416I-5000J0D01*G01*
X148365Y198117D02*X158365D01*
X168365D02*X178365D01*
X158365D02*X168365Y203117D01*
Y193117D01*
X158365Y198117D01*
Y203117D02*Y193117D01*
X105058Y189928D02*X115058D01*
X125058D02*X135058D01*
X115058D02*X125058Y194928D01*
Y184928D01*
X115058Y189928D01*
Y194928D02*Y184928D01*
G54D101*X211752Y178787D02*X231752D01*
Y168787D01*
X211752D02*X231752D01*
X211752Y178787D02*Y168787D01*
X201752Y173787D02*X211752D01*
X231752D02*X241752D01*
X211160Y147622D02*X231160D01*
Y137622D01*
X211160D02*X231160D01*
X211160Y147622D02*Y137622D01*
X201160Y142622D02*X211160D01*
X231160D02*X241160D01*
G54D102*X212861Y165510D02*X226861D01*
X212790Y165581D02*G75*G03X226932Y165581I7071J-7071D01*G01*
X135039Y204213D02*Y199213D01*
Y219213D02*Y214213D01*
X133439D02*Y204213D01*
Y214213D02*X136639D01*
Y204213D01*
X133439D02*X136639D01*
G54D101*X270413Y32959D02*X290413D01*
Y22959D01*
X270413D02*X290413D01*
X270413Y32959D02*Y22959D01*
X260413Y27959D02*X270413D01*
X290413D02*X300413D01*
G54D102*X271917Y50707D02*X285917D01*
X271846Y50778D02*G75*G03X285988Y50778I7071J-7071D01*G01*
X266752Y88196D02*X292342D01*
X284469D02*Y71464D01*
X292343D01*
Y88195D02*X292342Y88196D01*
X266752Y71464D02*X274626D01*
Y88196D01*
X266752Y71464D02*Y121661D01*
X292343Y71464D02*Y121660D01*
X292342Y121661D01*
X266752D02*X292342D01*
G54D101*X329468Y32959D02*X349468D01*
Y22959D01*
X329468D02*X349468D01*
X329468Y32959D02*Y22959D01*
X319468Y27959D02*X329468D01*
X349468D02*X359468D01*
G54D102*X330972Y50707D02*X344972D01*
X330901Y50778D02*G75*G03X345043Y50778I7071J-7071D01*G01*
G54D101*X330098Y64455D02*X350098D01*
Y54455D01*
X330098D01*
Y64455D01*
X320098Y59455D02*X330098D01*
X350098D02*X360098D01*
X271043Y64455D02*X291043D01*
Y54455D01*
X271043D01*
Y64455D01*
X261043Y59455D02*X271043D01*
X291043D02*X301043D01*
G54D102*X325807Y88196D02*X351397D01*
X343524D02*Y71464D01*
X351398D01*
Y88195D02*X351397Y88196D01*
X325807Y71464D02*X333681D01*
Y88196D01*
X325807Y71464D02*Y121661D01*
X351398Y71464D02*Y121660D01*
X351397Y121661D01*
X325807D02*X351397D01*
X325807Y202999D02*X351397D01*
X343524D02*Y186267D01*
X351398D01*
Y202998D02*X351397Y202999D01*
X325807Y186267D02*X333681D01*
Y202999D01*
X325807Y186267D02*Y236464D01*
X351398Y186267D02*Y236463D01*
X351397Y236464D01*
X325807D02*X351397D01*
G54D101*X329468Y179258D02*X349468D01*
Y169258D01*
X329468D01*
Y179258D01*
X319468Y174258D02*X329468D01*
X349468D02*X359468D01*
G54D102*X330972Y165510D02*X344972D01*
X330901Y165581D02*G75*G03X345043Y165581I7071J-7071D01*G01*
G54D101*X329468Y147762D02*X349468D01*
Y137762D01*
X329468D02*X349468D01*
X329468Y147762D02*Y137762D01*
X319468Y142762D02*X329468D01*
X349468D02*X359468D01*
G54D102*X271917Y165510D02*X285917D01*
X271846Y165581D02*G75*G03X285988Y165581I7071J-7071D01*G01*
G54D101*X270413Y147762D02*X290413D01*
Y137762D01*
X270413D02*X290413D01*
X270413Y147762D02*Y137762D01*
X260413Y142762D02*X270413D01*
X290413D02*X300413D01*
X294350Y343109D02*X334350D01*
Y325109D01*
X294350D01*
Y343109D01*
X334350D01*
Y337109D01*
X294350D01*
Y343109D01*
G54D102*X307350D02*Y337109D01*
X321350Y343109D02*Y337109D01*
G54D103*X314350Y321109D02*Y325109D01*
G54D101*X330098Y349731D02*X350098D01*
X330098Y359731D02*Y349731D01*
Y359731D02*X350098D01*
Y349731D01*
Y354731D02*X360098D01*
X320098D02*X330098D01*
G54D102*X330972Y377479D02*X344972D01*
X330901Y377550D02*G75*G03X345043Y377550I7071J-7071D01*G01*
G54D101*X330098Y310361D02*X350098D01*
X330098Y320361D02*Y310361D01*
Y320361D02*X350098D01*
Y310361D01*
Y315361D02*X360098D01*
X320098D02*X330098D01*
X271043Y310754D02*X291043D01*
X271043Y320754D02*Y310754D01*
Y320754D02*X291043D01*
Y310754D01*
Y315754D02*X301043D01*
X261043D02*X271043D01*
Y349731D02*X291043D01*
X271043Y359731D02*Y349731D01*
Y359731D02*X291043D01*
Y349731D01*
Y354731D02*X301043D01*
X261043D02*X271043D01*
G54D102*X271917Y377479D02*X285917D01*
X271846Y377550D02*G75*G03X285988Y377550I7071J-7071D01*G01*
X207696Y202999D02*X233286D01*
X225413D02*Y186267D01*
X233287D01*
Y202998D02*X233286Y202999D01*
X207696Y186267D02*X215570D01*
Y202999D02*Y186267D01*
X207696Y236464D02*Y186267D01*
X233287Y236463D02*Y186267D01*
Y236463D02*X233286Y236464D01*
X207696D02*X233286D01*
X207696Y286620D02*X233286D01*
X215569Y303352D02*Y286620D01*
X207695Y303352D02*X215569D01*
X207695Y286621D02*X207696Y286620D01*
X225412Y303352D02*X233286D01*
X225412D02*Y286620D01*
X233286Y303352D02*Y253155D01*
X207695Y303352D02*Y253156D01*
X207696Y253155D01*
X233286D01*
X266752Y202999D02*X292342D01*
X284469D02*Y186267D01*
X292343D01*
Y202998D02*X292342Y202999D01*
X266752Y186267D02*X274626D01*
Y202999D01*
X266752Y186267D02*Y236464D01*
X292343Y186267D02*Y236463D01*
X292342Y236464D01*
X266752D02*X292342D01*
G54D101*X270413Y179258D02*X290413D01*
Y169258D01*
X270413D01*
Y179258D01*
X260413Y174258D02*X270413D01*
X290413D02*X300413D01*
X220589Y311772D02*X240589D01*
X220589Y321772D02*Y311772D01*
Y321772D02*X240589D01*
Y311772D01*
Y316772D02*X250589D01*
X210589D02*X220589D01*
X211987Y349731D02*X231987D01*
X211987Y359731D02*Y349731D01*
Y359731D02*X231987D01*
Y349731D01*
Y354731D02*X241987D01*
X201987D02*X211987D01*
G54D102*X185806Y379416D02*Y309416D01*
X145806Y379416D02*X185806D01*
X145806D02*Y309416D01*
X170806D02*X185806D01*
X145806D02*X160806D01*
X170806D02*G75*G03X160806Y309416I-5000J0D01*G01*
X212861Y377479D02*X226861D01*
X212790Y377550D02*G75*G03X226932Y377550I7071J-7071D01*G01*
X137008Y299567D02*Y294567D01*
Y314567D02*Y309567D01*
X135408D02*Y299567D01*
Y309567D02*X138608D01*
Y299567D01*
X135408D02*X138608D01*
X266752Y286620D02*X292342D01*
X274625Y303352D02*Y286620D01*
X266751Y303352D02*X274625D01*
X266751Y286621D02*X266752Y286620D01*
X284468Y303352D02*X292342D01*
X284468D02*Y286620D01*
X292342Y303352D02*Y253155D01*
X266751Y303352D02*Y253156D01*
X266752Y253155D01*
X292342D01*
X325807Y286620D02*X351397D01*
X333680Y303352D02*Y286620D01*
X325806Y303352D02*X333680D01*
X325806Y286621D02*X325807Y286620D01*
X343523Y303352D02*X351397D01*
X343523D02*Y286620D01*
X351397Y303352D02*Y253155D01*
X325806Y303352D02*Y253156D01*
X325807Y253155D01*
X351397D01*
X54648Y379963D02*Y377963D01*
X54148Y377463D01*
X53148D02*X54148D01*
X52648Y377963D02*X53148Y377463D01*
X52648Y379463D02*Y377963D01*
X50648Y379463D02*X54648D01*
X52648Y378663D02*X50648Y377463D01*
Y375763D02*X54648D01*
Y376263D02*Y374263D01*
X54148Y373763D01*
X53148D02*X54148D01*
X52648Y374263D02*X53148Y373763D01*
X52648Y375763D02*Y374263D01*
X53848Y372563D02*X54648Y371763D01*
X50648D02*X54648D01*
X50648Y372563D02*Y371063D01*
X127751Y299967D02*X131251D01*
X131751Y300467D01*
Y301467D02*Y300467D01*
Y301467D02*X131251Y301967D01*
X127751D02*X131251D01*
X128551Y303167D02*X127751Y303967D01*
X131751D01*
Y304667D02*Y303167D01*
X83322Y293418D02*Y292118D01*
X82622Y291418D02*X83322Y292118D01*
X80022Y291418D02*X82622D01*
X80022D02*X79322Y292118D01*
Y293418D02*Y292118D01*
Y296618D02*Y294618D01*
X81322D01*
X80822Y295118D01*
Y296118D02*Y295118D01*
Y296118D02*X81322Y296618D01*
X82822D01*
X83322Y296118D02*X82822Y296618D01*
X83322Y296118D02*Y295118D01*
X82822Y294618D02*X83322Y295118D01*
X145132Y301685D02*Y300385D01*
X144432Y299685D02*X145132Y300385D01*
X141832Y299685D02*X144432D01*
X141832D02*X141132Y300385D01*
Y301685D02*Y300385D01*
X145132Y303385D02*X141132Y305385D01*
Y302885D01*
X41434Y291963D02*Y290663D01*
X40734Y289963D02*X41434Y290663D01*
X38134Y289963D02*X40734D01*
X38134D02*X37434Y290663D01*
Y291963D02*Y290663D01*
X37934Y293163D02*X40934D01*
X37934D02*X37434Y293663D01*
Y294663D02*Y293663D01*
Y294663D02*X37934Y295163D01*
X40934D01*
X41434Y294663D02*X40934Y295163D01*
X41434Y294663D02*Y293663D01*
X40934Y293163D02*X41434Y293663D01*
X37434Y296363D02*X41434D01*
X37434D02*X41434Y298863D01*
X37434D02*X41434D01*
X37434Y300063D02*X41434D01*
X37434D02*X41434Y302563D01*
X37434D02*X41434D01*
X38234Y303763D02*X37434Y304563D01*
X41434D01*
Y305263D02*Y303763D01*
X218798Y46459D02*Y43459D01*
Y46459D02*X219298Y46959D01*
X220298D01*
X220798Y46459D01*
Y43959D01*
X219798Y42959D02*X220798Y43959D01*
X219298Y42959D02*X219798D01*
X218798Y43459D02*X219298Y42959D01*
X219798Y44459D02*X220798Y42959D01*
X221998Y46459D02*X222498Y46959D01*
X223498D01*
X223998Y46459D01*
X223498Y42959D02*X223998Y43459D01*
X222498Y42959D02*X223498D01*
X221998Y43459D02*X222498Y42959D01*
Y45159D02*X223498D01*
X223998Y46459D02*Y45659D01*
Y44659D02*Y43459D01*
Y44659D02*X223498Y45159D01*
X223998Y45659D02*X223498Y45159D01*
X218758Y29991D02*X220758D01*
X221258Y29491D01*
Y28491D01*
X220758Y27991D02*X221258Y28491D01*
X219258Y27991D02*X220758D01*
X219258Y29991D02*Y25991D01*
X220058Y27991D02*X221258Y25991D01*
X222458Y29491D02*X222958Y29991D01*
X223958D01*
X224458Y29491D01*
X223958Y25991D02*X224458Y26491D01*
X222958Y25991D02*X223958D01*
X222458Y26491D02*X222958Y25991D01*
Y28191D02*X223958D01*
X224458Y29491D02*Y28691D01*
Y27691D02*Y26491D01*
Y27691D02*X223958Y28191D01*
X224458Y28691D02*X223958Y28191D01*
X276397Y61880D02*X278397D01*
X278897Y61380D01*
Y60380D01*
X278397Y59880D02*X278897Y60380D01*
X276897Y59880D02*X278397D01*
X276897Y61880D02*Y57880D01*
X277697Y59880D02*X278897Y57880D01*
X280097Y61080D02*X280897Y61880D01*
Y57880D01*
X280097D02*X281597D01*
X282797Y61880D02*X284797D01*
X282797D02*Y59880D01*
X283297Y60380D01*
X284297D01*
X284797Y59880D01*
Y58380D01*
X284297Y57880D02*X284797Y58380D01*
X283297Y57880D02*X284297D01*
X282797Y58380D02*X283297Y57880D01*
X275728Y46459D02*Y43459D01*
Y46459D02*X276228Y46959D01*
X277228D01*
X277728Y46459D01*
Y43959D01*
X276728Y42959D02*X277728Y43959D01*
X276228Y42959D02*X276728D01*
X275728Y43459D02*X276228Y42959D01*
X276728Y44459D02*X277728Y42959D01*
X278928Y46459D02*X279428Y46959D01*
X280928D01*
X281428Y46459D01*
Y45459D01*
X278928Y42959D02*X281428Y45459D01*
X278928Y42959D02*X281428D01*
X215531Y61093D02*X217531D01*
X218031Y60593D01*
Y59593D01*
X217531Y59093D02*X218031Y59593D01*
X216031Y59093D02*X217531D01*
X216031Y61093D02*Y57093D01*
X216831Y59093D02*X218031Y57093D01*
X219231Y60293D02*X220031Y61093D01*
Y57093D01*
X219231D02*X220731D01*
X221931Y60593D02*X222431Y61093D01*
X223931D01*
X224431Y60593D01*
Y59593D01*
X221931Y57093D02*X224431Y59593D01*
X221931Y57093D02*X224431D01*
X276161Y29990D02*X278161D01*
X278661Y29490D01*
Y28490D01*
X278161Y27990D02*X278661Y28490D01*
X276661Y27990D02*X278161D01*
X276661Y29990D02*Y25990D01*
X277461Y27990D02*X278661Y25990D01*
X279861Y29490D02*X280361Y29990D01*
X281861D01*
X282361Y29490D01*
Y28490D01*
X279861Y25990D02*X282361Y28490D01*
X279861Y25990D02*X282361D01*
X336397Y29990D02*X338397D01*
X338897Y29490D01*
Y28490D01*
X338397Y27990D02*X338897Y28490D01*
X336897Y27990D02*X338397D01*
X336897Y29990D02*Y25990D01*
X337697Y27990D02*X338897Y25990D01*
X340097Y29190D02*X340897Y29990D01*
Y25990D01*
X340097D02*X341597D01*
X335846Y61093D02*X337846D01*
X338346Y60593D01*
Y59593D01*
X337846Y59093D02*X338346Y59593D01*
X336346Y59093D02*X337846D01*
X336346Y61093D02*Y57093D01*
X337146Y59093D02*X338346Y57093D01*
X339546Y60293D02*X340346Y61093D01*
Y57093D01*
X339546D02*X341046D01*
X342246Y57593D02*X342746Y57093D01*
X342246Y58393D02*Y57593D01*
Y58393D02*X342946Y59093D01*
X343546D01*
X344246Y58393D01*
Y57593D01*
X343746Y57093D02*X344246Y57593D01*
X342746Y57093D02*X343746D01*
X342246Y59793D02*X342946Y59093D01*
X342246Y60593D02*Y59793D01*
Y60593D02*X342746Y61093D01*
X343746D01*
X344246Y60593D01*
Y59793D01*
X343546Y59093D02*X344246Y59793D01*
X336909Y46459D02*Y43459D01*
Y46459D02*X337409Y46959D01*
X338409D01*
X338909Y46459D01*
Y43959D01*
X337909Y42959D02*X338909Y43959D01*
X337409Y42959D02*X337909D01*
X336909Y43459D02*X337409Y42959D01*
X337909Y44459D02*X338909Y42959D01*
X340109Y46159D02*X340909Y46959D01*
Y42959D01*
X340109D02*X341609D01*
X326791Y127051D02*Y124051D01*
Y127051D02*X327291Y127551D01*
X328291D01*
X328791Y127051D01*
Y124551D01*
X327791Y123551D02*X328791Y124551D01*
X327291Y123551D02*X327791D01*
X326791Y124051D02*X327291Y123551D01*
X327791Y125051D02*X328791Y123551D01*
X329991Y126751D02*X330791Y127551D01*
Y123551D01*
X329991D02*X331491D01*
X332691Y124051D02*X333191Y123551D01*
X332691Y124851D02*Y124051D01*
Y124851D02*X333391Y125551D01*
X333991D01*
X334691Y124851D01*
Y124051D01*
X334191Y123551D02*X334691Y124051D01*
X333191Y123551D02*X334191D01*
X332691Y126251D02*X333391Y125551D01*
X332691Y127051D02*Y126251D01*
Y127051D02*X333191Y127551D01*
X334191D01*
X334691Y127051D01*
Y126251D01*
X333991Y125551D02*X334691Y126251D01*
X267736Y127051D02*Y124051D01*
Y127051D02*X268236Y127551D01*
X269236D01*
X269736Y127051D01*
Y124551D01*
X268736Y123551D02*X269736Y124551D01*
X268236Y123551D02*X268736D01*
X267736Y124051D02*X268236Y123551D01*
X268736Y125051D02*X269736Y123551D01*
X270936Y126751D02*X271736Y127551D01*
Y123551D01*
X270936D02*X272436D01*
X273636Y127551D02*X275636D01*
X273636D02*Y125551D01*
X274136Y126051D01*
X275136D01*
X275636Y125551D01*
Y124051D01*
X275136Y123551D02*X275636Y124051D01*
X274136Y123551D02*X275136D01*
X273636Y124051D02*X274136Y123551D01*
X208680Y127051D02*Y124051D01*
Y127051D02*X209180Y127551D01*
X210180D01*
X210680Y127051D01*
Y124551D01*
X209680Y123551D02*X210680Y124551D01*
X209180Y123551D02*X209680D01*
X208680Y124051D02*X209180Y123551D01*
X209680Y125051D02*X210680Y123551D01*
X211880Y126751D02*X212680Y127551D01*
Y123551D01*
X211880D02*X213380D01*
X214580Y127051D02*X215080Y127551D01*
X216580D01*
X217080Y127051D01*
Y126051D01*
X214580Y123551D02*X217080Y126051D01*
X214580Y123551D02*X217080D01*
X232841Y314741D02*X234841D01*
X232841D02*X232341Y315241D01*
Y316241D02*Y315241D01*
X232841Y316741D02*X232341Y316241D01*
X232841Y316741D02*X234341D01*
Y318741D02*Y314741D01*
X233541Y316741D02*X232341Y318741D01*
X231141Y315541D02*X230341Y314741D01*
Y318741D02*Y314741D01*
X229641Y318741D02*X231141D01*
X228441Y318241D02*X227941Y318741D01*
X228441Y318241D02*Y315241D01*
X227941Y314741D01*
X226941D02*X227941D01*
X226941D02*X226441Y315241D01*
Y318241D02*Y315241D01*
X226941Y318741D02*X226441Y318241D01*
X226941Y318741D02*X227941D01*
X228441Y317741D02*X226441Y315741D01*
X232302Y249978D02*Y246978D01*
X231802Y246478D01*
X230802D02*X231802D01*
X230802D02*X230302Y246978D01*
Y249478D02*Y246978D01*
X231302Y250478D02*X230302Y249478D01*
X231302Y250478D02*X231802D01*
X232302Y249978D02*X231802Y250478D01*
X231302Y248978D02*X230302Y250478D01*
X229102Y247278D02*X228302Y246478D01*
Y250478D02*Y246478D01*
X227602Y250478D02*X229102D01*
X226402Y249978D02*X225902Y250478D01*
X226402Y249978D02*Y246978D01*
X225902Y246478D01*
X224902D02*X225902D01*
X224902D02*X224402Y246978D01*
Y249978D02*Y246978D01*
X224902Y250478D02*X224402Y249978D01*
X224902Y250478D02*X225902D01*
X226402Y249478D02*X224402Y247478D01*
X285007Y344203D02*Y340203D01*
X286307Y344203D02*X287007Y343503D01*
Y340903D01*
X286307Y340203D02*X287007Y340903D01*
X284507Y340203D02*X286307D01*
X284507Y344203D02*X286307D01*
X288707Y340203D02*X290707Y344203D01*
X288207D02*X290707D01*
X326791Y241854D02*Y238854D01*
Y241854D02*X327291Y242354D01*
X328291D01*
X328791Y241854D01*
Y239354D01*
X327791Y238354D02*X328791Y239354D01*
X327291Y238354D02*X327791D01*
X326791Y238854D02*X327291Y238354D01*
X327791Y239854D02*X328791Y238354D01*
X329991Y241554D02*X330791Y242354D01*
Y238354D01*
X329991D02*X331491D01*
X333191D02*X335191Y242354D01*
X332691D02*X335191D01*
X350413Y250765D02*Y247765D01*
X349913Y247265D01*
X348913D02*X349913D01*
X348913D02*X348413Y247765D01*
Y250265D02*Y247765D01*
X349413Y251265D02*X348413Y250265D01*
X349413Y251265D02*X349913D01*
X350413Y250765D02*X349913Y251265D01*
X349413Y249765D02*X348413Y251265D01*
X347213Y248065D02*X346413Y247265D01*
Y251265D02*Y247265D01*
X345713Y251265D02*X347213D01*
X343013Y247265D02*X342513Y247765D01*
X343013Y247265D02*X344013D01*
X344513Y247765D02*X344013Y247265D01*
X344513Y250765D02*Y247765D01*
Y250765D02*X344013Y251265D01*
X343013Y249065D02*X342513Y249565D01*
X343013Y249065D02*X344513D01*
X343013Y251265D02*X344013D01*
X343013D02*X342513Y250765D01*
Y249565D01*
X283689Y313329D02*X285689D01*
X283689D02*X283189Y313829D01*
Y314829D02*Y313829D01*
X283689Y315329D02*X283189Y314829D01*
X283689Y315329D02*X285189D01*
Y317329D02*Y313329D01*
X284389Y315329D02*X283189Y317329D01*
X281989Y314129D02*X281189Y313329D01*
Y317329D02*Y313329D01*
X280489Y317329D02*X281989D01*
X279289Y313829D02*X278789Y313329D01*
X277789D02*X278789D01*
X277789D02*X277289Y313829D01*
X277789Y317329D02*X277289Y316829D01*
X277789Y317329D02*X278789D01*
X279289Y316829D02*X278789Y317329D01*
X277789Y315129D02*X278789D01*
X277289Y314629D02*Y313829D01*
Y316829D02*Y315629D01*
X277789Y315129D01*
X277289Y314629D02*X277789Y315129D01*
X267736Y241854D02*Y238854D01*
Y241854D02*X268236Y242354D01*
X269236D01*
X269736Y241854D01*
Y239354D01*
X268736Y238354D02*X269736Y239354D01*
X268236Y238354D02*X268736D01*
X267736Y238854D02*X268236Y238354D01*
X268736Y239854D02*X269736Y238354D01*
X270936Y241554D02*X271736Y242354D01*
Y238354D01*
X270936D02*X272436D01*
X273636Y239854D02*X275636Y242354D01*
X273636Y239854D02*X276136D01*
X275636Y242354D02*Y238354D01*
X291358Y250990D02*Y247840D01*
X290833Y247315D01*
X289783D02*X290833D01*
X289783D02*X289258Y247840D01*
Y250465D02*Y247840D01*
X290308Y251515D02*X289258Y250465D01*
X290308Y251515D02*X290833D01*
X291358Y250990D02*X290833Y251515D01*
X290308Y249940D02*X289258Y251515D01*
X287998Y248155D02*X287158Y247315D01*
Y251515D02*Y247315D01*
X286423Y251515D02*X287998D01*
X285163Y247840D02*X284638Y247315D01*
X283588D02*X284638D01*
X283588D02*X283063Y247840D01*
X283588Y251515D02*X283063Y250990D01*
X283588Y251515D02*X284638D01*
X285163Y250990D02*X284638Y251515D01*
X283588Y249205D02*X284638D01*
X283063Y248680D02*Y247840D01*
Y250990D02*Y249730D01*
X283588Y249205D01*
X283063Y248680D02*X283588Y249205D01*
X281326Y352700D02*X283326D01*
X281326D02*X280826Y353200D01*
Y354200D02*Y353200D01*
X281326Y354700D02*X280826Y354200D01*
X281326Y354700D02*X282826D01*
Y356700D02*Y352700D01*
X282026Y354700D02*X280826Y356700D01*
X279626Y356200D02*X279126Y356700D01*
X279626Y356200D02*Y355400D01*
X278926Y354700D01*
X278326D02*X278926D01*
X278326D02*X277626Y355400D01*
Y356200D02*Y355400D01*
X278126Y356700D02*X277626Y356200D01*
X278126Y356700D02*X279126D01*
X279626Y354000D02*X278926Y354700D01*
X279626Y354000D02*Y353200D01*
X279126Y352700D01*
X278126D02*X279126D01*
X278126D02*X277626Y353200D01*
Y354000D02*Y353200D01*
X278326Y354700D02*X277626Y354000D01*
X277854Y373231D02*Y370231D01*
Y373231D02*X278354Y373731D01*
X279354D01*
X279854Y373231D01*
Y370731D01*
X278854Y369731D02*X279854Y370731D01*
X278354Y369731D02*X278854D01*
X277854Y370231D02*X278354Y369731D01*
X278854Y371231D02*X279854Y369731D01*
X281054Y370231D02*X281554Y369731D01*
X281054Y371031D02*Y370231D01*
Y371031D02*X281754Y371731D01*
X282354D01*
X283054Y371031D01*
Y370231D01*
X282554Y369731D02*X283054Y370231D01*
X281554Y369731D02*X282554D01*
X281054Y372431D02*X281754Y371731D01*
X281054Y373231D02*Y372431D01*
Y373231D02*X281554Y373731D01*
X282554D01*
X283054Y373231D01*
Y372431D01*
X282354Y371731D02*X283054Y372431D01*
X341563Y352306D02*X343563D01*
X341563D02*X341063Y352806D01*
Y353806D02*Y352806D01*
X341563Y354306D02*X341063Y353806D01*
X341563Y354306D02*X343063D01*
Y356306D02*Y352306D01*
X342263Y354306D02*X341063Y356306D01*
X339363D02*X337363Y352306D01*
X339863D01*
X336909Y373231D02*Y370231D01*
Y373231D02*X337409Y373731D01*
X338409D01*
X338909Y373231D01*
Y370731D01*
X337909Y369731D02*X338909Y370731D01*
X337409Y369731D02*X337909D01*
X336909Y370231D02*X337409Y369731D01*
X337909Y371231D02*X338909Y369731D01*
X340609D02*X342609Y373731D01*
X340109D02*X342609D01*
X342744Y312936D02*X344744D01*
X342744D02*X342244Y313436D01*
Y314436D02*Y313436D01*
X342744Y314936D02*X342244Y314436D01*
X342744Y314936D02*X344244D01*
Y316936D02*Y312936D01*
X343444Y314936D02*X342244Y316936D01*
X341044Y313736D02*X340244Y312936D01*
Y316936D02*Y312936D01*
X339544Y316936D02*X341044D01*
X336844Y312936D02*X336344Y313436D01*
X336844Y312936D02*X337844D01*
X338344Y313436D02*X337844Y312936D01*
X338344Y316436D02*Y313436D01*
Y316436D02*X337844Y316936D01*
X336844Y314736D02*X336344Y315236D01*
X336844Y314736D02*X338344D01*
X336844Y316936D02*X337844D01*
X336844D02*X336344Y316436D01*
Y315236D01*
X218287Y175818D02*X220287D01*
X220787Y175318D01*
Y174318D01*
X220287Y173818D02*X220787Y174318D01*
X218787Y173818D02*X220287D01*
X218787Y175818D02*Y171818D01*
X219587Y173818D02*X220787Y171818D01*
X221987Y175018D02*X222787Y175818D01*
Y171818D01*
X221987D02*X223487D01*
X224687Y175018D02*X225487Y175818D01*
Y171818D01*
X224687D02*X226187D01*
X216908Y145835D02*X218908D01*
X219408Y145335D01*
Y144335D01*
X218908Y143835D02*X219408Y144335D01*
X217408Y143835D02*X218908D01*
X217408Y145835D02*Y141835D01*
X218208Y143835D02*X219408Y141835D01*
X222108Y145835D02*X222608Y145335D01*
X221108Y145835D02*X222108D01*
X220608Y145335D02*X221108Y145835D01*
X220608Y145335D02*Y142335D01*
X221108Y141835D01*
X222108Y144035D02*X222608Y143535D01*
X220608Y144035D02*X222108D01*
X221108Y141835D02*X222108D01*
X222608Y142335D01*
Y143535D02*Y142335D01*
X274980Y176289D02*X276980D01*
X277480Y175789D01*
Y174789D01*
X276980Y174289D02*X277480Y174789D01*
X275480Y174289D02*X276980D01*
X275480Y176289D02*Y172289D01*
X276280Y174289D02*X277480Y172289D01*
X278680Y175489D02*X279480Y176289D01*
Y172289D01*
X278680D02*X280180D01*
X281380Y173789D02*X283380Y176289D01*
X281380Y173789D02*X283880D01*
X283380Y176289D02*Y172289D01*
X275727Y161263D02*Y158263D01*
Y161263D02*X276227Y161763D01*
X277227D01*
X277727Y161263D01*
Y158763D01*
X276727Y157763D02*X277727Y158763D01*
X276227Y157763D02*X276727D01*
X275727Y158263D02*X276227Y157763D01*
X276727Y159263D02*X277727Y157763D01*
X278927Y161763D02*X280927D01*
X278927D02*Y159763D01*
X279427Y160263D01*
X280427D01*
X280927Y159763D01*
Y158263D01*
X280427Y157763D02*X280927Y158263D01*
X279427Y157763D02*X280427D01*
X278927Y158263D02*X279427Y157763D01*
X277342Y144793D02*X279342D01*
X279842Y144293D01*
Y143293D01*
X279342Y142793D02*X279842Y143293D01*
X277842Y142793D02*X279342D01*
X277842Y144793D02*Y140793D01*
X278642Y142793D02*X279842Y140793D01*
X281042Y144793D02*X283042D01*
X281042D02*Y142793D01*
X281542Y143293D01*
X282542D01*
X283042Y142793D01*
Y141293D01*
X282542Y140793D02*X283042Y141293D01*
X281542Y140793D02*X282542D01*
X281042Y141293D02*X281542Y140793D01*
X334822Y176683D02*X336822D01*
X337322Y176183D01*
Y175183D01*
X336822Y174683D02*X337322Y175183D01*
X335322Y174683D02*X336822D01*
X335322Y176683D02*Y172683D01*
X336122Y174683D02*X337322Y172683D01*
X338522Y175883D02*X339322Y176683D01*
Y172683D01*
X338522D02*X340022D01*
X341722D02*X343722Y176683D01*
X341222D02*X343722D01*
X334782Y161263D02*Y158263D01*
Y161263D02*X335282Y161763D01*
X336282D01*
X336782Y161263D01*
Y158763D01*
X335782Y157763D02*X336782Y158763D01*
X335282Y157763D02*X335782D01*
X334782Y158263D02*X335282Y157763D01*
X335782Y159263D02*X336782Y157763D01*
X337982Y159263D02*X339982Y161763D01*
X337982Y159263D02*X340482D01*
X339982Y161763D02*Y157763D01*
X336003Y144793D02*X338003D01*
X338503Y144293D01*
Y143293D01*
X338003Y142793D02*X338503Y143293D01*
X336503Y142793D02*X338003D01*
X336503Y144793D02*Y140793D01*
X337303Y142793D02*X338503Y140793D01*
X339703Y142293D02*X341703Y144793D01*
X339703Y142293D02*X342203D01*
X341703Y144793D02*Y140793D01*
X223452Y352700D02*X225452D01*
X223452D02*X222952Y353200D01*
Y354200D02*Y353200D01*
X223452Y354700D02*X222952Y354200D01*
X223452Y354700D02*X224952D01*
Y356700D02*Y352700D01*
X224152Y354700D02*X222952Y356700D01*
X221252D02*X219752Y354700D01*
Y353200D01*
X220252Y352700D02*X219752Y353200D01*
X220252Y352700D02*X221252D01*
X221752Y353200D02*X221252Y352700D01*
X221752Y354200D02*Y353200D01*
Y354200D02*X221252Y354700D01*
X219752D02*X221252D01*
X186806Y309416D02*X190306D01*
X190806Y309916D01*
Y310916D02*Y309916D01*
Y310916D02*X190306Y311416D01*
X186806D02*X190306D01*
X187306Y312616D02*X186806Y313116D01*
Y314116D02*Y313116D01*
Y314116D02*X187306Y314616D01*
X190806Y314116D02*X190306Y314616D01*
X190806Y314116D02*Y313116D01*
X190306Y312616D02*X190806Y313116D01*
X188606Y314116D02*Y313116D01*
X187306Y314616D02*X188106D01*
X189106D02*X190306D01*
X189106D02*X188606Y314116D01*
X188106Y314616D02*X188606Y314116D01*
X208680Y241854D02*Y238854D01*
Y241854D02*X209180Y242354D01*
X210180D01*
X210680Y241854D01*
Y239354D01*
X209680Y238354D02*X210680Y239354D01*
X209180Y238354D02*X209680D01*
X208680Y238854D02*X209180Y238354D01*
X209680Y239854D02*X210680Y238354D01*
X211880Y241554D02*X212680Y242354D01*
Y238354D01*
X211880D02*X213380D01*
X214580Y241554D02*X215380Y242354D01*
Y238354D01*
X214580D02*X216080D01*
X216672Y373231D02*Y370231D01*
Y373231D02*X217172Y373731D01*
X218172D01*
X218672Y373231D01*
Y370731D01*
X217672Y369731D02*X218672Y370731D01*
X217172Y369731D02*X217672D01*
X216672Y370231D02*X217172Y369731D01*
X217672Y371231D02*X218672Y369731D01*
X220372D02*X221872Y371731D01*
Y373231D02*Y371731D01*
X221372Y373731D02*X221872Y373231D01*
X220372Y373731D02*X221372D01*
X219872Y373231D02*X220372Y373731D01*
X219872Y373231D02*Y372231D01*
X220372Y371731D01*
X221872D01*
X148865Y192117D02*Y188117D01*
X150165Y192117D02*X150865Y191417D01*
Y188817D01*
X150165Y188117D02*X150865Y188817D01*
X148365Y188117D02*X150165D01*
X148365Y192117D02*X150165D01*
X153565D02*X154065Y191617D01*
X152565Y192117D02*X153565D01*
X152065Y191617D02*X152565Y192117D01*
X152065Y191617D02*Y188617D01*
X152565Y188117D01*
X153565Y190317D02*X154065Y189817D01*
X152065Y190317D02*X153565D01*
X152565Y188117D02*X153565D01*
X154065Y188617D01*
Y189817D02*Y188617D01*
X148865Y172117D02*Y168117D01*
X150165Y172117D02*X150865Y171417D01*
Y168817D01*
X150165Y168117D02*X150865Y168817D01*
X148365Y168117D02*X150165D01*
X148365Y172117D02*X150165D01*
X152065Y171317D02*X152865Y172117D01*
Y168117D01*
X152065D02*X153565D01*
X186806Y219416D02*X190306D01*
X190806Y219916D01*
Y220916D02*Y219916D01*
Y220916D02*X190306Y221416D01*
X186806D02*X190306D01*
X189306Y222616D02*X186806Y224616D01*
X189306Y225116D02*Y222616D01*
X186806Y224616D02*X190806D01*
X35255Y216905D02*Y215605D01*
X35955Y217605D02*X35255Y216905D01*
X35955Y217605D02*X38555D01*
X39255Y216905D01*
Y215605D01*
X38755Y214405D02*X39255Y213905D01*
Y212405D01*
X38755Y211905D01*
X37755D02*X38755D01*
X35255Y214405D02*X37755Y211905D01*
X35255Y214405D02*Y211905D01*
X25255Y169605D02*Y168305D01*
X24555Y167605D02*X25255Y168305D01*
X21955Y167605D02*X24555D01*
X21955D02*X21255Y168305D01*
Y169605D02*Y168305D01*
X21755Y170805D02*X21255Y171305D01*
Y172305D02*Y171305D01*
Y172305D02*X21755Y172805D01*
X25255Y172305D02*X24755Y172805D01*
X25255Y172305D02*Y171305D01*
X24755Y170805D02*X25255Y171305D01*
X23055Y172305D02*Y171305D01*
X21755Y172805D02*X22555D01*
X23555D02*X24755D01*
X23555D02*X23055Y172305D01*
X22555Y172805D02*X23055Y172305D01*
X33655Y244605D02*Y243305D01*
X32955Y242605D02*X33655Y243305D01*
X30355Y242605D02*X32955D01*
X30355D02*X29655Y243305D01*
Y244605D02*Y243305D01*
X30455Y245805D02*X29655Y246605D01*
X33655D01*
Y247305D02*Y245805D01*
X75755Y202605D02*X79255D01*
X75755D02*X75255Y202105D01*
Y201105D01*
X75755Y200605D01*
X79255D01*
Y199405D02*Y197405D01*
X77255Y199405D02*X79255D01*
X77255D02*X77755Y198905D01*
Y197905D01*
X77255Y197405D01*
X75755D02*X77255D01*
X75255Y197905D02*X75755Y197405D01*
X75255Y198905D02*Y197905D01*
X75755Y199405D02*X75255Y198905D01*
X75755Y262605D02*X79255D01*
X75755D02*X75255Y262105D01*
Y261105D01*
X75755Y260605D01*
X79255D01*
Y257905D02*X78755Y257405D01*
X79255Y258905D02*Y257905D01*
X78755Y259405D02*X79255Y258905D01*
X75755Y259405D02*X78755D01*
X75755D02*X75255Y258905D01*
X77455Y257905D02*X76955Y257405D01*
X77455Y259405D02*Y257905D01*
X75255Y258905D02*Y257905D01*
X75755Y257405D01*
X76955D01*
X85683Y230740D02*Y229440D01*
X84983Y228740D02*X85683Y229440D01*
X82383Y228740D02*X84983D01*
X82383D02*X81683Y229440D01*
Y230740D02*Y229440D01*
X84183Y231940D02*X81683Y233940D01*
X84183Y234440D02*Y231940D01*
X81683Y233940D02*X85683D01*
X148865Y132117D02*Y128117D01*
X150165Y132117D02*X150865Y131417D01*
Y128817D01*
X150165Y128117D02*X150865Y128817D01*
X148365Y128117D02*X150165D01*
X148365Y132117D02*X150165D01*
X152065Y131617D02*X152565Y132117D01*
X153565D01*
X154065Y131617D01*
X153565Y128117D02*X154065Y128617D01*
X152565Y128117D02*X153565D01*
X152065Y128617D02*X152565Y128117D01*
Y130317D02*X153565D01*
X154065Y131617D02*Y130817D01*
Y129817D02*Y128617D01*
Y129817D02*X153565Y130317D01*
X154065Y130817D02*X153565Y130317D01*
X148865Y152117D02*Y148117D01*
X150165Y152117D02*X150865Y151417D01*
Y148817D01*
X150165Y148117D02*X150865Y148817D01*
X148365Y148117D02*X150165D01*
X148365Y152117D02*X150165D01*
X152065Y151617D02*X152565Y152117D01*
X154065D01*
X154565Y151617D01*
Y150617D01*
X152065Y148117D02*X154565Y150617D01*
X152065Y148117D02*X154565D01*
X214861Y161892D02*Y158892D01*
Y161892D02*X215361Y162392D01*
X216361D01*
X216861Y161892D01*
Y159392D01*
X215861Y158392D02*X216861Y159392D01*
X215361Y158392D02*X215861D01*
X214861Y158892D02*X215361Y158392D01*
X215861Y159892D02*X216861Y158392D01*
X219561Y162392D02*X220061Y161892D01*
X218561Y162392D02*X219561D01*
X218061Y161892D02*X218561Y162392D01*
X218061Y161892D02*Y158892D01*
X218561Y158392D01*
X219561Y160592D02*X220061Y160092D01*
X218061Y160592D02*X219561D01*
X218561Y158392D02*X219561D01*
X220061Y158892D01*
Y160092D02*Y158892D01*
X148865Y212117D02*Y208117D01*
X150165Y212117D02*X150865Y211417D01*
Y208817D01*
X150165Y208117D02*X150865Y208817D01*
X148365Y208117D02*X150165D01*
X148365Y212117D02*X150165D01*
X152065D02*X154065D01*
X152065D02*Y210117D01*
X152565Y210617D01*
X153565D01*
X154065Y210117D01*
Y208617D01*
X153565Y208117D02*X154065Y208617D01*
X152565Y208117D02*X153565D01*
X152065Y208617D02*X152565Y208117D01*
X105558Y203928D02*Y199928D01*
X106858Y203928D02*X107558Y203228D01*
Y200628D01*
X106858Y199928D02*X107558Y200628D01*
X105058Y199928D02*X106858D01*
X105058Y203928D02*X106858D01*
X108758Y201428D02*X110758Y203928D01*
X108758Y201428D02*X111258D01*
X110758Y203928D02*Y199928D01*
X127751Y209967D02*X131251D01*
X131751Y210467D01*
Y211467D02*Y210467D01*
Y211467D02*X131251Y211967D01*
X127751D02*X131251D01*
X128251Y213167D02*X127751Y213667D01*
Y215167D02*Y213667D01*
Y215167D02*X128251Y215667D01*
X129251D01*
X131751Y213167D02*X129251Y215667D01*
X131751D02*Y213167D01*
X143951Y207433D02*Y206133D01*
X143251Y205433D02*X143951Y206133D01*
X140651Y205433D02*X143251D01*
X140651D02*X139951Y206133D01*
Y207433D02*Y206133D01*
Y210133D02*X140451Y210633D01*
X139951Y210133D02*Y209133D01*
X140451Y208633D02*X139951Y209133D01*
X140451Y208633D02*X143451D01*
X143951Y209133D01*
X141751Y210133D02*X142251Y210633D01*
X141751Y210133D02*Y208633D01*
X143951Y210133D02*Y209133D01*
Y210133D02*X143451Y210633D01*
X142251D02*X143451D01*
M02*
