%FSLAX34Y34*%
G04 Gerber Fmt 3.4, Leading zero omitted, Abs format*
G04 (created by PCBNEW (2013-12-09 BZR 4542)-product) date Wed 22 Jan 2014 23:18:31 CST*
%MOIN*%
G01*
G70*
G90*
G04 APERTURE LIST*
%ADD10C,0.005906*%
%ADD11C,0.012000*%
%ADD12C,0.015000*%
%ADD13C,0.005000*%
%ADD14C,0.007500*%
%ADD15C,0.009850*%
%ADD16C,0.009900*%
G04 APERTURE END LIST*
G54D10*
G54D11*
X31300Y-33400D02*
X32800Y-31900D01*
X32800Y-31900D02*
X32800Y-31400D01*
X32800Y-31400D02*
X32300Y-30900D01*
X32300Y-30900D02*
X31300Y-30900D01*
X31300Y-30900D02*
X30300Y-31900D01*
X30300Y-31900D02*
X30300Y-32900D01*
X30300Y-32900D02*
X30800Y-33400D01*
X30800Y-33400D02*
X31300Y-33400D01*
X36300Y-33400D02*
X37800Y-31900D01*
X37800Y-31900D02*
X37800Y-31400D01*
X37800Y-31400D02*
X37300Y-30900D01*
X37300Y-30900D02*
X36300Y-30900D01*
X36300Y-30900D02*
X35300Y-31900D01*
X35300Y-31900D02*
X35300Y-32900D01*
X35300Y-32900D02*
X35800Y-33400D01*
X35800Y-33400D02*
X36300Y-33400D01*
X41300Y-33400D02*
X42800Y-31900D01*
X42800Y-31900D02*
X42800Y-31400D01*
X42800Y-31400D02*
X42300Y-30900D01*
X42300Y-30900D02*
X41300Y-30900D01*
X41300Y-30900D02*
X40300Y-31900D01*
X40300Y-31900D02*
X40300Y-32900D01*
X40300Y-32900D02*
X40800Y-33400D01*
X40800Y-33400D02*
X41300Y-33400D01*
X41250Y-44000D02*
X42750Y-42500D01*
X42750Y-42500D02*
X42750Y-42000D01*
X42750Y-42000D02*
X42250Y-41500D01*
X42250Y-41500D02*
X41250Y-41500D01*
X41250Y-41500D02*
X40250Y-42500D01*
X40250Y-42500D02*
X40250Y-43500D01*
X40250Y-43500D02*
X40750Y-44000D01*
X40750Y-44000D02*
X41250Y-44000D01*
X36250Y-44000D02*
X37750Y-42500D01*
X37750Y-42500D02*
X37750Y-42000D01*
X37750Y-42000D02*
X37250Y-41500D01*
X37250Y-41500D02*
X36250Y-41500D01*
X36250Y-41500D02*
X35250Y-42500D01*
X35250Y-42500D02*
X35250Y-43500D01*
X35250Y-43500D02*
X35750Y-44000D01*
X35750Y-44000D02*
X36250Y-44000D01*
X31250Y-44000D02*
X32750Y-42500D01*
X32750Y-42500D02*
X32750Y-42000D01*
X32750Y-42000D02*
X32250Y-41500D01*
X32250Y-41500D02*
X31250Y-41500D01*
X31250Y-41500D02*
X30250Y-42500D01*
X30250Y-42500D02*
X30250Y-43500D01*
X30250Y-43500D02*
X30750Y-44000D01*
X30750Y-44000D02*
X31250Y-44000D01*
X39500Y-13000D02*
X41000Y-11500D01*
X41000Y-11500D02*
X41000Y-11000D01*
X41000Y-11000D02*
X40500Y-10500D01*
X40500Y-10500D02*
X39500Y-10500D01*
X39500Y-10500D02*
X38500Y-11500D01*
X38500Y-11500D02*
X38500Y-12500D01*
X38500Y-12500D02*
X39000Y-13000D01*
X39000Y-13000D02*
X39500Y-13000D01*
X32500Y-13000D02*
X34000Y-11500D01*
X34000Y-11500D02*
X34000Y-11000D01*
X34000Y-11000D02*
X33500Y-10500D01*
X33500Y-10500D02*
X32500Y-10500D01*
X32500Y-10500D02*
X31500Y-11500D01*
X31500Y-11500D02*
X31500Y-12500D01*
X31500Y-12500D02*
X32000Y-13000D01*
X32000Y-13000D02*
X32500Y-13000D01*
X25000Y-13000D02*
X26500Y-11500D01*
X26500Y-11500D02*
X26500Y-11000D01*
X26500Y-11000D02*
X26000Y-10500D01*
X26000Y-10500D02*
X25000Y-10500D01*
X25000Y-10500D02*
X24000Y-11500D01*
X24000Y-11500D02*
X24000Y-12500D01*
X24000Y-12500D02*
X24500Y-13000D01*
X24500Y-13000D02*
X25000Y-13000D01*
X33500Y-30000D02*
X33100Y-30000D01*
X33100Y-30000D02*
X33100Y-30400D01*
X33100Y-30400D02*
X29900Y-30400D01*
X29900Y-30400D02*
X29900Y-29600D01*
X29900Y-29600D02*
X33100Y-29600D01*
X33100Y-29600D02*
X33100Y-30000D01*
X33100Y-30200D02*
X32900Y-30400D01*
X29500Y-30000D02*
X29900Y-30000D01*
X19500Y-22000D02*
X19500Y-21600D01*
X19500Y-21600D02*
X19100Y-21600D01*
X19100Y-21600D02*
X19100Y-18400D01*
X19100Y-18400D02*
X19900Y-18400D01*
X19900Y-18400D02*
X19900Y-21600D01*
X19900Y-21600D02*
X19500Y-21600D01*
X19300Y-21600D02*
X19100Y-21400D01*
X19500Y-18000D02*
X19500Y-18400D01*
X20500Y-22000D02*
X20500Y-21600D01*
X20500Y-21600D02*
X20100Y-21600D01*
X20100Y-21600D02*
X20100Y-18400D01*
X20100Y-18400D02*
X20900Y-18400D01*
X20900Y-18400D02*
X20900Y-21600D01*
X20900Y-21600D02*
X20500Y-21600D01*
X20300Y-21600D02*
X20100Y-21400D01*
X20500Y-18000D02*
X20500Y-18400D01*
X25500Y-39000D02*
X25500Y-39400D01*
X25500Y-39400D02*
X25900Y-39400D01*
X25900Y-39400D02*
X25900Y-42600D01*
X25900Y-42600D02*
X25100Y-42600D01*
X25100Y-42600D02*
X25100Y-39400D01*
X25100Y-39400D02*
X25500Y-39400D01*
X25700Y-39400D02*
X25900Y-39600D01*
X25500Y-43000D02*
X25500Y-42600D01*
X26500Y-39000D02*
X26500Y-39400D01*
X26500Y-39400D02*
X26900Y-39400D01*
X26900Y-39400D02*
X26900Y-42600D01*
X26900Y-42600D02*
X26100Y-42600D01*
X26100Y-42600D02*
X26100Y-39400D01*
X26100Y-39400D02*
X26500Y-39400D01*
X26700Y-39400D02*
X26900Y-39600D01*
X26500Y-43000D02*
X26500Y-42600D01*
X27500Y-39000D02*
X27500Y-39400D01*
X27500Y-39400D02*
X27900Y-39400D01*
X27900Y-39400D02*
X27900Y-42600D01*
X27900Y-42600D02*
X27100Y-42600D01*
X27100Y-42600D02*
X27100Y-39400D01*
X27100Y-39400D02*
X27500Y-39400D01*
X27700Y-39400D02*
X27900Y-39600D01*
X27500Y-43000D02*
X27500Y-42600D01*
X25500Y-33975D02*
X25500Y-33575D01*
X25500Y-33575D02*
X25100Y-33575D01*
X25100Y-33575D02*
X25100Y-30375D01*
X25100Y-30375D02*
X25900Y-30375D01*
X25900Y-30375D02*
X25900Y-33575D01*
X25900Y-33575D02*
X25500Y-33575D01*
X25300Y-33575D02*
X25100Y-33375D01*
X25500Y-29975D02*
X25500Y-30375D01*
X26500Y-33975D02*
X26500Y-33575D01*
X26500Y-33575D02*
X26100Y-33575D01*
X26100Y-33575D02*
X26100Y-30375D01*
X26100Y-30375D02*
X26900Y-30375D01*
X26900Y-30375D02*
X26900Y-33575D01*
X26900Y-33575D02*
X26500Y-33575D01*
X26300Y-33575D02*
X26100Y-33375D01*
X26500Y-29975D02*
X26500Y-30375D01*
X27500Y-34000D02*
X27500Y-33600D01*
X27500Y-33600D02*
X27100Y-33600D01*
X27100Y-33600D02*
X27100Y-30400D01*
X27100Y-30400D02*
X27900Y-30400D01*
X27900Y-30400D02*
X27900Y-33600D01*
X27900Y-33600D02*
X27500Y-33600D01*
X27300Y-33600D02*
X27100Y-33400D01*
X27500Y-30000D02*
X27500Y-30400D01*
X18500Y-22000D02*
X18500Y-21600D01*
X18500Y-21600D02*
X18100Y-21600D01*
X18100Y-21600D02*
X18100Y-18400D01*
X18100Y-18400D02*
X18900Y-18400D01*
X18900Y-18400D02*
X18900Y-21600D01*
X18900Y-21600D02*
X18500Y-21600D01*
X18300Y-21600D02*
X18100Y-21400D01*
X18500Y-18000D02*
X18500Y-18400D01*
X33500Y-40500D02*
X33100Y-40500D01*
X33100Y-40500D02*
X33100Y-40900D01*
X33100Y-40900D02*
X29900Y-40900D01*
X29900Y-40900D02*
X29900Y-40100D01*
X29900Y-40100D02*
X33100Y-40100D01*
X33100Y-40100D02*
X33100Y-40500D01*
X33100Y-40700D02*
X32900Y-40900D01*
X29500Y-40500D02*
X29900Y-40500D01*
X23500Y-14500D02*
X23900Y-14500D01*
X23900Y-14500D02*
X23900Y-14100D01*
X23900Y-14100D02*
X27100Y-14100D01*
X27100Y-14100D02*
X27100Y-14900D01*
X27100Y-14900D02*
X23900Y-14900D01*
X23900Y-14900D02*
X23900Y-14500D01*
X23900Y-14300D02*
X24100Y-14100D01*
X27500Y-14500D02*
X27100Y-14500D01*
X38500Y-40500D02*
X38100Y-40500D01*
X38100Y-40500D02*
X38100Y-40900D01*
X38100Y-40900D02*
X34900Y-40900D01*
X34900Y-40900D02*
X34900Y-40100D01*
X34900Y-40100D02*
X38100Y-40100D01*
X38100Y-40100D02*
X38100Y-40500D01*
X38100Y-40700D02*
X37900Y-40900D01*
X34500Y-40500D02*
X34900Y-40500D01*
X31000Y-14500D02*
X31400Y-14500D01*
X31400Y-14500D02*
X31400Y-14100D01*
X31400Y-14100D02*
X34600Y-14100D01*
X34600Y-14100D02*
X34600Y-14900D01*
X34600Y-14900D02*
X31400Y-14900D01*
X31400Y-14900D02*
X31400Y-14500D01*
X31400Y-14300D02*
X31600Y-14100D01*
X35000Y-14500D02*
X34600Y-14500D01*
X38500Y-30000D02*
X38100Y-30000D01*
X38100Y-30000D02*
X38100Y-30400D01*
X38100Y-30400D02*
X34900Y-30400D01*
X34900Y-30400D02*
X34900Y-29600D01*
X34900Y-29600D02*
X38100Y-29600D01*
X38100Y-29600D02*
X38100Y-30000D01*
X38100Y-30200D02*
X37900Y-30400D01*
X34500Y-30000D02*
X34900Y-30000D01*
X43500Y-40500D02*
X43100Y-40500D01*
X43100Y-40500D02*
X43100Y-40900D01*
X43100Y-40900D02*
X39900Y-40900D01*
X39900Y-40900D02*
X39900Y-40100D01*
X39900Y-40100D02*
X43100Y-40100D01*
X43100Y-40100D02*
X43100Y-40500D01*
X43100Y-40700D02*
X42900Y-40900D01*
X39500Y-40500D02*
X39900Y-40500D01*
X38500Y-14500D02*
X38900Y-14500D01*
X38900Y-14500D02*
X38900Y-14100D01*
X38900Y-14100D02*
X42100Y-14100D01*
X42100Y-14100D02*
X42100Y-14900D01*
X42100Y-14900D02*
X38900Y-14900D01*
X38900Y-14900D02*
X38900Y-14500D01*
X38900Y-14300D02*
X39100Y-14100D01*
X42500Y-14500D02*
X42100Y-14500D01*
X43500Y-30000D02*
X43100Y-30000D01*
X43100Y-30000D02*
X43100Y-30400D01*
X43100Y-30400D02*
X39900Y-30400D01*
X39900Y-30400D02*
X39900Y-29600D01*
X39900Y-29600D02*
X43100Y-29600D01*
X43100Y-29600D02*
X43100Y-30000D01*
X43100Y-30200D02*
X42900Y-30400D01*
X39500Y-30000D02*
X39900Y-30000D01*
G54D12*
X17000Y-46500D02*
X17000Y-46500D01*
X17000Y-46500D02*
X17000Y-46000D01*
X17000Y-46000D02*
X18000Y-46000D01*
X18000Y-46000D02*
X18000Y-46500D01*
X16500Y-46500D02*
X16500Y-37500D01*
X16500Y-37500D02*
X18500Y-37500D01*
X18500Y-37500D02*
X18500Y-46500D01*
X18500Y-46500D02*
X16500Y-46500D01*
X17000Y-35500D02*
X17000Y-35500D01*
X17000Y-35500D02*
X17000Y-35000D01*
X17000Y-35000D02*
X18000Y-35000D01*
X18000Y-35000D02*
X18000Y-35500D01*
X16500Y-35500D02*
X16500Y-26500D01*
X16500Y-26500D02*
X18500Y-26500D01*
X18500Y-26500D02*
X18500Y-35500D01*
X18500Y-35500D02*
X16500Y-35500D01*
X21000Y-35500D02*
X21000Y-27500D01*
X23000Y-27500D02*
X23000Y-35500D01*
X23000Y-35500D02*
X21000Y-35500D01*
X21500Y-35500D02*
X21500Y-35000D01*
X21500Y-35000D02*
X22500Y-35000D01*
X22500Y-35000D02*
X22500Y-35500D01*
X21000Y-27500D02*
X23000Y-27500D01*
X21000Y-46500D02*
X21000Y-38500D01*
X23000Y-38500D02*
X23000Y-46500D01*
X23000Y-46500D02*
X21000Y-46500D01*
X21500Y-46500D02*
X21500Y-46000D01*
X21500Y-46000D02*
X22500Y-46000D01*
X22500Y-46000D02*
X22500Y-46500D01*
X21000Y-38500D02*
X23000Y-38500D01*
G54D11*
X15740Y-13530D02*
X16040Y-13530D01*
X16040Y-13530D02*
X16040Y-13930D01*
X16040Y-13930D02*
X18440Y-13930D01*
X18440Y-13930D02*
X18440Y-13530D01*
X18440Y-13530D02*
X18740Y-13530D01*
X18440Y-13530D02*
X18440Y-13130D01*
X18440Y-13130D02*
X16040Y-13130D01*
X16040Y-13130D02*
X16040Y-13530D01*
X16240Y-13930D02*
X16240Y-13130D01*
X16340Y-13130D02*
X16340Y-13930D01*
X15780Y-12540D02*
X16080Y-12540D01*
X16080Y-12540D02*
X16080Y-12940D01*
X16080Y-12940D02*
X18480Y-12940D01*
X18480Y-12940D02*
X18480Y-12540D01*
X18480Y-12540D02*
X18780Y-12540D01*
X18480Y-12540D02*
X18480Y-12140D01*
X18480Y-12140D02*
X16080Y-12140D01*
X16080Y-12140D02*
X16080Y-12540D01*
X16280Y-12940D02*
X16280Y-12140D01*
X16380Y-12140D02*
X16380Y-12940D01*
X15800Y-11500D02*
X16100Y-11500D01*
X16100Y-11500D02*
X16100Y-11900D01*
X16100Y-11900D02*
X18500Y-11900D01*
X18500Y-11900D02*
X18500Y-11500D01*
X18500Y-11500D02*
X18800Y-11500D01*
X18500Y-11500D02*
X18500Y-11100D01*
X18500Y-11100D02*
X16100Y-11100D01*
X16100Y-11100D02*
X16100Y-11500D01*
X16300Y-11900D02*
X16300Y-11100D01*
X16400Y-11100D02*
X16400Y-11900D01*
X14900Y-14500D02*
X14900Y-14200D01*
X14900Y-14200D02*
X15300Y-14200D01*
X15300Y-14200D02*
X15300Y-11800D01*
X15300Y-11800D02*
X14900Y-11800D01*
X14900Y-11800D02*
X14900Y-11500D01*
X14900Y-11800D02*
X14500Y-11800D01*
X14500Y-11800D02*
X14500Y-14200D01*
X14500Y-14200D02*
X14900Y-14200D01*
X15300Y-14000D02*
X14500Y-14000D01*
X14500Y-13900D02*
X15300Y-13900D01*
X15800Y-14500D02*
X16100Y-14500D01*
X16100Y-14500D02*
X16100Y-14900D01*
X16100Y-14900D02*
X18500Y-14900D01*
X18500Y-14900D02*
X18500Y-14500D01*
X18500Y-14500D02*
X18800Y-14500D01*
X18500Y-14500D02*
X18500Y-14100D01*
X18500Y-14100D02*
X16100Y-14100D01*
X16100Y-14100D02*
X16100Y-14500D01*
X16300Y-14900D02*
X16300Y-14100D01*
X16400Y-14100D02*
X16400Y-14900D01*
X15800Y-15500D02*
X16100Y-15500D01*
X16100Y-15500D02*
X16100Y-15900D01*
X16100Y-15900D02*
X18500Y-15900D01*
X18500Y-15900D02*
X18500Y-15500D01*
X18500Y-15500D02*
X18800Y-15500D01*
X18500Y-15500D02*
X18500Y-15100D01*
X18500Y-15100D02*
X16100Y-15100D01*
X16100Y-15100D02*
X16100Y-15500D01*
X16300Y-15900D02*
X16300Y-15100D01*
X16400Y-15100D02*
X16400Y-15900D01*
X20600Y-26100D02*
X23400Y-26100D01*
X23400Y-26100D02*
X23400Y-26900D01*
X23400Y-26900D02*
X20600Y-26900D01*
X20600Y-26900D02*
X20600Y-26100D01*
X20600Y-26300D02*
X20800Y-26100D01*
X20610Y-46930D02*
X23410Y-46930D01*
X23410Y-46930D02*
X23410Y-47730D01*
X23410Y-47730D02*
X20610Y-47730D01*
X20610Y-47730D02*
X20610Y-46930D01*
X20610Y-47130D02*
X20810Y-46930D01*
X16140Y-46910D02*
X18940Y-46910D01*
X18940Y-46910D02*
X18940Y-47710D01*
X18940Y-47710D02*
X16140Y-47710D01*
X16140Y-47710D02*
X16140Y-46910D01*
X16140Y-47110D02*
X16340Y-46910D01*
X14200Y-14100D02*
X14200Y-16900D01*
X14200Y-16900D02*
X13400Y-16900D01*
X13400Y-16900D02*
X13400Y-14100D01*
X13400Y-14100D02*
X14200Y-14100D01*
X14000Y-14100D02*
X14200Y-14300D01*
X16100Y-25100D02*
X18900Y-25100D01*
X18900Y-25100D02*
X18900Y-25900D01*
X18900Y-25900D02*
X16100Y-25900D01*
X16100Y-25900D02*
X16100Y-25100D01*
X16100Y-25300D02*
X16300Y-25100D01*
G54D13*
X15501Y-18500D02*
G75*
G03X15501Y-18500I-1001J0D01*
G74*
G01*
X15501Y-24500D02*
G75*
G03X15501Y-24500I-1001J0D01*
G74*
G01*
G54D12*
X44000Y-12350D02*
X44000Y-12000D01*
X44000Y-12700D02*
X44000Y-13000D01*
X44000Y-12350D02*
X44400Y-12650D01*
X44400Y-12650D02*
X43650Y-12650D01*
X43650Y-12650D02*
X44000Y-12350D01*
X44400Y-12350D02*
X43650Y-12350D01*
X45200Y-11900D02*
X44750Y-11900D01*
X45200Y-13100D02*
X44750Y-13100D01*
X44750Y-14600D02*
X43300Y-14600D01*
X43300Y-14600D02*
X43300Y-10400D01*
X43300Y-10400D02*
X44750Y-10400D01*
X45200Y-14600D02*
X44750Y-14600D01*
X44750Y-14600D02*
X44750Y-10400D01*
X44750Y-10400D02*
X45200Y-10400D01*
X45200Y-12500D02*
X45200Y-10400D01*
X45200Y-12500D02*
X45200Y-14600D01*
X13200Y-14900D02*
X12750Y-14900D01*
X13200Y-16100D02*
X12750Y-16100D01*
X12750Y-17600D02*
X11300Y-17600D01*
X11300Y-17600D02*
X11300Y-13400D01*
X11300Y-13400D02*
X12750Y-13400D01*
X13200Y-17600D02*
X12750Y-17600D01*
X12750Y-17600D02*
X12750Y-13400D01*
X12750Y-13400D02*
X13200Y-13400D01*
X13200Y-15500D02*
X13200Y-13400D01*
X13200Y-15500D02*
X13200Y-17600D01*
G54D11*
X14500Y-39900D02*
X13500Y-39900D01*
X13500Y-39900D02*
X13500Y-30900D01*
X13500Y-30900D02*
X14500Y-30900D01*
X14500Y-39900D02*
X14500Y-30900D01*
X14500Y-31900D02*
X13500Y-31900D01*
G54D12*
X35250Y-28000D02*
X35250Y-25500D01*
X35250Y-25500D02*
X37750Y-25500D01*
X37750Y-25500D02*
X37750Y-28000D01*
X37750Y-28000D02*
X35250Y-28000D01*
X40250Y-28000D02*
X40250Y-25500D01*
X40250Y-25500D02*
X42750Y-25500D01*
X42750Y-25500D02*
X42750Y-28000D01*
X42750Y-28000D02*
X40250Y-28000D01*
X30250Y-38500D02*
X30250Y-36000D01*
X30250Y-36000D02*
X32750Y-36000D01*
X32750Y-36000D02*
X32750Y-38500D01*
X32750Y-38500D02*
X30250Y-38500D01*
X35250Y-38500D02*
X35250Y-36000D01*
X35250Y-36000D02*
X37750Y-36000D01*
X37750Y-36000D02*
X37750Y-38500D01*
X37750Y-38500D02*
X35250Y-38500D01*
X40250Y-38500D02*
X40250Y-36000D01*
X40250Y-36000D02*
X42750Y-36000D01*
X42750Y-36000D02*
X42750Y-38500D01*
X42750Y-38500D02*
X40250Y-38500D01*
X30250Y-28000D02*
X30250Y-25500D01*
X30250Y-25500D02*
X32750Y-25500D01*
X32750Y-25500D02*
X32750Y-28000D01*
X32750Y-28000D02*
X30250Y-28000D01*
G54D11*
X13400Y-27600D02*
X13400Y-42300D01*
X13400Y-42300D02*
X10000Y-42300D01*
X10000Y-42300D02*
X10000Y-27600D01*
X10000Y-34000D02*
X10300Y-34000D01*
X10300Y-34000D02*
X10300Y-30500D01*
X10300Y-30500D02*
X13100Y-30500D01*
X13100Y-30500D02*
X13100Y-39500D01*
X13100Y-39500D02*
X10300Y-39500D01*
X10300Y-39500D02*
X10300Y-36000D01*
X10300Y-36000D02*
X10000Y-36000D01*
X10000Y-27600D02*
X13400Y-27600D01*
X11200Y-31400D02*
X11500Y-30900D01*
X11500Y-30900D02*
X10900Y-30900D01*
X10900Y-30900D02*
X11200Y-31400D01*
G54D12*
X13300Y-20500D02*
X12850Y-20500D01*
X13300Y-21700D02*
X12850Y-21700D01*
X12850Y-23200D02*
X11400Y-23200D01*
X11400Y-23200D02*
X11400Y-19000D01*
X11400Y-19000D02*
X12850Y-19000D01*
X13300Y-23200D02*
X12850Y-23200D01*
X12850Y-23200D02*
X12850Y-19000D01*
X12850Y-19000D02*
X13300Y-19000D01*
X13300Y-21100D02*
X13300Y-19000D01*
X13300Y-21100D02*
X13300Y-23200D01*
X26730Y-16480D02*
X26730Y-18980D01*
X26730Y-18980D02*
X24230Y-18980D01*
X24230Y-18980D02*
X24230Y-16480D01*
X24230Y-16480D02*
X26730Y-16480D01*
X34250Y-16510D02*
X34250Y-19010D01*
X34250Y-19010D02*
X31750Y-19010D01*
X31750Y-19010D02*
X31750Y-16510D01*
X31750Y-16510D02*
X34250Y-16510D01*
X41770Y-16530D02*
X41770Y-19030D01*
X41770Y-19030D02*
X39270Y-19030D01*
X39270Y-19030D02*
X39270Y-16530D01*
X39270Y-16530D02*
X41770Y-16530D01*
G54D14*
X14521Y-19514D02*
X14521Y-19285D01*
X14635Y-19400D02*
X14407Y-19400D01*
X14521Y-23714D02*
X14521Y-23485D01*
X14635Y-23600D02*
X14407Y-23600D01*
G54D15*
X44015Y-14293D02*
X44015Y-14106D01*
X44128Y-14331D02*
X43734Y-14200D01*
X44128Y-14068D01*
G54D16*
M02*
