%FSLAX34Y34*%
G04 Gerber Fmt 3.4, Leading zero omitted, Abs format*
G04 (created by PCBNEW (2013-12-09 BZR 4542)-product) date Wed 22 Jan 2014 23:18:31 CST*
%MOIN*%
G01*
G70*
G90*
G04 APERTURE LIST*
%ADD10C,0.005906*%
%ADD11R,0.055000X0.055000*%
%ADD12C,0.055000*%
%ADD13C,0.060000*%
%ADD14C,0.177200*%
%ADD15R,0.098400X0.059100*%
%ADD16O,0.098400X0.059100*%
%ADD17C,0.157500*%
%ADD18C,0.098400*%
%ADD19R,0.060000X0.100000*%
%ADD20R,0.500000X0.350000*%
%ADD21C,0.215000*%
%ADD22R,0.060000X0.060000*%
%ADD23R,0.700000X0.700000*%
%ADD24R,0.300000X0.300000*%
%ADD25C,0.035000*%
%ADD26C,0.008000*%
%ADD27C,0.080000*%
%ADD28C,0.020000*%
%ADD29C,0.050000*%
%ADD30C,0.100000*%
G04 APERTURE END LIST*
G54D10*
G54D11*
X31300Y-32900D03*
G54D12*
X31300Y-31900D03*
X32300Y-31900D03*
G54D11*
X36300Y-32900D03*
G54D12*
X36300Y-31900D03*
X37300Y-31900D03*
G54D11*
X41300Y-32900D03*
G54D12*
X41300Y-31900D03*
X42300Y-31900D03*
G54D11*
X41250Y-43500D03*
G54D12*
X41250Y-42500D03*
X42250Y-42500D03*
G54D11*
X36250Y-43500D03*
G54D12*
X36250Y-42500D03*
X37250Y-42500D03*
G54D11*
X31250Y-43500D03*
G54D12*
X31250Y-42500D03*
X32250Y-42500D03*
G54D11*
X39500Y-12500D03*
G54D12*
X39500Y-11500D03*
X40500Y-11500D03*
G54D11*
X32500Y-12500D03*
G54D12*
X32500Y-11500D03*
X33500Y-11500D03*
G54D11*
X25000Y-12500D03*
G54D12*
X25000Y-11500D03*
X26000Y-11500D03*
G54D13*
X33500Y-30000D03*
X29500Y-30000D03*
X19500Y-22000D03*
X19500Y-18000D03*
X20500Y-22000D03*
X20500Y-18000D03*
X25500Y-39000D03*
X25500Y-43000D03*
X26500Y-39000D03*
X26500Y-43000D03*
X27500Y-39000D03*
X27500Y-43000D03*
X25500Y-33975D03*
X25500Y-29975D03*
X26500Y-33975D03*
X26500Y-29975D03*
X27500Y-34000D03*
X27500Y-30000D03*
X18500Y-22000D03*
X18500Y-18000D03*
X33500Y-40500D03*
X29500Y-40500D03*
X23500Y-14500D03*
X27500Y-14500D03*
X38500Y-40500D03*
X34500Y-40500D03*
X31000Y-14500D03*
X35000Y-14500D03*
X38500Y-30000D03*
X34500Y-30000D03*
X43500Y-40500D03*
X39500Y-40500D03*
X38500Y-14500D03*
X42500Y-14500D03*
X43500Y-30000D03*
X39500Y-30000D03*
G54D11*
X19000Y-45500D03*
G54D12*
X19000Y-44500D03*
X19000Y-43500D03*
X19000Y-42500D03*
X19000Y-41500D03*
X19000Y-40500D03*
X19000Y-39500D03*
X19000Y-38500D03*
X16000Y-38500D03*
X16000Y-39500D03*
X16000Y-40500D03*
X16000Y-41500D03*
X16000Y-42500D03*
X16000Y-43500D03*
X16000Y-44500D03*
X16000Y-45500D03*
G54D11*
X19000Y-34500D03*
G54D12*
X19000Y-33500D03*
X19000Y-32500D03*
X19000Y-31500D03*
X19000Y-30500D03*
X19000Y-29500D03*
X19000Y-28500D03*
X19000Y-27500D03*
X16000Y-27500D03*
X16000Y-28500D03*
X16000Y-29500D03*
X16000Y-30500D03*
X16000Y-31500D03*
X16000Y-32500D03*
X16000Y-33500D03*
X16000Y-34500D03*
G54D11*
X23500Y-34500D03*
G54D12*
X23500Y-33500D03*
X23500Y-32500D03*
X23500Y-31500D03*
X23500Y-30500D03*
X23500Y-29500D03*
X23500Y-28500D03*
X20500Y-28500D03*
X20500Y-29500D03*
X20500Y-30500D03*
X20500Y-31500D03*
X20500Y-32500D03*
X20500Y-33500D03*
X20500Y-34500D03*
G54D11*
X23500Y-45500D03*
G54D12*
X23500Y-44500D03*
X23500Y-43500D03*
X23500Y-42500D03*
X23500Y-41500D03*
X23500Y-40500D03*
X23500Y-39500D03*
X20500Y-39500D03*
X20500Y-40500D03*
X20500Y-41500D03*
X20500Y-42500D03*
X20500Y-43500D03*
X20500Y-44500D03*
X20500Y-45500D03*
G54D11*
X15740Y-13530D03*
G54D12*
X18740Y-13530D03*
G54D11*
X15780Y-12540D03*
G54D12*
X18780Y-12540D03*
G54D11*
X15800Y-11500D03*
G54D12*
X18800Y-11500D03*
G54D11*
X14900Y-14500D03*
G54D12*
X14900Y-11500D03*
G54D11*
X15800Y-14500D03*
G54D12*
X18800Y-14500D03*
G54D11*
X15800Y-15500D03*
G54D12*
X18800Y-15500D03*
X21000Y-26500D03*
X23000Y-26500D03*
X21010Y-47330D03*
X23010Y-47330D03*
X16540Y-47310D03*
X18540Y-47310D03*
X13800Y-14500D03*
X13800Y-16500D03*
X16500Y-25500D03*
X18500Y-25500D03*
G54D11*
X14500Y-19000D03*
G54D12*
X14500Y-18000D03*
G54D11*
X14500Y-24000D03*
G54D12*
X14500Y-25000D03*
G54D14*
X27900Y-22500D03*
X33950Y-31400D03*
X33950Y-32800D03*
X34000Y-42000D03*
X35500Y-22500D03*
X39000Y-31500D03*
X39000Y-32800D03*
X39000Y-42000D03*
X43000Y-22500D03*
X44000Y-31500D03*
X44000Y-32800D03*
X44000Y-42000D03*
X44000Y-43400D03*
X39000Y-43400D03*
X34000Y-43400D03*
X46000Y-26000D03*
X46000Y-36500D03*
X46000Y-15500D03*
G54D15*
X44000Y-11500D03*
G54D16*
X44000Y-13500D03*
G54D17*
X12000Y-12000D03*
X12000Y-47000D03*
X47000Y-12000D03*
X47000Y-47000D03*
G54D18*
X23400Y-18350D03*
X27350Y-18400D03*
X31000Y-18350D03*
X34850Y-18350D03*
X38700Y-18300D03*
X42350Y-18300D03*
X43500Y-26500D03*
X39000Y-26500D03*
X34000Y-26500D03*
X29500Y-26500D03*
X29500Y-37000D03*
X34000Y-37000D03*
X39000Y-37000D03*
X43500Y-37000D03*
G54D16*
X12000Y-15500D03*
X12000Y-14500D03*
X12000Y-16500D03*
G54D11*
X14000Y-31400D03*
G54D12*
X14000Y-32400D03*
X14000Y-33400D03*
X14000Y-34400D03*
X14000Y-35400D03*
X14000Y-36400D03*
X14000Y-37400D03*
X14000Y-38400D03*
X14000Y-39400D03*
G54D14*
X27000Y-45500D03*
G54D19*
X35650Y-28700D03*
X37350Y-28700D03*
G54D20*
X36500Y-26200D03*
G54D19*
X40650Y-28700D03*
X42350Y-28700D03*
G54D20*
X41500Y-26200D03*
G54D19*
X30650Y-39200D03*
X32350Y-39200D03*
G54D20*
X31500Y-36700D03*
G54D19*
X35650Y-39200D03*
X37350Y-39200D03*
G54D20*
X36500Y-36700D03*
G54D19*
X40650Y-39200D03*
X42350Y-39200D03*
G54D20*
X41500Y-36700D03*
G54D19*
X30650Y-28700D03*
X32350Y-28700D03*
G54D20*
X31500Y-26200D03*
G54D21*
X11700Y-28500D03*
X11700Y-41500D03*
G54D22*
X11200Y-32000D03*
G54D13*
X12200Y-32000D03*
X11200Y-33000D03*
X12200Y-33000D03*
X11200Y-34000D03*
X12200Y-34000D03*
X11200Y-35000D03*
X12200Y-35000D03*
X11200Y-36000D03*
X12200Y-36000D03*
X11200Y-37000D03*
X12200Y-37000D03*
X11200Y-38000D03*
X12200Y-38000D03*
G54D16*
X12100Y-21100D03*
X12100Y-20100D03*
X12100Y-22100D03*
G54D19*
X26330Y-15780D03*
X24630Y-15780D03*
G54D23*
X25480Y-19980D03*
G54D24*
X25480Y-17980D03*
G54D19*
X33850Y-15810D03*
X32150Y-15810D03*
G54D23*
X33000Y-20010D03*
G54D24*
X33000Y-18010D03*
G54D19*
X41370Y-15830D03*
X39670Y-15830D03*
G54D23*
X40520Y-20030D03*
G54D24*
X40520Y-18030D03*
G54D25*
X14600Y-41500D03*
X19954Y-37048D03*
X21590Y-43650D03*
G54D26*
X33000Y-11990D02*
X33020Y-11990D01*
G54D27*
X46000Y-26000D02*
X41700Y-26000D01*
X41700Y-26000D02*
X41500Y-26200D01*
X46000Y-36500D02*
X41700Y-36500D01*
X41700Y-36500D02*
X41500Y-36700D01*
G54D26*
X41350Y-15800D02*
X41350Y-15270D01*
X41740Y-15260D02*
X42500Y-14500D01*
X41360Y-15260D02*
X41740Y-15260D01*
X41350Y-15270D02*
X41360Y-15260D01*
G54D27*
X12200Y-37000D02*
X12404Y-37000D01*
X12404Y-37000D02*
X12900Y-37396D01*
X13030Y-33750D02*
X13030Y-37276D01*
X13030Y-37276D02*
X13050Y-37296D01*
X13050Y-37296D02*
X13050Y-37300D01*
X13050Y-37300D02*
X13050Y-37296D01*
X13030Y-33750D02*
X13030Y-33834D01*
X13030Y-33834D02*
X13004Y-33860D01*
X13050Y-37296D02*
X13156Y-37752D01*
X13030Y-30934D02*
X13030Y-33850D01*
X13156Y-37752D02*
X13156Y-45870D01*
X13750Y-30100D02*
X13030Y-30934D01*
X13156Y-45870D02*
X15576Y-48290D01*
X15576Y-48290D02*
X17560Y-48290D01*
X14000Y-30100D02*
X13750Y-30100D01*
X14400Y-30000D02*
X14000Y-30100D01*
X14000Y-30100D02*
X13930Y-30100D01*
G54D28*
X14400Y-30000D02*
X14500Y-30000D01*
G54D26*
X30650Y-28700D02*
X30650Y-29350D01*
X30100Y-29400D02*
X29500Y-30000D01*
X30600Y-29400D02*
X30100Y-29400D01*
X30650Y-29350D02*
X30600Y-29400D01*
X29500Y-30000D02*
X30400Y-30000D01*
X30400Y-30000D02*
X32300Y-31900D01*
X29500Y-40500D02*
X30250Y-40500D01*
X30250Y-40500D02*
X32250Y-42500D01*
X30159Y-39840D02*
X30650Y-39840D01*
X29500Y-40500D02*
X30159Y-39840D01*
X30650Y-39200D02*
X30650Y-39840D01*
X26840Y-15159D02*
X26350Y-15159D01*
X26350Y-15700D02*
X26350Y-15159D01*
X27500Y-14500D02*
X26840Y-15159D01*
X34500Y-30000D02*
X35400Y-30000D01*
X35400Y-30000D02*
X37300Y-31900D01*
X35159Y-29340D02*
X35650Y-29340D01*
X34500Y-30000D02*
X35159Y-29340D01*
X35650Y-28700D02*
X35650Y-29340D01*
X34500Y-40500D02*
X35250Y-40500D01*
X35250Y-40500D02*
X37250Y-42500D01*
X35159Y-39840D02*
X35650Y-39840D01*
X34500Y-40500D02*
X35159Y-39840D01*
X35650Y-39200D02*
X35650Y-39840D01*
X33850Y-15800D02*
X33850Y-15260D01*
X34230Y-15270D02*
X35000Y-14500D01*
X33860Y-15270D02*
X34230Y-15270D01*
X33850Y-15260D02*
X33860Y-15270D01*
X39500Y-30000D02*
X40400Y-30000D01*
X40400Y-30000D02*
X42300Y-31900D01*
X40650Y-28700D02*
X40650Y-29390D01*
X40120Y-29380D02*
X39500Y-30000D01*
X40640Y-29380D02*
X40120Y-29380D01*
X40650Y-29390D02*
X40640Y-29380D01*
X39500Y-40500D02*
X40250Y-40500D01*
X40250Y-40500D02*
X42250Y-42500D01*
X40159Y-39840D02*
X40650Y-39840D01*
X39500Y-40500D02*
X40159Y-39840D01*
X40650Y-39200D02*
X40650Y-39840D01*
G54D28*
X23500Y-28500D02*
X23900Y-28500D01*
X26900Y-32900D02*
X31300Y-32900D01*
X24600Y-30600D02*
X26900Y-32900D01*
X24600Y-29200D02*
X24600Y-30600D01*
X23900Y-28500D02*
X24600Y-29200D01*
X26900Y-45700D02*
X29050Y-45700D01*
X29050Y-45700D02*
X31250Y-43500D01*
G54D27*
X26900Y-45700D02*
X25270Y-47330D01*
X25270Y-47330D02*
X23010Y-47330D01*
G54D28*
X31250Y-43500D02*
X31250Y-45050D01*
X36250Y-44950D02*
X36250Y-44800D01*
X35400Y-45800D02*
X36250Y-44950D01*
X32000Y-45800D02*
X35400Y-45800D01*
X31250Y-45050D02*
X32000Y-45800D01*
X31250Y-43500D02*
X31200Y-43550D01*
X31200Y-43550D02*
X31200Y-43950D01*
X31200Y-43950D02*
X31200Y-43550D01*
G54D27*
X31200Y-43550D02*
X31250Y-43500D01*
X17560Y-48290D02*
X18540Y-47310D01*
G54D28*
X36250Y-44800D02*
X36250Y-44850D01*
X36250Y-44850D02*
X37200Y-45800D01*
X37200Y-45800D02*
X40400Y-45800D01*
X40400Y-45800D02*
X41250Y-44950D01*
X41250Y-44950D02*
X41250Y-43500D01*
X36250Y-44800D02*
X36250Y-43500D01*
X14500Y-30000D02*
X16000Y-31500D01*
G54D27*
X14500Y-30000D02*
X14500Y-25000D01*
G54D28*
X36300Y-32900D02*
X36300Y-32944D01*
X40276Y-34474D02*
X41300Y-32900D01*
X37180Y-34474D02*
X40276Y-34474D01*
X36300Y-32944D02*
X37180Y-34474D01*
X31300Y-32900D02*
X31306Y-32900D01*
X31306Y-32900D02*
X32164Y-34408D01*
X32164Y-34408D02*
X35342Y-34408D01*
X35342Y-34408D02*
X36300Y-32900D01*
G54D27*
X18540Y-47310D02*
X18688Y-47310D01*
X18688Y-47310D02*
X19690Y-48312D01*
X19690Y-48312D02*
X22028Y-48312D01*
X22028Y-48312D02*
X23010Y-47330D01*
G54D28*
X16000Y-31500D02*
X16000Y-32500D01*
G54D29*
X23500Y-28500D02*
X23500Y-27000D01*
X23500Y-27000D02*
X23000Y-26500D01*
X19000Y-26026D02*
X19712Y-26026D01*
X19712Y-26026D02*
X20218Y-25520D01*
X20218Y-25520D02*
X22020Y-25520D01*
X22020Y-25520D02*
X23000Y-26500D01*
X19000Y-27500D02*
X19000Y-26026D01*
X19000Y-26026D02*
X19000Y-26000D01*
X19000Y-26000D02*
X18500Y-25500D01*
X15680Y-24320D02*
X17320Y-24320D01*
X15000Y-25000D02*
X15680Y-24320D01*
X14500Y-25000D02*
X15000Y-25000D01*
X17320Y-24320D02*
X18500Y-25500D01*
G54D26*
X16500Y-41000D02*
X16000Y-41000D01*
X16000Y-41000D02*
X15898Y-41000D01*
X19000Y-43500D02*
X16500Y-41000D01*
X14490Y-40040D02*
X14490Y-38840D01*
X14490Y-38840D02*
X14000Y-38400D01*
X15360Y-41040D02*
X15360Y-40960D01*
X15360Y-41040D02*
X15360Y-41745D01*
X15360Y-41745D02*
X15600Y-41985D01*
X15600Y-41985D02*
X16485Y-41985D01*
X15360Y-40960D02*
X14490Y-40040D01*
X16000Y-41000D02*
X15800Y-41000D01*
X15800Y-41000D02*
X14650Y-39810D01*
X14650Y-39810D02*
X14650Y-38010D01*
X14650Y-38010D02*
X14050Y-37410D01*
X19000Y-44500D02*
X16485Y-41985D01*
X15610Y-42480D02*
X15900Y-42500D01*
X14000Y-36400D02*
X14681Y-36400D01*
X14822Y-38911D02*
X14815Y-36534D01*
X15911Y-40000D02*
X14822Y-38911D01*
X14681Y-36400D02*
X14815Y-36534D01*
X22000Y-40000D02*
X15911Y-40000D01*
X14600Y-41500D02*
X15610Y-42480D01*
X14010Y-41720D02*
X15942Y-43500D01*
G54D27*
X12200Y-34000D02*
X11200Y-34000D01*
X12954Y-33910D02*
X12200Y-34000D01*
G54D26*
X14450Y-33950D02*
X14000Y-34400D01*
X19000Y-32500D02*
X18500Y-33000D01*
X14550Y-33000D02*
X14400Y-33000D01*
X14540Y-33000D02*
X14550Y-33000D01*
X14550Y-33000D02*
X18510Y-33000D01*
X18550Y-33950D02*
X14450Y-33950D01*
X19000Y-33500D02*
X18550Y-33950D01*
X14400Y-33000D02*
X14000Y-33400D01*
X14000Y-33400D02*
X14050Y-33400D01*
G54D30*
X32350Y-39200D02*
X32350Y-39350D01*
X32350Y-39350D02*
X33500Y-40500D01*
X33500Y-40500D02*
X33500Y-41500D01*
X33450Y-30900D02*
X33950Y-31400D01*
X33500Y-41500D02*
X34000Y-42000D01*
X37350Y-39200D02*
X37350Y-39350D01*
X37350Y-39350D02*
X38500Y-40500D01*
X38500Y-40500D02*
X38500Y-41500D01*
X38500Y-31000D02*
X39000Y-31500D01*
X38500Y-41500D02*
X39000Y-42000D01*
X42350Y-39200D02*
X42350Y-39350D01*
X42350Y-39350D02*
X43500Y-40500D01*
X43500Y-40500D02*
X43500Y-41500D01*
X43500Y-31000D02*
X44000Y-31500D01*
X43500Y-41500D02*
X44000Y-42000D01*
G54D29*
X15800Y-17500D02*
X15800Y-20610D01*
X15800Y-20610D02*
X13500Y-22910D01*
X12410Y-22910D02*
X12100Y-22100D01*
X13500Y-22910D02*
X12410Y-22910D01*
X13500Y-22910D02*
X13500Y-23000D01*
X13500Y-23000D02*
X14500Y-24000D01*
X15800Y-15500D02*
X15800Y-17500D01*
X15800Y-17500D02*
X15800Y-17700D01*
X12000Y-14500D02*
X13800Y-14500D01*
X13800Y-14500D02*
X14900Y-14500D01*
X14900Y-14500D02*
X15800Y-14500D01*
X15800Y-14500D02*
X15800Y-15500D01*
G54D26*
X23500Y-14500D02*
X23500Y-14550D01*
X23500Y-14550D02*
X24650Y-15700D01*
G54D30*
X44000Y-11500D02*
X43430Y-11500D01*
X43430Y-11500D02*
X39650Y-15280D01*
X27000Y-13350D02*
X24650Y-15700D01*
X29850Y-13350D02*
X27000Y-13350D01*
X32150Y-15800D02*
X32150Y-15650D01*
X32150Y-15650D02*
X29850Y-13350D01*
X34510Y-13440D02*
X32150Y-15800D01*
X37440Y-13440D02*
X34510Y-13440D01*
X39650Y-15280D02*
X39650Y-15800D01*
X39650Y-15800D02*
X39650Y-15650D01*
X39650Y-15650D02*
X37440Y-13440D01*
G54D29*
X15800Y-11500D02*
X14900Y-11500D01*
X15800Y-11500D02*
X15800Y-12500D01*
X15800Y-12500D02*
X15800Y-13500D01*
G54D28*
X31500Y-26200D02*
X29480Y-24180D01*
X19485Y-15695D02*
X17660Y-17520D01*
X19485Y-15120D02*
X19485Y-15695D01*
X18865Y-14500D02*
X19485Y-15120D01*
X18865Y-14500D02*
X18800Y-14500D01*
X17660Y-17520D02*
X17660Y-22550D01*
X17660Y-22550D02*
X19290Y-24180D01*
X19290Y-24180D02*
X29480Y-24180D01*
G54D30*
X33500Y-30000D02*
X33450Y-30900D01*
X32350Y-28700D02*
X32350Y-28850D01*
X32350Y-28850D02*
X33500Y-30000D01*
X38500Y-30000D02*
X38500Y-31000D01*
X37350Y-28700D02*
X37350Y-28850D01*
X37350Y-28850D02*
X38500Y-30000D01*
X43500Y-30000D02*
X43500Y-31000D01*
X42350Y-28700D02*
X42350Y-28850D01*
X42350Y-28850D02*
X43500Y-30000D01*
G54D26*
X26500Y-29975D02*
X26500Y-30820D01*
X35430Y-32770D02*
X36300Y-31900D01*
X35430Y-33165D02*
X35430Y-32770D01*
X34560Y-34035D02*
X35430Y-33165D01*
X33105Y-34035D02*
X34560Y-34035D01*
X32400Y-33330D02*
X33105Y-34035D01*
X32400Y-32910D02*
X32400Y-33330D01*
X31845Y-32355D02*
X32400Y-32910D01*
X28035Y-32355D02*
X31845Y-32355D01*
X26500Y-30820D02*
X28035Y-32355D01*
X26500Y-43000D02*
X26500Y-43200D01*
X35450Y-43300D02*
X36250Y-42500D01*
X35450Y-44450D02*
X35450Y-43300D01*
X34700Y-45200D02*
X35450Y-44450D01*
X32850Y-45200D02*
X34700Y-45200D01*
X32500Y-44850D02*
X32850Y-45200D01*
X32500Y-43600D02*
X32500Y-44850D01*
X31900Y-43000D02*
X32500Y-43600D01*
X30600Y-43000D02*
X31900Y-43000D01*
X29900Y-43700D02*
X30600Y-43000D01*
X27000Y-43700D02*
X29900Y-43700D01*
X26500Y-43200D02*
X27000Y-43700D01*
X27190Y-11980D02*
X30745Y-11980D01*
X23580Y-13400D02*
X20500Y-16480D01*
X20500Y-18000D02*
X20500Y-16480D01*
X25450Y-13720D02*
X27190Y-11980D01*
X24570Y-13730D02*
X25450Y-13720D01*
X24240Y-13400D02*
X24570Y-13730D01*
X24240Y-13400D02*
X23580Y-13400D01*
X34580Y-11500D02*
X39500Y-11500D01*
X32850Y-13230D02*
X34580Y-11500D01*
X31995Y-13230D02*
X32850Y-13230D01*
X30745Y-11980D02*
X31995Y-13230D01*
X25960Y-12780D02*
X25970Y-12780D01*
X32500Y-11500D02*
X27650Y-11500D01*
X24420Y-13090D02*
X23372Y-13092D01*
X24680Y-13350D02*
X24420Y-13090D01*
X25390Y-13350D02*
X24680Y-13350D01*
X25960Y-12780D02*
X25390Y-13350D01*
X27250Y-11500D02*
X27650Y-11500D01*
X25970Y-12780D02*
X27250Y-11500D01*
X23372Y-13092D02*
X23317Y-13092D01*
X19500Y-16910D02*
X19500Y-18000D01*
X23317Y-13092D02*
X19500Y-16910D01*
X23372Y-13092D02*
X23385Y-13077D01*
X25000Y-11500D02*
X24390Y-11500D01*
X19210Y-17290D02*
X18500Y-18000D01*
X19210Y-16680D02*
X19210Y-17290D01*
X24390Y-11500D02*
X19210Y-16680D01*
X27157Y-34792D02*
X27500Y-34000D01*
X24542Y-34792D02*
X27157Y-34792D01*
X23500Y-33500D02*
X24542Y-34792D01*
X23500Y-31500D02*
X23625Y-31500D01*
X25925Y-34550D02*
X26500Y-33975D01*
X24975Y-34550D02*
X25925Y-34550D01*
X24550Y-34125D02*
X24975Y-34550D01*
X24550Y-32425D02*
X24550Y-34125D01*
X23625Y-31500D02*
X24550Y-32425D01*
X23500Y-29500D02*
X23500Y-29550D01*
X25500Y-32800D02*
X25500Y-33975D01*
X24300Y-31600D02*
X25500Y-32800D01*
X24300Y-30350D02*
X24300Y-31600D01*
X23500Y-29550D02*
X24300Y-30350D01*
X23042Y-34797D02*
X25940Y-37695D01*
X20500Y-28500D02*
X23042Y-31042D01*
X27244Y-39000D02*
X25940Y-37695D01*
X27244Y-39000D02*
X27500Y-39000D01*
X23042Y-31042D02*
X23042Y-34797D01*
X22370Y-34497D02*
X24903Y-37030D01*
X20500Y-30500D02*
X22370Y-32370D01*
X26500Y-38627D02*
X24903Y-37030D01*
X26500Y-38627D02*
X26500Y-39000D01*
X22370Y-32370D02*
X22370Y-34497D01*
X25500Y-39000D02*
X25500Y-37925D01*
X24443Y-36869D02*
X21305Y-33730D01*
X21305Y-33730D02*
X21305Y-33305D01*
X21305Y-33305D02*
X20500Y-32500D01*
X25500Y-37925D02*
X24443Y-36869D01*
X14010Y-39420D02*
X14015Y-41735D01*
X16000Y-39500D02*
X18450Y-37050D01*
X19952Y-37050D02*
X19954Y-37048D01*
X18450Y-37050D02*
X19952Y-37050D01*
X23440Y-45500D02*
X21590Y-43650D01*
X23500Y-45500D02*
X23440Y-45500D01*
X19584Y-31084D02*
X19000Y-30500D01*
X19584Y-32199D02*
X19584Y-31084D01*
X20385Y-33000D02*
X19584Y-32199D01*
X20590Y-33000D02*
X20385Y-33000D01*
X21083Y-33493D02*
X20590Y-33000D01*
X21083Y-33783D02*
X21083Y-33493D01*
X23929Y-36629D02*
X21083Y-33783D01*
X23929Y-43070D02*
X23929Y-36629D01*
X23500Y-43500D02*
X23929Y-43070D01*
X23500Y-40500D02*
X21100Y-38100D01*
X19500Y-34000D02*
X19000Y-34500D01*
X20700Y-34000D02*
X19500Y-34000D01*
X21100Y-34400D02*
X20700Y-34000D01*
X21100Y-38100D02*
X21100Y-34400D01*
X23500Y-41500D02*
X22000Y-40000D01*
G54D29*
X12100Y-21100D02*
X12400Y-21100D01*
X12400Y-21100D02*
X14500Y-19000D01*
X16000Y-34500D02*
X16000Y-34540D01*
X16000Y-34540D02*
X16960Y-35500D01*
X16960Y-35500D02*
X19500Y-35500D01*
X19500Y-35500D02*
X20500Y-34500D01*
X16000Y-45500D02*
X16020Y-45500D01*
X19620Y-46380D02*
X20500Y-45500D01*
X16900Y-46380D02*
X19620Y-46380D01*
X16020Y-45500D02*
X16900Y-46380D01*
G54D28*
X16500Y-25500D02*
X16500Y-25640D01*
M02*
