%FSLAX34Y34*%
G04 Gerber Fmt 3.4, Leading zero omitted, Abs format*
G04 (created by PCBNEW (2013-12-09 BZR 4542)-product) date Wed 22 Jan 2014 23:18:31 CST*
%MOIN*%
G01*
G70*
G90*
G04 APERTURE LIST*
%ADD10C,0.005906*%
%ADD11R,0.075000X0.075000*%
%ADD12C,0.075000*%
%ADD13C,0.080000*%
%ADD14C,0.197200*%
%ADD15R,0.118400X0.079100*%
%ADD16O,0.118400X0.079100*%
%ADD17C,0.177500*%
%ADD18C,0.118400*%
%ADD19R,0.080000X0.120000*%
%ADD20R,0.520000X0.370000*%
%ADD21C,0.235000*%
%ADD22R,0.080000X0.080000*%
%ADD23R,0.320000X0.320000*%
G04 APERTURE END LIST*
G54D10*
G54D11*
X31300Y-32900D03*
G54D12*
X31300Y-31900D03*
X32300Y-31900D03*
G54D11*
X36300Y-32900D03*
G54D12*
X36300Y-31900D03*
X37300Y-31900D03*
G54D11*
X41300Y-32900D03*
G54D12*
X41300Y-31900D03*
X42300Y-31900D03*
G54D11*
X41250Y-43500D03*
G54D12*
X41250Y-42500D03*
X42250Y-42500D03*
G54D11*
X36250Y-43500D03*
G54D12*
X36250Y-42500D03*
X37250Y-42500D03*
G54D11*
X31250Y-43500D03*
G54D12*
X31250Y-42500D03*
X32250Y-42500D03*
G54D11*
X39500Y-12500D03*
G54D12*
X39500Y-11500D03*
X40500Y-11500D03*
G54D11*
X32500Y-12500D03*
G54D12*
X32500Y-11500D03*
X33500Y-11500D03*
G54D11*
X25000Y-12500D03*
G54D12*
X25000Y-11500D03*
X26000Y-11500D03*
G54D13*
X33500Y-30000D03*
X29500Y-30000D03*
X19500Y-22000D03*
X19500Y-18000D03*
X20500Y-22000D03*
X20500Y-18000D03*
X25500Y-39000D03*
X25500Y-43000D03*
X26500Y-39000D03*
X26500Y-43000D03*
X27500Y-39000D03*
X27500Y-43000D03*
X25500Y-33975D03*
X25500Y-29975D03*
X26500Y-33975D03*
X26500Y-29975D03*
X27500Y-34000D03*
X27500Y-30000D03*
X18500Y-22000D03*
X18500Y-18000D03*
X33500Y-40500D03*
X29500Y-40500D03*
X23500Y-14500D03*
X27500Y-14500D03*
X38500Y-40500D03*
X34500Y-40500D03*
X31000Y-14500D03*
X35000Y-14500D03*
X38500Y-30000D03*
X34500Y-30000D03*
X43500Y-40500D03*
X39500Y-40500D03*
X38500Y-14500D03*
X42500Y-14500D03*
X43500Y-30000D03*
X39500Y-30000D03*
G54D11*
X19000Y-45500D03*
G54D12*
X19000Y-44500D03*
X19000Y-43500D03*
X19000Y-42500D03*
X19000Y-41500D03*
X19000Y-40500D03*
X19000Y-39500D03*
X19000Y-38500D03*
X16000Y-38500D03*
X16000Y-39500D03*
X16000Y-40500D03*
X16000Y-41500D03*
X16000Y-42500D03*
X16000Y-43500D03*
X16000Y-44500D03*
X16000Y-45500D03*
G54D11*
X19000Y-34500D03*
G54D12*
X19000Y-33500D03*
X19000Y-32500D03*
X19000Y-31500D03*
X19000Y-30500D03*
X19000Y-29500D03*
X19000Y-28500D03*
X19000Y-27500D03*
X16000Y-27500D03*
X16000Y-28500D03*
X16000Y-29500D03*
X16000Y-30500D03*
X16000Y-31500D03*
X16000Y-32500D03*
X16000Y-33500D03*
X16000Y-34500D03*
G54D11*
X23500Y-34500D03*
G54D12*
X23500Y-33500D03*
X23500Y-32500D03*
X23500Y-31500D03*
X23500Y-30500D03*
X23500Y-29500D03*
X23500Y-28500D03*
X20500Y-28500D03*
X20500Y-29500D03*
X20500Y-30500D03*
X20500Y-31500D03*
X20500Y-32500D03*
X20500Y-33500D03*
X20500Y-34500D03*
G54D11*
X23500Y-45500D03*
G54D12*
X23500Y-44500D03*
X23500Y-43500D03*
X23500Y-42500D03*
X23500Y-41500D03*
X23500Y-40500D03*
X23500Y-39500D03*
X20500Y-39500D03*
X20500Y-40500D03*
X20500Y-41500D03*
X20500Y-42500D03*
X20500Y-43500D03*
X20500Y-44500D03*
X20500Y-45500D03*
G54D11*
X15740Y-13530D03*
G54D12*
X18740Y-13530D03*
G54D11*
X15780Y-12540D03*
G54D12*
X18780Y-12540D03*
G54D11*
X15800Y-11500D03*
G54D12*
X18800Y-11500D03*
G54D11*
X14900Y-14500D03*
G54D12*
X14900Y-11500D03*
G54D11*
X15800Y-14500D03*
G54D12*
X18800Y-14500D03*
G54D11*
X15800Y-15500D03*
G54D12*
X18800Y-15500D03*
X21000Y-26500D03*
X23000Y-26500D03*
X21010Y-47330D03*
X23010Y-47330D03*
X16540Y-47310D03*
X18540Y-47310D03*
X13800Y-14500D03*
X13800Y-16500D03*
X16500Y-25500D03*
X18500Y-25500D03*
G54D11*
X14500Y-19000D03*
G54D12*
X14500Y-18000D03*
G54D11*
X14500Y-24000D03*
G54D12*
X14500Y-25000D03*
G54D14*
X27900Y-22500D03*
X33950Y-31400D03*
X33950Y-32800D03*
X34000Y-42000D03*
X35500Y-22500D03*
X39000Y-31500D03*
X39000Y-32800D03*
X39000Y-42000D03*
X43000Y-22500D03*
X44000Y-31500D03*
X44000Y-32800D03*
X44000Y-42000D03*
X44000Y-43400D03*
X39000Y-43400D03*
X34000Y-43400D03*
X46000Y-26000D03*
X46000Y-36500D03*
X46000Y-15500D03*
G54D15*
X44000Y-11500D03*
G54D16*
X44000Y-13500D03*
G54D17*
X12000Y-12000D03*
X12000Y-47000D03*
X47000Y-12000D03*
X47000Y-47000D03*
G54D18*
X23400Y-18350D03*
X27350Y-18400D03*
X31000Y-18350D03*
X34850Y-18350D03*
X38700Y-18300D03*
X42350Y-18300D03*
X43500Y-26500D03*
X39000Y-26500D03*
X34000Y-26500D03*
X29500Y-26500D03*
X29500Y-37000D03*
X34000Y-37000D03*
X39000Y-37000D03*
X43500Y-37000D03*
G54D16*
X12000Y-15500D03*
X12000Y-14500D03*
X12000Y-16500D03*
G54D11*
X14000Y-31400D03*
G54D12*
X14000Y-32400D03*
X14000Y-33400D03*
X14000Y-34400D03*
X14000Y-35400D03*
X14000Y-36400D03*
X14000Y-37400D03*
X14000Y-38400D03*
X14000Y-39400D03*
G54D14*
X27000Y-45500D03*
G54D19*
X35650Y-28700D03*
X37350Y-28700D03*
G54D20*
X36500Y-26200D03*
X36500Y-26200D03*
G54D19*
X40650Y-28700D03*
X42350Y-28700D03*
G54D20*
X41500Y-26200D03*
X41500Y-26200D03*
G54D19*
X30650Y-39200D03*
X32350Y-39200D03*
G54D20*
X31500Y-36700D03*
X31500Y-36700D03*
G54D19*
X35650Y-39200D03*
X37350Y-39200D03*
G54D20*
X36500Y-36700D03*
X36500Y-36700D03*
G54D19*
X40650Y-39200D03*
X42350Y-39200D03*
G54D20*
X41500Y-36700D03*
X41500Y-36700D03*
G54D19*
X30650Y-28700D03*
X32350Y-28700D03*
G54D20*
X31500Y-26200D03*
X31500Y-26200D03*
G54D21*
X11700Y-28500D03*
X11700Y-41500D03*
G54D22*
X11200Y-32000D03*
G54D13*
X12200Y-32000D03*
X11200Y-33000D03*
X12200Y-33000D03*
X11200Y-34000D03*
X12200Y-34000D03*
X11200Y-35000D03*
X12200Y-35000D03*
X11200Y-36000D03*
X12200Y-36000D03*
X11200Y-37000D03*
X12200Y-37000D03*
X11200Y-38000D03*
X12200Y-38000D03*
G54D16*
X12100Y-21100D03*
X12100Y-20100D03*
X12100Y-22100D03*
G54D19*
X26330Y-15780D03*
X24630Y-15780D03*
G54D23*
X25480Y-17980D03*
G54D19*
X33850Y-15810D03*
X32150Y-15810D03*
G54D23*
X33000Y-18010D03*
G54D19*
X41370Y-15830D03*
X39670Y-15830D03*
G54D23*
X40520Y-18030D03*
M02*
