%FSLAX34Y34*%
G04 Gerber Fmt 3.4, Leading zero omitted, Abs format*
G04 (created by PCBNEW (2013-12-09 BZR 4542)-product) date Wed 22 Jan 2014 23:18:31 CST*
%MOIN*%
G01*
G70*
G90*
G04 APERTURE LIST*
%ADD10C,0.005906*%
%ADD11R,0.055000X0.055000*%
%ADD12C,0.055000*%
%ADD13C,0.060000*%
%ADD14C,0.177200*%
%ADD15R,0.098400X0.059100*%
%ADD16O,0.098400X0.059100*%
%ADD17C,0.157500*%
%ADD18C,0.098400*%
%ADD19R,0.500000X0.350000*%
%ADD20C,0.215000*%
%ADD21R,0.060000X0.060000*%
%ADD22R,0.700000X0.700000*%
%ADD23C,0.035000*%
%ADD24C,0.100000*%
%ADD25C,0.080000*%
%ADD26C,0.008000*%
%ADD27C,0.050000*%
%ADD28C,0.020000*%
G04 APERTURE END LIST*
G54D10*
G54D11*
X31300Y-32900D03*
G54D12*
X31300Y-31900D03*
X32300Y-31900D03*
G54D11*
X36300Y-32900D03*
G54D12*
X36300Y-31900D03*
X37300Y-31900D03*
G54D11*
X41300Y-32900D03*
G54D12*
X41300Y-31900D03*
X42300Y-31900D03*
G54D11*
X41250Y-43500D03*
G54D12*
X41250Y-42500D03*
X42250Y-42500D03*
G54D11*
X36250Y-43500D03*
G54D12*
X36250Y-42500D03*
X37250Y-42500D03*
G54D11*
X31250Y-43500D03*
G54D12*
X31250Y-42500D03*
X32250Y-42500D03*
G54D11*
X39500Y-12500D03*
G54D12*
X39500Y-11500D03*
X40500Y-11500D03*
G54D11*
X32500Y-12500D03*
G54D12*
X32500Y-11500D03*
X33500Y-11500D03*
G54D11*
X25000Y-12500D03*
G54D12*
X25000Y-11500D03*
X26000Y-11500D03*
G54D13*
X33500Y-30000D03*
X29500Y-30000D03*
X19500Y-22000D03*
X19500Y-18000D03*
X20500Y-22000D03*
X20500Y-18000D03*
X25500Y-39000D03*
X25500Y-43000D03*
X26500Y-39000D03*
X26500Y-43000D03*
X27500Y-39000D03*
X27500Y-43000D03*
X25500Y-33975D03*
X25500Y-29975D03*
X26500Y-33975D03*
X26500Y-29975D03*
X27500Y-34000D03*
X27500Y-30000D03*
X18500Y-22000D03*
X18500Y-18000D03*
X33500Y-40500D03*
X29500Y-40500D03*
X23500Y-14500D03*
X27500Y-14500D03*
X38500Y-40500D03*
X34500Y-40500D03*
X31000Y-14500D03*
X35000Y-14500D03*
X38500Y-30000D03*
X34500Y-30000D03*
X43500Y-40500D03*
X39500Y-40500D03*
X38500Y-14500D03*
X42500Y-14500D03*
X43500Y-30000D03*
X39500Y-30000D03*
G54D11*
X19000Y-45500D03*
G54D12*
X19000Y-44500D03*
X19000Y-43500D03*
X19000Y-42500D03*
X19000Y-41500D03*
X19000Y-40500D03*
X19000Y-39500D03*
X19000Y-38500D03*
X16000Y-38500D03*
X16000Y-39500D03*
X16000Y-40500D03*
X16000Y-41500D03*
X16000Y-42500D03*
X16000Y-43500D03*
X16000Y-44500D03*
X16000Y-45500D03*
G54D11*
X19000Y-34500D03*
G54D12*
X19000Y-33500D03*
X19000Y-32500D03*
X19000Y-31500D03*
X19000Y-30500D03*
X19000Y-29500D03*
X19000Y-28500D03*
X19000Y-27500D03*
X16000Y-27500D03*
X16000Y-28500D03*
X16000Y-29500D03*
X16000Y-30500D03*
X16000Y-31500D03*
X16000Y-32500D03*
X16000Y-33500D03*
X16000Y-34500D03*
G54D11*
X23500Y-34500D03*
G54D12*
X23500Y-33500D03*
X23500Y-32500D03*
X23500Y-31500D03*
X23500Y-30500D03*
X23500Y-29500D03*
X23500Y-28500D03*
X20500Y-28500D03*
X20500Y-29500D03*
X20500Y-30500D03*
X20500Y-31500D03*
X20500Y-32500D03*
X20500Y-33500D03*
X20500Y-34500D03*
G54D11*
X23500Y-45500D03*
G54D12*
X23500Y-44500D03*
X23500Y-43500D03*
X23500Y-42500D03*
X23500Y-41500D03*
X23500Y-40500D03*
X23500Y-39500D03*
X20500Y-39500D03*
X20500Y-40500D03*
X20500Y-41500D03*
X20500Y-42500D03*
X20500Y-43500D03*
X20500Y-44500D03*
X20500Y-45500D03*
G54D11*
X15740Y-13530D03*
G54D12*
X18740Y-13530D03*
G54D11*
X15780Y-12540D03*
G54D12*
X18780Y-12540D03*
G54D11*
X15800Y-11500D03*
G54D12*
X18800Y-11500D03*
G54D11*
X14900Y-14500D03*
G54D12*
X14900Y-11500D03*
G54D11*
X15800Y-14500D03*
G54D12*
X18800Y-14500D03*
G54D11*
X15800Y-15500D03*
G54D12*
X18800Y-15500D03*
X21000Y-26500D03*
X23000Y-26500D03*
X21010Y-47330D03*
X23010Y-47330D03*
X16540Y-47310D03*
X18540Y-47310D03*
X13800Y-14500D03*
X13800Y-16500D03*
X16500Y-25500D03*
X18500Y-25500D03*
G54D11*
X14500Y-19000D03*
G54D12*
X14500Y-18000D03*
G54D11*
X14500Y-24000D03*
G54D12*
X14500Y-25000D03*
G54D14*
X27900Y-22500D03*
X33950Y-31400D03*
X33950Y-32800D03*
X34000Y-42000D03*
X35500Y-22500D03*
X39000Y-31500D03*
X39000Y-32800D03*
X39000Y-42000D03*
X43000Y-22500D03*
X44000Y-31500D03*
X44000Y-32800D03*
X44000Y-42000D03*
X44000Y-43400D03*
X39000Y-43400D03*
X34000Y-43400D03*
X46000Y-26000D03*
X46000Y-36500D03*
X46000Y-15500D03*
G54D15*
X44000Y-11500D03*
G54D16*
X44000Y-13500D03*
G54D17*
X12000Y-12000D03*
X12000Y-47000D03*
X47000Y-12000D03*
X47000Y-47000D03*
G54D18*
X23400Y-18350D03*
X27350Y-18400D03*
X31000Y-18350D03*
X34850Y-18350D03*
X38700Y-18300D03*
X42350Y-18300D03*
X43500Y-26500D03*
X39000Y-26500D03*
X34000Y-26500D03*
X29500Y-26500D03*
X29500Y-37000D03*
X34000Y-37000D03*
X39000Y-37000D03*
X43500Y-37000D03*
G54D16*
X12000Y-15500D03*
X12000Y-14500D03*
X12000Y-16500D03*
G54D11*
X14000Y-31400D03*
G54D12*
X14000Y-32400D03*
X14000Y-33400D03*
X14000Y-34400D03*
X14000Y-35400D03*
X14000Y-36400D03*
X14000Y-37400D03*
X14000Y-38400D03*
X14000Y-39400D03*
G54D14*
X27000Y-45500D03*
G54D19*
X36500Y-26200D03*
X41500Y-26200D03*
X31500Y-36700D03*
X36500Y-36700D03*
X41500Y-36700D03*
X31500Y-26200D03*
G54D20*
X11700Y-28500D03*
X11700Y-41500D03*
G54D21*
X11200Y-32000D03*
G54D13*
X12200Y-32000D03*
X11200Y-33000D03*
X12200Y-33000D03*
X11200Y-34000D03*
X12200Y-34000D03*
X11200Y-35000D03*
X12200Y-35000D03*
X11200Y-36000D03*
X12200Y-36000D03*
X11200Y-37000D03*
X12200Y-37000D03*
X11200Y-38000D03*
X12200Y-38000D03*
G54D16*
X12100Y-21100D03*
X12100Y-20100D03*
X12100Y-22100D03*
G54D22*
X25480Y-20080D03*
X33000Y-20110D03*
X40520Y-20130D03*
G54D23*
X14600Y-41500D03*
X19954Y-37048D03*
X21590Y-43650D03*
G54D24*
X46000Y-26000D02*
X41700Y-26000D01*
X41700Y-26000D02*
X41500Y-26200D01*
X46000Y-36500D02*
X41700Y-36500D01*
X41700Y-36500D02*
X41500Y-36700D01*
G54D25*
X12000Y-16500D02*
X12000Y-18256D01*
G54D26*
X11200Y-37000D02*
X11000Y-37000D01*
X11000Y-37000D02*
X10590Y-37380D01*
X10590Y-37380D02*
X10590Y-38380D01*
X10590Y-38380D02*
X11200Y-39200D01*
X11200Y-39200D02*
X13800Y-39200D01*
G54D25*
X12000Y-18256D02*
X10859Y-19397D01*
X10859Y-19397D02*
X10859Y-25130D01*
X10859Y-25130D02*
X13290Y-27211D01*
X13480Y-27371D02*
X13480Y-29910D01*
G54D26*
X26000Y-11500D02*
X26000Y-13000D01*
X26000Y-13000D02*
X27500Y-14500D01*
X33500Y-11500D02*
X33500Y-13000D01*
X33500Y-13000D02*
X35000Y-14500D01*
X40500Y-11500D02*
X40500Y-12500D01*
X40500Y-12500D02*
X42500Y-14500D01*
G54D25*
X12000Y-15500D02*
X12800Y-15500D01*
X14500Y-17200D02*
X14500Y-18000D01*
X12800Y-15500D02*
X14500Y-17200D01*
G54D26*
X11200Y-36000D02*
X11200Y-35860D01*
X11200Y-35860D02*
X11800Y-35490D01*
G54D25*
X12200Y-33000D02*
X11200Y-33000D01*
G54D27*
X10870Y-15500D02*
X12000Y-15500D01*
X10790Y-15420D02*
X10870Y-15500D01*
X10790Y-13448D02*
X10790Y-13500D01*
X10790Y-13500D02*
X10790Y-15420D01*
X10790Y-13500D02*
X13482Y-13500D01*
X13482Y-13500D02*
X13590Y-13392D01*
G54D28*
X16000Y-32500D02*
X16000Y-33500D01*
X22770Y-47090D02*
X23010Y-47330D01*
X23500Y-39500D02*
X23500Y-39590D01*
X23500Y-39590D02*
X22770Y-40320D01*
X22770Y-40320D02*
X22770Y-47090D01*
X17865Y-44820D02*
X16320Y-44820D01*
X16320Y-44820D02*
X16000Y-44500D01*
X19000Y-38500D02*
X18965Y-38500D01*
X18545Y-45500D02*
X19000Y-45500D01*
X17865Y-44820D02*
X18545Y-45500D01*
X17865Y-39600D02*
X17865Y-44820D01*
X18965Y-38500D02*
X17865Y-39600D01*
X19000Y-45500D02*
X19000Y-46850D01*
X19000Y-46850D02*
X18540Y-47310D01*
G54D25*
X14500Y-22500D02*
X14660Y-22500D01*
X13560Y-20870D02*
X13560Y-21560D01*
X13560Y-21560D02*
X14500Y-22500D01*
X14660Y-22500D02*
X15680Y-23520D01*
X15680Y-23520D02*
X15680Y-24410D01*
X15680Y-24410D02*
X15090Y-25000D01*
X15090Y-25000D02*
X14500Y-25000D01*
X14500Y-18000D02*
X14020Y-18000D01*
X14020Y-18000D02*
X13560Y-18460D01*
X13560Y-18460D02*
X13560Y-20870D01*
G54D27*
X37525Y-10525D02*
X39500Y-12500D01*
X30525Y-10525D02*
X32500Y-12500D01*
X23025Y-10525D02*
X25000Y-12500D01*
G54D25*
X13190Y-20500D02*
X13560Y-20870D01*
G54D27*
X13700Y-10520D02*
X23020Y-10520D01*
X23020Y-10520D02*
X23025Y-10525D01*
X23025Y-10525D02*
X30525Y-10525D01*
X30525Y-10525D02*
X37525Y-10525D01*
X13590Y-13392D02*
X13590Y-10520D01*
X13700Y-10520D02*
X13590Y-10520D01*
G54D26*
X12200Y-36000D02*
X13400Y-36000D01*
X11780Y-35490D02*
X12910Y-35490D01*
G54D25*
X12100Y-20100D02*
X13190Y-20500D01*
X11200Y-32000D02*
X11200Y-33000D01*
X12200Y-32000D02*
X11200Y-32000D01*
X13480Y-29910D02*
X11200Y-32000D01*
G54D26*
X12200Y-38000D02*
X13500Y-38000D01*
X13500Y-38000D02*
X14000Y-38400D01*
X11200Y-38000D02*
X11800Y-37500D01*
X11800Y-37500D02*
X14000Y-37500D01*
X11200Y-38000D02*
X11200Y-38045D01*
G54D25*
X12200Y-32000D02*
X12200Y-33000D01*
G54D26*
X13890Y-36510D02*
X14000Y-36400D01*
X10930Y-36510D02*
X13890Y-36510D01*
X10640Y-36220D02*
X10930Y-36510D01*
X10640Y-35250D02*
X10640Y-36220D01*
X10890Y-35000D02*
X10640Y-35250D01*
X14640Y-41510D02*
X14600Y-41500D01*
X14640Y-36260D02*
X14640Y-41510D01*
X13400Y-36000D02*
X14000Y-35400D01*
X14000Y-35500D02*
X14000Y-35540D01*
X14000Y-35540D02*
X14640Y-36260D01*
X12910Y-35490D02*
X14000Y-34400D01*
X11200Y-35000D02*
X10890Y-35000D01*
G54D24*
X46000Y-15500D02*
X46000Y-15500D01*
X46000Y-15500D02*
X44000Y-13500D01*
G54D28*
X31500Y-36700D02*
X26830Y-36700D01*
X18800Y-15510D02*
X16830Y-17480D01*
X18800Y-15510D02*
X18800Y-15500D01*
X16830Y-17480D02*
X16830Y-19470D01*
X16830Y-19470D02*
X17970Y-20610D01*
X17970Y-20610D02*
X21100Y-20610D01*
X21100Y-20610D02*
X21500Y-21010D01*
X21500Y-21010D02*
X21500Y-23600D01*
X21500Y-23600D02*
X24690Y-26790D01*
X24690Y-26790D02*
X24690Y-34560D01*
X24690Y-34560D02*
X26830Y-36700D01*
X18740Y-13530D02*
X18760Y-13530D01*
X25230Y-20000D02*
X25500Y-20000D01*
X18760Y-13530D02*
X25230Y-20000D01*
X33000Y-20100D02*
X33000Y-19160D01*
X22080Y-15840D02*
X18780Y-12540D01*
X29680Y-15840D02*
X22080Y-15840D01*
X33000Y-19160D02*
X29680Y-15840D01*
X40500Y-20100D02*
X40500Y-19530D01*
X36260Y-15290D02*
X22590Y-15290D01*
X40500Y-19530D02*
X36260Y-15290D01*
X22600Y-15300D02*
X22590Y-15290D01*
X22590Y-15290D02*
X18800Y-11500D01*
G54D26*
X32850Y-34291D02*
X30991Y-34291D01*
X27500Y-30800D02*
X27500Y-30000D01*
X30991Y-34291D02*
X27500Y-30800D01*
X39458Y-34291D02*
X41300Y-31900D01*
X32834Y-34291D02*
X32850Y-34291D01*
X32850Y-34291D02*
X39458Y-34291D01*
X25500Y-29975D02*
X25500Y-29640D01*
X27900Y-29450D02*
X31300Y-31900D01*
X25690Y-29450D02*
X27900Y-29450D01*
X25500Y-29640D02*
X25690Y-29450D01*
X27500Y-43000D02*
X27550Y-43000D01*
X40400Y-43350D02*
X41250Y-42500D01*
X40400Y-44600D02*
X40400Y-43350D01*
X39550Y-45450D02*
X40400Y-44600D01*
X30000Y-45450D02*
X39550Y-45450D01*
X27550Y-43000D02*
X30000Y-45450D01*
X31250Y-42500D02*
X26000Y-42500D01*
X26000Y-42500D02*
X25500Y-43000D01*
X27500Y-39000D02*
X27500Y-39450D01*
X24297Y-43702D02*
X23500Y-44500D01*
X24297Y-26797D02*
X24297Y-43702D01*
X20500Y-22999D02*
X24297Y-26797D01*
X20500Y-22000D02*
X20500Y-22999D01*
X24110Y-41889D02*
X23500Y-42500D01*
X24110Y-26865D02*
X24110Y-41889D01*
X19500Y-22254D02*
X24110Y-26865D01*
X19500Y-22000D02*
X19500Y-22254D01*
X21419Y-24919D02*
X18500Y-22000D01*
X21419Y-38580D02*
X21419Y-24919D01*
X20500Y-39500D02*
X21419Y-38580D01*
X13800Y-39200D02*
X14000Y-39400D01*
X19500Y-42000D02*
X19000Y-42500D01*
X20592Y-42000D02*
X19500Y-42000D01*
X22584Y-40007D02*
X20592Y-42000D01*
X22584Y-35830D02*
X22584Y-40007D01*
X23500Y-34915D02*
X22584Y-35830D01*
X23500Y-34500D02*
X23500Y-34915D01*
X16957Y-39542D02*
X16000Y-40500D01*
X16957Y-29949D02*
X16957Y-39542D01*
X18826Y-28079D02*
X16957Y-29949D01*
X19476Y-28079D02*
X18826Y-28079D01*
X20384Y-28987D02*
X19476Y-28079D01*
X20577Y-28987D02*
X20384Y-28987D01*
X20916Y-29326D02*
X20577Y-28987D01*
X20916Y-31083D02*
X20916Y-29326D01*
X20500Y-31500D02*
X20916Y-31083D01*
X19998Y-34002D02*
X20500Y-33500D01*
X19998Y-37004D02*
X19998Y-34002D01*
X19954Y-37048D02*
X19998Y-37004D01*
X22404Y-33595D02*
X23500Y-32500D01*
X22404Y-39188D02*
X22404Y-33595D01*
X20537Y-41055D02*
X22404Y-39188D01*
X19444Y-41055D02*
X20537Y-41055D01*
X19000Y-41500D02*
X19444Y-41055D01*
X21975Y-32024D02*
X23500Y-30500D01*
X21975Y-38628D02*
X21975Y-32024D01*
X20540Y-40063D02*
X21975Y-38628D01*
X19436Y-40063D02*
X20540Y-40063D01*
X19000Y-40500D02*
X19436Y-40063D01*
X17393Y-40106D02*
X16000Y-41500D01*
X17393Y-30500D02*
X17393Y-40106D01*
X18817Y-29077D02*
X17393Y-30500D01*
X20077Y-29077D02*
X18817Y-29077D01*
X20500Y-29500D02*
X20077Y-29077D01*
X20940Y-43000D02*
X20636Y-43000D01*
X19423Y-31923D02*
X19000Y-31500D01*
X19423Y-31923D02*
X19423Y-38665D01*
X19423Y-38665D02*
X19089Y-39000D01*
X19089Y-39000D02*
X18887Y-39000D01*
X18887Y-39000D02*
X18404Y-39482D01*
X18404Y-39482D02*
X18404Y-42496D01*
X18404Y-42496D02*
X18908Y-43000D01*
X18908Y-43000D02*
X20636Y-43000D01*
X21590Y-43650D02*
X20940Y-43000D01*
X19605Y-30105D02*
X19000Y-29500D01*
X19605Y-39486D02*
X19605Y-30105D01*
X19118Y-39973D02*
X19605Y-39486D01*
X18939Y-39973D02*
X19118Y-39973D01*
X18584Y-40327D02*
X18939Y-39973D01*
X18584Y-40678D02*
X18584Y-40327D01*
X18833Y-40927D02*
X18584Y-40678D01*
X19317Y-40927D02*
X18833Y-40927D01*
X19745Y-40500D02*
X19317Y-40927D01*
X20500Y-40500D02*
X19745Y-40500D01*
X12210Y-35010D02*
X14000Y-33400D01*
G54D27*
X14550Y-27574D02*
X16500Y-25500D01*
X14000Y-31400D02*
X14000Y-30800D01*
X14550Y-30250D02*
X14550Y-27574D01*
X14000Y-30800D02*
X14550Y-30250D01*
G54D28*
X21000Y-26500D02*
X21000Y-26535D01*
X21135Y-33865D02*
X20500Y-34500D01*
X21135Y-26670D02*
X21135Y-33865D01*
X21000Y-26535D02*
X21135Y-26670D01*
G54D27*
X16000Y-35940D02*
X16000Y-36820D01*
X16000Y-36820D02*
X15180Y-37640D01*
X15180Y-37640D02*
X15180Y-44680D01*
X15180Y-44680D02*
X16000Y-45500D01*
G54D28*
X20500Y-45500D02*
X20500Y-46820D01*
X20500Y-46820D02*
X21010Y-47330D01*
X16000Y-45500D02*
X16000Y-46770D01*
X16000Y-46770D02*
X16540Y-47310D01*
G54D27*
X16000Y-34500D02*
X16000Y-35940D01*
G54D28*
X16000Y-35940D02*
X16000Y-36000D01*
G54D27*
X14150Y-31500D02*
X14310Y-31500D01*
X15170Y-33670D02*
X16000Y-34500D01*
X15170Y-32360D02*
X15170Y-33670D01*
X14310Y-31500D02*
X15170Y-32360D01*
X14500Y-19000D02*
X14500Y-19300D01*
X16500Y-21300D02*
X16500Y-25500D01*
X14500Y-19300D02*
X16500Y-21300D01*
M02*
